%TF.GenerationSoftware,KiCad,Pcbnew,7.0.2*%
%TF.CreationDate,2023-05-08T22:29:03+02:00*%
%TF.ProjectId,verasity_PCB,76657261-7369-4747-995f-5043422e6b69,rev?*%
%TF.SameCoordinates,Original*%
%TF.FileFunction,Soldermask,Top*%
%TF.FilePolarity,Negative*%
%FSLAX46Y46*%
G04 Gerber Fmt 4.6, Leading zero omitted, Abs format (unit mm)*
G04 Created by KiCad (PCBNEW 7.0.2) date 2023-05-08 22:29:03*
%MOMM*%
%LPD*%
G01*
G04 APERTURE LIST*
%ADD10C,1.500000*%
%ADD11C,2.000000*%
%ADD12C,3.000000*%
%ADD13C,1.900000*%
%ADD14C,2.500000*%
%ADD15R,1.400000X0.800000*%
%ADD16C,4.280000*%
%ADD17O,5.000000X3.350000*%
%ADD18C,3.300000*%
%ADD19C,1.701800*%
%ADD20R,0.500000X0.500000*%
%ADD21C,3.400000*%
%ADD22C,4.000000*%
%ADD23C,3.800000*%
G04 APERTURE END LIST*
D10*
%TO.C,REF\u002A\u002A*%
X142679375Y-65734375D03*
D11*
X142779375Y-72484375D03*
D12*
X144079375Y-59934375D03*
D13*
X144379375Y-65484375D03*
D14*
X144879375Y-69284375D03*
X145479375Y-70184375D03*
D15*
X147929375Y-60059375D03*
X147929375Y-61509375D03*
D10*
X148179375Y-58484375D03*
X148179375Y-72484375D03*
X149879375Y-58484375D03*
D16*
X149879375Y-65484375D03*
D14*
X149879375Y-71384375D03*
D10*
X149879375Y-72484375D03*
D14*
X150379375Y-71384375D03*
D17*
X150519375Y-60786375D03*
D18*
X150529375Y-60784375D03*
D10*
X151579375Y-58484375D03*
X151579375Y-72484375D03*
D14*
X152479375Y-71234375D03*
D15*
X153129375Y-60059375D03*
X153129375Y-61509375D03*
D14*
X154579375Y-68584375D03*
D13*
X155379375Y-65484375D03*
D12*
X155679375Y-59934375D03*
D11*
X156979375Y-72484375D03*
D10*
X157079375Y-65734375D03*
D11*
X142779375Y-58484375D03*
X156979375Y-58484375D03*
D10*
X157079375Y-62334375D03*
X142679375Y-62334375D03*
X142679375Y-64034375D03*
X157079375Y-64034375D03*
%TD*%
%TO.C,REF\u002A\u002A*%
X80906250Y-22792500D03*
D11*
X81006250Y-29542500D03*
D12*
X82306250Y-16992500D03*
D13*
X82606250Y-22542500D03*
D14*
X83106250Y-26342500D03*
X83706250Y-27242500D03*
D15*
X86156250Y-17117500D03*
X86156250Y-18567500D03*
D10*
X86406250Y-15542500D03*
X86406250Y-29542500D03*
X88106250Y-15542500D03*
D16*
X88106250Y-22542500D03*
D14*
X88106250Y-28442500D03*
D10*
X88106250Y-29542500D03*
D14*
X88606250Y-28442500D03*
D17*
X88746250Y-17844500D03*
D18*
X88756250Y-17842500D03*
D10*
X89806250Y-15542500D03*
X89806250Y-29542500D03*
D14*
X90706250Y-28292500D03*
D15*
X91356250Y-17117500D03*
X91356250Y-18567500D03*
D14*
X92806250Y-25642500D03*
D13*
X93606250Y-22542500D03*
D12*
X93906250Y-16992500D03*
D11*
X95206250Y-29542500D03*
D10*
X95306250Y-22792500D03*
D11*
X81006250Y-15542500D03*
X95206250Y-15542500D03*
D10*
X95306250Y-19392500D03*
X80906250Y-19392500D03*
X80906250Y-21092500D03*
X95306250Y-21092500D03*
%TD*%
%TO.C,REF\u002A\u002A*%
X157900000Y-79942500D03*
D11*
X158000000Y-86692500D03*
D12*
X159300000Y-74142500D03*
D19*
X159600000Y-79692500D03*
D10*
X161350000Y-80162500D03*
D20*
X161750000Y-82842500D03*
X161750000Y-84742500D03*
D15*
X163150000Y-74267500D03*
X163150000Y-75717500D03*
D10*
X163400000Y-72692500D03*
X163400000Y-86692500D03*
X165100000Y-72692500D03*
D21*
X165100000Y-79692500D03*
D10*
X165100000Y-86692500D03*
D17*
X165740000Y-74994500D03*
D18*
X165750000Y-74992500D03*
D10*
X166800000Y-72692500D03*
X166800000Y-86692500D03*
D20*
X167650000Y-82842500D03*
X167650000Y-84742500D03*
D15*
X168350000Y-74267500D03*
X168350000Y-75717500D03*
D10*
X168910000Y-82252500D03*
D19*
X170600000Y-79692500D03*
D12*
X170900000Y-74142500D03*
D11*
X172200000Y-86692500D03*
D10*
X172300000Y-79942500D03*
D11*
X158000000Y-72692500D03*
X172200000Y-72692500D03*
D10*
X172300000Y-76542500D03*
X157900000Y-76542500D03*
X157900000Y-78242500D03*
X172300000Y-78242500D03*
%TD*%
%TO.C,REF\u002A\u002A*%
X157979375Y-51446875D03*
D11*
X158079375Y-58196875D03*
D12*
X159379375Y-45646875D03*
D19*
X159679375Y-51196875D03*
D22*
X162639375Y-56276875D03*
D15*
X163229375Y-45771875D03*
X163229375Y-47221875D03*
D10*
X163479375Y-44196875D03*
X163479375Y-58196875D03*
X165179375Y-44196875D03*
D23*
X165179375Y-51196875D03*
D10*
X165179375Y-58196875D03*
D17*
X165819375Y-46498875D03*
D18*
X165829375Y-46496875D03*
D10*
X166879375Y-44196875D03*
X166879375Y-58196875D03*
D15*
X168429375Y-45771875D03*
X168429375Y-47221875D03*
D22*
X168989375Y-53736875D03*
D19*
X170679375Y-51196875D03*
D12*
X170979375Y-45646875D03*
D11*
X172279375Y-58196875D03*
D10*
X172379375Y-51446875D03*
D11*
X158079375Y-44196875D03*
X172279375Y-44196875D03*
D10*
X172379375Y-48046875D03*
X157979375Y-48046875D03*
X157979375Y-49746875D03*
X172379375Y-49746875D03*
%TD*%
%TO.C,REF\u002A\u002A*%
X111941875Y-51446875D03*
D11*
X112041875Y-58196875D03*
D12*
X113341875Y-45646875D03*
D13*
X113641875Y-51196875D03*
D14*
X114141875Y-54996875D03*
X114741875Y-55896875D03*
D15*
X117191875Y-45771875D03*
X117191875Y-47221875D03*
D10*
X117441875Y-44196875D03*
X117441875Y-58196875D03*
X119141875Y-44196875D03*
D16*
X119141875Y-51196875D03*
D14*
X119141875Y-57096875D03*
D10*
X119141875Y-58196875D03*
D14*
X119641875Y-57096875D03*
D17*
X119781875Y-46498875D03*
D18*
X119791875Y-46496875D03*
D10*
X120841875Y-44196875D03*
X120841875Y-58196875D03*
D14*
X121741875Y-56946875D03*
D15*
X122391875Y-45771875D03*
X122391875Y-47221875D03*
D14*
X123841875Y-54296875D03*
D13*
X124641875Y-51196875D03*
D12*
X124941875Y-45646875D03*
D11*
X126241875Y-58196875D03*
D10*
X126341875Y-51446875D03*
D11*
X112041875Y-44196875D03*
X126241875Y-44196875D03*
D10*
X126341875Y-48046875D03*
X111941875Y-48046875D03*
X111941875Y-49746875D03*
X126341875Y-49746875D03*
%TD*%
%TO.C,REF\u002A\u002A*%
X157900000Y-7870000D03*
D11*
X158000000Y-14620000D03*
D12*
X159300000Y-2070000D03*
D13*
X159600000Y-7620000D03*
D14*
X160100000Y-11420000D03*
X160700000Y-12320000D03*
D15*
X163150000Y-2195000D03*
X163150000Y-3645000D03*
D10*
X163400000Y-620000D03*
X163400000Y-14620000D03*
X165100000Y-620000D03*
D16*
X165100000Y-7620000D03*
D14*
X165100000Y-13520000D03*
D10*
X165100000Y-14620000D03*
D14*
X165600000Y-13520000D03*
D17*
X165740000Y-2922000D03*
D18*
X165750000Y-2920000D03*
D10*
X166800000Y-620000D03*
X166800000Y-14620000D03*
D14*
X167700000Y-13370000D03*
D15*
X168350000Y-2195000D03*
X168350000Y-3645000D03*
D14*
X169800000Y-10720000D03*
D13*
X170600000Y-7620000D03*
D12*
X170900000Y-2070000D03*
D11*
X172200000Y-14620000D03*
D10*
X172300000Y-7870000D03*
D11*
X158000000Y-620000D03*
X172200000Y-620000D03*
D10*
X172300000Y-4470000D03*
X157900000Y-4470000D03*
X157900000Y-6170000D03*
X172300000Y-6170000D03*
%TD*%
%TO.C,REF\u002A\u002A*%
X142600000Y6417500D03*
D11*
X142700000Y-332500D03*
D12*
X144000000Y12217500D03*
D13*
X144300000Y6667500D03*
D14*
X144800000Y2867500D03*
X145400000Y1967500D03*
D15*
X147850000Y12092500D03*
X147850000Y10642500D03*
D10*
X148100000Y13667500D03*
X148100000Y-332500D03*
X149800000Y13667500D03*
D16*
X149800000Y6667500D03*
D14*
X149800000Y767500D03*
D10*
X149800000Y-332500D03*
D14*
X150300000Y767500D03*
D17*
X150440000Y11365500D03*
D18*
X150450000Y11367500D03*
D10*
X151500000Y13667500D03*
X151500000Y-332500D03*
D14*
X152400000Y917500D03*
D15*
X153050000Y12092500D03*
X153050000Y10642500D03*
D14*
X154500000Y3567500D03*
D13*
X155300000Y6667500D03*
D12*
X155600000Y12217500D03*
D11*
X156900000Y-332500D03*
D10*
X157000000Y6417500D03*
D11*
X142700000Y13667500D03*
X156900000Y13667500D03*
D10*
X157000000Y9817500D03*
X142600000Y9817500D03*
X142600000Y8117500D03*
X157000000Y8117500D03*
%TD*%
%TO.C,REF\u002A\u002A*%
X34690625Y6417500D03*
D11*
X34790625Y-332500D03*
D12*
X36090625Y12217500D03*
D19*
X36390625Y6667500D03*
D22*
X39350625Y1587500D03*
D15*
X39940625Y12092500D03*
X39940625Y10642500D03*
D10*
X40190625Y13667500D03*
X40190625Y-332500D03*
X41890625Y13667500D03*
D23*
X41890625Y6667500D03*
D10*
X41890625Y-332500D03*
D17*
X42530625Y11365500D03*
D18*
X42540625Y11367500D03*
D10*
X43590625Y13667500D03*
X43590625Y-332500D03*
D15*
X45140625Y12092500D03*
X45140625Y10642500D03*
D22*
X45700625Y4127500D03*
D19*
X47390625Y6667500D03*
D12*
X47690625Y12217500D03*
D11*
X48990625Y-332500D03*
D10*
X49090625Y6417500D03*
D11*
X34790625Y13667500D03*
X48990625Y13667500D03*
D10*
X49090625Y9817500D03*
X34690625Y9817500D03*
X34690625Y8117500D03*
X49090625Y8117500D03*
%TD*%
%TO.C,REF\u002A\u002A*%
X65726250Y-51446875D03*
D11*
X65826250Y-58196875D03*
D12*
X67126250Y-45646875D03*
D19*
X67426250Y-51196875D03*
D22*
X70386250Y-56276875D03*
D15*
X70976250Y-45771875D03*
X70976250Y-47221875D03*
D10*
X71226250Y-44196875D03*
X71226250Y-58196875D03*
X72926250Y-44196875D03*
D23*
X72926250Y-51196875D03*
D10*
X72926250Y-58196875D03*
D17*
X73566250Y-46498875D03*
D18*
X73576250Y-46496875D03*
D10*
X74626250Y-44196875D03*
X74626250Y-58196875D03*
D15*
X76176250Y-45771875D03*
X76176250Y-47221875D03*
D22*
X76736250Y-53736875D03*
D19*
X78426250Y-51196875D03*
D12*
X78726250Y-45646875D03*
D11*
X80026250Y-58196875D03*
D10*
X80126250Y-51446875D03*
D11*
X65826250Y-44196875D03*
X80026250Y-44196875D03*
D10*
X80126250Y-48046875D03*
X65726250Y-48046875D03*
X65726250Y-49746875D03*
X80126250Y-49746875D03*
%TD*%
%TO.C,REF\u002A\u002A*%
X80985625Y-65734375D03*
D11*
X81085625Y-72484375D03*
D12*
X82385625Y-59934375D03*
D13*
X82685625Y-65484375D03*
D14*
X83185625Y-69284375D03*
X83785625Y-70184375D03*
D15*
X86235625Y-60059375D03*
X86235625Y-61509375D03*
D10*
X86485625Y-58484375D03*
X86485625Y-72484375D03*
X88185625Y-58484375D03*
D16*
X88185625Y-65484375D03*
D14*
X88185625Y-71384375D03*
D10*
X88185625Y-72484375D03*
D14*
X88685625Y-71384375D03*
D17*
X88825625Y-60786375D03*
D18*
X88835625Y-60784375D03*
D10*
X89885625Y-58484375D03*
X89885625Y-72484375D03*
D14*
X90785625Y-71234375D03*
D15*
X91435625Y-60059375D03*
X91435625Y-61509375D03*
D14*
X92885625Y-68584375D03*
D13*
X93685625Y-65484375D03*
D12*
X93985625Y-59934375D03*
D11*
X95285625Y-72484375D03*
D10*
X95385625Y-65734375D03*
D11*
X81085625Y-58484375D03*
X95285625Y-58484375D03*
D10*
X95385625Y-62334375D03*
X80985625Y-62334375D03*
X80985625Y-64034375D03*
X95385625Y-64034375D03*
%TD*%
%TO.C,REF\u002A\u002A*%
X65250000Y-94230000D03*
D11*
X65350000Y-100980000D03*
D12*
X66650000Y-88430000D03*
D19*
X66950000Y-93980000D03*
D22*
X69910000Y-99060000D03*
D15*
X70500000Y-88555000D03*
X70500000Y-90005000D03*
D10*
X70750000Y-86980000D03*
X70750000Y-100980000D03*
X72450000Y-86980000D03*
D23*
X72450000Y-93980000D03*
D10*
X72450000Y-100980000D03*
D17*
X73090000Y-89282000D03*
D18*
X73100000Y-89280000D03*
D10*
X74150000Y-86980000D03*
X74150000Y-100980000D03*
D15*
X75700000Y-88555000D03*
X75700000Y-90005000D03*
D22*
X76260000Y-96520000D03*
D19*
X77950000Y-93980000D03*
D12*
X78250000Y-88430000D03*
D11*
X79550000Y-100980000D03*
D10*
X79650000Y-94230000D03*
D11*
X65350000Y-86980000D03*
X79550000Y-86980000D03*
D10*
X79650000Y-90830000D03*
X65250000Y-90830000D03*
X65250000Y-92530000D03*
X79650000Y-92530000D03*
%TD*%
%TO.C,REF\u002A\u002A*%
X96603125Y6417500D03*
D11*
X96703125Y-332500D03*
D12*
X98003125Y12217500D03*
D19*
X98303125Y6667500D03*
D22*
X101263125Y1587500D03*
D15*
X101853125Y12092500D03*
X101853125Y10642500D03*
D10*
X102103125Y13667500D03*
X102103125Y-332500D03*
X103803125Y13667500D03*
D23*
X103803125Y6667500D03*
D10*
X103803125Y-332500D03*
D17*
X104443125Y11365500D03*
D18*
X104453125Y11367500D03*
D10*
X105503125Y13667500D03*
X105503125Y-332500D03*
D15*
X107053125Y12092500D03*
X107053125Y10642500D03*
D22*
X107613125Y4127500D03*
D19*
X109303125Y6667500D03*
D12*
X109603125Y12217500D03*
D11*
X110903125Y-332500D03*
D10*
X111003125Y6417500D03*
D11*
X96703125Y13667500D03*
X110903125Y13667500D03*
D10*
X111003125Y9817500D03*
X96603125Y9817500D03*
X96603125Y8117500D03*
X111003125Y8117500D03*
%TD*%
%TO.C,REF\u002A\u002A*%
X49870625Y20784375D03*
D11*
X49970625Y14034375D03*
D12*
X51270625Y26584375D03*
D13*
X51570625Y21034375D03*
D14*
X52070625Y17234375D03*
X52670625Y16334375D03*
D15*
X55120625Y26459375D03*
X55120625Y25009375D03*
D10*
X55370625Y28034375D03*
X55370625Y14034375D03*
X57070625Y28034375D03*
D16*
X57070625Y21034375D03*
D14*
X57070625Y15134375D03*
D10*
X57070625Y14034375D03*
D14*
X57570625Y15134375D03*
D17*
X57710625Y25732375D03*
D18*
X57720625Y25734375D03*
D10*
X58770625Y28034375D03*
X58770625Y14034375D03*
D14*
X59670625Y15284375D03*
D15*
X60320625Y26459375D03*
X60320625Y25009375D03*
D14*
X61770625Y17934375D03*
D13*
X62570625Y21034375D03*
D12*
X62870625Y26584375D03*
D11*
X64170625Y14034375D03*
D10*
X64270625Y20784375D03*
D11*
X49970625Y28034375D03*
X64170625Y28034375D03*
D10*
X64270625Y24184375D03*
X49870625Y24184375D03*
X49870625Y22484375D03*
X64270625Y22484375D03*
%TD*%
%TO.C,REF\u002A\u002A*%
X157979375Y-65734375D03*
D11*
X158079375Y-72484375D03*
D12*
X159379375Y-59934375D03*
D13*
X159679375Y-65484375D03*
D14*
X160179375Y-69284375D03*
X160779375Y-70184375D03*
D15*
X163229375Y-60059375D03*
X163229375Y-61509375D03*
D10*
X163479375Y-58484375D03*
X163479375Y-72484375D03*
X165179375Y-58484375D03*
D16*
X165179375Y-65484375D03*
D14*
X165179375Y-71384375D03*
D10*
X165179375Y-72484375D03*
D14*
X165679375Y-71384375D03*
D17*
X165819375Y-60786375D03*
D18*
X165829375Y-60784375D03*
D10*
X166879375Y-58484375D03*
X166879375Y-72484375D03*
D14*
X167779375Y-71234375D03*
D15*
X168429375Y-60059375D03*
X168429375Y-61509375D03*
D14*
X169879375Y-68584375D03*
D13*
X170679375Y-65484375D03*
D12*
X170979375Y-59934375D03*
D11*
X172279375Y-72484375D03*
D10*
X172379375Y-65734375D03*
D11*
X158079375Y-58484375D03*
X172279375Y-58484375D03*
D10*
X172379375Y-62334375D03*
X157979375Y-62334375D03*
X157979375Y-64034375D03*
X172379375Y-64034375D03*
%TD*%
%TO.C,REF\u002A\u002A*%
X34611250Y20784375D03*
D11*
X34711250Y14034375D03*
D12*
X36011250Y26584375D03*
D19*
X36311250Y21034375D03*
D22*
X39271250Y15954375D03*
D15*
X39861250Y26459375D03*
X39861250Y25009375D03*
D10*
X40111250Y28034375D03*
X40111250Y14034375D03*
X41811250Y28034375D03*
D23*
X41811250Y21034375D03*
D10*
X41811250Y14034375D03*
D17*
X42451250Y25732375D03*
D18*
X42461250Y25734375D03*
D10*
X43511250Y28034375D03*
X43511250Y14034375D03*
D15*
X45061250Y26459375D03*
X45061250Y25009375D03*
D22*
X45621250Y18494375D03*
D19*
X47311250Y21034375D03*
D12*
X47611250Y26584375D03*
D11*
X48911250Y14034375D03*
D10*
X49011250Y20784375D03*
D11*
X34711250Y28034375D03*
X48911250Y28034375D03*
D10*
X49011250Y24184375D03*
X34611250Y24184375D03*
X34611250Y22484375D03*
X49011250Y22484375D03*
%TD*%
%TO.C,REF\u002A\u002A*%
X65646875Y-7870000D03*
D11*
X65746875Y-14620000D03*
D12*
X67046875Y-2070000D03*
D19*
X67346875Y-7620000D03*
D22*
X70306875Y-12700000D03*
D15*
X70896875Y-2195000D03*
X70896875Y-3645000D03*
D10*
X71146875Y-620000D03*
X71146875Y-14620000D03*
X72846875Y-620000D03*
D23*
X72846875Y-7620000D03*
D10*
X72846875Y-14620000D03*
D17*
X73486875Y-2922000D03*
D18*
X73496875Y-2920000D03*
D10*
X74546875Y-620000D03*
X74546875Y-14620000D03*
D15*
X76096875Y-2195000D03*
X76096875Y-3645000D03*
D22*
X76656875Y-10160000D03*
D19*
X78346875Y-7620000D03*
D12*
X78646875Y-2070000D03*
D11*
X79946875Y-14620000D03*
D10*
X80046875Y-7870000D03*
D11*
X65746875Y-620000D03*
X79946875Y-620000D03*
D10*
X80046875Y-4470000D03*
X65646875Y-4470000D03*
X65646875Y-6170000D03*
X80046875Y-6170000D03*
%TD*%
%TO.C,REF\u002A\u002A*%
X142203125Y-94230000D03*
D11*
X142303125Y-100980000D03*
D12*
X143603125Y-88430000D03*
D13*
X143903125Y-93980000D03*
D14*
X144403125Y-97780000D03*
X145003125Y-98680000D03*
D15*
X147453125Y-88555000D03*
X147453125Y-90005000D03*
D10*
X147703125Y-86980000D03*
X147703125Y-100980000D03*
X149403125Y-86980000D03*
D16*
X149403125Y-93980000D03*
D14*
X149403125Y-99880000D03*
D10*
X149403125Y-100980000D03*
D14*
X149903125Y-99880000D03*
D17*
X150043125Y-89282000D03*
D18*
X150053125Y-89280000D03*
D10*
X151103125Y-86980000D03*
X151103125Y-100980000D03*
D14*
X152003125Y-99730000D03*
D15*
X152653125Y-88555000D03*
X152653125Y-90005000D03*
D14*
X154103125Y-97080000D03*
D13*
X154903125Y-93980000D03*
D12*
X155203125Y-88430000D03*
D11*
X156503125Y-100980000D03*
D10*
X156603125Y-94230000D03*
D11*
X142303125Y-86980000D03*
X156503125Y-86980000D03*
D10*
X156603125Y-90830000D03*
X142203125Y-90830000D03*
X142203125Y-92530000D03*
X156603125Y-92530000D03*
%TD*%
%TO.C,REF\u002A\u002A*%
X34770000Y-51446875D03*
D11*
X34870000Y-58196875D03*
D12*
X36170000Y-45646875D03*
D19*
X36470000Y-51196875D03*
D22*
X39430000Y-56276875D03*
D15*
X40020000Y-45771875D03*
X40020000Y-47221875D03*
D10*
X40270000Y-44196875D03*
X40270000Y-58196875D03*
X41970000Y-44196875D03*
D23*
X41970000Y-51196875D03*
D10*
X41970000Y-58196875D03*
D17*
X42610000Y-46498875D03*
D18*
X42620000Y-46496875D03*
D10*
X43670000Y-44196875D03*
X43670000Y-58196875D03*
D15*
X45220000Y-45771875D03*
X45220000Y-47221875D03*
D22*
X45780000Y-53736875D03*
D19*
X47470000Y-51196875D03*
D12*
X47770000Y-45646875D03*
D11*
X49070000Y-58196875D03*
D10*
X49170000Y-51446875D03*
D11*
X34870000Y-44196875D03*
X49070000Y-44196875D03*
D10*
X49170000Y-48046875D03*
X34770000Y-48046875D03*
X34770000Y-49746875D03*
X49170000Y-49746875D03*
%TD*%
%TO.C,REF\u002A\u002A*%
X80826875Y20784375D03*
D11*
X80926875Y14034375D03*
D12*
X82226875Y26584375D03*
D13*
X82526875Y21034375D03*
D14*
X83026875Y17234375D03*
X83626875Y16334375D03*
D15*
X86076875Y26459375D03*
X86076875Y25009375D03*
D10*
X86326875Y28034375D03*
X86326875Y14034375D03*
X88026875Y28034375D03*
D16*
X88026875Y21034375D03*
D14*
X88026875Y15134375D03*
D10*
X88026875Y14034375D03*
D14*
X88526875Y15134375D03*
D17*
X88666875Y25732375D03*
D18*
X88676875Y25734375D03*
D10*
X89726875Y28034375D03*
X89726875Y14034375D03*
D14*
X90626875Y15284375D03*
D15*
X91276875Y26459375D03*
X91276875Y25009375D03*
D14*
X92726875Y17934375D03*
D13*
X93526875Y21034375D03*
D12*
X93826875Y26584375D03*
D11*
X95126875Y14034375D03*
D10*
X95226875Y20784375D03*
D11*
X80926875Y28034375D03*
X95126875Y28034375D03*
D10*
X95226875Y24184375D03*
X80826875Y24184375D03*
X80826875Y22484375D03*
X95226875Y22484375D03*
%TD*%
%TO.C,REF\u002A\u002A*%
X142520625Y35071875D03*
D11*
X142620625Y28321875D03*
D12*
X143920625Y40871875D03*
D13*
X144220625Y35321875D03*
D14*
X144720625Y31521875D03*
X145320625Y30621875D03*
D15*
X147770625Y40746875D03*
X147770625Y39296875D03*
D10*
X148020625Y42321875D03*
X148020625Y28321875D03*
X149720625Y42321875D03*
D16*
X149720625Y35321875D03*
D14*
X149720625Y29421875D03*
D10*
X149720625Y28321875D03*
D14*
X150220625Y29421875D03*
D17*
X150360625Y40019875D03*
D18*
X150370625Y40021875D03*
D10*
X151420625Y42321875D03*
X151420625Y28321875D03*
D14*
X152320625Y29571875D03*
D15*
X152970625Y40746875D03*
X152970625Y39296875D03*
D14*
X154420625Y32221875D03*
D13*
X155220625Y35321875D03*
D12*
X155520625Y40871875D03*
D11*
X156820625Y28321875D03*
D10*
X156920625Y35071875D03*
D11*
X142620625Y42321875D03*
X156820625Y42321875D03*
D10*
X156920625Y38471875D03*
X142520625Y38471875D03*
X142520625Y36771875D03*
X156920625Y36771875D03*
%TD*%
%TO.C,REF\u002A\u002A*%
X80985625Y-51446875D03*
D11*
X81085625Y-58196875D03*
D12*
X82385625Y-45646875D03*
D13*
X82685625Y-51196875D03*
D14*
X83185625Y-54996875D03*
X83785625Y-55896875D03*
D15*
X86235625Y-45771875D03*
X86235625Y-47221875D03*
D10*
X86485625Y-44196875D03*
X86485625Y-58196875D03*
X88185625Y-44196875D03*
D16*
X88185625Y-51196875D03*
D14*
X88185625Y-57096875D03*
D10*
X88185625Y-58196875D03*
D14*
X88685625Y-57096875D03*
D17*
X88825625Y-46498875D03*
D18*
X88835625Y-46496875D03*
D10*
X89885625Y-44196875D03*
X89885625Y-58196875D03*
D14*
X90785625Y-56946875D03*
D15*
X91435625Y-45771875D03*
X91435625Y-47221875D03*
D14*
X92885625Y-54296875D03*
D13*
X93685625Y-51196875D03*
D12*
X93985625Y-45646875D03*
D11*
X95285625Y-58196875D03*
D10*
X95385625Y-51446875D03*
D11*
X81085625Y-44196875D03*
X95285625Y-44196875D03*
D10*
X95385625Y-48046875D03*
X80985625Y-48046875D03*
X80985625Y-49746875D03*
X95385625Y-49746875D03*
%TD*%
%TO.C,REF\u002A\u002A*%
X96206250Y-79942500D03*
D11*
X96306250Y-86692500D03*
D12*
X97606250Y-74142500D03*
D19*
X97906250Y-79692500D03*
D22*
X100866250Y-84772500D03*
D15*
X101456250Y-74267500D03*
X101456250Y-75717500D03*
D10*
X101706250Y-72692500D03*
X101706250Y-86692500D03*
X103406250Y-72692500D03*
D23*
X103406250Y-79692500D03*
D10*
X103406250Y-86692500D03*
D17*
X104046250Y-74994500D03*
D18*
X104056250Y-74992500D03*
D10*
X105106250Y-72692500D03*
X105106250Y-86692500D03*
D15*
X106656250Y-74267500D03*
X106656250Y-75717500D03*
D22*
X107216250Y-82232500D03*
D19*
X108906250Y-79692500D03*
D12*
X109206250Y-74142500D03*
D11*
X110506250Y-86692500D03*
D10*
X110606250Y-79942500D03*
D11*
X96306250Y-72692500D03*
X110506250Y-72692500D03*
D10*
X110606250Y-76542500D03*
X96206250Y-76542500D03*
X96206250Y-78242500D03*
X110606250Y-78242500D03*
%TD*%
%TO.C,REF\u002A\u002A*%
X127261250Y35071875D03*
D11*
X127361250Y28321875D03*
D12*
X128661250Y40871875D03*
D19*
X128961250Y35321875D03*
D22*
X131921250Y30241875D03*
D15*
X132511250Y40746875D03*
X132511250Y39296875D03*
D10*
X132761250Y42321875D03*
X132761250Y28321875D03*
X134461250Y42321875D03*
D23*
X134461250Y35321875D03*
D10*
X134461250Y28321875D03*
D17*
X135101250Y40019875D03*
D18*
X135111250Y40021875D03*
D10*
X136161250Y42321875D03*
X136161250Y28321875D03*
D15*
X137711250Y40746875D03*
X137711250Y39296875D03*
D22*
X138271250Y32781875D03*
D19*
X139961250Y35321875D03*
D12*
X140261250Y40871875D03*
D11*
X141561250Y28321875D03*
D10*
X141661250Y35071875D03*
D11*
X127361250Y42321875D03*
X141561250Y42321875D03*
D10*
X141661250Y38471875D03*
X127261250Y38471875D03*
X127261250Y36771875D03*
X141661250Y36771875D03*
%TD*%
%TO.C,REF\u002A\u002A*%
X80826875Y35071875D03*
D11*
X80926875Y28321875D03*
D12*
X82226875Y40871875D03*
D13*
X82526875Y35321875D03*
D14*
X83026875Y31521875D03*
X83626875Y30621875D03*
D15*
X86076875Y40746875D03*
X86076875Y39296875D03*
D10*
X86326875Y42321875D03*
X86326875Y28321875D03*
X88026875Y42321875D03*
D16*
X88026875Y35321875D03*
D14*
X88026875Y29421875D03*
D10*
X88026875Y28321875D03*
D14*
X88526875Y29421875D03*
D17*
X88666875Y40019875D03*
D18*
X88676875Y40021875D03*
D10*
X89726875Y42321875D03*
X89726875Y28321875D03*
D14*
X90626875Y29571875D03*
D15*
X91276875Y40746875D03*
X91276875Y39296875D03*
D14*
X92726875Y32221875D03*
D13*
X93526875Y35321875D03*
D12*
X93826875Y40871875D03*
D11*
X95126875Y28321875D03*
D10*
X95226875Y35071875D03*
D11*
X80926875Y42321875D03*
X95126875Y42321875D03*
D10*
X95226875Y38471875D03*
X80826875Y38471875D03*
X80826875Y36771875D03*
X95226875Y36771875D03*
%TD*%
%TO.C,REF\u002A\u002A*%
X157820625Y35071875D03*
D11*
X157920625Y28321875D03*
D12*
X159220625Y40871875D03*
D19*
X159520625Y35321875D03*
D22*
X162480625Y30241875D03*
D15*
X163070625Y40746875D03*
X163070625Y39296875D03*
D10*
X163320625Y42321875D03*
X163320625Y28321875D03*
X165020625Y42321875D03*
D23*
X165020625Y35321875D03*
D10*
X165020625Y28321875D03*
D17*
X165660625Y40019875D03*
D18*
X165670625Y40021875D03*
D10*
X166720625Y42321875D03*
X166720625Y28321875D03*
D15*
X168270625Y40746875D03*
X168270625Y39296875D03*
D22*
X168830625Y32781875D03*
D19*
X170520625Y35321875D03*
D12*
X170820625Y40871875D03*
D11*
X172120625Y28321875D03*
D10*
X172220625Y35071875D03*
D11*
X157920625Y42321875D03*
X172120625Y42321875D03*
D10*
X172220625Y38471875D03*
X157820625Y38471875D03*
X157820625Y36771875D03*
X172220625Y36771875D03*
%TD*%
%TO.C,REF\u002A\u002A*%
X65567500Y35071875D03*
D11*
X65667500Y28321875D03*
D12*
X66967500Y40871875D03*
D19*
X67267500Y35321875D03*
D22*
X70227500Y30241875D03*
D15*
X70817500Y40746875D03*
X70817500Y39296875D03*
D10*
X71067500Y42321875D03*
X71067500Y28321875D03*
X72767500Y42321875D03*
D23*
X72767500Y35321875D03*
D10*
X72767500Y28321875D03*
D17*
X73407500Y40019875D03*
D18*
X73417500Y40021875D03*
D10*
X74467500Y42321875D03*
X74467500Y28321875D03*
D15*
X76017500Y40746875D03*
X76017500Y39296875D03*
D22*
X76577500Y32781875D03*
D19*
X78267500Y35321875D03*
D12*
X78567500Y40871875D03*
D11*
X79867500Y28321875D03*
D10*
X79967500Y35071875D03*
D11*
X65667500Y42321875D03*
X79867500Y42321875D03*
D10*
X79967500Y38471875D03*
X65567500Y38471875D03*
X65567500Y36771875D03*
X79967500Y36771875D03*
%TD*%
%TO.C,REF\u002A\u002A*%
X127420000Y-51446875D03*
D11*
X127520000Y-58196875D03*
D12*
X128820000Y-45646875D03*
D19*
X129120000Y-51196875D03*
D22*
X132080000Y-56276875D03*
D15*
X132670000Y-45771875D03*
X132670000Y-47221875D03*
D10*
X132920000Y-44196875D03*
X132920000Y-58196875D03*
X134620000Y-44196875D03*
D23*
X134620000Y-51196875D03*
D10*
X134620000Y-58196875D03*
D17*
X135260000Y-46498875D03*
D18*
X135270000Y-46496875D03*
D10*
X136320000Y-44196875D03*
X136320000Y-58196875D03*
D15*
X137870000Y-45771875D03*
X137870000Y-47221875D03*
D22*
X138430000Y-53736875D03*
D19*
X140120000Y-51196875D03*
D12*
X140420000Y-45646875D03*
D11*
X141720000Y-58196875D03*
D10*
X141820000Y-51446875D03*
D11*
X127520000Y-44196875D03*
X141720000Y-44196875D03*
D10*
X141820000Y-48046875D03*
X127420000Y-48046875D03*
X127420000Y-49746875D03*
X141820000Y-49746875D03*
%TD*%
%TO.C,REF\u002A\u002A*%
X96682500Y-65734375D03*
D11*
X96782500Y-72484375D03*
D12*
X98082500Y-59934375D03*
D19*
X98382500Y-65484375D03*
D22*
X101342500Y-70564375D03*
D15*
X101932500Y-60059375D03*
X101932500Y-61509375D03*
D10*
X102182500Y-58484375D03*
X102182500Y-72484375D03*
X103882500Y-58484375D03*
D23*
X103882500Y-65484375D03*
D10*
X103882500Y-72484375D03*
D17*
X104522500Y-60786375D03*
D18*
X104532500Y-60784375D03*
D10*
X105582500Y-58484375D03*
X105582500Y-72484375D03*
D15*
X107132500Y-60059375D03*
X107132500Y-61509375D03*
D22*
X107692500Y-68024375D03*
D19*
X109382500Y-65484375D03*
D12*
X109682500Y-59934375D03*
D11*
X110982500Y-72484375D03*
D10*
X111082500Y-65734375D03*
D11*
X96782500Y-58484375D03*
X110982500Y-58484375D03*
D10*
X111082500Y-62334375D03*
X96682500Y-62334375D03*
X96682500Y-64034375D03*
X111082500Y-64034375D03*
%TD*%
%TO.C,REF\u002A\u002A*%
X111862500Y-22792500D03*
D11*
X111962500Y-29542500D03*
D12*
X113262500Y-16992500D03*
D13*
X113562500Y-22542500D03*
D14*
X114062500Y-26342500D03*
X114662500Y-27242500D03*
D15*
X117112500Y-17117500D03*
X117112500Y-18567500D03*
D10*
X117362500Y-15542500D03*
X117362500Y-29542500D03*
X119062500Y-15542500D03*
D16*
X119062500Y-22542500D03*
D14*
X119062500Y-28442500D03*
D10*
X119062500Y-29542500D03*
D14*
X119562500Y-28442500D03*
D17*
X119702500Y-17844500D03*
D18*
X119712500Y-17842500D03*
D10*
X120762500Y-15542500D03*
X120762500Y-29542500D03*
D14*
X121662500Y-28292500D03*
D15*
X122312500Y-17117500D03*
X122312500Y-18567500D03*
D14*
X123762500Y-25642500D03*
D13*
X124562500Y-22542500D03*
D12*
X124862500Y-16992500D03*
D11*
X126162500Y-29542500D03*
D10*
X126262500Y-22792500D03*
D11*
X111962500Y-15542500D03*
X126162500Y-15542500D03*
D10*
X126262500Y-19392500D03*
X111862500Y-19392500D03*
X111862500Y-21092500D03*
X126262500Y-21092500D03*
%TD*%
%TO.C,REF\u002A\u002A*%
X157820625Y20784375D03*
D11*
X157920625Y14034375D03*
D12*
X159220625Y26584375D03*
D13*
X159520625Y21034375D03*
D14*
X160020625Y17234375D03*
X160620625Y16334375D03*
D15*
X163070625Y26459375D03*
X163070625Y25009375D03*
D10*
X163320625Y28034375D03*
X163320625Y14034375D03*
X165020625Y28034375D03*
D16*
X165020625Y21034375D03*
D14*
X165020625Y15134375D03*
D10*
X165020625Y14034375D03*
D14*
X165520625Y15134375D03*
D17*
X165660625Y25732375D03*
D18*
X165670625Y25734375D03*
D10*
X166720625Y28034375D03*
X166720625Y14034375D03*
D14*
X167620625Y15284375D03*
D15*
X168270625Y26459375D03*
X168270625Y25009375D03*
D14*
X169720625Y17934375D03*
D13*
X170520625Y21034375D03*
D12*
X170820625Y26584375D03*
D11*
X172120625Y14034375D03*
D10*
X172220625Y20784375D03*
D11*
X157920625Y28034375D03*
X172120625Y28034375D03*
D10*
X172220625Y24184375D03*
X157820625Y24184375D03*
X157820625Y22484375D03*
X172220625Y22484375D03*
%TD*%
%TO.C,REF\u002A\u002A*%
X111783125Y20784375D03*
D11*
X111883125Y14034375D03*
D12*
X113183125Y26584375D03*
D13*
X113483125Y21034375D03*
D14*
X113983125Y17234375D03*
X114583125Y16334375D03*
D15*
X117033125Y26459375D03*
X117033125Y25009375D03*
D10*
X117283125Y28034375D03*
X117283125Y14034375D03*
X118983125Y28034375D03*
D16*
X118983125Y21034375D03*
D14*
X118983125Y15134375D03*
D10*
X118983125Y14034375D03*
D14*
X119483125Y15134375D03*
D17*
X119623125Y25732375D03*
D18*
X119633125Y25734375D03*
D10*
X120683125Y28034375D03*
X120683125Y14034375D03*
D14*
X121583125Y15284375D03*
D15*
X122233125Y26459375D03*
X122233125Y25009375D03*
D14*
X123683125Y17934375D03*
D13*
X124483125Y21034375D03*
D12*
X124783125Y26584375D03*
D11*
X126083125Y14034375D03*
D10*
X126183125Y20784375D03*
D11*
X111883125Y28034375D03*
X126083125Y28034375D03*
D10*
X126183125Y24184375D03*
X111783125Y24184375D03*
X111783125Y22484375D03*
X126183125Y22484375D03*
%TD*%
%TO.C,REF\u002A\u002A*%
X157900000Y6417500D03*
D11*
X158000000Y-332500D03*
D12*
X159300000Y12217500D03*
D19*
X159600000Y6667500D03*
D22*
X162560000Y1587500D03*
D15*
X163150000Y12092500D03*
X163150000Y10642500D03*
D10*
X163400000Y13667500D03*
X163400000Y-332500D03*
X165100000Y13667500D03*
D23*
X165100000Y6667500D03*
D10*
X165100000Y-332500D03*
D17*
X165740000Y11365500D03*
D18*
X165750000Y11367500D03*
D10*
X166800000Y13667500D03*
X166800000Y-332500D03*
D15*
X168350000Y12092500D03*
X168350000Y10642500D03*
D22*
X168910000Y4127500D03*
D19*
X170600000Y6667500D03*
D12*
X170900000Y12217500D03*
D11*
X172200000Y-332500D03*
D10*
X172300000Y6417500D03*
D11*
X158000000Y13667500D03*
X172200000Y13667500D03*
D10*
X172300000Y9817500D03*
X157900000Y9817500D03*
X157900000Y8117500D03*
X172300000Y8117500D03*
%TD*%
%TO.C,REF\u002A\u002A*%
X142203125Y-79942500D03*
D11*
X142303125Y-86692500D03*
D12*
X143603125Y-74142500D03*
D13*
X143903125Y-79692500D03*
D14*
X144403125Y-83492500D03*
X145003125Y-84392500D03*
D15*
X147453125Y-74267500D03*
X147453125Y-75717500D03*
D10*
X147703125Y-72692500D03*
X147703125Y-86692500D03*
X149403125Y-72692500D03*
D16*
X149403125Y-79692500D03*
D14*
X149403125Y-85592500D03*
D10*
X149403125Y-86692500D03*
D14*
X149903125Y-85592500D03*
D17*
X150043125Y-74994500D03*
D18*
X150053125Y-74992500D03*
D10*
X151103125Y-72692500D03*
X151103125Y-86692500D03*
D14*
X152003125Y-85442500D03*
D15*
X152653125Y-74267500D03*
X152653125Y-75717500D03*
D14*
X154103125Y-82792500D03*
D13*
X154903125Y-79692500D03*
D12*
X155203125Y-74142500D03*
D11*
X156503125Y-86692500D03*
D10*
X156603125Y-79942500D03*
D11*
X142303125Y-72692500D03*
X156503125Y-72692500D03*
D10*
X156603125Y-76542500D03*
X142203125Y-76542500D03*
X142203125Y-78242500D03*
X156603125Y-78242500D03*
%TD*%
%TO.C,REF\u002A\u002A*%
X80509375Y-79942500D03*
D11*
X80609375Y-86692500D03*
D12*
X81909375Y-74142500D03*
D13*
X82209375Y-79692500D03*
D14*
X82709375Y-83492500D03*
X83309375Y-84392500D03*
D15*
X85759375Y-74267500D03*
X85759375Y-75717500D03*
D10*
X86009375Y-72692500D03*
X86009375Y-86692500D03*
X87709375Y-72692500D03*
D16*
X87709375Y-79692500D03*
D14*
X87709375Y-85592500D03*
D10*
X87709375Y-86692500D03*
D14*
X88209375Y-85592500D03*
D17*
X88349375Y-74994500D03*
D18*
X88359375Y-74992500D03*
D10*
X89409375Y-72692500D03*
X89409375Y-86692500D03*
D14*
X90309375Y-85442500D03*
D15*
X90959375Y-74267500D03*
X90959375Y-75717500D03*
D14*
X92409375Y-82792500D03*
D13*
X93209375Y-79692500D03*
D12*
X93509375Y-74142500D03*
D11*
X94809375Y-86692500D03*
D10*
X94909375Y-79942500D03*
D11*
X80609375Y-72692500D03*
X94809375Y-72692500D03*
D10*
X94909375Y-76542500D03*
X80509375Y-76542500D03*
X80509375Y-78242500D03*
X94909375Y-78242500D03*
%TD*%
%TO.C,REF\u002A\u002A*%
X127261250Y20784375D03*
D11*
X127361250Y14034375D03*
D12*
X128661250Y26584375D03*
D19*
X128961250Y21034375D03*
D22*
X131921250Y15954375D03*
D15*
X132511250Y26459375D03*
X132511250Y25009375D03*
D10*
X132761250Y28034375D03*
X132761250Y14034375D03*
X134461250Y28034375D03*
D23*
X134461250Y21034375D03*
D10*
X134461250Y14034375D03*
D17*
X135101250Y25732375D03*
D18*
X135111250Y25734375D03*
D10*
X136161250Y28034375D03*
X136161250Y14034375D03*
D15*
X137711250Y26459375D03*
X137711250Y25009375D03*
D22*
X138271250Y18494375D03*
D19*
X139961250Y21034375D03*
D12*
X140261250Y26584375D03*
D11*
X141561250Y14034375D03*
D10*
X141661250Y20784375D03*
D11*
X127361250Y28034375D03*
X141561250Y28034375D03*
D10*
X141661250Y24184375D03*
X127261250Y24184375D03*
X127261250Y22484375D03*
X141661250Y22484375D03*
%TD*%
%TO.C,REF\u002A\u002A*%
X50029375Y-65734375D03*
D11*
X50129375Y-72484375D03*
D12*
X51429375Y-59934375D03*
D13*
X51729375Y-65484375D03*
D14*
X52229375Y-69284375D03*
X52829375Y-70184375D03*
D15*
X55279375Y-60059375D03*
X55279375Y-61509375D03*
D10*
X55529375Y-58484375D03*
X55529375Y-72484375D03*
X57229375Y-58484375D03*
D16*
X57229375Y-65484375D03*
D14*
X57229375Y-71384375D03*
D10*
X57229375Y-72484375D03*
D14*
X57729375Y-71384375D03*
D17*
X57869375Y-60786375D03*
D18*
X57879375Y-60784375D03*
D10*
X58929375Y-58484375D03*
X58929375Y-72484375D03*
D14*
X59829375Y-71234375D03*
D15*
X60479375Y-60059375D03*
X60479375Y-61509375D03*
D14*
X61929375Y-68584375D03*
D13*
X62729375Y-65484375D03*
D12*
X63029375Y-59934375D03*
D11*
X64329375Y-72484375D03*
D10*
X64429375Y-65734375D03*
D11*
X50129375Y-58484375D03*
X64329375Y-58484375D03*
D10*
X64429375Y-62334375D03*
X50029375Y-62334375D03*
X50029375Y-64034375D03*
X64429375Y-64034375D03*
%TD*%
%TO.C,REF\u002A\u002A*%
X80906250Y-37080000D03*
D11*
X81006250Y-43830000D03*
D12*
X82306250Y-31280000D03*
D13*
X82606250Y-36830000D03*
D14*
X83106250Y-40630000D03*
X83706250Y-41530000D03*
D15*
X86156250Y-31405000D03*
X86156250Y-32855000D03*
D10*
X86406250Y-29830000D03*
X86406250Y-43830000D03*
X88106250Y-29830000D03*
D16*
X88106250Y-36830000D03*
D14*
X88106250Y-42730000D03*
D10*
X88106250Y-43830000D03*
D14*
X88606250Y-42730000D03*
D17*
X88746250Y-32132000D03*
D18*
X88756250Y-32130000D03*
D10*
X89806250Y-29830000D03*
X89806250Y-43830000D03*
D14*
X90706250Y-42580000D03*
D15*
X91356250Y-31405000D03*
X91356250Y-32855000D03*
D14*
X92806250Y-39930000D03*
D13*
X93606250Y-36830000D03*
D12*
X93906250Y-31280000D03*
D11*
X95206250Y-43830000D03*
D10*
X95306250Y-37080000D03*
D11*
X81006250Y-29830000D03*
X95206250Y-29830000D03*
D10*
X95306250Y-33680000D03*
X80906250Y-33680000D03*
X80906250Y-35380000D03*
X95306250Y-35380000D03*
%TD*%
%TO.C,REF\u002A\u002A*%
X111862500Y-37080000D03*
D11*
X111962500Y-43830000D03*
D12*
X113262500Y-31280000D03*
D13*
X113562500Y-36830000D03*
D14*
X114062500Y-40630000D03*
X114662500Y-41530000D03*
D15*
X117112500Y-31405000D03*
X117112500Y-32855000D03*
D10*
X117362500Y-29830000D03*
X117362500Y-43830000D03*
X119062500Y-29830000D03*
D16*
X119062500Y-36830000D03*
D14*
X119062500Y-42730000D03*
D10*
X119062500Y-43830000D03*
D14*
X119562500Y-42730000D03*
D17*
X119702500Y-32132000D03*
D18*
X119712500Y-32130000D03*
D10*
X120762500Y-29830000D03*
X120762500Y-43830000D03*
D14*
X121662500Y-42580000D03*
D15*
X122312500Y-31405000D03*
X122312500Y-32855000D03*
D14*
X123762500Y-39930000D03*
D13*
X124562500Y-36830000D03*
D12*
X124862500Y-31280000D03*
D11*
X126162500Y-43830000D03*
D10*
X126262500Y-37080000D03*
D11*
X111962500Y-29830000D03*
X126162500Y-29830000D03*
D10*
X126262500Y-33680000D03*
X111862500Y-33680000D03*
X111862500Y-35380000D03*
X126262500Y-35380000D03*
%TD*%
%TO.C,REF\u002A\u002A*%
X126943750Y-94230000D03*
D11*
X127043750Y-100980000D03*
D12*
X128343750Y-88430000D03*
D19*
X128643750Y-93980000D03*
D22*
X131603750Y-99060000D03*
D15*
X132193750Y-88555000D03*
X132193750Y-90005000D03*
D10*
X132443750Y-86980000D03*
X132443750Y-100980000D03*
X134143750Y-86980000D03*
D23*
X134143750Y-93980000D03*
D10*
X134143750Y-100980000D03*
D17*
X134783750Y-89282000D03*
D18*
X134793750Y-89280000D03*
D10*
X135843750Y-86980000D03*
X135843750Y-100980000D03*
D15*
X137393750Y-88555000D03*
X137393750Y-90005000D03*
D22*
X137953750Y-96520000D03*
D19*
X139643750Y-93980000D03*
D12*
X139943750Y-88430000D03*
D11*
X141243750Y-100980000D03*
D10*
X141343750Y-94230000D03*
D11*
X127043750Y-86980000D03*
X141243750Y-86980000D03*
D10*
X141343750Y-90830000D03*
X126943750Y-90830000D03*
X126943750Y-92530000D03*
X141343750Y-92530000D03*
%TD*%
%TO.C,REF\u002A\u002A*%
X49870625Y35071875D03*
D11*
X49970625Y28321875D03*
D12*
X51270625Y40871875D03*
D13*
X51570625Y35321875D03*
D14*
X52070625Y31521875D03*
X52670625Y30621875D03*
D15*
X55120625Y40746875D03*
X55120625Y39296875D03*
D10*
X55370625Y42321875D03*
X55370625Y28321875D03*
X57070625Y42321875D03*
D16*
X57070625Y35321875D03*
D14*
X57070625Y29421875D03*
D10*
X57070625Y28321875D03*
D14*
X57570625Y29421875D03*
D17*
X57710625Y40019875D03*
D18*
X57720625Y40021875D03*
D10*
X58770625Y42321875D03*
X58770625Y28321875D03*
D14*
X59670625Y29571875D03*
D15*
X60320625Y40746875D03*
X60320625Y39296875D03*
D14*
X61770625Y32221875D03*
D13*
X62570625Y35321875D03*
D12*
X62870625Y40871875D03*
D11*
X64170625Y28321875D03*
D10*
X64270625Y35071875D03*
D11*
X49970625Y42321875D03*
X64170625Y42321875D03*
D10*
X64270625Y38471875D03*
X49870625Y38471875D03*
X49870625Y36771875D03*
X64270625Y36771875D03*
%TD*%
%TO.C,REF\u002A\u002A*%
X111465625Y-94230000D03*
D11*
X111565625Y-100980000D03*
D12*
X112865625Y-88430000D03*
D13*
X113165625Y-93980000D03*
D14*
X113665625Y-97780000D03*
X114265625Y-98680000D03*
D15*
X116715625Y-88555000D03*
X116715625Y-90005000D03*
D10*
X116965625Y-86980000D03*
X116965625Y-100980000D03*
X118665625Y-86980000D03*
D16*
X118665625Y-93980000D03*
D14*
X118665625Y-99880000D03*
D10*
X118665625Y-100980000D03*
D14*
X119165625Y-99880000D03*
D17*
X119305625Y-89282000D03*
D18*
X119315625Y-89280000D03*
D10*
X120365625Y-86980000D03*
X120365625Y-100980000D03*
D14*
X121265625Y-99730000D03*
D15*
X121915625Y-88555000D03*
X121915625Y-90005000D03*
D14*
X123365625Y-97080000D03*
D13*
X124165625Y-93980000D03*
D12*
X124465625Y-88430000D03*
D11*
X125765625Y-100980000D03*
D10*
X125865625Y-94230000D03*
D11*
X111565625Y-86980000D03*
X125765625Y-86980000D03*
D10*
X125865625Y-90830000D03*
X111465625Y-90830000D03*
X111465625Y-92530000D03*
X125865625Y-92530000D03*
%TD*%
%TO.C,REF\u002A\u002A*%
X80509375Y-94230000D03*
D11*
X80609375Y-100980000D03*
D12*
X81909375Y-88430000D03*
D13*
X82209375Y-93980000D03*
D14*
X82709375Y-97780000D03*
X83309375Y-98680000D03*
D15*
X85759375Y-88555000D03*
X85759375Y-90005000D03*
D10*
X86009375Y-86980000D03*
X86009375Y-100980000D03*
X87709375Y-86980000D03*
D16*
X87709375Y-93980000D03*
D14*
X87709375Y-99880000D03*
D10*
X87709375Y-100980000D03*
D14*
X88209375Y-99880000D03*
D17*
X88349375Y-89282000D03*
D18*
X88359375Y-89280000D03*
D10*
X89409375Y-86980000D03*
X89409375Y-100980000D03*
D14*
X90309375Y-99730000D03*
D15*
X90959375Y-88555000D03*
X90959375Y-90005000D03*
D14*
X92409375Y-97080000D03*
D13*
X93209375Y-93980000D03*
D12*
X93509375Y-88430000D03*
D11*
X94809375Y-100980000D03*
D10*
X94909375Y-94230000D03*
D11*
X80609375Y-86980000D03*
X94809375Y-86980000D03*
D10*
X94909375Y-90830000D03*
X80509375Y-90830000D03*
X80509375Y-92530000D03*
X94909375Y-92530000D03*
%TD*%
%TO.C,REF\u002A\u002A*%
X49553125Y-94230000D03*
D11*
X49653125Y-100980000D03*
D12*
X50953125Y-88430000D03*
D13*
X51253125Y-93980000D03*
D14*
X51753125Y-97780000D03*
X52353125Y-98680000D03*
D15*
X54803125Y-88555000D03*
X54803125Y-90005000D03*
D10*
X55053125Y-86980000D03*
X55053125Y-100980000D03*
X56753125Y-86980000D03*
D16*
X56753125Y-93980000D03*
D14*
X56753125Y-99880000D03*
D10*
X56753125Y-100980000D03*
D14*
X57253125Y-99880000D03*
D17*
X57393125Y-89282000D03*
D18*
X57403125Y-89280000D03*
D10*
X58453125Y-86980000D03*
X58453125Y-100980000D03*
D14*
X59353125Y-99730000D03*
D15*
X60003125Y-88555000D03*
X60003125Y-90005000D03*
D14*
X61453125Y-97080000D03*
D13*
X62253125Y-93980000D03*
D12*
X62553125Y-88430000D03*
D11*
X63853125Y-100980000D03*
D10*
X63953125Y-94230000D03*
D11*
X49653125Y-86980000D03*
X63853125Y-86980000D03*
D10*
X63953125Y-90830000D03*
X49553125Y-90830000D03*
X49553125Y-92530000D03*
X63953125Y-92530000D03*
%TD*%
%TO.C,REF\u002A\u002A*%
X65567500Y20784375D03*
D11*
X65667500Y14034375D03*
D12*
X66967500Y26584375D03*
D19*
X67267500Y21034375D03*
D22*
X70227500Y15954375D03*
D15*
X70817500Y26459375D03*
X70817500Y25009375D03*
D10*
X71067500Y28034375D03*
X71067500Y14034375D03*
X72767500Y28034375D03*
D23*
X72767500Y21034375D03*
D10*
X72767500Y14034375D03*
D17*
X73407500Y25732375D03*
D18*
X73417500Y25734375D03*
D10*
X74467500Y28034375D03*
X74467500Y14034375D03*
D15*
X76017500Y26459375D03*
X76017500Y25009375D03*
D22*
X76577500Y18494375D03*
D19*
X78267500Y21034375D03*
D12*
X78567500Y26584375D03*
D11*
X79867500Y14034375D03*
D10*
X79967500Y20784375D03*
D11*
X65667500Y28034375D03*
X79867500Y28034375D03*
D10*
X79967500Y24184375D03*
X65567500Y24184375D03*
X65567500Y22484375D03*
X79967500Y22484375D03*
%TD*%
%TO.C,REF\u002A\u002A*%
X142520625Y20784375D03*
D11*
X142620625Y14034375D03*
D12*
X143920625Y26584375D03*
D13*
X144220625Y21034375D03*
D14*
X144720625Y17234375D03*
X145320625Y16334375D03*
D15*
X147770625Y26459375D03*
X147770625Y25009375D03*
D10*
X148020625Y28034375D03*
X148020625Y14034375D03*
X149720625Y28034375D03*
D16*
X149720625Y21034375D03*
D14*
X149720625Y15134375D03*
D10*
X149720625Y14034375D03*
D14*
X150220625Y15134375D03*
D17*
X150360625Y25732375D03*
D18*
X150370625Y25734375D03*
D10*
X151420625Y28034375D03*
X151420625Y14034375D03*
D14*
X152320625Y15284375D03*
D15*
X152970625Y26459375D03*
X152970625Y25009375D03*
D14*
X154420625Y17934375D03*
D13*
X155220625Y21034375D03*
D12*
X155520625Y26584375D03*
D11*
X156820625Y14034375D03*
D10*
X156920625Y20784375D03*
D11*
X142620625Y28034375D03*
X156820625Y28034375D03*
D10*
X156920625Y24184375D03*
X142520625Y24184375D03*
X142520625Y22484375D03*
X156920625Y22484375D03*
%TD*%
%TO.C,REF\u002A\u002A*%
X50029375Y-51446875D03*
D11*
X50129375Y-58196875D03*
D12*
X51429375Y-45646875D03*
D13*
X51729375Y-51196875D03*
D14*
X52229375Y-54996875D03*
X52829375Y-55896875D03*
D15*
X55279375Y-45771875D03*
X55279375Y-47221875D03*
D10*
X55529375Y-44196875D03*
X55529375Y-58196875D03*
X57229375Y-44196875D03*
D16*
X57229375Y-51196875D03*
D14*
X57229375Y-57096875D03*
D10*
X57229375Y-58196875D03*
D14*
X57729375Y-57096875D03*
D17*
X57869375Y-46498875D03*
D18*
X57879375Y-46496875D03*
D10*
X58929375Y-44196875D03*
X58929375Y-58196875D03*
D14*
X59829375Y-56946875D03*
D15*
X60479375Y-45771875D03*
X60479375Y-47221875D03*
D14*
X61929375Y-54296875D03*
D13*
X62729375Y-51196875D03*
D12*
X63029375Y-45646875D03*
D11*
X64329375Y-58196875D03*
D10*
X64429375Y-51446875D03*
D11*
X50129375Y-44196875D03*
X64329375Y-44196875D03*
D10*
X64429375Y-48046875D03*
X50029375Y-48046875D03*
X50029375Y-49746875D03*
X64429375Y-49746875D03*
%TD*%
%TO.C,REF\u002A\u002A*%
X80906250Y-7870000D03*
D11*
X81006250Y-14620000D03*
D12*
X82306250Y-2070000D03*
D13*
X82606250Y-7620000D03*
D14*
X83106250Y-11420000D03*
X83706250Y-12320000D03*
D15*
X86156250Y-2195000D03*
X86156250Y-3645000D03*
D10*
X86406250Y-620000D03*
X86406250Y-14620000D03*
X88106250Y-620000D03*
D16*
X88106250Y-7620000D03*
D14*
X88106250Y-13520000D03*
D10*
X88106250Y-14620000D03*
D14*
X88606250Y-13520000D03*
D17*
X88746250Y-2922000D03*
D18*
X88756250Y-2920000D03*
D10*
X89806250Y-620000D03*
X89806250Y-14620000D03*
D14*
X90706250Y-13370000D03*
D15*
X91356250Y-2195000D03*
X91356250Y-3645000D03*
D14*
X92806250Y-10720000D03*
D13*
X93606250Y-7620000D03*
D12*
X93906250Y-2070000D03*
D11*
X95206250Y-14620000D03*
D10*
X95306250Y-7870000D03*
D11*
X81006250Y-620000D03*
X95206250Y-620000D03*
D10*
X95306250Y-4470000D03*
X80906250Y-4470000D03*
X80906250Y-6170000D03*
X95306250Y-6170000D03*
%TD*%
%TO.C,REF\u002A\u002A*%
X34293750Y-94230000D03*
D11*
X34393750Y-100980000D03*
D12*
X35693750Y-88430000D03*
D19*
X35993750Y-93980000D03*
D22*
X38953750Y-99060000D03*
D15*
X39543750Y-88555000D03*
X39543750Y-90005000D03*
D10*
X39793750Y-86980000D03*
X39793750Y-100980000D03*
X41493750Y-86980000D03*
D23*
X41493750Y-93980000D03*
D10*
X41493750Y-100980000D03*
D17*
X42133750Y-89282000D03*
D18*
X42143750Y-89280000D03*
D10*
X43193750Y-86980000D03*
X43193750Y-100980000D03*
D15*
X44743750Y-88555000D03*
X44743750Y-90005000D03*
D22*
X45303750Y-96520000D03*
D19*
X46993750Y-93980000D03*
D12*
X47293750Y-88430000D03*
D11*
X48593750Y-100980000D03*
D10*
X48693750Y-94230000D03*
D11*
X34393750Y-86980000D03*
X48593750Y-86980000D03*
D10*
X48693750Y-90830000D03*
X34293750Y-90830000D03*
X34293750Y-92530000D03*
X48693750Y-92530000D03*
%TD*%
%TO.C,REF\u002A\u002A*%
X96523750Y35071875D03*
D11*
X96623750Y28321875D03*
D12*
X97923750Y40871875D03*
D19*
X98223750Y35321875D03*
D22*
X101183750Y30241875D03*
D15*
X101773750Y40746875D03*
X101773750Y39296875D03*
D10*
X102023750Y42321875D03*
X102023750Y28321875D03*
X103723750Y42321875D03*
D23*
X103723750Y35321875D03*
D10*
X103723750Y28321875D03*
D17*
X104363750Y40019875D03*
D18*
X104373750Y40021875D03*
D10*
X105423750Y42321875D03*
X105423750Y28321875D03*
D15*
X106973750Y40746875D03*
X106973750Y39296875D03*
D22*
X107533750Y32781875D03*
D19*
X109223750Y35321875D03*
D12*
X109523750Y40871875D03*
D11*
X110823750Y28321875D03*
D10*
X110923750Y35071875D03*
D11*
X96623750Y42321875D03*
X110823750Y42321875D03*
D10*
X110923750Y38471875D03*
X96523750Y38471875D03*
X96523750Y36771875D03*
X110923750Y36771875D03*
%TD*%
%TO.C,REF\u002A\u002A*%
X142600000Y-7870000D03*
D11*
X142700000Y-14620000D03*
D12*
X144000000Y-2070000D03*
D13*
X144300000Y-7620000D03*
D14*
X144800000Y-11420000D03*
X145400000Y-12320000D03*
D15*
X147850000Y-2195000D03*
X147850000Y-3645000D03*
D10*
X148100000Y-620000D03*
X148100000Y-14620000D03*
X149800000Y-620000D03*
D16*
X149800000Y-7620000D03*
D14*
X149800000Y-13520000D03*
D10*
X149800000Y-14620000D03*
D14*
X150300000Y-13520000D03*
D17*
X150440000Y-2922000D03*
D18*
X150450000Y-2920000D03*
D10*
X151500000Y-620000D03*
X151500000Y-14620000D03*
D14*
X152400000Y-13370000D03*
D15*
X153050000Y-2195000D03*
X153050000Y-3645000D03*
D14*
X154500000Y-10720000D03*
D13*
X155300000Y-7620000D03*
D12*
X155600000Y-2070000D03*
D11*
X156900000Y-14620000D03*
D10*
X157000000Y-7870000D03*
D11*
X142700000Y-620000D03*
X156900000Y-620000D03*
D10*
X157000000Y-4470000D03*
X142600000Y-4470000D03*
X142600000Y-6170000D03*
X157000000Y-6170000D03*
%TD*%
%TO.C,REF\u002A\u002A*%
X49553125Y-79942500D03*
D11*
X49653125Y-86692500D03*
D12*
X50953125Y-74142500D03*
D13*
X51253125Y-79692500D03*
D14*
X51753125Y-83492500D03*
X52353125Y-84392500D03*
D15*
X54803125Y-74267500D03*
X54803125Y-75717500D03*
D10*
X55053125Y-72692500D03*
X55053125Y-86692500D03*
X56753125Y-72692500D03*
D16*
X56753125Y-79692500D03*
D14*
X56753125Y-85592500D03*
D10*
X56753125Y-86692500D03*
D14*
X57253125Y-85592500D03*
D17*
X57393125Y-74994500D03*
D18*
X57403125Y-74992500D03*
D10*
X58453125Y-72692500D03*
X58453125Y-86692500D03*
D14*
X59353125Y-85442500D03*
D15*
X60003125Y-74267500D03*
X60003125Y-75717500D03*
D14*
X61453125Y-82792500D03*
D13*
X62253125Y-79692500D03*
D12*
X62553125Y-74142500D03*
D11*
X63853125Y-86692500D03*
D10*
X63953125Y-79942500D03*
D11*
X49653125Y-72692500D03*
X63853125Y-72692500D03*
D10*
X63953125Y-76542500D03*
X49553125Y-76542500D03*
X49553125Y-78242500D03*
X63953125Y-78242500D03*
%TD*%
%TO.C,REF\u002A\u002A*%
X49950000Y-22792500D03*
D11*
X50050000Y-29542500D03*
D12*
X51350000Y-16992500D03*
D13*
X51650000Y-22542500D03*
D14*
X52150000Y-26342500D03*
X52750000Y-27242500D03*
D15*
X55200000Y-17117500D03*
X55200000Y-18567500D03*
D10*
X55450000Y-15542500D03*
X55450000Y-29542500D03*
X57150000Y-15542500D03*
D16*
X57150000Y-22542500D03*
D14*
X57150000Y-28442500D03*
D10*
X57150000Y-29542500D03*
D14*
X57650000Y-28442500D03*
D17*
X57790000Y-17844500D03*
D18*
X57800000Y-17842500D03*
D10*
X58850000Y-15542500D03*
X58850000Y-29542500D03*
D14*
X59750000Y-28292500D03*
D15*
X60400000Y-17117500D03*
X60400000Y-18567500D03*
D14*
X61850000Y-25642500D03*
D13*
X62650000Y-22542500D03*
D12*
X62950000Y-16992500D03*
D11*
X64250000Y-29542500D03*
D10*
X64350000Y-22792500D03*
D11*
X50050000Y-15542500D03*
X64250000Y-15542500D03*
D10*
X64350000Y-19392500D03*
X49950000Y-19392500D03*
X49950000Y-21092500D03*
X64350000Y-21092500D03*
%TD*%
%TO.C,REF\u002A\u002A*%
X111783125Y35071875D03*
D11*
X111883125Y28321875D03*
D12*
X113183125Y40871875D03*
D13*
X113483125Y35321875D03*
D14*
X113983125Y31521875D03*
X114583125Y30621875D03*
D15*
X117033125Y40746875D03*
X117033125Y39296875D03*
D10*
X117283125Y42321875D03*
X117283125Y28321875D03*
X118983125Y42321875D03*
D16*
X118983125Y35321875D03*
D14*
X118983125Y29421875D03*
D10*
X118983125Y28321875D03*
D14*
X119483125Y29421875D03*
D17*
X119623125Y40019875D03*
D18*
X119633125Y40021875D03*
D10*
X120683125Y42321875D03*
X120683125Y28321875D03*
D14*
X121583125Y29571875D03*
D15*
X122233125Y40746875D03*
X122233125Y39296875D03*
D14*
X123683125Y32221875D03*
D13*
X124483125Y35321875D03*
D12*
X124783125Y40871875D03*
D11*
X126083125Y28321875D03*
D10*
X126183125Y35071875D03*
D11*
X111883125Y42321875D03*
X126083125Y42321875D03*
D10*
X126183125Y38471875D03*
X111783125Y38471875D03*
X111783125Y36771875D03*
X126183125Y36771875D03*
%TD*%
%TO.C,REF\u002A\u002A*%
X49950000Y-7870000D03*
D11*
X50050000Y-14620000D03*
D12*
X51350000Y-2070000D03*
D13*
X51650000Y-7620000D03*
D14*
X52150000Y-11420000D03*
X52750000Y-12320000D03*
D15*
X55200000Y-2195000D03*
X55200000Y-3645000D03*
D10*
X55450000Y-620000D03*
X55450000Y-14620000D03*
X57150000Y-620000D03*
D16*
X57150000Y-7620000D03*
D14*
X57150000Y-13520000D03*
D10*
X57150000Y-14620000D03*
D14*
X57650000Y-13520000D03*
D17*
X57790000Y-2922000D03*
D18*
X57800000Y-2920000D03*
D10*
X58850000Y-620000D03*
X58850000Y-14620000D03*
D14*
X59750000Y-13370000D03*
D15*
X60400000Y-2195000D03*
X60400000Y-3645000D03*
D14*
X61850000Y-10720000D03*
D13*
X62650000Y-7620000D03*
D12*
X62950000Y-2070000D03*
D11*
X64250000Y-14620000D03*
D10*
X64350000Y-7870000D03*
D11*
X50050000Y-620000D03*
X64250000Y-620000D03*
D10*
X64350000Y-4470000D03*
X49950000Y-4470000D03*
X49950000Y-6170000D03*
X64350000Y-6170000D03*
%TD*%
%TO.C,REF\u002A\u002A*%
X65646875Y-22792500D03*
D11*
X65746875Y-29542500D03*
D12*
X67046875Y-16992500D03*
D19*
X67346875Y-22542500D03*
D22*
X70306875Y-27622500D03*
D15*
X70896875Y-17117500D03*
X70896875Y-18567500D03*
D10*
X71146875Y-15542500D03*
X71146875Y-29542500D03*
X72846875Y-15542500D03*
D23*
X72846875Y-22542500D03*
D10*
X72846875Y-29542500D03*
D17*
X73486875Y-17844500D03*
D18*
X73496875Y-17842500D03*
D10*
X74546875Y-15542500D03*
X74546875Y-29542500D03*
D15*
X76096875Y-17117500D03*
X76096875Y-18567500D03*
D22*
X76656875Y-25082500D03*
D19*
X78346875Y-22542500D03*
D12*
X78646875Y-16992500D03*
D11*
X79946875Y-29542500D03*
D10*
X80046875Y-22792500D03*
D11*
X65746875Y-15542500D03*
X79946875Y-15542500D03*
D10*
X80046875Y-19392500D03*
X65646875Y-19392500D03*
X65646875Y-21092500D03*
X80046875Y-21092500D03*
%TD*%
%TO.C,REF\u002A\u002A*%
X127420000Y-65734375D03*
D11*
X127520000Y-72484375D03*
D12*
X128820000Y-59934375D03*
D19*
X129120000Y-65484375D03*
D22*
X132080000Y-70564375D03*
D15*
X132670000Y-60059375D03*
X132670000Y-61509375D03*
D10*
X132920000Y-58484375D03*
X132920000Y-72484375D03*
X134620000Y-58484375D03*
D23*
X134620000Y-65484375D03*
D10*
X134620000Y-72484375D03*
D17*
X135260000Y-60786375D03*
D18*
X135270000Y-60784375D03*
D10*
X136320000Y-58484375D03*
X136320000Y-72484375D03*
D15*
X137870000Y-60059375D03*
X137870000Y-61509375D03*
D22*
X138430000Y-68024375D03*
D19*
X140120000Y-65484375D03*
D12*
X140420000Y-59934375D03*
D11*
X141720000Y-72484375D03*
D10*
X141820000Y-65734375D03*
D11*
X127520000Y-58484375D03*
X141720000Y-58484375D03*
D10*
X141820000Y-62334375D03*
X127420000Y-62334375D03*
X127420000Y-64034375D03*
X141820000Y-64034375D03*
%TD*%
%TO.C,REF\u002A\u002A*%
X96603125Y-37080000D03*
D11*
X96703125Y-43830000D03*
D12*
X98003125Y-31280000D03*
D19*
X98303125Y-36830000D03*
D22*
X101263125Y-41910000D03*
D15*
X101853125Y-31405000D03*
X101853125Y-32855000D03*
D10*
X102103125Y-29830000D03*
X102103125Y-43830000D03*
X103803125Y-29830000D03*
D23*
X103803125Y-36830000D03*
D10*
X103803125Y-43830000D03*
D17*
X104443125Y-32132000D03*
D18*
X104453125Y-32130000D03*
D10*
X105503125Y-29830000D03*
X105503125Y-43830000D03*
D15*
X107053125Y-31405000D03*
X107053125Y-32855000D03*
D22*
X107613125Y-39370000D03*
D19*
X109303125Y-36830000D03*
D12*
X109603125Y-31280000D03*
D11*
X110903125Y-43830000D03*
D10*
X111003125Y-37080000D03*
D11*
X96703125Y-29830000D03*
X110903125Y-29830000D03*
D10*
X111003125Y-33680000D03*
X96603125Y-33680000D03*
X96603125Y-35380000D03*
X111003125Y-35380000D03*
%TD*%
%TO.C,REF\u002A\u002A*%
X142600000Y-22792500D03*
D11*
X142700000Y-29542500D03*
D12*
X144000000Y-16992500D03*
D13*
X144300000Y-22542500D03*
D14*
X144800000Y-26342500D03*
X145400000Y-27242500D03*
D15*
X147850000Y-17117500D03*
X147850000Y-18567500D03*
D10*
X148100000Y-15542500D03*
X148100000Y-29542500D03*
X149800000Y-15542500D03*
D16*
X149800000Y-22542500D03*
D14*
X149800000Y-28442500D03*
D10*
X149800000Y-29542500D03*
D14*
X150300000Y-28442500D03*
D17*
X150440000Y-17844500D03*
D18*
X150450000Y-17842500D03*
D10*
X151500000Y-15542500D03*
X151500000Y-29542500D03*
D14*
X152400000Y-28292500D03*
D15*
X153050000Y-17117500D03*
X153050000Y-18567500D03*
D14*
X154500000Y-25642500D03*
D13*
X155300000Y-22542500D03*
D12*
X155600000Y-16992500D03*
D11*
X156900000Y-29542500D03*
D10*
X157000000Y-22792500D03*
D11*
X142700000Y-15542500D03*
X156900000Y-15542500D03*
D10*
X157000000Y-19392500D03*
X142600000Y-19392500D03*
X142600000Y-21092500D03*
X157000000Y-21092500D03*
%TD*%
%TO.C,REF\u002A\u002A*%
X96603125Y-22792500D03*
D11*
X96703125Y-29542500D03*
D12*
X98003125Y-16992500D03*
D19*
X98303125Y-22542500D03*
D22*
X101263125Y-27622500D03*
D15*
X101853125Y-17117500D03*
X101853125Y-18567500D03*
D10*
X102103125Y-15542500D03*
X102103125Y-29542500D03*
X103803125Y-15542500D03*
D23*
X103803125Y-22542500D03*
D10*
X103803125Y-29542500D03*
D17*
X104443125Y-17844500D03*
D18*
X104453125Y-17842500D03*
D10*
X105503125Y-15542500D03*
X105503125Y-29542500D03*
D15*
X107053125Y-17117500D03*
X107053125Y-18567500D03*
D22*
X107613125Y-25082500D03*
D19*
X109303125Y-22542500D03*
D12*
X109603125Y-16992500D03*
D11*
X110903125Y-29542500D03*
D10*
X111003125Y-22792500D03*
D11*
X96703125Y-15542500D03*
X110903125Y-15542500D03*
D10*
X111003125Y-19392500D03*
X96603125Y-19392500D03*
X96603125Y-21092500D03*
X111003125Y-21092500D03*
%TD*%
%TO.C,REF\u002A\u002A*%
X49950000Y6417500D03*
D11*
X50050000Y-332500D03*
D12*
X51350000Y12217500D03*
D13*
X51650000Y6667500D03*
D14*
X52150000Y2867500D03*
X52750000Y1967500D03*
D15*
X55200000Y12092500D03*
X55200000Y10642500D03*
D10*
X55450000Y13667500D03*
X55450000Y-332500D03*
X57150000Y13667500D03*
D16*
X57150000Y6667500D03*
D14*
X57150000Y767500D03*
D10*
X57150000Y-332500D03*
D14*
X57650000Y767500D03*
D17*
X57790000Y11365500D03*
D18*
X57800000Y11367500D03*
D10*
X58850000Y13667500D03*
X58850000Y-332500D03*
D14*
X59750000Y917500D03*
D15*
X60400000Y12092500D03*
X60400000Y10642500D03*
D14*
X61850000Y3567500D03*
D13*
X62650000Y6667500D03*
D12*
X62950000Y12217500D03*
D11*
X64250000Y-332500D03*
D10*
X64350000Y6417500D03*
D11*
X50050000Y13667500D03*
X64250000Y13667500D03*
D10*
X64350000Y9817500D03*
X49950000Y9817500D03*
X49950000Y8117500D03*
X64350000Y8117500D03*
%TD*%
%TO.C,REF\u002A\u002A*%
X34770000Y-65734375D03*
D11*
X34870000Y-72484375D03*
D12*
X36170000Y-59934375D03*
D19*
X36470000Y-65484375D03*
D22*
X39430000Y-70564375D03*
D15*
X40020000Y-60059375D03*
X40020000Y-61509375D03*
D10*
X40270000Y-58484375D03*
X40270000Y-72484375D03*
X41970000Y-58484375D03*
D23*
X41970000Y-65484375D03*
D10*
X41970000Y-72484375D03*
D17*
X42610000Y-60786375D03*
D18*
X42620000Y-60784375D03*
D10*
X43670000Y-58484375D03*
X43670000Y-72484375D03*
D15*
X45220000Y-60059375D03*
X45220000Y-61509375D03*
D22*
X45780000Y-68024375D03*
D19*
X47470000Y-65484375D03*
D12*
X47770000Y-59934375D03*
D11*
X49070000Y-72484375D03*
D10*
X49170000Y-65734375D03*
D11*
X34870000Y-58484375D03*
X49070000Y-58484375D03*
D10*
X49170000Y-62334375D03*
X34770000Y-62334375D03*
X34770000Y-64034375D03*
X49170000Y-64034375D03*
%TD*%
%TO.C,REF\u002A\u002A*%
X96603125Y-7870000D03*
D11*
X96703125Y-14620000D03*
D12*
X98003125Y-2070000D03*
D19*
X98303125Y-7620000D03*
D22*
X101263125Y-12700000D03*
D15*
X101853125Y-2195000D03*
X101853125Y-3645000D03*
D10*
X102103125Y-620000D03*
X102103125Y-14620000D03*
X103803125Y-620000D03*
D23*
X103803125Y-7620000D03*
D10*
X103803125Y-14620000D03*
D17*
X104443125Y-2922000D03*
D18*
X104453125Y-2920000D03*
D10*
X105503125Y-620000D03*
X105503125Y-14620000D03*
D15*
X107053125Y-2195000D03*
X107053125Y-3645000D03*
D22*
X107613125Y-10160000D03*
D19*
X109303125Y-7620000D03*
D12*
X109603125Y-2070000D03*
D11*
X110903125Y-14620000D03*
D10*
X111003125Y-7870000D03*
D11*
X96703125Y-620000D03*
X110903125Y-620000D03*
D10*
X111003125Y-4470000D03*
X96603125Y-4470000D03*
X96603125Y-6170000D03*
X111003125Y-6170000D03*
%TD*%
%TO.C,REF\u002A\u002A*%
X142600000Y-37080000D03*
D11*
X142700000Y-43830000D03*
D12*
X144000000Y-31280000D03*
D13*
X144300000Y-36830000D03*
D14*
X144800000Y-40630000D03*
X145400000Y-41530000D03*
D15*
X147850000Y-31405000D03*
X147850000Y-32855000D03*
D10*
X148100000Y-29830000D03*
X148100000Y-43830000D03*
X149800000Y-29830000D03*
D16*
X149800000Y-36830000D03*
D14*
X149800000Y-42730000D03*
D10*
X149800000Y-43830000D03*
D14*
X150300000Y-42730000D03*
D17*
X150440000Y-32132000D03*
D18*
X150450000Y-32130000D03*
D10*
X151500000Y-29830000D03*
X151500000Y-43830000D03*
D14*
X152400000Y-42580000D03*
D15*
X153050000Y-31405000D03*
X153050000Y-32855000D03*
D14*
X154500000Y-39930000D03*
D13*
X155300000Y-36830000D03*
D12*
X155600000Y-31280000D03*
D11*
X156900000Y-43830000D03*
D10*
X157000000Y-37080000D03*
D11*
X142700000Y-29830000D03*
X156900000Y-29830000D03*
D10*
X157000000Y-33680000D03*
X142600000Y-33680000D03*
X142600000Y-35380000D03*
X157000000Y-35380000D03*
%TD*%
%TO.C,REF\u002A\u002A*%
X111941875Y-65734375D03*
D11*
X112041875Y-72484375D03*
D12*
X113341875Y-59934375D03*
D13*
X113641875Y-65484375D03*
D14*
X114141875Y-69284375D03*
X114741875Y-70184375D03*
D15*
X117191875Y-60059375D03*
X117191875Y-61509375D03*
D10*
X117441875Y-58484375D03*
X117441875Y-72484375D03*
X119141875Y-58484375D03*
D16*
X119141875Y-65484375D03*
D14*
X119141875Y-71384375D03*
D10*
X119141875Y-72484375D03*
D14*
X119641875Y-71384375D03*
D17*
X119781875Y-60786375D03*
D18*
X119791875Y-60784375D03*
D10*
X120841875Y-58484375D03*
X120841875Y-72484375D03*
D14*
X121741875Y-71234375D03*
D15*
X122391875Y-60059375D03*
X122391875Y-61509375D03*
D14*
X123841875Y-68584375D03*
D13*
X124641875Y-65484375D03*
D12*
X124941875Y-59934375D03*
D11*
X126241875Y-72484375D03*
D10*
X126341875Y-65734375D03*
D11*
X112041875Y-58484375D03*
X126241875Y-58484375D03*
D10*
X126341875Y-62334375D03*
X111941875Y-62334375D03*
X111941875Y-64034375D03*
X126341875Y-64034375D03*
%TD*%
%TO.C,REF\u002A\u002A*%
X111465625Y-79942500D03*
D11*
X111565625Y-86692500D03*
D12*
X112865625Y-74142500D03*
D13*
X113165625Y-79692500D03*
D14*
X113665625Y-83492500D03*
X114265625Y-84392500D03*
D15*
X116715625Y-74267500D03*
X116715625Y-75717500D03*
D10*
X116965625Y-72692500D03*
X116965625Y-86692500D03*
X118665625Y-72692500D03*
D16*
X118665625Y-79692500D03*
D14*
X118665625Y-85592500D03*
D10*
X118665625Y-86692500D03*
D14*
X119165625Y-85592500D03*
D17*
X119305625Y-74994500D03*
D18*
X119315625Y-74992500D03*
D10*
X120365625Y-72692500D03*
X120365625Y-86692500D03*
D14*
X121265625Y-85442500D03*
D15*
X121915625Y-74267500D03*
X121915625Y-75717500D03*
D14*
X123365625Y-82792500D03*
D13*
X124165625Y-79692500D03*
D12*
X124465625Y-74142500D03*
D11*
X125765625Y-86692500D03*
D10*
X125865625Y-79942500D03*
D11*
X111565625Y-72692500D03*
X125765625Y-72692500D03*
D10*
X125865625Y-76542500D03*
X111465625Y-76542500D03*
X111465625Y-78242500D03*
X125865625Y-78242500D03*
%TD*%
%TO.C,REF\u002A\u002A*%
X34690625Y-22792500D03*
D11*
X34790625Y-29542500D03*
D12*
X36090625Y-16992500D03*
D19*
X36390625Y-22542500D03*
D22*
X39350625Y-27622500D03*
D15*
X39940625Y-17117500D03*
X39940625Y-18567500D03*
D10*
X40190625Y-15542500D03*
X40190625Y-29542500D03*
X41890625Y-15542500D03*
D23*
X41890625Y-22542500D03*
D10*
X41890625Y-29542500D03*
D17*
X42530625Y-17844500D03*
D18*
X42540625Y-17842500D03*
D10*
X43590625Y-15542500D03*
X43590625Y-29542500D03*
D15*
X45140625Y-17117500D03*
X45140625Y-18567500D03*
D22*
X45700625Y-25082500D03*
D19*
X47390625Y-22542500D03*
D12*
X47690625Y-16992500D03*
D11*
X48990625Y-29542500D03*
D10*
X49090625Y-22792500D03*
D11*
X34790625Y-15542500D03*
X48990625Y-15542500D03*
D10*
X49090625Y-19392500D03*
X34690625Y-19392500D03*
X34690625Y-21092500D03*
X49090625Y-21092500D03*
%TD*%
%TO.C,REF\u002A\u002A*%
X157900000Y-37080000D03*
D11*
X158000000Y-43830000D03*
D12*
X159300000Y-31280000D03*
D13*
X159600000Y-36830000D03*
D14*
X160100000Y-40630000D03*
X160700000Y-41530000D03*
D15*
X163150000Y-31405000D03*
X163150000Y-32855000D03*
D10*
X163400000Y-29830000D03*
X163400000Y-43830000D03*
X165100000Y-29830000D03*
D16*
X165100000Y-36830000D03*
D14*
X165100000Y-42730000D03*
D10*
X165100000Y-43830000D03*
D14*
X165600000Y-42730000D03*
D17*
X165740000Y-32132000D03*
D18*
X165750000Y-32130000D03*
D10*
X166800000Y-29830000D03*
X166800000Y-43830000D03*
D14*
X167700000Y-42580000D03*
D15*
X168350000Y-31405000D03*
X168350000Y-32855000D03*
D14*
X169800000Y-39930000D03*
D13*
X170600000Y-36830000D03*
D12*
X170900000Y-31280000D03*
D11*
X172200000Y-43830000D03*
D10*
X172300000Y-37080000D03*
D11*
X158000000Y-29830000D03*
X172200000Y-29830000D03*
D10*
X172300000Y-33680000D03*
X157900000Y-33680000D03*
X157900000Y-35380000D03*
X172300000Y-35380000D03*
%TD*%
%TO.C,REF\u002A\u002A*%
X96206250Y-94230000D03*
D11*
X96306250Y-100980000D03*
D12*
X97606250Y-88430000D03*
D19*
X97906250Y-93980000D03*
D22*
X100866250Y-99060000D03*
D15*
X101456250Y-88555000D03*
X101456250Y-90005000D03*
D10*
X101706250Y-86980000D03*
X101706250Y-100980000D03*
X103406250Y-86980000D03*
D23*
X103406250Y-93980000D03*
D10*
X103406250Y-100980000D03*
D17*
X104046250Y-89282000D03*
D18*
X104056250Y-89280000D03*
D10*
X105106250Y-86980000D03*
X105106250Y-100980000D03*
D15*
X106656250Y-88555000D03*
X106656250Y-90005000D03*
D22*
X107216250Y-96520000D03*
D19*
X108906250Y-93980000D03*
D12*
X109206250Y-88430000D03*
D11*
X110506250Y-100980000D03*
D10*
X110606250Y-94230000D03*
D11*
X96306250Y-86980000D03*
X110506250Y-86980000D03*
D10*
X110606250Y-90830000D03*
X96206250Y-90830000D03*
X96206250Y-92530000D03*
X110606250Y-92530000D03*
%TD*%
%TO.C,REF\u002A\u002A*%
X127340625Y-37080000D03*
D11*
X127440625Y-43830000D03*
D12*
X128740625Y-31280000D03*
D19*
X129040625Y-36830000D03*
D22*
X132000625Y-41910000D03*
D15*
X132590625Y-31405000D03*
X132590625Y-32855000D03*
D10*
X132840625Y-29830000D03*
X132840625Y-43830000D03*
X134540625Y-29830000D03*
D23*
X134540625Y-36830000D03*
D10*
X134540625Y-43830000D03*
D17*
X135180625Y-32132000D03*
D18*
X135190625Y-32130000D03*
D10*
X136240625Y-29830000D03*
X136240625Y-43830000D03*
D15*
X137790625Y-31405000D03*
X137790625Y-32855000D03*
D22*
X138350625Y-39370000D03*
D19*
X140040625Y-36830000D03*
D12*
X140340625Y-31280000D03*
D11*
X141640625Y-43830000D03*
D10*
X141740625Y-37080000D03*
D11*
X127440625Y-29830000D03*
X141640625Y-29830000D03*
D10*
X141740625Y-33680000D03*
X127340625Y-33680000D03*
X127340625Y-35380000D03*
X141740625Y-35380000D03*
%TD*%
%TO.C,REF\u002A\u002A*%
X96682500Y-51446875D03*
D11*
X96782500Y-58196875D03*
D12*
X98082500Y-45646875D03*
D19*
X98382500Y-51196875D03*
D22*
X101342500Y-56276875D03*
D15*
X101932500Y-45771875D03*
X101932500Y-47221875D03*
D10*
X102182500Y-44196875D03*
X102182500Y-58196875D03*
X103882500Y-44196875D03*
D23*
X103882500Y-51196875D03*
D10*
X103882500Y-58196875D03*
D17*
X104522500Y-46498875D03*
D18*
X104532500Y-46496875D03*
D10*
X105582500Y-44196875D03*
X105582500Y-58196875D03*
D15*
X107132500Y-45771875D03*
X107132500Y-47221875D03*
D22*
X107692500Y-53736875D03*
D19*
X109382500Y-51196875D03*
D12*
X109682500Y-45646875D03*
D11*
X110982500Y-58196875D03*
D10*
X111082500Y-51446875D03*
D11*
X96782500Y-44196875D03*
X110982500Y-44196875D03*
D10*
X111082500Y-48046875D03*
X96682500Y-48046875D03*
X96682500Y-49746875D03*
X111082500Y-49746875D03*
%TD*%
%TO.C,REF\u002A\u002A*%
X65646875Y-37080000D03*
D11*
X65746875Y-43830000D03*
D12*
X67046875Y-31280000D03*
D19*
X67346875Y-36830000D03*
D22*
X70306875Y-41910000D03*
D15*
X70896875Y-31405000D03*
X70896875Y-32855000D03*
D10*
X71146875Y-29830000D03*
X71146875Y-43830000D03*
X72846875Y-29830000D03*
D23*
X72846875Y-36830000D03*
D10*
X72846875Y-43830000D03*
D17*
X73486875Y-32132000D03*
D18*
X73496875Y-32130000D03*
D10*
X74546875Y-29830000D03*
X74546875Y-43830000D03*
D15*
X76096875Y-31405000D03*
X76096875Y-32855000D03*
D22*
X76656875Y-39370000D03*
D19*
X78346875Y-36830000D03*
D12*
X78646875Y-31280000D03*
D11*
X79946875Y-43830000D03*
D10*
X80046875Y-37080000D03*
D11*
X65746875Y-29830000D03*
X79946875Y-29830000D03*
D10*
X80046875Y-33680000D03*
X65646875Y-33680000D03*
X65646875Y-35380000D03*
X80046875Y-35380000D03*
%TD*%
%TO.C,REF\u002A\u002A*%
X34611250Y35071875D03*
D11*
X34711250Y28321875D03*
D12*
X36011250Y40871875D03*
D19*
X36311250Y35321875D03*
D22*
X39271250Y30241875D03*
D15*
X39861250Y40746875D03*
X39861250Y39296875D03*
D10*
X40111250Y42321875D03*
X40111250Y28321875D03*
X41811250Y42321875D03*
D23*
X41811250Y35321875D03*
D10*
X41811250Y28321875D03*
D17*
X42451250Y40019875D03*
D18*
X42461250Y40021875D03*
D10*
X43511250Y42321875D03*
X43511250Y28321875D03*
D15*
X45061250Y40746875D03*
X45061250Y39296875D03*
D22*
X45621250Y32781875D03*
D19*
X47311250Y35321875D03*
D12*
X47611250Y40871875D03*
D11*
X48911250Y28321875D03*
D10*
X49011250Y35071875D03*
D11*
X34711250Y42321875D03*
X48911250Y42321875D03*
D10*
X49011250Y38471875D03*
X34611250Y38471875D03*
X34611250Y36771875D03*
X49011250Y36771875D03*
%TD*%
%TO.C,REF\u002A\u002A*%
X127340625Y-7870000D03*
D11*
X127440625Y-14620000D03*
D12*
X128740625Y-2070000D03*
D19*
X129040625Y-7620000D03*
D22*
X132000625Y-12700000D03*
D15*
X132590625Y-2195000D03*
X132590625Y-3645000D03*
D10*
X132840625Y-620000D03*
X132840625Y-14620000D03*
X134540625Y-620000D03*
D23*
X134540625Y-7620000D03*
D10*
X134540625Y-14620000D03*
D17*
X135180625Y-2922000D03*
D18*
X135190625Y-2920000D03*
D10*
X136240625Y-620000D03*
X136240625Y-14620000D03*
D15*
X137790625Y-2195000D03*
X137790625Y-3645000D03*
D22*
X138350625Y-10160000D03*
D19*
X140040625Y-7620000D03*
D12*
X140340625Y-2070000D03*
D11*
X141640625Y-14620000D03*
D10*
X141740625Y-7870000D03*
D11*
X127440625Y-620000D03*
X141640625Y-620000D03*
D10*
X141740625Y-4470000D03*
X127340625Y-4470000D03*
X127340625Y-6170000D03*
X141740625Y-6170000D03*
%TD*%
%TO.C,REF\u002A\u002A*%
X80906250Y6417500D03*
D11*
X81006250Y-332500D03*
D12*
X82306250Y12217500D03*
D13*
X82606250Y6667500D03*
D14*
X83106250Y2867500D03*
X83706250Y1967500D03*
D15*
X86156250Y12092500D03*
X86156250Y10642500D03*
D10*
X86406250Y13667500D03*
X86406250Y-332500D03*
X88106250Y13667500D03*
D16*
X88106250Y6667500D03*
D14*
X88106250Y767500D03*
D10*
X88106250Y-332500D03*
D14*
X88606250Y767500D03*
D17*
X88746250Y11365500D03*
D18*
X88756250Y11367500D03*
D10*
X89806250Y13667500D03*
X89806250Y-332500D03*
D14*
X90706250Y917500D03*
D15*
X91356250Y12092500D03*
X91356250Y10642500D03*
D14*
X92806250Y3567500D03*
D13*
X93606250Y6667500D03*
D12*
X93906250Y12217500D03*
D11*
X95206250Y-332500D03*
D10*
X95306250Y6417500D03*
D11*
X81006250Y13667500D03*
X95206250Y13667500D03*
D10*
X95306250Y9817500D03*
X80906250Y9817500D03*
X80906250Y8117500D03*
X95306250Y8117500D03*
%TD*%
%TO.C,REF\u002A\u002A*%
X65646875Y6417500D03*
D11*
X65746875Y-332500D03*
D12*
X67046875Y12217500D03*
D19*
X67346875Y6667500D03*
D22*
X70306875Y1587500D03*
D15*
X70896875Y12092500D03*
X70896875Y10642500D03*
D10*
X71146875Y13667500D03*
X71146875Y-332500D03*
X72846875Y13667500D03*
D23*
X72846875Y6667500D03*
D10*
X72846875Y-332500D03*
D17*
X73486875Y11365500D03*
D18*
X73496875Y11367500D03*
D10*
X74546875Y13667500D03*
X74546875Y-332500D03*
D15*
X76096875Y12092500D03*
X76096875Y10642500D03*
D22*
X76656875Y4127500D03*
D19*
X78346875Y6667500D03*
D12*
X78646875Y12217500D03*
D11*
X79946875Y-332500D03*
D10*
X80046875Y6417500D03*
D11*
X65746875Y13667500D03*
X79946875Y13667500D03*
D10*
X80046875Y9817500D03*
X65646875Y9817500D03*
X65646875Y8117500D03*
X80046875Y8117500D03*
%TD*%
%TO.C,REF\u002A\u002A*%
X49950000Y-37080000D03*
D11*
X50050000Y-43830000D03*
D12*
X51350000Y-31280000D03*
D13*
X51650000Y-36830000D03*
D14*
X52150000Y-40630000D03*
X52750000Y-41530000D03*
D15*
X55200000Y-31405000D03*
X55200000Y-32855000D03*
D10*
X55450000Y-29830000D03*
X55450000Y-43830000D03*
X57150000Y-29830000D03*
D16*
X57150000Y-36830000D03*
D14*
X57150000Y-42730000D03*
D10*
X57150000Y-43830000D03*
D14*
X57650000Y-42730000D03*
D17*
X57790000Y-32132000D03*
D18*
X57800000Y-32130000D03*
D10*
X58850000Y-29830000D03*
X58850000Y-43830000D03*
D14*
X59750000Y-42580000D03*
D15*
X60400000Y-31405000D03*
X60400000Y-32855000D03*
D14*
X61850000Y-39930000D03*
D13*
X62650000Y-36830000D03*
D12*
X62950000Y-31280000D03*
D11*
X64250000Y-43830000D03*
D10*
X64350000Y-37080000D03*
D11*
X50050000Y-29830000D03*
X64250000Y-29830000D03*
D10*
X64350000Y-33680000D03*
X49950000Y-33680000D03*
X49950000Y-35380000D03*
X64350000Y-35380000D03*
%TD*%
%TO.C,REF\u002A\u002A*%
X65726250Y-65734375D03*
D11*
X65826250Y-72484375D03*
D12*
X67126250Y-59934375D03*
D19*
X67426250Y-65484375D03*
D22*
X70386250Y-70564375D03*
D15*
X70976250Y-60059375D03*
X70976250Y-61509375D03*
D10*
X71226250Y-58484375D03*
X71226250Y-72484375D03*
X72926250Y-58484375D03*
D23*
X72926250Y-65484375D03*
D10*
X72926250Y-72484375D03*
D17*
X73566250Y-60786375D03*
D18*
X73576250Y-60784375D03*
D10*
X74626250Y-58484375D03*
X74626250Y-72484375D03*
D15*
X76176250Y-60059375D03*
X76176250Y-61509375D03*
D22*
X76736250Y-68024375D03*
D19*
X78426250Y-65484375D03*
D12*
X78726250Y-59934375D03*
D11*
X80026250Y-72484375D03*
D10*
X80126250Y-65734375D03*
D11*
X65826250Y-58484375D03*
X80026250Y-58484375D03*
D10*
X80126250Y-62334375D03*
X65726250Y-62334375D03*
X65726250Y-64034375D03*
X80126250Y-64034375D03*
%TD*%
%TO.C,REF\u002A\u002A*%
X96523750Y20784375D03*
D11*
X96623750Y14034375D03*
D12*
X97923750Y26584375D03*
D19*
X98223750Y21034375D03*
D22*
X101183750Y15954375D03*
D15*
X101773750Y26459375D03*
X101773750Y25009375D03*
D10*
X102023750Y28034375D03*
X102023750Y14034375D03*
X103723750Y28034375D03*
D23*
X103723750Y21034375D03*
D10*
X103723750Y14034375D03*
D17*
X104363750Y25732375D03*
D18*
X104373750Y25734375D03*
D10*
X105423750Y28034375D03*
X105423750Y14034375D03*
D15*
X106973750Y26459375D03*
X106973750Y25009375D03*
D22*
X107533750Y18494375D03*
D19*
X109223750Y21034375D03*
D12*
X109523750Y26584375D03*
D11*
X110823750Y14034375D03*
D10*
X110923750Y20784375D03*
D11*
X96623750Y28034375D03*
X110823750Y28034375D03*
D10*
X110923750Y24184375D03*
X96523750Y24184375D03*
X96523750Y22484375D03*
X110923750Y22484375D03*
%TD*%
%TO.C,REF\u002A\u002A*%
X34690625Y-7870000D03*
D11*
X34790625Y-14620000D03*
D12*
X36090625Y-2070000D03*
D19*
X36390625Y-7620000D03*
D22*
X39350625Y-12700000D03*
D15*
X39940625Y-2195000D03*
X39940625Y-3645000D03*
D10*
X40190625Y-620000D03*
X40190625Y-14620000D03*
X41890625Y-620000D03*
D23*
X41890625Y-7620000D03*
D10*
X41890625Y-14620000D03*
D17*
X42530625Y-2922000D03*
D18*
X42540625Y-2920000D03*
D10*
X43590625Y-620000D03*
X43590625Y-14620000D03*
D15*
X45140625Y-2195000D03*
X45140625Y-3645000D03*
D22*
X45700625Y-10160000D03*
D19*
X47390625Y-7620000D03*
D12*
X47690625Y-2070000D03*
D11*
X48990625Y-14620000D03*
D10*
X49090625Y-7870000D03*
D11*
X34790625Y-620000D03*
X48990625Y-620000D03*
D10*
X49090625Y-4470000D03*
X34690625Y-4470000D03*
X34690625Y-6170000D03*
X49090625Y-6170000D03*
%TD*%
%TO.C,REF\u002A\u002A*%
X157900000Y-94230000D03*
D11*
X158000000Y-100980000D03*
D12*
X159300000Y-88430000D03*
D19*
X159600000Y-93980000D03*
D10*
X161350000Y-94450000D03*
D20*
X161750000Y-97130000D03*
X161750000Y-99030000D03*
D15*
X163150000Y-88555000D03*
X163150000Y-90005000D03*
D10*
X163400000Y-86980000D03*
X163400000Y-100980000D03*
X165100000Y-86980000D03*
D21*
X165100000Y-93980000D03*
D10*
X165100000Y-100980000D03*
D17*
X165740000Y-89282000D03*
D18*
X165750000Y-89280000D03*
D10*
X166800000Y-86980000D03*
X166800000Y-100980000D03*
D20*
X167650000Y-97130000D03*
X167650000Y-99030000D03*
D15*
X168350000Y-88555000D03*
X168350000Y-90005000D03*
D10*
X168910000Y-96540000D03*
D19*
X170600000Y-93980000D03*
D12*
X170900000Y-88430000D03*
D11*
X172200000Y-100980000D03*
D10*
X172300000Y-94230000D03*
D11*
X158000000Y-86980000D03*
X172200000Y-86980000D03*
D10*
X172300000Y-90830000D03*
X157900000Y-90830000D03*
X157900000Y-92530000D03*
X172300000Y-92530000D03*
%TD*%
%TO.C,REF\u002A\u002A*%
X142679375Y-51446875D03*
D11*
X142779375Y-58196875D03*
D12*
X144079375Y-45646875D03*
D13*
X144379375Y-51196875D03*
D14*
X144879375Y-54996875D03*
X145479375Y-55896875D03*
D15*
X147929375Y-45771875D03*
X147929375Y-47221875D03*
D10*
X148179375Y-44196875D03*
X148179375Y-58196875D03*
X149879375Y-44196875D03*
D16*
X149879375Y-51196875D03*
D14*
X149879375Y-57096875D03*
D10*
X149879375Y-58196875D03*
D14*
X150379375Y-57096875D03*
D17*
X150519375Y-46498875D03*
D18*
X150529375Y-46496875D03*
D10*
X151579375Y-44196875D03*
X151579375Y-58196875D03*
D14*
X152479375Y-56946875D03*
D15*
X153129375Y-45771875D03*
X153129375Y-47221875D03*
D14*
X154579375Y-54296875D03*
D13*
X155379375Y-51196875D03*
D12*
X155679375Y-45646875D03*
D11*
X156979375Y-58196875D03*
D10*
X157079375Y-51446875D03*
D11*
X142779375Y-44196875D03*
X156979375Y-44196875D03*
D10*
X157079375Y-48046875D03*
X142679375Y-48046875D03*
X142679375Y-49746875D03*
X157079375Y-49746875D03*
%TD*%
%TO.C,REF\u002A\u002A*%
X157900000Y-22792500D03*
D11*
X158000000Y-29542500D03*
D12*
X159300000Y-16992500D03*
D19*
X159600000Y-22542500D03*
D22*
X162560000Y-27622500D03*
D15*
X163150000Y-17117500D03*
X163150000Y-18567500D03*
D10*
X163400000Y-15542500D03*
X163400000Y-29542500D03*
X165100000Y-15542500D03*
D23*
X165100000Y-22542500D03*
D10*
X165100000Y-29542500D03*
D17*
X165740000Y-17844500D03*
D18*
X165750000Y-17842500D03*
D10*
X166800000Y-15542500D03*
X166800000Y-29542500D03*
D15*
X168350000Y-17117500D03*
X168350000Y-18567500D03*
D22*
X168910000Y-25082500D03*
D19*
X170600000Y-22542500D03*
D12*
X170900000Y-16992500D03*
D11*
X172200000Y-29542500D03*
D10*
X172300000Y-22792500D03*
D11*
X158000000Y-15542500D03*
X172200000Y-15542500D03*
D10*
X172300000Y-19392500D03*
X157900000Y-19392500D03*
X157900000Y-21092500D03*
X172300000Y-21092500D03*
%TD*%
%TO.C,REF\u002A\u002A*%
X34293750Y-79942500D03*
D11*
X34393750Y-86692500D03*
D12*
X35693750Y-74142500D03*
D19*
X35993750Y-79692500D03*
D22*
X38953750Y-84772500D03*
D15*
X39543750Y-74267500D03*
X39543750Y-75717500D03*
D10*
X39793750Y-72692500D03*
X39793750Y-86692500D03*
X41493750Y-72692500D03*
D23*
X41493750Y-79692500D03*
D10*
X41493750Y-86692500D03*
D17*
X42133750Y-74994500D03*
D18*
X42143750Y-74992500D03*
D10*
X43193750Y-72692500D03*
X43193750Y-86692500D03*
D15*
X44743750Y-74267500D03*
X44743750Y-75717500D03*
D22*
X45303750Y-82232500D03*
D19*
X46993750Y-79692500D03*
D12*
X47293750Y-74142500D03*
D11*
X48593750Y-86692500D03*
D10*
X48693750Y-79942500D03*
D11*
X34393750Y-72692500D03*
X48593750Y-72692500D03*
D10*
X48693750Y-76542500D03*
X34293750Y-76542500D03*
X34293750Y-78242500D03*
X48693750Y-78242500D03*
%TD*%
%TO.C,REF\u002A\u002A*%
X111862500Y-7870000D03*
D11*
X111962500Y-14620000D03*
D12*
X113262500Y-2070000D03*
D13*
X113562500Y-7620000D03*
D14*
X114062500Y-11420000D03*
X114662500Y-12320000D03*
D15*
X117112500Y-2195000D03*
X117112500Y-3645000D03*
D10*
X117362500Y-620000D03*
X117362500Y-14620000D03*
X119062500Y-620000D03*
D16*
X119062500Y-7620000D03*
D14*
X119062500Y-13520000D03*
D10*
X119062500Y-14620000D03*
D14*
X119562500Y-13520000D03*
D17*
X119702500Y-2922000D03*
D18*
X119712500Y-2920000D03*
D10*
X120762500Y-620000D03*
X120762500Y-14620000D03*
D14*
X121662500Y-13370000D03*
D15*
X122312500Y-2195000D03*
X122312500Y-3645000D03*
D14*
X123762500Y-10720000D03*
D13*
X124562500Y-7620000D03*
D12*
X124862500Y-2070000D03*
D11*
X126162500Y-14620000D03*
D10*
X126262500Y-7870000D03*
D11*
X111962500Y-620000D03*
X126162500Y-620000D03*
D10*
X126262500Y-4470000D03*
X111862500Y-4470000D03*
X111862500Y-6170000D03*
X126262500Y-6170000D03*
%TD*%
%TO.C,REF\u002A\u002A*%
X34690625Y-37080000D03*
D11*
X34790625Y-43830000D03*
D12*
X36090625Y-31280000D03*
D19*
X36390625Y-36830000D03*
D22*
X39350625Y-41910000D03*
D15*
X39940625Y-31405000D03*
X39940625Y-32855000D03*
D10*
X40190625Y-29830000D03*
X40190625Y-43830000D03*
X41890625Y-29830000D03*
D23*
X41890625Y-36830000D03*
D10*
X41890625Y-43830000D03*
D17*
X42530625Y-32132000D03*
D18*
X42540625Y-32130000D03*
D10*
X43590625Y-29830000D03*
X43590625Y-43830000D03*
D15*
X45140625Y-31405000D03*
X45140625Y-32855000D03*
D22*
X45700625Y-39370000D03*
D19*
X47390625Y-36830000D03*
D12*
X47690625Y-31280000D03*
D11*
X48990625Y-43830000D03*
D10*
X49090625Y-37080000D03*
D11*
X34790625Y-29830000D03*
X48990625Y-29830000D03*
D10*
X49090625Y-33680000D03*
X34690625Y-33680000D03*
X34690625Y-35380000D03*
X49090625Y-35380000D03*
%TD*%
%TO.C,REF\u002A\u002A*%
X127340625Y6417500D03*
D11*
X127440625Y-332500D03*
D12*
X128740625Y12217500D03*
D19*
X129040625Y6667500D03*
D22*
X132000625Y1587500D03*
D15*
X132590625Y12092500D03*
X132590625Y10642500D03*
D10*
X132840625Y13667500D03*
X132840625Y-332500D03*
X134540625Y13667500D03*
D23*
X134540625Y6667500D03*
D10*
X134540625Y-332500D03*
D17*
X135180625Y11365500D03*
D18*
X135190625Y11367500D03*
D10*
X136240625Y13667500D03*
X136240625Y-332500D03*
D15*
X137790625Y12092500D03*
X137790625Y10642500D03*
D22*
X138350625Y4127500D03*
D19*
X140040625Y6667500D03*
D12*
X140340625Y12217500D03*
D11*
X141640625Y-332500D03*
D10*
X141740625Y6417500D03*
D11*
X127440625Y13667500D03*
X141640625Y13667500D03*
D10*
X141740625Y9817500D03*
X127340625Y9817500D03*
X127340625Y8117500D03*
X141740625Y8117500D03*
%TD*%
%TO.C,REF\u002A\u002A*%
X127340625Y-22792500D03*
D11*
X127440625Y-29542500D03*
D12*
X128740625Y-16992500D03*
D19*
X129040625Y-22542500D03*
D22*
X132000625Y-27622500D03*
D15*
X132590625Y-17117500D03*
X132590625Y-18567500D03*
D10*
X132840625Y-15542500D03*
X132840625Y-29542500D03*
X134540625Y-15542500D03*
D23*
X134540625Y-22542500D03*
D10*
X134540625Y-29542500D03*
D17*
X135180625Y-17844500D03*
D18*
X135190625Y-17842500D03*
D10*
X136240625Y-15542500D03*
X136240625Y-29542500D03*
D15*
X137790625Y-17117500D03*
X137790625Y-18567500D03*
D22*
X138350625Y-25082500D03*
D19*
X140040625Y-22542500D03*
D12*
X140340625Y-16992500D03*
D11*
X141640625Y-29542500D03*
D10*
X141740625Y-22792500D03*
D11*
X127440625Y-15542500D03*
X141640625Y-15542500D03*
D10*
X141740625Y-19392500D03*
X127340625Y-19392500D03*
X127340625Y-21092500D03*
X141740625Y-21092500D03*
%TD*%
%TO.C,REF\u002A\u002A*%
X65250000Y-79942500D03*
D11*
X65350000Y-86692500D03*
D12*
X66650000Y-74142500D03*
D19*
X66950000Y-79692500D03*
D22*
X69910000Y-84772500D03*
D15*
X70500000Y-74267500D03*
X70500000Y-75717500D03*
D10*
X70750000Y-72692500D03*
X70750000Y-86692500D03*
X72450000Y-72692500D03*
D23*
X72450000Y-79692500D03*
D10*
X72450000Y-86692500D03*
D17*
X73090000Y-74994500D03*
D18*
X73100000Y-74992500D03*
D10*
X74150000Y-72692500D03*
X74150000Y-86692500D03*
D15*
X75700000Y-74267500D03*
X75700000Y-75717500D03*
D22*
X76260000Y-82232500D03*
D19*
X77950000Y-79692500D03*
D12*
X78250000Y-74142500D03*
D11*
X79550000Y-86692500D03*
D10*
X79650000Y-79942500D03*
D11*
X65350000Y-72692500D03*
X79550000Y-72692500D03*
D10*
X79650000Y-76542500D03*
X65250000Y-76542500D03*
X65250000Y-78242500D03*
X79650000Y-78242500D03*
%TD*%
%TO.C,REF\u002A\u002A*%
X126943750Y-79942500D03*
D11*
X127043750Y-86692500D03*
D12*
X128343750Y-74142500D03*
D19*
X128643750Y-79692500D03*
D22*
X131603750Y-84772500D03*
D15*
X132193750Y-74267500D03*
X132193750Y-75717500D03*
D10*
X132443750Y-72692500D03*
X132443750Y-86692500D03*
X134143750Y-72692500D03*
D23*
X134143750Y-79692500D03*
D10*
X134143750Y-86692500D03*
D17*
X134783750Y-74994500D03*
D18*
X134793750Y-74992500D03*
D10*
X135843750Y-72692500D03*
X135843750Y-86692500D03*
D15*
X137393750Y-74267500D03*
X137393750Y-75717500D03*
D22*
X137953750Y-82232500D03*
D19*
X139643750Y-79692500D03*
D12*
X139943750Y-74142500D03*
D11*
X141243750Y-86692500D03*
D10*
X141343750Y-79942500D03*
D11*
X127043750Y-72692500D03*
X141243750Y-72692500D03*
D10*
X141343750Y-76542500D03*
X126943750Y-76542500D03*
X126943750Y-78242500D03*
X141343750Y-78242500D03*
%TD*%
%TO.C,REF\u002A\u002A*%
X111862500Y6417500D03*
D11*
X111962500Y-332500D03*
D12*
X113262500Y12217500D03*
D13*
X113562500Y6667500D03*
D14*
X114062500Y2867500D03*
X114662500Y1967500D03*
D15*
X117112500Y12092500D03*
X117112500Y10642500D03*
D10*
X117362500Y13667500D03*
X117362500Y-332500D03*
X119062500Y13667500D03*
D16*
X119062500Y6667500D03*
D14*
X119062500Y767500D03*
D10*
X119062500Y-332500D03*
D14*
X119562500Y767500D03*
D17*
X119702500Y11365500D03*
D18*
X119712500Y11367500D03*
D10*
X120762500Y13667500D03*
X120762500Y-332500D03*
D14*
X121662500Y917500D03*
D15*
X122312500Y12092500D03*
X122312500Y10642500D03*
D14*
X123762500Y3567500D03*
D13*
X124562500Y6667500D03*
D12*
X124862500Y12217500D03*
D11*
X126162500Y-332500D03*
D10*
X126262500Y6417500D03*
D11*
X111962500Y13667500D03*
X126162500Y13667500D03*
D10*
X126262500Y9817500D03*
X111862500Y9817500D03*
X111862500Y8117500D03*
X126262500Y8117500D03*
%TD*%
M02*
