%TF.GenerationSoftware,KiCad,Pcbnew,7.0.2*%
%TF.CreationDate,2023-05-08T22:29:03+02:00*%
%TF.ProjectId,verasity_PCB,76657261-7369-4747-995f-5043422e6b69,rev?*%
%TF.SameCoordinates,Original*%
%TF.FileFunction,Paste,Bot*%
%TF.FilePolarity,Positive*%
%FSLAX46Y46*%
G04 Gerber Fmt 4.6, Leading zero omitted, Abs format (unit mm)*
G04 Created by KiCad (PCBNEW 7.0.2) date 2023-05-08 22:29:03*
%MOMM*%
%LPD*%
G01*
G04 APERTURE LIST*
G04 Aperture macros list*
%AMRoundRect*
0 Rectangle with rounded corners*
0 $1 Rounding radius*
0 $2 $3 $4 $5 $6 $7 $8 $9 X,Y pos of 4 corners*
0 Add a 4 corners polygon primitive as box body*
4,1,4,$2,$3,$4,$5,$6,$7,$8,$9,$2,$3,0*
0 Add four circle primitives for the rounded corners*
1,1,$1+$1,$2,$3*
1,1,$1+$1,$4,$5*
1,1,$1+$1,$6,$7*
1,1,$1+$1,$8,$9*
0 Add four rect primitives between the rounded corners*
20,1,$1+$1,$2,$3,$4,$5,0*
20,1,$1+$1,$4,$5,$6,$7,0*
20,1,$1+$1,$6,$7,$8,$9,0*
20,1,$1+$1,$8,$9,$2,$3,0*%
G04 Aperture macros list end*
%ADD10RoundRect,0.225000X-0.225000X-0.375000X0.225000X-0.375000X0.225000X0.375000X-0.225000X0.375000X0*%
%ADD11R,1.400000X0.800000*%
%ADD12R,3.170000X3.170000*%
%ADD13R,2.000000X5.900000*%
G04 APERTURE END LIST*
D10*
%TO.C,REF\u002A\u002A*%
X143829375Y-67484375D03*
X147129375Y-67484375D03*
D11*
X147929375Y-60059375D03*
X147929375Y-61509375D03*
X153129375Y-60059375D03*
X153129375Y-61509375D03*
%TD*%
D10*
%TO.C,REF\u002A\u002A*%
X82056250Y-24542500D03*
X85356250Y-24542500D03*
D11*
X86156250Y-17117500D03*
X86156250Y-18567500D03*
X91356250Y-17117500D03*
X91356250Y-18567500D03*
%TD*%
%TO.C,REF\u002A\u002A*%
X163150000Y-74267500D03*
X163150000Y-75717500D03*
X168350000Y-74267500D03*
X168350000Y-75717500D03*
%TD*%
D10*
%TO.C,REF\u002A\u002A*%
X159129375Y-53196875D03*
D12*
X159514375Y-56611875D03*
D10*
X162429375Y-53196875D03*
D11*
X163229375Y-45771875D03*
X163229375Y-47221875D03*
X168429375Y-45771875D03*
X168429375Y-47221875D03*
D13*
X171429375Y-55246875D03*
%TD*%
D10*
%TO.C,REF\u002A\u002A*%
X113091875Y-53196875D03*
X116391875Y-53196875D03*
D11*
X117191875Y-45771875D03*
X117191875Y-47221875D03*
X122391875Y-45771875D03*
X122391875Y-47221875D03*
%TD*%
D10*
%TO.C,REF\u002A\u002A*%
X159050000Y-9620000D03*
X162350000Y-9620000D03*
D11*
X163150000Y-2195000D03*
X163150000Y-3645000D03*
X168350000Y-2195000D03*
X168350000Y-3645000D03*
%TD*%
D10*
%TO.C,REF\u002A\u002A*%
X143750000Y4667500D03*
X147050000Y4667500D03*
D11*
X147850000Y12092500D03*
X147850000Y10642500D03*
X153050000Y12092500D03*
X153050000Y10642500D03*
%TD*%
D10*
%TO.C,REF\u002A\u002A*%
X35840625Y4667500D03*
D12*
X36225625Y1252500D03*
D10*
X39140625Y4667500D03*
D11*
X39940625Y12092500D03*
X39940625Y10642500D03*
X45140625Y12092500D03*
X45140625Y10642500D03*
D13*
X48140625Y2617500D03*
%TD*%
D10*
%TO.C,REF\u002A\u002A*%
X66876250Y-53196875D03*
D12*
X67261250Y-56611875D03*
D10*
X70176250Y-53196875D03*
D11*
X70976250Y-45771875D03*
X70976250Y-47221875D03*
X76176250Y-45771875D03*
X76176250Y-47221875D03*
D13*
X79176250Y-55246875D03*
%TD*%
D10*
%TO.C,REF\u002A\u002A*%
X82135625Y-67484375D03*
X85435625Y-67484375D03*
D11*
X86235625Y-60059375D03*
X86235625Y-61509375D03*
X91435625Y-60059375D03*
X91435625Y-61509375D03*
%TD*%
D10*
%TO.C,REF\u002A\u002A*%
X66400000Y-95980000D03*
D12*
X66785000Y-99395000D03*
D10*
X69700000Y-95980000D03*
D11*
X70500000Y-88555000D03*
X70500000Y-90005000D03*
X75700000Y-88555000D03*
X75700000Y-90005000D03*
D13*
X78700000Y-98030000D03*
%TD*%
D10*
%TO.C,REF\u002A\u002A*%
X97753125Y4667500D03*
D12*
X98138125Y1252500D03*
D10*
X101053125Y4667500D03*
D11*
X101853125Y12092500D03*
X101853125Y10642500D03*
X107053125Y12092500D03*
X107053125Y10642500D03*
D13*
X110053125Y2617500D03*
%TD*%
D10*
%TO.C,REF\u002A\u002A*%
X51020625Y19034375D03*
X54320625Y19034375D03*
D11*
X55120625Y26459375D03*
X55120625Y25009375D03*
X60320625Y26459375D03*
X60320625Y25009375D03*
%TD*%
D10*
%TO.C,REF\u002A\u002A*%
X159129375Y-67484375D03*
X162429375Y-67484375D03*
D11*
X163229375Y-60059375D03*
X163229375Y-61509375D03*
X168429375Y-60059375D03*
X168429375Y-61509375D03*
%TD*%
D10*
%TO.C,REF\u002A\u002A*%
X35761250Y19034375D03*
D12*
X36146250Y15619375D03*
D10*
X39061250Y19034375D03*
D11*
X39861250Y26459375D03*
X39861250Y25009375D03*
X45061250Y26459375D03*
X45061250Y25009375D03*
D13*
X48061250Y16984375D03*
%TD*%
D10*
%TO.C,REF\u002A\u002A*%
X66796875Y-9620000D03*
D12*
X67181875Y-13035000D03*
D10*
X70096875Y-9620000D03*
D11*
X70896875Y-2195000D03*
X70896875Y-3645000D03*
X76096875Y-2195000D03*
X76096875Y-3645000D03*
D13*
X79096875Y-11670000D03*
%TD*%
D10*
%TO.C,REF\u002A\u002A*%
X143353125Y-95980000D03*
X146653125Y-95980000D03*
D11*
X147453125Y-88555000D03*
X147453125Y-90005000D03*
X152653125Y-88555000D03*
X152653125Y-90005000D03*
%TD*%
D10*
%TO.C,REF\u002A\u002A*%
X35920000Y-53196875D03*
D12*
X36305000Y-56611875D03*
D10*
X39220000Y-53196875D03*
D11*
X40020000Y-45771875D03*
X40020000Y-47221875D03*
X45220000Y-45771875D03*
X45220000Y-47221875D03*
D13*
X48220000Y-55246875D03*
%TD*%
D10*
%TO.C,REF\u002A\u002A*%
X81976875Y19034375D03*
X85276875Y19034375D03*
D11*
X86076875Y26459375D03*
X86076875Y25009375D03*
X91276875Y26459375D03*
X91276875Y25009375D03*
%TD*%
D10*
%TO.C,REF\u002A\u002A*%
X143670625Y33321875D03*
X146970625Y33321875D03*
D11*
X147770625Y40746875D03*
X147770625Y39296875D03*
X152970625Y40746875D03*
X152970625Y39296875D03*
%TD*%
D10*
%TO.C,REF\u002A\u002A*%
X82135625Y-53196875D03*
X85435625Y-53196875D03*
D11*
X86235625Y-45771875D03*
X86235625Y-47221875D03*
X91435625Y-45771875D03*
X91435625Y-47221875D03*
%TD*%
D10*
%TO.C,REF\u002A\u002A*%
X97356250Y-81692500D03*
D12*
X97741250Y-85107500D03*
D10*
X100656250Y-81692500D03*
D11*
X101456250Y-74267500D03*
X101456250Y-75717500D03*
X106656250Y-74267500D03*
X106656250Y-75717500D03*
D13*
X109656250Y-83742500D03*
%TD*%
D10*
%TO.C,REF\u002A\u002A*%
X128411250Y33321875D03*
D12*
X128796250Y29906875D03*
D10*
X131711250Y33321875D03*
D11*
X132511250Y40746875D03*
X132511250Y39296875D03*
X137711250Y40746875D03*
X137711250Y39296875D03*
D13*
X140711250Y31271875D03*
%TD*%
D10*
%TO.C,REF\u002A\u002A*%
X81976875Y33321875D03*
X85276875Y33321875D03*
D11*
X86076875Y40746875D03*
X86076875Y39296875D03*
X91276875Y40746875D03*
X91276875Y39296875D03*
%TD*%
D10*
%TO.C,REF\u002A\u002A*%
X158970625Y33321875D03*
D12*
X159355625Y29906875D03*
D10*
X162270625Y33321875D03*
D11*
X163070625Y40746875D03*
X163070625Y39296875D03*
X168270625Y40746875D03*
X168270625Y39296875D03*
D13*
X171270625Y31271875D03*
%TD*%
D10*
%TO.C,REF\u002A\u002A*%
X66717500Y33321875D03*
D12*
X67102500Y29906875D03*
D10*
X70017500Y33321875D03*
D11*
X70817500Y40746875D03*
X70817500Y39296875D03*
X76017500Y40746875D03*
X76017500Y39296875D03*
D13*
X79017500Y31271875D03*
%TD*%
D10*
%TO.C,REF\u002A\u002A*%
X128570000Y-53196875D03*
D12*
X128955000Y-56611875D03*
D10*
X131870000Y-53196875D03*
D11*
X132670000Y-45771875D03*
X132670000Y-47221875D03*
X137870000Y-45771875D03*
X137870000Y-47221875D03*
D13*
X140870000Y-55246875D03*
%TD*%
D10*
%TO.C,REF\u002A\u002A*%
X97832500Y-67484375D03*
D12*
X98217500Y-70899375D03*
D10*
X101132500Y-67484375D03*
D11*
X101932500Y-60059375D03*
X101932500Y-61509375D03*
X107132500Y-60059375D03*
X107132500Y-61509375D03*
D13*
X110132500Y-69534375D03*
%TD*%
D10*
%TO.C,REF\u002A\u002A*%
X113012500Y-24542500D03*
X116312500Y-24542500D03*
D11*
X117112500Y-17117500D03*
X117112500Y-18567500D03*
X122312500Y-17117500D03*
X122312500Y-18567500D03*
%TD*%
D10*
%TO.C,REF\u002A\u002A*%
X158970625Y19034375D03*
X162270625Y19034375D03*
D11*
X163070625Y26459375D03*
X163070625Y25009375D03*
X168270625Y26459375D03*
X168270625Y25009375D03*
%TD*%
D10*
%TO.C,REF\u002A\u002A*%
X112933125Y19034375D03*
X116233125Y19034375D03*
D11*
X117033125Y26459375D03*
X117033125Y25009375D03*
X122233125Y26459375D03*
X122233125Y25009375D03*
%TD*%
D10*
%TO.C,REF\u002A\u002A*%
X159050000Y4667500D03*
D12*
X159435000Y1252500D03*
D10*
X162350000Y4667500D03*
D11*
X163150000Y12092500D03*
X163150000Y10642500D03*
X168350000Y12092500D03*
X168350000Y10642500D03*
D13*
X171350000Y2617500D03*
%TD*%
D10*
%TO.C,REF\u002A\u002A*%
X143353125Y-81692500D03*
X146653125Y-81692500D03*
D11*
X147453125Y-74267500D03*
X147453125Y-75717500D03*
X152653125Y-74267500D03*
X152653125Y-75717500D03*
%TD*%
D10*
%TO.C,REF\u002A\u002A*%
X81659375Y-81692500D03*
X84959375Y-81692500D03*
D11*
X85759375Y-74267500D03*
X85759375Y-75717500D03*
X90959375Y-74267500D03*
X90959375Y-75717500D03*
%TD*%
D10*
%TO.C,REF\u002A\u002A*%
X128411250Y19034375D03*
D12*
X128796250Y15619375D03*
D10*
X131711250Y19034375D03*
D11*
X132511250Y26459375D03*
X132511250Y25009375D03*
X137711250Y26459375D03*
X137711250Y25009375D03*
D13*
X140711250Y16984375D03*
%TD*%
D10*
%TO.C,REF\u002A\u002A*%
X51179375Y-67484375D03*
X54479375Y-67484375D03*
D11*
X55279375Y-60059375D03*
X55279375Y-61509375D03*
X60479375Y-60059375D03*
X60479375Y-61509375D03*
%TD*%
D10*
%TO.C,REF\u002A\u002A*%
X82056250Y-38830000D03*
X85356250Y-38830000D03*
D11*
X86156250Y-31405000D03*
X86156250Y-32855000D03*
X91356250Y-31405000D03*
X91356250Y-32855000D03*
%TD*%
D10*
%TO.C,REF\u002A\u002A*%
X113012500Y-38830000D03*
X116312500Y-38830000D03*
D11*
X117112500Y-31405000D03*
X117112500Y-32855000D03*
X122312500Y-31405000D03*
X122312500Y-32855000D03*
%TD*%
D10*
%TO.C,REF\u002A\u002A*%
X128093750Y-95980000D03*
D12*
X128478750Y-99395000D03*
D10*
X131393750Y-95980000D03*
D11*
X132193750Y-88555000D03*
X132193750Y-90005000D03*
X137393750Y-88555000D03*
X137393750Y-90005000D03*
D13*
X140393750Y-98030000D03*
%TD*%
D10*
%TO.C,REF\u002A\u002A*%
X51020625Y33321875D03*
X54320625Y33321875D03*
D11*
X55120625Y40746875D03*
X55120625Y39296875D03*
X60320625Y40746875D03*
X60320625Y39296875D03*
%TD*%
D10*
%TO.C,REF\u002A\u002A*%
X112615625Y-95980000D03*
X115915625Y-95980000D03*
D11*
X116715625Y-88555000D03*
X116715625Y-90005000D03*
X121915625Y-88555000D03*
X121915625Y-90005000D03*
%TD*%
D10*
%TO.C,REF\u002A\u002A*%
X81659375Y-95980000D03*
X84959375Y-95980000D03*
D11*
X85759375Y-88555000D03*
X85759375Y-90005000D03*
X90959375Y-88555000D03*
X90959375Y-90005000D03*
%TD*%
D10*
%TO.C,REF\u002A\u002A*%
X50703125Y-95980000D03*
X54003125Y-95980000D03*
D11*
X54803125Y-88555000D03*
X54803125Y-90005000D03*
X60003125Y-88555000D03*
X60003125Y-90005000D03*
%TD*%
D10*
%TO.C,REF\u002A\u002A*%
X66717500Y19034375D03*
D12*
X67102500Y15619375D03*
D10*
X70017500Y19034375D03*
D11*
X70817500Y26459375D03*
X70817500Y25009375D03*
X76017500Y26459375D03*
X76017500Y25009375D03*
D13*
X79017500Y16984375D03*
%TD*%
D10*
%TO.C,REF\u002A\u002A*%
X143670625Y19034375D03*
X146970625Y19034375D03*
D11*
X147770625Y26459375D03*
X147770625Y25009375D03*
X152970625Y26459375D03*
X152970625Y25009375D03*
%TD*%
D10*
%TO.C,REF\u002A\u002A*%
X51179375Y-53196875D03*
X54479375Y-53196875D03*
D11*
X55279375Y-45771875D03*
X55279375Y-47221875D03*
X60479375Y-45771875D03*
X60479375Y-47221875D03*
%TD*%
D10*
%TO.C,REF\u002A\u002A*%
X82056250Y-9620000D03*
X85356250Y-9620000D03*
D11*
X86156250Y-2195000D03*
X86156250Y-3645000D03*
X91356250Y-2195000D03*
X91356250Y-3645000D03*
%TD*%
D10*
%TO.C,REF\u002A\u002A*%
X35443750Y-95980000D03*
D12*
X35828750Y-99395000D03*
D10*
X38743750Y-95980000D03*
D11*
X39543750Y-88555000D03*
X39543750Y-90005000D03*
X44743750Y-88555000D03*
X44743750Y-90005000D03*
D13*
X47743750Y-98030000D03*
%TD*%
D10*
%TO.C,REF\u002A\u002A*%
X97673750Y33321875D03*
D12*
X98058750Y29906875D03*
D10*
X100973750Y33321875D03*
D11*
X101773750Y40746875D03*
X101773750Y39296875D03*
X106973750Y40746875D03*
X106973750Y39296875D03*
D13*
X109973750Y31271875D03*
%TD*%
D10*
%TO.C,REF\u002A\u002A*%
X143750000Y-9620000D03*
X147050000Y-9620000D03*
D11*
X147850000Y-2195000D03*
X147850000Y-3645000D03*
X153050000Y-2195000D03*
X153050000Y-3645000D03*
%TD*%
D10*
%TO.C,REF\u002A\u002A*%
X50703125Y-81692500D03*
X54003125Y-81692500D03*
D11*
X54803125Y-74267500D03*
X54803125Y-75717500D03*
X60003125Y-74267500D03*
X60003125Y-75717500D03*
%TD*%
D10*
%TO.C,REF\u002A\u002A*%
X51100000Y-24542500D03*
X54400000Y-24542500D03*
D11*
X55200000Y-17117500D03*
X55200000Y-18567500D03*
X60400000Y-17117500D03*
X60400000Y-18567500D03*
%TD*%
D10*
%TO.C,REF\u002A\u002A*%
X112933125Y33321875D03*
X116233125Y33321875D03*
D11*
X117033125Y40746875D03*
X117033125Y39296875D03*
X122233125Y40746875D03*
X122233125Y39296875D03*
%TD*%
D10*
%TO.C,REF\u002A\u002A*%
X51100000Y-9620000D03*
X54400000Y-9620000D03*
D11*
X55200000Y-2195000D03*
X55200000Y-3645000D03*
X60400000Y-2195000D03*
X60400000Y-3645000D03*
%TD*%
D10*
%TO.C,REF\u002A\u002A*%
X66796875Y-24542500D03*
D12*
X67181875Y-27957500D03*
D10*
X70096875Y-24542500D03*
D11*
X70896875Y-17117500D03*
X70896875Y-18567500D03*
X76096875Y-17117500D03*
X76096875Y-18567500D03*
D13*
X79096875Y-26592500D03*
%TD*%
D10*
%TO.C,REF\u002A\u002A*%
X128570000Y-67484375D03*
D12*
X128955000Y-70899375D03*
D10*
X131870000Y-67484375D03*
D11*
X132670000Y-60059375D03*
X132670000Y-61509375D03*
X137870000Y-60059375D03*
X137870000Y-61509375D03*
D13*
X140870000Y-69534375D03*
%TD*%
D10*
%TO.C,REF\u002A\u002A*%
X97753125Y-38830000D03*
D12*
X98138125Y-42245000D03*
D10*
X101053125Y-38830000D03*
D11*
X101853125Y-31405000D03*
X101853125Y-32855000D03*
X107053125Y-31405000D03*
X107053125Y-32855000D03*
D13*
X110053125Y-40880000D03*
%TD*%
D10*
%TO.C,REF\u002A\u002A*%
X143750000Y-24542500D03*
X147050000Y-24542500D03*
D11*
X147850000Y-17117500D03*
X147850000Y-18567500D03*
X153050000Y-17117500D03*
X153050000Y-18567500D03*
%TD*%
D10*
%TO.C,REF\u002A\u002A*%
X97753125Y-24542500D03*
D12*
X98138125Y-27957500D03*
D10*
X101053125Y-24542500D03*
D11*
X101853125Y-17117500D03*
X101853125Y-18567500D03*
X107053125Y-17117500D03*
X107053125Y-18567500D03*
D13*
X110053125Y-26592500D03*
%TD*%
D10*
%TO.C,REF\u002A\u002A*%
X51100000Y4667500D03*
X54400000Y4667500D03*
D11*
X55200000Y12092500D03*
X55200000Y10642500D03*
X60400000Y12092500D03*
X60400000Y10642500D03*
%TD*%
D10*
%TO.C,REF\u002A\u002A*%
X35920000Y-67484375D03*
D12*
X36305000Y-70899375D03*
D10*
X39220000Y-67484375D03*
D11*
X40020000Y-60059375D03*
X40020000Y-61509375D03*
X45220000Y-60059375D03*
X45220000Y-61509375D03*
D13*
X48220000Y-69534375D03*
%TD*%
D10*
%TO.C,REF\u002A\u002A*%
X97753125Y-9620000D03*
D12*
X98138125Y-13035000D03*
D10*
X101053125Y-9620000D03*
D11*
X101853125Y-2195000D03*
X101853125Y-3645000D03*
X107053125Y-2195000D03*
X107053125Y-3645000D03*
D13*
X110053125Y-11670000D03*
%TD*%
D10*
%TO.C,REF\u002A\u002A*%
X143750000Y-38830000D03*
X147050000Y-38830000D03*
D11*
X147850000Y-31405000D03*
X147850000Y-32855000D03*
X153050000Y-31405000D03*
X153050000Y-32855000D03*
%TD*%
D10*
%TO.C,REF\u002A\u002A*%
X113091875Y-67484375D03*
X116391875Y-67484375D03*
D11*
X117191875Y-60059375D03*
X117191875Y-61509375D03*
X122391875Y-60059375D03*
X122391875Y-61509375D03*
%TD*%
D10*
%TO.C,REF\u002A\u002A*%
X112615625Y-81692500D03*
X115915625Y-81692500D03*
D11*
X116715625Y-74267500D03*
X116715625Y-75717500D03*
X121915625Y-74267500D03*
X121915625Y-75717500D03*
%TD*%
D10*
%TO.C,REF\u002A\u002A*%
X35840625Y-24542500D03*
D12*
X36225625Y-27957500D03*
D10*
X39140625Y-24542500D03*
D11*
X39940625Y-17117500D03*
X39940625Y-18567500D03*
X45140625Y-17117500D03*
X45140625Y-18567500D03*
D13*
X48140625Y-26592500D03*
%TD*%
D10*
%TO.C,REF\u002A\u002A*%
X159050000Y-38830000D03*
X162350000Y-38830000D03*
D11*
X163150000Y-31405000D03*
X163150000Y-32855000D03*
X168350000Y-31405000D03*
X168350000Y-32855000D03*
%TD*%
D10*
%TO.C,REF\u002A\u002A*%
X97356250Y-95980000D03*
D12*
X97741250Y-99395000D03*
D10*
X100656250Y-95980000D03*
D11*
X101456250Y-88555000D03*
X101456250Y-90005000D03*
X106656250Y-88555000D03*
X106656250Y-90005000D03*
D13*
X109656250Y-98030000D03*
%TD*%
D10*
%TO.C,REF\u002A\u002A*%
X128490625Y-38830000D03*
D12*
X128875625Y-42245000D03*
D10*
X131790625Y-38830000D03*
D11*
X132590625Y-31405000D03*
X132590625Y-32855000D03*
X137790625Y-31405000D03*
X137790625Y-32855000D03*
D13*
X140790625Y-40880000D03*
%TD*%
D10*
%TO.C,REF\u002A\u002A*%
X97832500Y-53196875D03*
D12*
X98217500Y-56611875D03*
D10*
X101132500Y-53196875D03*
D11*
X101932500Y-45771875D03*
X101932500Y-47221875D03*
X107132500Y-45771875D03*
X107132500Y-47221875D03*
D13*
X110132500Y-55246875D03*
%TD*%
D10*
%TO.C,REF\u002A\u002A*%
X66796875Y-38830000D03*
D12*
X67181875Y-42245000D03*
D10*
X70096875Y-38830000D03*
D11*
X70896875Y-31405000D03*
X70896875Y-32855000D03*
X76096875Y-31405000D03*
X76096875Y-32855000D03*
D13*
X79096875Y-40880000D03*
%TD*%
D10*
%TO.C,REF\u002A\u002A*%
X35761250Y33321875D03*
D12*
X36146250Y29906875D03*
D10*
X39061250Y33321875D03*
D11*
X39861250Y40746875D03*
X39861250Y39296875D03*
X45061250Y40746875D03*
X45061250Y39296875D03*
D13*
X48061250Y31271875D03*
%TD*%
D10*
%TO.C,REF\u002A\u002A*%
X128490625Y-9620000D03*
D12*
X128875625Y-13035000D03*
D10*
X131790625Y-9620000D03*
D11*
X132590625Y-2195000D03*
X132590625Y-3645000D03*
X137790625Y-2195000D03*
X137790625Y-3645000D03*
D13*
X140790625Y-11670000D03*
%TD*%
D10*
%TO.C,REF\u002A\u002A*%
X82056250Y4667500D03*
X85356250Y4667500D03*
D11*
X86156250Y12092500D03*
X86156250Y10642500D03*
X91356250Y12092500D03*
X91356250Y10642500D03*
%TD*%
D10*
%TO.C,REF\u002A\u002A*%
X66796875Y4667500D03*
D12*
X67181875Y1252500D03*
D10*
X70096875Y4667500D03*
D11*
X70896875Y12092500D03*
X70896875Y10642500D03*
X76096875Y12092500D03*
X76096875Y10642500D03*
D13*
X79096875Y2617500D03*
%TD*%
D10*
%TO.C,REF\u002A\u002A*%
X51100000Y-38830000D03*
X54400000Y-38830000D03*
D11*
X55200000Y-31405000D03*
X55200000Y-32855000D03*
X60400000Y-31405000D03*
X60400000Y-32855000D03*
%TD*%
D10*
%TO.C,REF\u002A\u002A*%
X66876250Y-67484375D03*
D12*
X67261250Y-70899375D03*
D10*
X70176250Y-67484375D03*
D11*
X70976250Y-60059375D03*
X70976250Y-61509375D03*
X76176250Y-60059375D03*
X76176250Y-61509375D03*
D13*
X79176250Y-69534375D03*
%TD*%
D10*
%TO.C,REF\u002A\u002A*%
X97673750Y19034375D03*
D12*
X98058750Y15619375D03*
D10*
X100973750Y19034375D03*
D11*
X101773750Y26459375D03*
X101773750Y25009375D03*
X106973750Y26459375D03*
X106973750Y25009375D03*
D13*
X109973750Y16984375D03*
%TD*%
D10*
%TO.C,REF\u002A\u002A*%
X35840625Y-9620000D03*
D12*
X36225625Y-13035000D03*
D10*
X39140625Y-9620000D03*
D11*
X39940625Y-2195000D03*
X39940625Y-3645000D03*
X45140625Y-2195000D03*
X45140625Y-3645000D03*
D13*
X48140625Y-11670000D03*
%TD*%
D11*
%TO.C,REF\u002A\u002A*%
X163150000Y-88555000D03*
X163150000Y-90005000D03*
X168350000Y-88555000D03*
X168350000Y-90005000D03*
%TD*%
D10*
%TO.C,REF\u002A\u002A*%
X143829375Y-53196875D03*
X147129375Y-53196875D03*
D11*
X147929375Y-45771875D03*
X147929375Y-47221875D03*
X153129375Y-45771875D03*
X153129375Y-47221875D03*
%TD*%
D10*
%TO.C,REF\u002A\u002A*%
X159050000Y-24542500D03*
D12*
X159435000Y-27957500D03*
D10*
X162350000Y-24542500D03*
D11*
X163150000Y-17117500D03*
X163150000Y-18567500D03*
X168350000Y-17117500D03*
X168350000Y-18567500D03*
D13*
X171350000Y-26592500D03*
%TD*%
D10*
%TO.C,REF\u002A\u002A*%
X35443750Y-81692500D03*
D12*
X35828750Y-85107500D03*
D10*
X38743750Y-81692500D03*
D11*
X39543750Y-74267500D03*
X39543750Y-75717500D03*
X44743750Y-74267500D03*
X44743750Y-75717500D03*
D13*
X47743750Y-83742500D03*
%TD*%
D10*
%TO.C,REF\u002A\u002A*%
X113012500Y-9620000D03*
X116312500Y-9620000D03*
D11*
X117112500Y-2195000D03*
X117112500Y-3645000D03*
X122312500Y-2195000D03*
X122312500Y-3645000D03*
%TD*%
D10*
%TO.C,REF\u002A\u002A*%
X35840625Y-38830000D03*
D12*
X36225625Y-42245000D03*
D10*
X39140625Y-38830000D03*
D11*
X39940625Y-31405000D03*
X39940625Y-32855000D03*
X45140625Y-31405000D03*
X45140625Y-32855000D03*
D13*
X48140625Y-40880000D03*
%TD*%
D10*
%TO.C,REF\u002A\u002A*%
X128490625Y4667500D03*
D12*
X128875625Y1252500D03*
D10*
X131790625Y4667500D03*
D11*
X132590625Y12092500D03*
X132590625Y10642500D03*
X137790625Y12092500D03*
X137790625Y10642500D03*
D13*
X140790625Y2617500D03*
%TD*%
D10*
%TO.C,REF\u002A\u002A*%
X128490625Y-24542500D03*
D12*
X128875625Y-27957500D03*
D10*
X131790625Y-24542500D03*
D11*
X132590625Y-17117500D03*
X132590625Y-18567500D03*
X137790625Y-17117500D03*
X137790625Y-18567500D03*
D13*
X140790625Y-26592500D03*
%TD*%
D10*
%TO.C,REF\u002A\u002A*%
X66400000Y-81692500D03*
D12*
X66785000Y-85107500D03*
D10*
X69700000Y-81692500D03*
D11*
X70500000Y-74267500D03*
X70500000Y-75717500D03*
X75700000Y-74267500D03*
X75700000Y-75717500D03*
D13*
X78700000Y-83742500D03*
%TD*%
D10*
%TO.C,REF\u002A\u002A*%
X128093750Y-81692500D03*
D12*
X128478750Y-85107500D03*
D10*
X131393750Y-81692500D03*
D11*
X132193750Y-74267500D03*
X132193750Y-75717500D03*
X137393750Y-74267500D03*
X137393750Y-75717500D03*
D13*
X140393750Y-83742500D03*
%TD*%
D10*
%TO.C,REF\u002A\u002A*%
X113012500Y4667500D03*
X116312500Y4667500D03*
D11*
X117112500Y12092500D03*
X117112500Y10642500D03*
X122312500Y12092500D03*
X122312500Y10642500D03*
%TD*%
M02*
