M48
; DRILL file {KiCad 7.0.2} date Mon 08 May 2023 10:29:05 PM CEST
; FORMAT={-:-/ absolute / metric / decimal}
; #@! TF.CreationDate,2023-05-08T22:29:05+02:00
; #@! TF.GenerationSoftware,Kicad,Pcbnew,7.0.2
; #@! TF.FileFunction,Plated,1,2,PTH
FMAT,2
METRIC
; #@! TA.AperFunction,Plated,PTH,ComponentDrill
T1C1.000
; #@! TA.AperFunction,Plated,PTH,ComponentDrill
T2C1.500
; #@! TA.AperFunction,Plated,PTH,ComponentDrill
T3C1.950
; #@! TA.AperFunction,Plated,PTH,ComponentDrill
T4C2.000
; #@! TA.AperFunction,Plated,PTH,ComponentDrill
T5C3.000
%
G90
G05
T1
X34.294Y-76.542
X34.294Y-78.242
X34.294Y-79.942
X34.294Y-90.83
X34.294Y-92.53
X34.294Y-94.23
X34.611Y38.472
X34.611Y36.772
X34.611Y35.072
X34.611Y24.184
X34.611Y22.484
X34.611Y20.784
X34.691Y9.817
X34.691Y8.117
X34.691Y6.417
X34.691Y-4.47
X34.691Y-6.17
X34.691Y-7.87
X34.691Y-19.392
X34.691Y-21.092
X34.691Y-22.793
X34.691Y-33.68
X34.691Y-35.38
X34.691Y-37.08
X34.77Y-48.047
X34.77Y-49.747
X34.77Y-51.447
X34.77Y-62.334
X34.77Y-64.034
X34.77Y-65.734
X39.794Y-72.692
X39.794Y-86.692
X39.794Y-86.98
X39.794Y-100.98
X40.111Y42.322
X40.111Y28.322
X40.111Y28.034
X40.111Y14.034
X40.191Y13.667
X40.191Y-0.332
X40.191Y-0.62
X40.191Y-14.62
X40.191Y-15.542
X40.191Y-29.543
X40.191Y-29.83
X40.191Y-43.83
X40.27Y-44.197
X40.27Y-58.197
X40.27Y-58.484
X40.27Y-72.484
X41.494Y-72.692
X41.494Y-86.692
X41.494Y-86.98
X41.494Y-100.98
X41.811Y42.322
X41.811Y28.322
X41.811Y28.034
X41.811Y14.034
X41.891Y13.667
X41.891Y-0.332
X41.891Y-0.62
X41.891Y-14.62
X41.891Y-15.542
X41.891Y-29.543
X41.891Y-29.83
X41.891Y-43.83
X41.97Y-44.197
X41.97Y-58.197
X41.97Y-58.484
X41.97Y-72.484
X43.194Y-72.692
X43.194Y-86.692
X43.194Y-86.98
X43.194Y-100.98
X43.511Y42.322
X43.511Y28.322
X43.511Y28.034
X43.511Y14.034
X43.591Y13.667
X43.591Y-0.332
X43.591Y-0.62
X43.591Y-14.62
X43.591Y-15.542
X43.591Y-29.543
X43.591Y-29.83
X43.591Y-43.83
X43.67Y-44.197
X43.67Y-58.197
X43.67Y-58.484
X43.67Y-72.484
X48.694Y-76.542
X48.694Y-78.242
X48.694Y-79.942
X48.694Y-90.83
X48.694Y-92.53
X48.694Y-94.23
X49.011Y38.472
X49.011Y36.772
X49.011Y35.072
X49.011Y24.184
X49.011Y22.484
X49.011Y20.784
X49.091Y9.817
X49.091Y8.117
X49.091Y6.417
X49.091Y-4.47
X49.091Y-6.17
X49.091Y-7.87
X49.091Y-19.392
X49.091Y-21.092
X49.091Y-22.793
X49.091Y-33.68
X49.091Y-35.38
X49.091Y-37.08
X49.17Y-48.047
X49.17Y-49.747
X49.17Y-51.447
X49.17Y-62.334
X49.17Y-64.034
X49.17Y-65.734
X49.553Y-76.542
X49.553Y-78.242
X49.553Y-79.942
X49.553Y-90.83
X49.553Y-92.53
X49.553Y-94.23
X49.871Y38.472
X49.871Y36.772
X49.871Y35.072
X49.871Y24.184
X49.871Y22.484
X49.871Y20.784
X49.95Y9.817
X49.95Y8.117
X49.95Y6.417
X49.95Y-4.47
X49.95Y-6.17
X49.95Y-7.87
X49.95Y-19.392
X49.95Y-21.092
X49.95Y-22.793
X49.95Y-33.68
X49.95Y-35.38
X49.95Y-37.08
X50.029Y-48.047
X50.029Y-49.747
X50.029Y-51.447
X50.029Y-62.334
X50.029Y-64.034
X50.029Y-65.734
X55.053Y-72.692
X55.053Y-86.692
X55.053Y-86.98
X55.053Y-100.98
X55.371Y42.322
X55.371Y28.322
X55.371Y28.034
X55.371Y14.034
X55.45Y13.667
X55.45Y-0.332
X55.45Y-0.62
X55.45Y-14.62
X55.45Y-15.542
X55.45Y-29.543
X55.45Y-29.83
X55.45Y-43.83
X55.529Y-44.197
X55.529Y-58.197
X55.529Y-58.484
X55.529Y-72.484
X56.753Y-72.692
X56.753Y-86.692
X56.753Y-86.98
X56.753Y-100.98
X57.071Y42.322
X57.071Y28.322
X57.071Y28.034
X57.071Y14.034
X57.15Y13.667
X57.15Y-0.332
X57.15Y-0.62
X57.15Y-14.62
X57.15Y-15.542
X57.15Y-29.543
X57.15Y-29.83
X57.15Y-43.83
X57.229Y-44.197
X57.229Y-58.197
X57.229Y-58.484
X57.229Y-72.484
X58.453Y-72.692
X58.453Y-86.692
X58.453Y-86.98
X58.453Y-100.98
X58.771Y42.322
X58.771Y28.322
X58.771Y28.034
X58.771Y14.034
X58.85Y13.667
X58.85Y-0.332
X58.85Y-0.62
X58.85Y-14.62
X58.85Y-15.542
X58.85Y-29.543
X58.85Y-29.83
X58.85Y-43.83
X58.929Y-44.197
X58.929Y-58.197
X58.929Y-58.484
X58.929Y-72.484
X63.953Y-76.542
X63.953Y-78.242
X63.953Y-79.942
X63.953Y-90.83
X63.953Y-92.53
X63.953Y-94.23
X64.271Y38.472
X64.271Y36.772
X64.271Y35.072
X64.271Y24.184
X64.271Y22.484
X64.271Y20.784
X64.35Y9.817
X64.35Y8.117
X64.35Y6.417
X64.35Y-4.47
X64.35Y-6.17
X64.35Y-7.87
X64.35Y-19.392
X64.35Y-21.092
X64.35Y-22.793
X64.35Y-33.68
X64.35Y-35.38
X64.35Y-37.08
X64.429Y-48.047
X64.429Y-49.747
X64.429Y-51.447
X64.429Y-62.334
X64.429Y-64.034
X64.429Y-65.734
X65.25Y-76.542
X65.25Y-78.242
X65.25Y-79.942
X65.25Y-90.83
X65.25Y-92.53
X65.25Y-94.23
X65.567Y38.472
X65.567Y36.772
X65.567Y35.072
X65.567Y24.184
X65.567Y22.484
X65.567Y20.784
X65.647Y9.817
X65.647Y8.117
X65.647Y6.417
X65.647Y-4.47
X65.647Y-6.17
X65.647Y-7.87
X65.647Y-19.392
X65.647Y-21.092
X65.647Y-22.793
X65.647Y-33.68
X65.647Y-35.38
X65.647Y-37.08
X65.726Y-48.047
X65.726Y-49.747
X65.726Y-51.447
X65.726Y-62.334
X65.726Y-64.034
X65.726Y-65.734
X70.75Y-72.692
X70.75Y-86.692
X70.75Y-86.98
X70.75Y-100.98
X71.067Y42.322
X71.067Y28.322
X71.067Y28.034
X71.067Y14.034
X71.147Y13.667
X71.147Y-0.332
X71.147Y-0.62
X71.147Y-14.62
X71.147Y-15.542
X71.147Y-29.543
X71.147Y-29.83
X71.147Y-43.83
X71.226Y-44.197
X71.226Y-58.197
X71.226Y-58.484
X71.226Y-72.484
X72.45Y-72.692
X72.45Y-86.692
X72.45Y-86.98
X72.45Y-100.98
X72.767Y42.322
X72.767Y28.322
X72.767Y28.034
X72.767Y14.034
X72.847Y13.667
X72.847Y-0.332
X72.847Y-0.62
X72.847Y-14.62
X72.847Y-15.542
X72.847Y-29.543
X72.847Y-29.83
X72.847Y-43.83
X72.926Y-44.197
X72.926Y-58.197
X72.926Y-58.484
X72.926Y-72.484
X74.15Y-72.692
X74.15Y-86.692
X74.15Y-86.98
X74.15Y-100.98
X74.468Y42.322
X74.468Y28.322
X74.468Y28.034
X74.468Y14.034
X74.547Y13.667
X74.547Y-0.332
X74.547Y-0.62
X74.547Y-14.62
X74.547Y-15.542
X74.547Y-29.543
X74.547Y-29.83
X74.547Y-43.83
X74.626Y-44.197
X74.626Y-58.197
X74.626Y-58.484
X74.626Y-72.484
X79.65Y-76.542
X79.65Y-78.242
X79.65Y-79.942
X79.65Y-90.83
X79.65Y-92.53
X79.65Y-94.23
X79.968Y38.472
X79.968Y36.772
X79.968Y35.072
X79.968Y24.184
X79.968Y22.484
X79.968Y20.784
X80.047Y9.817
X80.047Y8.117
X80.047Y6.417
X80.047Y-4.47
X80.047Y-6.17
X80.047Y-7.87
X80.047Y-19.392
X80.047Y-21.092
X80.047Y-22.793
X80.047Y-33.68
X80.047Y-35.38
X80.047Y-37.08
X80.126Y-48.047
X80.126Y-49.747
X80.126Y-51.447
X80.126Y-62.334
X80.126Y-64.034
X80.126Y-65.734
X80.509Y-76.542
X80.509Y-78.242
X80.509Y-79.942
X80.509Y-90.83
X80.509Y-92.53
X80.509Y-94.23
X80.827Y38.472
X80.827Y36.772
X80.827Y35.072
X80.827Y24.184
X80.827Y22.484
X80.827Y20.784
X80.906Y9.817
X80.906Y8.117
X80.906Y6.417
X80.906Y-4.47
X80.906Y-6.17
X80.906Y-7.87
X80.906Y-19.392
X80.906Y-21.092
X80.906Y-22.793
X80.906Y-33.68
X80.906Y-35.38
X80.906Y-37.08
X80.986Y-48.047
X80.986Y-49.747
X80.986Y-51.447
X80.986Y-62.334
X80.986Y-64.034
X80.986Y-65.734
X86.009Y-72.692
X86.009Y-86.692
X86.009Y-86.98
X86.009Y-100.98
X86.327Y42.322
X86.327Y28.322
X86.327Y28.034
X86.327Y14.034
X86.406Y13.667
X86.406Y-0.332
X86.406Y-0.62
X86.406Y-14.62
X86.406Y-15.542
X86.406Y-29.543
X86.406Y-29.83
X86.406Y-43.83
X86.486Y-44.197
X86.486Y-58.197
X86.486Y-58.484
X86.486Y-72.484
X87.709Y-72.692
X87.709Y-86.692
X87.709Y-86.98
X87.709Y-100.98
X88.027Y42.322
X88.027Y28.322
X88.027Y28.034
X88.027Y14.034
X88.106Y13.667
X88.106Y-0.332
X88.106Y-0.62
X88.106Y-14.62
X88.106Y-15.542
X88.106Y-29.543
X88.106Y-29.83
X88.106Y-43.83
X88.186Y-44.197
X88.186Y-58.197
X88.186Y-58.484
X88.186Y-72.484
X89.409Y-72.692
X89.409Y-86.692
X89.409Y-86.98
X89.409Y-100.98
X89.727Y42.322
X89.727Y28.322
X89.727Y28.034
X89.727Y14.034
X89.806Y13.667
X89.806Y-0.332
X89.806Y-0.62
X89.806Y-14.62
X89.806Y-15.542
X89.806Y-29.543
X89.806Y-29.83
X89.806Y-43.83
X89.886Y-44.197
X89.886Y-58.197
X89.886Y-58.484
X89.886Y-72.484
X94.909Y-76.542
X94.909Y-78.242
X94.909Y-79.942
X94.909Y-90.83
X94.909Y-92.53
X94.909Y-94.23
X95.227Y38.472
X95.227Y36.772
X95.227Y35.072
X95.227Y24.184
X95.227Y22.484
X95.227Y20.784
X95.306Y9.817
X95.306Y8.117
X95.306Y6.417
X95.306Y-4.47
X95.306Y-6.17
X95.306Y-7.87
X95.306Y-19.392
X95.306Y-21.092
X95.306Y-22.793
X95.306Y-33.68
X95.306Y-35.38
X95.306Y-37.08
X95.386Y-48.047
X95.386Y-49.747
X95.386Y-51.447
X95.386Y-62.334
X95.386Y-64.034
X95.386Y-65.734
X96.206Y-76.542
X96.206Y-78.242
X96.206Y-79.942
X96.206Y-90.83
X96.206Y-92.53
X96.206Y-94.23
X96.524Y38.472
X96.524Y36.772
X96.524Y35.072
X96.524Y24.184
X96.524Y22.484
X96.524Y20.784
X96.603Y9.817
X96.603Y8.117
X96.603Y6.417
X96.603Y-4.47
X96.603Y-6.17
X96.603Y-7.87
X96.603Y-19.392
X96.603Y-21.092
X96.603Y-22.793
X96.603Y-33.68
X96.603Y-35.38
X96.603Y-37.08
X96.682Y-48.047
X96.682Y-49.747
X96.682Y-51.447
X96.682Y-62.334
X96.682Y-64.034
X96.682Y-65.734
X101.706Y-72.692
X101.706Y-86.692
X101.706Y-86.98
X101.706Y-100.98
X102.024Y42.322
X102.024Y28.322
X102.024Y28.034
X102.024Y14.034
X102.103Y13.667
X102.103Y-0.332
X102.103Y-0.62
X102.103Y-14.62
X102.103Y-15.542
X102.103Y-29.543
X102.103Y-29.83
X102.103Y-43.83
X102.182Y-44.197
X102.182Y-58.197
X102.182Y-58.484
X102.182Y-72.484
X103.406Y-72.692
X103.406Y-86.692
X103.406Y-86.98
X103.406Y-100.98
X103.724Y42.322
X103.724Y28.322
X103.724Y28.034
X103.724Y14.034
X103.803Y13.667
X103.803Y-0.332
X103.803Y-0.62
X103.803Y-14.62
X103.803Y-15.542
X103.803Y-29.543
X103.803Y-29.83
X103.803Y-43.83
X103.882Y-44.197
X103.882Y-58.197
X103.882Y-58.484
X103.882Y-72.484
X105.106Y-72.692
X105.106Y-86.692
X105.106Y-86.98
X105.106Y-100.98
X105.424Y42.322
X105.424Y28.322
X105.424Y28.034
X105.424Y14.034
X105.503Y13.667
X105.503Y-0.332
X105.503Y-0.62
X105.503Y-14.62
X105.503Y-15.542
X105.503Y-29.543
X105.503Y-29.83
X105.503Y-43.83
X105.582Y-44.197
X105.582Y-58.197
X105.582Y-58.484
X105.582Y-72.484
X110.606Y-76.542
X110.606Y-78.242
X110.606Y-79.942
X110.606Y-90.83
X110.606Y-92.53
X110.606Y-94.23
X110.924Y38.472
X110.924Y36.772
X110.924Y35.072
X110.924Y24.184
X110.924Y22.484
X110.924Y20.784
X111.003Y9.817
X111.003Y8.117
X111.003Y6.417
X111.003Y-4.47
X111.003Y-6.17
X111.003Y-7.87
X111.003Y-19.392
X111.003Y-21.092
X111.003Y-22.793
X111.003Y-33.68
X111.003Y-35.38
X111.003Y-37.08
X111.082Y-48.047
X111.082Y-49.747
X111.082Y-51.447
X111.082Y-62.334
X111.082Y-64.034
X111.082Y-65.734
X111.466Y-76.542
X111.466Y-78.242
X111.466Y-79.942
X111.466Y-90.83
X111.466Y-92.53
X111.466Y-94.23
X111.783Y38.472
X111.783Y36.772
X111.783Y35.072
X111.783Y24.184
X111.783Y22.484
X111.783Y20.784
X111.862Y9.817
X111.862Y8.117
X111.862Y6.417
X111.862Y-4.47
X111.862Y-6.17
X111.862Y-7.87
X111.862Y-19.392
X111.862Y-21.092
X111.862Y-22.793
X111.862Y-33.68
X111.862Y-35.38
X111.862Y-37.08
X111.942Y-48.047
X111.942Y-49.747
X111.942Y-51.447
X111.942Y-62.334
X111.942Y-64.034
X111.942Y-65.734
X116.966Y-72.692
X116.966Y-86.692
X116.966Y-86.98
X116.966Y-100.98
X117.283Y42.322
X117.283Y28.322
X117.283Y28.034
X117.283Y14.034
X117.362Y13.667
X117.362Y-0.332
X117.362Y-0.62
X117.362Y-14.62
X117.362Y-15.542
X117.362Y-29.543
X117.362Y-29.83
X117.362Y-43.83
X117.442Y-44.197
X117.442Y-58.197
X117.442Y-58.484
X117.442Y-72.484
X118.666Y-72.692
X118.666Y-86.692
X118.666Y-86.98
X118.666Y-100.98
X118.983Y42.322
X118.983Y28.322
X118.983Y28.034
X118.983Y14.034
X119.062Y13.667
X119.062Y-0.332
X119.062Y-0.62
X119.062Y-14.62
X119.062Y-15.542
X119.062Y-29.543
X119.062Y-29.83
X119.062Y-43.83
X119.142Y-44.197
X119.142Y-58.197
X119.142Y-58.484
X119.142Y-72.484
X120.366Y-72.692
X120.366Y-86.692
X120.366Y-86.98
X120.366Y-100.98
X120.683Y42.322
X120.683Y28.322
X120.683Y28.034
X120.683Y14.034
X120.762Y13.667
X120.762Y-0.332
X120.762Y-0.62
X120.762Y-14.62
X120.762Y-15.542
X120.762Y-29.543
X120.762Y-29.83
X120.762Y-43.83
X120.842Y-44.197
X120.842Y-58.197
X120.842Y-58.484
X120.842Y-72.484
X125.866Y-76.542
X125.866Y-78.242
X125.866Y-79.942
X125.866Y-90.83
X125.866Y-92.53
X125.866Y-94.23
X126.183Y38.472
X126.183Y36.772
X126.183Y35.072
X126.183Y24.184
X126.183Y22.484
X126.183Y20.784
X126.262Y9.817
X126.262Y8.117
X126.262Y6.417
X126.262Y-4.47
X126.262Y-6.17
X126.262Y-7.87
X126.262Y-19.392
X126.262Y-21.092
X126.262Y-22.793
X126.262Y-33.68
X126.262Y-35.38
X126.262Y-37.08
X126.342Y-48.047
X126.342Y-49.747
X126.342Y-51.447
X126.342Y-62.334
X126.342Y-64.034
X126.342Y-65.734
X126.944Y-76.542
X126.944Y-78.242
X126.944Y-79.942
X126.944Y-90.83
X126.944Y-92.53
X126.944Y-94.23
X127.261Y38.472
X127.261Y36.772
X127.261Y35.072
X127.261Y24.184
X127.261Y22.484
X127.261Y20.784
X127.341Y9.817
X127.341Y8.117
X127.341Y6.417
X127.341Y-4.47
X127.341Y-6.17
X127.341Y-7.87
X127.341Y-19.392
X127.341Y-21.092
X127.341Y-22.793
X127.341Y-33.68
X127.341Y-35.38
X127.341Y-37.08
X127.42Y-48.047
X127.42Y-49.747
X127.42Y-51.447
X127.42Y-62.334
X127.42Y-64.034
X127.42Y-65.734
X132.444Y-72.692
X132.444Y-86.692
X132.444Y-86.98
X132.444Y-100.98
X132.761Y42.322
X132.761Y28.322
X132.761Y28.034
X132.761Y14.034
X132.841Y13.667
X132.841Y-0.332
X132.841Y-0.62
X132.841Y-14.62
X132.841Y-15.542
X132.841Y-29.543
X132.841Y-29.83
X132.841Y-43.83
X132.92Y-44.197
X132.92Y-58.197
X132.92Y-58.484
X132.92Y-72.484
X134.144Y-72.692
X134.144Y-86.692
X134.144Y-86.98
X134.144Y-100.98
X134.461Y42.322
X134.461Y28.322
X134.461Y28.034
X134.461Y14.034
X134.541Y13.667
X134.541Y-0.332
X134.541Y-0.62
X134.541Y-14.62
X134.541Y-15.542
X134.541Y-29.543
X134.541Y-29.83
X134.541Y-43.83
X134.62Y-44.197
X134.62Y-58.197
X134.62Y-58.484
X134.62Y-72.484
X135.844Y-72.692
X135.844Y-86.692
X135.844Y-86.98
X135.844Y-100.98
X136.161Y42.322
X136.161Y28.322
X136.161Y28.034
X136.161Y14.034
X136.241Y13.667
X136.241Y-0.332
X136.241Y-0.62
X136.241Y-14.62
X136.241Y-15.542
X136.241Y-29.543
X136.241Y-29.83
X136.241Y-43.83
X136.32Y-44.197
X136.32Y-58.197
X136.32Y-58.484
X136.32Y-72.484
X141.344Y-76.542
X141.344Y-78.242
X141.344Y-79.942
X141.344Y-90.83
X141.344Y-92.53
X141.344Y-94.23
X141.661Y38.472
X141.661Y36.772
X141.661Y35.072
X141.661Y24.184
X141.661Y22.484
X141.661Y20.784
X141.741Y9.817
X141.741Y8.117
X141.741Y6.417
X141.741Y-4.47
X141.741Y-6.17
X141.741Y-7.87
X141.741Y-19.392
X141.741Y-21.092
X141.741Y-22.793
X141.741Y-33.68
X141.741Y-35.38
X141.741Y-37.08
X141.82Y-48.047
X141.82Y-49.747
X141.82Y-51.447
X141.82Y-62.334
X141.82Y-64.034
X141.82Y-65.734
X142.203Y-76.542
X142.203Y-78.242
X142.203Y-79.942
X142.203Y-90.83
X142.203Y-92.53
X142.203Y-94.23
X142.521Y38.472
X142.521Y36.772
X142.521Y35.072
X142.521Y24.184
X142.521Y22.484
X142.521Y20.784
X142.6Y9.817
X142.6Y8.117
X142.6Y6.417
X142.6Y-4.47
X142.6Y-6.17
X142.6Y-7.87
X142.6Y-19.392
X142.6Y-21.092
X142.6Y-22.793
X142.6Y-33.68
X142.6Y-35.38
X142.6Y-37.08
X142.679Y-48.047
X142.679Y-49.747
X142.679Y-51.447
X142.679Y-62.334
X142.679Y-64.034
X142.679Y-65.734
X147.703Y-72.692
X147.703Y-86.692
X147.703Y-86.98
X147.703Y-100.98
X148.021Y42.322
X148.021Y28.322
X148.021Y28.034
X148.021Y14.034
X148.1Y13.667
X148.1Y-0.332
X148.1Y-0.62
X148.1Y-14.62
X148.1Y-15.542
X148.1Y-29.543
X148.1Y-29.83
X148.1Y-43.83
X148.179Y-44.197
X148.179Y-58.197
X148.179Y-58.484
X148.179Y-72.484
X149.403Y-72.692
X149.403Y-86.692
X149.403Y-86.98
X149.403Y-100.98
X149.721Y42.322
X149.721Y28.322
X149.721Y28.034
X149.721Y14.034
X149.8Y13.667
X149.8Y-0.332
X149.8Y-0.62
X149.8Y-14.62
X149.8Y-15.542
X149.8Y-29.543
X149.8Y-29.83
X149.8Y-43.83
X149.879Y-44.197
X149.879Y-58.197
X149.879Y-58.484
X149.879Y-72.484
X151.103Y-72.692
X151.103Y-86.692
X151.103Y-86.98
X151.103Y-100.98
X151.421Y42.322
X151.421Y28.322
X151.421Y28.034
X151.421Y14.034
X151.5Y13.667
X151.5Y-0.332
X151.5Y-0.62
X151.5Y-14.62
X151.5Y-15.542
X151.5Y-29.543
X151.5Y-29.83
X151.5Y-43.83
X151.579Y-44.197
X151.579Y-58.197
X151.579Y-58.484
X151.579Y-72.484
X156.603Y-76.542
X156.603Y-78.242
X156.603Y-79.942
X156.603Y-90.83
X156.603Y-92.53
X156.603Y-94.23
X156.921Y38.472
X156.921Y36.772
X156.921Y35.072
X156.921Y24.184
X156.921Y22.484
X156.921Y20.784
X157.0Y9.817
X157.0Y8.117
X157.0Y6.417
X157.0Y-4.47
X157.0Y-6.17
X157.0Y-7.87
X157.0Y-19.392
X157.0Y-21.092
X157.0Y-22.793
X157.0Y-33.68
X157.0Y-35.38
X157.0Y-37.08
X157.079Y-48.047
X157.079Y-49.747
X157.079Y-51.447
X157.079Y-62.334
X157.079Y-64.034
X157.079Y-65.734
X157.821Y38.472
X157.821Y36.772
X157.821Y35.072
X157.821Y24.184
X157.821Y22.484
X157.821Y20.784
X157.9Y9.817
X157.9Y8.117
X157.9Y6.417
X157.9Y-4.47
X157.9Y-6.17
X157.9Y-7.87
X157.9Y-19.392
X157.9Y-21.092
X157.9Y-22.793
X157.9Y-33.68
X157.9Y-35.38
X157.9Y-37.08
X157.9Y-76.542
X157.9Y-78.242
X157.9Y-79.942
X157.9Y-90.83
X157.9Y-92.53
X157.9Y-94.23
X157.979Y-48.047
X157.979Y-49.747
X157.979Y-51.447
X157.979Y-62.334
X157.979Y-64.034
X157.979Y-65.734
X161.35Y-80.162
X161.35Y-94.45
X163.321Y42.322
X163.321Y28.322
X163.321Y28.034
X163.321Y14.034
X163.4Y13.667
X163.4Y-0.332
X163.4Y-0.62
X163.4Y-14.62
X163.4Y-15.542
X163.4Y-29.543
X163.4Y-29.83
X163.4Y-43.83
X163.4Y-72.692
X163.4Y-86.692
X163.4Y-86.98
X163.4Y-100.98
X163.479Y-44.197
X163.479Y-58.197
X163.479Y-58.484
X163.479Y-72.484
X165.021Y42.322
X165.021Y28.322
X165.021Y28.034
X165.021Y14.034
X165.1Y13.667
X165.1Y-0.332
X165.1Y-0.62
X165.1Y-14.62
X165.1Y-15.542
X165.1Y-29.543
X165.1Y-29.83
X165.1Y-43.83
X165.1Y-72.692
X165.1Y-86.692
X165.1Y-86.98
X165.1Y-100.98
X165.179Y-44.197
X165.179Y-58.197
X165.179Y-58.484
X165.179Y-72.484
X166.721Y42.322
X166.721Y28.322
X166.721Y28.034
X166.721Y14.034
X166.8Y13.667
X166.8Y-0.332
X166.8Y-0.62
X166.8Y-14.62
X166.8Y-15.542
X166.8Y-29.543
X166.8Y-29.83
X166.8Y-43.83
X166.8Y-72.692
X166.8Y-86.692
X166.8Y-86.98
X166.8Y-100.98
X166.879Y-44.197
X166.879Y-58.197
X166.879Y-58.484
X166.879Y-72.484
X168.91Y-82.252
X168.91Y-96.54
X172.221Y38.472
X172.221Y36.772
X172.221Y35.072
X172.221Y24.184
X172.221Y22.484
X172.221Y20.784
X172.3Y9.817
X172.3Y8.117
X172.3Y6.417
X172.3Y-4.47
X172.3Y-6.17
X172.3Y-7.87
X172.3Y-19.392
X172.3Y-21.092
X172.3Y-22.793
X172.3Y-33.68
X172.3Y-35.38
X172.3Y-37.08
X172.3Y-76.542
X172.3Y-78.242
X172.3Y-79.942
X172.3Y-90.83
X172.3Y-92.53
X172.3Y-94.23
X172.379Y-48.047
X172.379Y-49.747
X172.379Y-51.447
X172.379Y-62.334
X172.379Y-64.034
X172.379Y-65.734
T2
X34.394Y-72.692
X34.394Y-86.692
X34.394Y-86.98
X34.394Y-100.98
X34.711Y42.322
X34.711Y28.322
X34.711Y28.034
X34.711Y14.034
X34.791Y13.667
X34.791Y-0.332
X34.791Y-0.62
X34.791Y-14.62
X34.791Y-15.542
X34.791Y-29.543
X34.791Y-29.83
X34.791Y-43.83
X34.87Y-44.197
X34.87Y-58.197
X34.87Y-58.484
X34.87Y-72.484
X48.594Y-72.692
X48.594Y-86.692
X48.594Y-86.98
X48.594Y-100.98
X48.911Y42.322
X48.911Y28.322
X48.911Y28.034
X48.911Y14.034
X48.991Y13.667
X48.991Y-0.332
X48.991Y-0.62
X48.991Y-14.62
X48.991Y-15.542
X48.991Y-29.543
X48.991Y-29.83
X48.991Y-43.83
X49.07Y-44.197
X49.07Y-58.197
X49.07Y-58.484
X49.07Y-72.484
X49.653Y-72.692
X49.653Y-86.692
X49.653Y-86.98
X49.653Y-100.98
X49.971Y42.322
X49.971Y28.322
X49.971Y28.034
X49.971Y14.034
X50.05Y13.667
X50.05Y-0.332
X50.05Y-0.62
X50.05Y-14.62
X50.05Y-15.542
X50.05Y-29.543
X50.05Y-29.83
X50.05Y-43.83
X50.129Y-44.197
X50.129Y-58.197
X50.129Y-58.484
X50.129Y-72.484
X63.853Y-72.692
X63.853Y-86.692
X63.853Y-86.98
X63.853Y-100.98
X64.171Y42.322
X64.171Y28.322
X64.171Y28.034
X64.171Y14.034
X64.25Y13.667
X64.25Y-0.332
X64.25Y-0.62
X64.25Y-14.62
X64.25Y-15.542
X64.25Y-29.543
X64.25Y-29.83
X64.25Y-43.83
X64.329Y-44.197
X64.329Y-58.197
X64.329Y-58.484
X64.329Y-72.484
X65.35Y-72.692
X65.35Y-86.692
X65.35Y-86.98
X65.35Y-100.98
X65.668Y42.322
X65.668Y28.322
X65.668Y28.034
X65.668Y14.034
X65.747Y13.667
X65.747Y-0.332
X65.747Y-0.62
X65.747Y-14.62
X65.747Y-15.542
X65.747Y-29.543
X65.747Y-29.83
X65.747Y-43.83
X65.826Y-44.197
X65.826Y-58.197
X65.826Y-58.484
X65.826Y-72.484
X79.55Y-72.692
X79.55Y-86.692
X79.55Y-86.98
X79.55Y-100.98
X79.867Y42.322
X79.867Y28.322
X79.867Y28.034
X79.867Y14.034
X79.947Y13.667
X79.947Y-0.332
X79.947Y-0.62
X79.947Y-14.62
X79.947Y-15.542
X79.947Y-29.543
X79.947Y-29.83
X79.947Y-43.83
X80.026Y-44.197
X80.026Y-58.197
X80.026Y-58.484
X80.026Y-72.484
X80.609Y-72.692
X80.609Y-86.692
X80.609Y-86.98
X80.609Y-100.98
X80.927Y42.322
X80.927Y28.322
X80.927Y28.034
X80.927Y14.034
X81.006Y13.667
X81.006Y-0.332
X81.006Y-0.62
X81.006Y-14.62
X81.006Y-15.542
X81.006Y-29.543
X81.006Y-29.83
X81.006Y-43.83
X81.086Y-44.197
X81.086Y-58.197
X81.086Y-58.484
X81.086Y-72.484
X94.809Y-72.692
X94.809Y-86.692
X94.809Y-86.98
X94.809Y-100.98
X95.127Y42.322
X95.127Y28.322
X95.127Y28.034
X95.127Y14.034
X95.206Y13.667
X95.206Y-0.332
X95.206Y-0.62
X95.206Y-14.62
X95.206Y-15.542
X95.206Y-29.543
X95.206Y-29.83
X95.206Y-43.83
X95.286Y-44.197
X95.286Y-58.197
X95.286Y-58.484
X95.286Y-72.484
X96.306Y-72.692
X96.306Y-86.692
X96.306Y-86.98
X96.306Y-100.98
X96.624Y42.322
X96.624Y28.322
X96.624Y28.034
X96.624Y14.034
X96.703Y13.667
X96.703Y-0.332
X96.703Y-0.62
X96.703Y-14.62
X96.703Y-15.542
X96.703Y-29.543
X96.703Y-29.83
X96.703Y-43.83
X96.782Y-44.197
X96.782Y-58.197
X96.782Y-58.484
X96.782Y-72.484
X110.506Y-72.692
X110.506Y-86.692
X110.506Y-86.98
X110.506Y-100.98
X110.824Y42.322
X110.824Y28.322
X110.824Y28.034
X110.824Y14.034
X110.903Y13.667
X110.903Y-0.332
X110.903Y-0.62
X110.903Y-14.62
X110.903Y-15.542
X110.903Y-29.543
X110.903Y-29.83
X110.903Y-43.83
X110.983Y-44.197
X110.983Y-58.197
X110.983Y-58.484
X110.983Y-72.484
X111.566Y-72.692
X111.566Y-86.692
X111.566Y-86.98
X111.566Y-100.98
X111.883Y42.322
X111.883Y28.322
X111.883Y28.034
X111.883Y14.034
X111.962Y13.667
X111.962Y-0.332
X111.962Y-0.62
X111.962Y-14.62
X111.962Y-15.542
X111.962Y-29.543
X111.962Y-29.83
X111.962Y-43.83
X112.042Y-44.197
X112.042Y-58.197
X112.042Y-58.484
X112.042Y-72.484
X125.766Y-72.692
X125.766Y-86.692
X125.766Y-86.98
X125.766Y-100.98
X126.083Y42.322
X126.083Y28.322
X126.083Y28.034
X126.083Y14.034
X126.162Y13.667
X126.162Y-0.332
X126.162Y-0.62
X126.162Y-14.62
X126.162Y-15.542
X126.162Y-29.543
X126.162Y-29.83
X126.162Y-43.83
X126.242Y-44.197
X126.242Y-58.197
X126.242Y-58.484
X126.242Y-72.484
X127.044Y-72.692
X127.044Y-86.692
X127.044Y-86.98
X127.044Y-100.98
X127.361Y42.322
X127.361Y28.322
X127.361Y28.034
X127.361Y14.034
X127.441Y13.667
X127.441Y-0.332
X127.441Y-0.62
X127.441Y-14.62
X127.441Y-15.542
X127.441Y-29.543
X127.441Y-29.83
X127.441Y-43.83
X127.52Y-44.197
X127.52Y-58.197
X127.52Y-58.484
X127.52Y-72.484
X141.244Y-72.692
X141.244Y-86.692
X141.244Y-86.98
X141.244Y-100.98
X141.561Y42.322
X141.561Y28.322
X141.561Y28.034
X141.561Y14.034
X141.641Y13.667
X141.641Y-0.332
X141.641Y-0.62
X141.641Y-14.62
X141.641Y-15.542
X141.641Y-29.543
X141.641Y-29.83
X141.641Y-43.83
X141.72Y-44.197
X141.72Y-58.197
X141.72Y-58.484
X141.72Y-72.484
X142.303Y-72.692
X142.303Y-86.692
X142.303Y-86.98
X142.303Y-100.98
X142.621Y42.322
X142.621Y28.322
X142.621Y28.034
X142.621Y14.034
X142.7Y13.667
X142.7Y-0.332
X142.7Y-0.62
X142.7Y-14.62
X142.7Y-15.542
X142.7Y-29.543
X142.7Y-29.83
X142.7Y-43.83
X142.779Y-44.197
X142.779Y-58.197
X142.779Y-58.484
X142.779Y-72.484
X156.503Y-72.692
X156.503Y-86.692
X156.503Y-86.98
X156.503Y-100.98
X156.821Y42.322
X156.821Y28.322
X156.821Y28.034
X156.821Y14.034
X156.9Y13.667
X156.9Y-0.332
X156.9Y-0.62
X156.9Y-14.62
X156.9Y-15.542
X156.9Y-29.543
X156.9Y-29.83
X156.9Y-43.83
X156.979Y-44.197
X156.979Y-58.197
X156.979Y-58.484
X156.979Y-72.484
X157.921Y42.322
X157.921Y28.322
X157.921Y28.034
X157.921Y14.034
X158.0Y13.667
X158.0Y-0.332
X158.0Y-0.62
X158.0Y-14.62
X158.0Y-15.542
X158.0Y-29.543
X158.0Y-29.83
X158.0Y-43.83
X158.0Y-72.692
X158.0Y-86.692
X158.0Y-86.98
X158.0Y-100.98
X158.079Y-44.197
X158.079Y-58.197
X158.079Y-58.484
X158.079Y-72.484
X172.121Y42.322
X172.121Y28.322
X172.121Y28.034
X172.121Y14.034
X172.2Y13.667
X172.2Y-0.332
X172.2Y-0.62
X172.2Y-14.62
X172.2Y-15.542
X172.2Y-29.543
X172.2Y-29.83
X172.2Y-43.83
X172.2Y-72.692
X172.2Y-86.692
X172.2Y-86.98
X172.2Y-100.98
X172.279Y-44.197
X172.279Y-58.197
X172.279Y-58.484
X172.279Y-72.484
T3
X51.753Y-83.492
X51.753Y-97.78
X52.071Y31.522
X52.071Y17.234
X52.15Y2.867
X52.15Y-11.42
X52.15Y-26.342
X52.15Y-40.63
X52.229Y-54.997
X52.229Y-69.284
X52.353Y-84.392
X52.353Y-98.68
X52.671Y30.622
X52.671Y16.334
X52.75Y1.967
X52.75Y-12.32
X52.75Y-27.242
X52.75Y-41.53
X52.829Y-55.897
X52.829Y-70.184
X56.753Y-85.593
X56.753Y-99.88
X57.071Y29.422
X57.071Y15.134
X57.15Y0.767
X57.15Y-13.52
X57.15Y-28.442
X57.15Y-42.73
X57.229Y-57.097
X57.229Y-71.384
X57.253Y-85.593
X57.253Y-99.88
X57.571Y29.422
X57.571Y15.134
X57.65Y0.767
X57.65Y-13.52
X57.65Y-28.442
X57.65Y-42.73
X57.729Y-57.097
X57.729Y-71.384
X59.353Y-85.442
X59.353Y-99.73
X59.671Y29.572
X59.671Y15.284
X59.75Y0.917
X59.75Y-13.37
X59.75Y-28.293
X59.75Y-42.58
X59.829Y-56.947
X59.829Y-71.234
X61.453Y-82.792
X61.453Y-97.08
X61.771Y32.222
X61.771Y17.934
X61.85Y3.567
X61.85Y-10.72
X61.85Y-25.642
X61.85Y-39.93
X61.929Y-54.297
X61.929Y-68.584
X82.709Y-83.492
X82.709Y-97.78
X83.027Y31.522
X83.027Y17.234
X83.106Y2.867
X83.106Y-11.42
X83.106Y-26.342
X83.106Y-40.63
X83.186Y-54.997
X83.186Y-69.284
X83.309Y-84.392
X83.309Y-98.68
X83.627Y30.622
X83.627Y16.334
X83.706Y1.967
X83.706Y-12.32
X83.706Y-27.242
X83.706Y-41.53
X83.786Y-55.897
X83.786Y-70.184
X87.709Y-85.593
X87.709Y-99.88
X88.027Y29.422
X88.027Y15.134
X88.106Y0.767
X88.106Y-13.52
X88.106Y-28.442
X88.106Y-42.73
X88.186Y-57.097
X88.186Y-71.384
X88.209Y-85.593
X88.209Y-99.88
X88.527Y29.422
X88.527Y15.134
X88.606Y0.767
X88.606Y-13.52
X88.606Y-28.442
X88.606Y-42.73
X88.686Y-57.097
X88.686Y-71.384
X90.309Y-85.442
X90.309Y-99.73
X90.627Y29.572
X90.627Y15.284
X90.706Y0.917
X90.706Y-13.37
X90.706Y-28.293
X90.706Y-42.58
X90.786Y-56.947
X90.786Y-71.234
X92.409Y-82.792
X92.409Y-97.08
X92.727Y32.222
X92.727Y17.934
X92.806Y3.567
X92.806Y-10.72
X92.806Y-25.642
X92.806Y-39.93
X92.886Y-54.297
X92.886Y-68.584
X113.666Y-83.492
X113.666Y-97.78
X113.983Y31.522
X113.983Y17.234
X114.062Y2.867
X114.062Y-11.42
X114.062Y-26.342
X114.062Y-40.63
X114.142Y-54.997
X114.142Y-69.284
X114.266Y-84.392
X114.266Y-98.68
X114.583Y30.622
X114.583Y16.334
X114.662Y1.967
X114.662Y-12.32
X114.662Y-27.242
X114.662Y-41.53
X114.742Y-55.897
X114.742Y-70.184
X118.666Y-85.593
X118.666Y-99.88
X118.983Y29.422
X118.983Y15.134
X119.062Y0.767
X119.062Y-13.52
X119.062Y-28.442
X119.062Y-42.73
X119.142Y-57.097
X119.142Y-71.384
X119.166Y-85.593
X119.166Y-99.88
X119.483Y29.422
X119.483Y15.134
X119.562Y0.767
X119.562Y-13.52
X119.562Y-28.442
X119.562Y-42.73
X119.642Y-57.097
X119.642Y-71.384
X121.266Y-85.442
X121.266Y-99.73
X121.583Y29.572
X121.583Y15.284
X121.662Y0.917
X121.662Y-13.37
X121.662Y-28.293
X121.662Y-42.58
X121.742Y-56.947
X121.742Y-71.234
X123.366Y-82.792
X123.366Y-97.08
X123.683Y32.222
X123.683Y17.934
X123.762Y3.567
X123.762Y-10.72
X123.762Y-25.642
X123.762Y-39.93
X123.842Y-54.297
X123.842Y-68.584
X144.403Y-83.492
X144.403Y-97.78
X144.721Y31.522
X144.721Y17.234
X144.8Y2.867
X144.8Y-11.42
X144.8Y-26.342
X144.8Y-40.63
X144.879Y-54.997
X144.879Y-69.284
X145.003Y-84.392
X145.003Y-98.68
X145.321Y30.622
X145.321Y16.334
X145.4Y1.967
X145.4Y-12.32
X145.4Y-27.242
X145.4Y-41.53
X145.479Y-55.897
X145.479Y-70.184
X149.403Y-85.593
X149.403Y-99.88
X149.721Y29.422
X149.721Y15.134
X149.8Y0.767
X149.8Y-13.52
X149.8Y-28.442
X149.8Y-42.73
X149.879Y-57.097
X149.879Y-71.384
X149.903Y-85.593
X149.903Y-99.88
X150.221Y29.422
X150.221Y15.134
X150.3Y0.767
X150.3Y-13.52
X150.3Y-28.442
X150.3Y-42.73
X150.379Y-57.097
X150.379Y-71.384
X152.003Y-85.442
X152.003Y-99.73
X152.321Y29.572
X152.321Y15.284
X152.4Y0.917
X152.4Y-13.37
X152.4Y-28.293
X152.4Y-42.58
X152.479Y-56.947
X152.479Y-71.234
X154.103Y-82.792
X154.103Y-97.08
X154.421Y32.222
X154.421Y17.934
X154.5Y3.567
X154.5Y-10.72
X154.5Y-25.642
X154.5Y-39.93
X154.579Y-54.297
X154.579Y-68.584
X160.021Y17.234
X160.1Y-11.42
X160.1Y-40.63
X160.179Y-69.284
X160.621Y16.334
X160.7Y-12.32
X160.7Y-41.53
X160.779Y-70.184
X165.021Y15.134
X165.1Y-13.52
X165.1Y-42.73
X165.179Y-71.384
X165.521Y15.134
X165.6Y-13.52
X165.6Y-42.73
X165.679Y-71.384
X167.621Y15.284
X167.7Y-13.37
X167.7Y-42.58
X167.779Y-71.234
X169.721Y17.934
X169.8Y-10.72
X169.8Y-39.93
X169.879Y-68.584
T4
X35.694Y-74.142
X35.694Y-88.43
X36.011Y40.872
X36.011Y26.584
X36.091Y12.217
X36.091Y-2.07
X36.091Y-16.992
X36.091Y-31.28
X36.17Y-45.647
X36.17Y-59.934
X47.294Y-74.142
X47.294Y-88.43
X47.611Y40.872
X47.611Y26.584
X47.691Y12.217
X47.691Y-2.07
X47.691Y-16.992
X47.691Y-31.28
X47.77Y-45.647
X47.77Y-59.934
X50.953Y-74.142
X50.953Y-88.43
X51.271Y40.872
X51.271Y26.584
X51.35Y12.217
X51.35Y-2.07
X51.35Y-16.992
X51.35Y-31.28
X51.429Y-45.647
X51.429Y-59.934
X62.553Y-74.142
X62.553Y-88.43
X62.871Y40.872
X62.871Y26.584
X62.95Y12.217
X62.95Y-2.07
X62.95Y-16.992
X62.95Y-31.28
X63.029Y-45.647
X63.029Y-59.934
X66.65Y-74.142
X66.65Y-88.43
X66.968Y40.872
X66.968Y26.584
X67.047Y12.217
X67.047Y-2.07
X67.047Y-16.992
X67.047Y-31.28
X67.126Y-45.647
X67.126Y-59.934
X78.25Y-74.142
X78.25Y-88.43
X78.567Y40.872
X78.567Y26.584
X78.647Y12.217
X78.647Y-2.07
X78.647Y-16.992
X78.647Y-31.28
X78.726Y-45.647
X78.726Y-59.934
X81.909Y-74.142
X81.909Y-88.43
X82.227Y40.872
X82.227Y26.584
X82.306Y12.217
X82.306Y-2.07
X82.306Y-16.992
X82.306Y-31.28
X82.386Y-45.647
X82.386Y-59.934
X93.509Y-74.142
X93.509Y-88.43
X93.827Y40.872
X93.827Y26.584
X93.906Y12.217
X93.906Y-2.07
X93.906Y-16.992
X93.906Y-31.28
X93.986Y-45.647
X93.986Y-59.934
X97.606Y-74.142
X97.606Y-88.43
X97.924Y40.872
X97.924Y26.584
X98.003Y12.217
X98.003Y-2.07
X98.003Y-16.992
X98.003Y-31.28
X98.082Y-45.647
X98.082Y-59.934
X109.206Y-74.142
X109.206Y-88.43
X109.524Y40.872
X109.524Y26.584
X109.603Y12.217
X109.603Y-2.07
X109.603Y-16.992
X109.603Y-31.28
X109.682Y-45.647
X109.682Y-59.934
X112.866Y-74.142
X112.866Y-88.43
X113.183Y40.872
X113.183Y26.584
X113.262Y12.217
X113.262Y-2.07
X113.262Y-16.992
X113.262Y-31.28
X113.342Y-45.647
X113.342Y-59.934
X124.466Y-74.142
X124.466Y-88.43
X124.783Y40.872
X124.783Y26.584
X124.862Y12.217
X124.862Y-2.07
X124.862Y-16.992
X124.862Y-31.28
X124.942Y-45.647
X124.942Y-59.934
X128.344Y-74.142
X128.344Y-88.43
X128.661Y40.872
X128.661Y26.584
X128.741Y12.217
X128.741Y-2.07
X128.741Y-16.992
X128.741Y-31.28
X128.82Y-45.647
X128.82Y-59.934
X139.944Y-74.142
X139.944Y-88.43
X140.261Y40.872
X140.261Y26.584
X140.341Y12.217
X140.341Y-2.07
X140.341Y-16.992
X140.341Y-31.28
X140.42Y-45.647
X140.42Y-59.934
X143.603Y-74.142
X143.603Y-88.43
X143.921Y40.872
X143.921Y26.584
X144.0Y12.217
X144.0Y-2.07
X144.0Y-16.992
X144.0Y-31.28
X144.079Y-45.647
X144.079Y-59.934
X155.203Y-74.142
X155.203Y-88.43
X155.521Y40.872
X155.521Y26.584
X155.6Y12.217
X155.6Y-2.07
X155.6Y-16.992
X155.6Y-31.28
X155.679Y-45.647
X155.679Y-59.934
X159.221Y40.872
X159.221Y26.584
X159.3Y12.217
X159.3Y-2.07
X159.3Y-16.992
X159.3Y-31.28
X159.3Y-74.142
X159.3Y-88.43
X159.379Y-45.647
X159.379Y-59.934
X170.821Y40.872
X170.821Y26.584
X170.9Y12.217
X170.9Y-2.07
X170.9Y-16.992
X170.9Y-31.28
X170.9Y-74.142
X170.9Y-88.43
X170.979Y-45.647
X170.979Y-59.934
T5
X38.954Y-84.772
X38.954Y-99.06
X39.271Y30.242
X39.271Y15.954
X39.351Y1.587
X39.351Y-12.7
X39.351Y-27.622
X39.351Y-41.91
X39.43Y-56.277
X39.43Y-70.564
X45.304Y-82.233
X45.304Y-96.52
X45.621Y32.782
X45.621Y18.494
X45.701Y4.127
X45.701Y-10.16
X45.701Y-25.082
X45.701Y-39.37
X45.78Y-53.737
X45.78Y-68.024
X69.91Y-84.772
X69.91Y-99.06
X70.227Y30.242
X70.227Y15.954
X70.307Y1.587
X70.307Y-12.7
X70.307Y-27.622
X70.307Y-41.91
X70.386Y-56.277
X70.386Y-70.564
X76.26Y-82.233
X76.26Y-96.52
X76.578Y32.782
X76.578Y18.494
X76.657Y4.127
X76.657Y-10.16
X76.657Y-25.082
X76.657Y-39.37
X76.736Y-53.737
X76.736Y-68.024
X100.866Y-84.772
X100.866Y-99.06
X101.184Y30.242
X101.184Y15.954
X101.263Y1.587
X101.263Y-12.7
X101.263Y-27.622
X101.263Y-41.91
X101.343Y-56.277
X101.343Y-70.564
X107.216Y-82.233
X107.216Y-96.52
X107.534Y32.782
X107.534Y18.494
X107.613Y4.127
X107.613Y-10.16
X107.613Y-25.082
X107.613Y-39.37
X107.692Y-53.737
X107.692Y-68.024
X131.604Y-84.772
X131.604Y-99.06
X131.921Y30.242
X131.921Y15.954
X132.001Y1.587
X132.001Y-12.7
X132.001Y-27.622
X132.001Y-41.91
X132.08Y-56.277
X132.08Y-70.564
X137.954Y-82.233
X137.954Y-96.52
X138.271Y32.782
X138.271Y18.494
X138.351Y4.127
X138.351Y-10.16
X138.351Y-25.082
X138.351Y-39.37
X138.43Y-53.737
X138.43Y-68.024
X162.481Y30.242
X162.56Y1.587
X162.56Y-27.622
X162.639Y-56.277
X168.831Y32.782
X168.91Y4.127
X168.91Y-25.082
X168.989Y-53.737
T0
M30
