%TF.GenerationSoftware,KiCad,Pcbnew,7.0.2*%
%TF.CreationDate,2023-05-08T22:29:03+02:00*%
%TF.ProjectId,verasity_PCB,76657261-7369-4747-995f-5043422e6b69,rev?*%
%TF.SameCoordinates,Original*%
%TF.FileFunction,Copper,L2,Bot*%
%TF.FilePolarity,Positive*%
%FSLAX46Y46*%
G04 Gerber Fmt 4.6, Leading zero omitted, Abs format (unit mm)*
G04 Created by KiCad (PCBNEW 7.0.2) date 2023-05-08 22:29:03*
%MOMM*%
%LPD*%
G01*
G04 APERTURE LIST*
G04 Aperture macros list*
%AMRoundRect*
0 Rectangle with rounded corners*
0 $1 Rounding radius*
0 $2 $3 $4 $5 $6 $7 $8 $9 X,Y pos of 4 corners*
0 Add a 4 corners polygon primitive as box body*
4,1,4,$2,$3,$4,$5,$6,$7,$8,$9,$2,$3,0*
0 Add four circle primitives for the rounded corners*
1,1,$1+$1,$2,$3*
1,1,$1+$1,$4,$5*
1,1,$1+$1,$6,$7*
1,1,$1+$1,$8,$9*
0 Add four rect primitives between the rounded corners*
20,1,$1+$1,$2,$3,$4,$5,0*
20,1,$1+$1,$4,$5,$6,$7,0*
20,1,$1+$1,$6,$7,$8,$9,0*
20,1,$1+$1,$8,$9,$2,$3,0*%
G04 Aperture macros list end*
%TA.AperFunction,EtchedComponent*%
%ADD10C,0.500000*%
%TD*%
%TA.AperFunction,EtchedComponent*%
%ADD11C,0.400000*%
%TD*%
%TA.AperFunction,ComponentPad*%
%ADD12C,1.500000*%
%TD*%
%TA.AperFunction,ComponentPad*%
%ADD13C,2.000000*%
%TD*%
%TA.AperFunction,SMDPad,CuDef*%
%ADD14RoundRect,0.225000X-0.225000X-0.375000X0.225000X-0.375000X0.225000X0.375000X-0.225000X0.375000X0*%
%TD*%
%TA.AperFunction,ComponentPad*%
%ADD15C,3.000000*%
%TD*%
%TA.AperFunction,ComponentPad*%
%ADD16C,2.500000*%
%TD*%
%TA.AperFunction,SMDPad,CuDef*%
%ADD17R,3.170000X3.170000*%
%TD*%
%TA.AperFunction,ComponentPad*%
%ADD18C,4.000000*%
%TD*%
%TA.AperFunction,SMDPad,CuDef*%
%ADD19R,2.000000X5.900000*%
%TD*%
G04 APERTURE END LIST*
D10*
%TO.C,REF\u002A\u002A*%
X145204375Y-67284375D02*
X143829375Y-67284375D01*
D11*
X145204375Y-67284375D02*
X145854375Y-65484375D01*
X145854375Y-65484375D02*
X144079375Y-59934375D01*
D10*
X147429375Y-67334375D02*
X146129375Y-69284375D01*
X154279375Y-64084375D02*
X149879375Y-70134375D01*
X155679375Y-59934375D02*
X155679375Y-64084375D01*
X155679375Y-64084375D02*
X154279375Y-64084375D01*
X83431250Y-24342500D02*
X82056250Y-24342500D01*
D11*
X83431250Y-24342500D02*
X84081250Y-22542500D01*
X84081250Y-22542500D02*
X82306250Y-16992500D01*
D10*
X85656250Y-24392500D02*
X84356250Y-26342500D01*
X92506250Y-21142500D02*
X88106250Y-27192500D01*
X93906250Y-16992500D02*
X93906250Y-21142500D01*
X93906250Y-21142500D02*
X92506250Y-21142500D01*
D11*
X161075000Y-79692500D02*
X159300000Y-74142500D01*
D10*
X169500000Y-78292500D02*
X168910000Y-82232500D01*
X170900000Y-74142500D02*
X170900000Y-78292500D01*
X170900000Y-78292500D02*
X169500000Y-78292500D01*
X160504375Y-52996875D02*
X159129375Y-52996875D01*
D11*
X160504375Y-52996875D02*
X161154375Y-51196875D01*
X161154375Y-51196875D02*
X159379375Y-45646875D01*
D10*
X162729375Y-53046875D02*
X162729375Y-54496875D01*
X169579375Y-49796875D02*
X168989375Y-53736875D01*
X170979375Y-45646875D02*
X170979375Y-49796875D01*
X170979375Y-49796875D02*
X169579375Y-49796875D01*
X114466875Y-52996875D02*
X113091875Y-52996875D01*
D11*
X114466875Y-52996875D02*
X115116875Y-51196875D01*
X115116875Y-51196875D02*
X113341875Y-45646875D01*
D10*
X116691875Y-53046875D02*
X115391875Y-54996875D01*
X123541875Y-49796875D02*
X119141875Y-55846875D01*
X124941875Y-45646875D02*
X124941875Y-49796875D01*
X124941875Y-49796875D02*
X123541875Y-49796875D01*
X160425000Y-9420000D02*
X159050000Y-9420000D01*
D11*
X160425000Y-9420000D02*
X161075000Y-7620000D01*
X161075000Y-7620000D02*
X159300000Y-2070000D01*
D10*
X162650000Y-9470000D02*
X161350000Y-11420000D01*
X169500000Y-6220000D02*
X165100000Y-12270000D01*
X170900000Y-2070000D02*
X170900000Y-6220000D01*
X170900000Y-6220000D02*
X169500000Y-6220000D01*
X145125000Y4867500D02*
X143750000Y4867500D01*
D11*
X145125000Y4867500D02*
X145775000Y6667500D01*
X145775000Y6667500D02*
X144000000Y12217500D01*
D10*
X147350000Y4817500D02*
X146050000Y2867500D01*
X154200000Y8067500D02*
X149800000Y2017500D01*
X155600000Y12217500D02*
X155600000Y8067500D01*
X155600000Y8067500D02*
X154200000Y8067500D01*
X37215625Y4867500D02*
X35840625Y4867500D01*
D11*
X37215625Y4867500D02*
X37865625Y6667500D01*
X37865625Y6667500D02*
X36090625Y12217500D01*
D10*
X39440625Y4817500D02*
X39440625Y3367500D01*
X46290625Y8067500D02*
X45700625Y4127500D01*
X47690625Y12217500D02*
X47690625Y8067500D01*
X47690625Y8067500D02*
X46290625Y8067500D01*
X68251250Y-52996875D02*
X66876250Y-52996875D01*
D11*
X68251250Y-52996875D02*
X68901250Y-51196875D01*
X68901250Y-51196875D02*
X67126250Y-45646875D01*
D10*
X70476250Y-53046875D02*
X70476250Y-54496875D01*
X77326250Y-49796875D02*
X76736250Y-53736875D01*
X78726250Y-45646875D02*
X78726250Y-49796875D01*
X78726250Y-49796875D02*
X77326250Y-49796875D01*
X83510625Y-67284375D02*
X82135625Y-67284375D01*
D11*
X83510625Y-67284375D02*
X84160625Y-65484375D01*
X84160625Y-65484375D02*
X82385625Y-59934375D01*
D10*
X85735625Y-67334375D02*
X84435625Y-69284375D01*
X92585625Y-64084375D02*
X88185625Y-70134375D01*
X93985625Y-59934375D02*
X93985625Y-64084375D01*
X93985625Y-64084375D02*
X92585625Y-64084375D01*
X67775000Y-95780000D02*
X66400000Y-95780000D01*
D11*
X67775000Y-95780000D02*
X68425000Y-93980000D01*
X68425000Y-93980000D02*
X66650000Y-88430000D01*
D10*
X70000000Y-95830000D02*
X70000000Y-97280000D01*
X76850000Y-92580000D02*
X76260000Y-96520000D01*
X78250000Y-88430000D02*
X78250000Y-92580000D01*
X78250000Y-92580000D02*
X76850000Y-92580000D01*
X99128125Y4867500D02*
X97753125Y4867500D01*
D11*
X99128125Y4867500D02*
X99778125Y6667500D01*
X99778125Y6667500D02*
X98003125Y12217500D01*
D10*
X101353125Y4817500D02*
X101353125Y3367500D01*
X108203125Y8067500D02*
X107613125Y4127500D01*
X109603125Y12217500D02*
X109603125Y8067500D01*
X109603125Y8067500D02*
X108203125Y8067500D01*
X52395625Y19234375D02*
X51020625Y19234375D01*
D11*
X52395625Y19234375D02*
X53045625Y21034375D01*
X53045625Y21034375D02*
X51270625Y26584375D01*
D10*
X54620625Y19184375D02*
X53320625Y17234375D01*
X61470625Y22434375D02*
X57070625Y16384375D01*
X62870625Y26584375D02*
X62870625Y22434375D01*
X62870625Y22434375D02*
X61470625Y22434375D01*
X160504375Y-67284375D02*
X159129375Y-67284375D01*
D11*
X160504375Y-67284375D02*
X161154375Y-65484375D01*
X161154375Y-65484375D02*
X159379375Y-59934375D01*
D10*
X162729375Y-67334375D02*
X161429375Y-69284375D01*
X169579375Y-64084375D02*
X165179375Y-70134375D01*
X170979375Y-59934375D02*
X170979375Y-64084375D01*
X170979375Y-64084375D02*
X169579375Y-64084375D01*
X37136250Y19234375D02*
X35761250Y19234375D01*
D11*
X37136250Y19234375D02*
X37786250Y21034375D01*
X37786250Y21034375D02*
X36011250Y26584375D01*
D10*
X39361250Y19184375D02*
X39361250Y17734375D01*
X46211250Y22434375D02*
X45621250Y18494375D01*
X47611250Y26584375D02*
X47611250Y22434375D01*
X47611250Y22434375D02*
X46211250Y22434375D01*
X68171875Y-9420000D02*
X66796875Y-9420000D01*
D11*
X68171875Y-9420000D02*
X68821875Y-7620000D01*
X68821875Y-7620000D02*
X67046875Y-2070000D01*
D10*
X70396875Y-9470000D02*
X70396875Y-10920000D01*
X77246875Y-6220000D02*
X76656875Y-10160000D01*
X78646875Y-2070000D02*
X78646875Y-6220000D01*
X78646875Y-6220000D02*
X77246875Y-6220000D01*
X144728125Y-95780000D02*
X143353125Y-95780000D01*
D11*
X144728125Y-95780000D02*
X145378125Y-93980000D01*
X145378125Y-93980000D02*
X143603125Y-88430000D01*
D10*
X146953125Y-95830000D02*
X145653125Y-97780000D01*
X153803125Y-92580000D02*
X149403125Y-98630000D01*
X155203125Y-88430000D02*
X155203125Y-92580000D01*
X155203125Y-92580000D02*
X153803125Y-92580000D01*
X37295000Y-52996875D02*
X35920000Y-52996875D01*
D11*
X37295000Y-52996875D02*
X37945000Y-51196875D01*
X37945000Y-51196875D02*
X36170000Y-45646875D01*
D10*
X39520000Y-53046875D02*
X39520000Y-54496875D01*
X46370000Y-49796875D02*
X45780000Y-53736875D01*
X47770000Y-45646875D02*
X47770000Y-49796875D01*
X47770000Y-49796875D02*
X46370000Y-49796875D01*
X83351875Y19234375D02*
X81976875Y19234375D01*
D11*
X83351875Y19234375D02*
X84001875Y21034375D01*
X84001875Y21034375D02*
X82226875Y26584375D01*
D10*
X85576875Y19184375D02*
X84276875Y17234375D01*
X92426875Y22434375D02*
X88026875Y16384375D01*
X93826875Y26584375D02*
X93826875Y22434375D01*
X93826875Y22434375D02*
X92426875Y22434375D01*
X145045625Y33521875D02*
X143670625Y33521875D01*
D11*
X145045625Y33521875D02*
X145695625Y35321875D01*
X145695625Y35321875D02*
X143920625Y40871875D01*
D10*
X147270625Y33471875D02*
X145970625Y31521875D01*
X154120625Y36721875D02*
X149720625Y30671875D01*
X155520625Y40871875D02*
X155520625Y36721875D01*
X155520625Y36721875D02*
X154120625Y36721875D01*
X83510625Y-52996875D02*
X82135625Y-52996875D01*
D11*
X83510625Y-52996875D02*
X84160625Y-51196875D01*
X84160625Y-51196875D02*
X82385625Y-45646875D01*
D10*
X85735625Y-53046875D02*
X84435625Y-54996875D01*
X92585625Y-49796875D02*
X88185625Y-55846875D01*
X93985625Y-45646875D02*
X93985625Y-49796875D01*
X93985625Y-49796875D02*
X92585625Y-49796875D01*
X98731250Y-81492500D02*
X97356250Y-81492500D01*
D11*
X98731250Y-81492500D02*
X99381250Y-79692500D01*
X99381250Y-79692500D02*
X97606250Y-74142500D01*
D10*
X100956250Y-81542500D02*
X100956250Y-82992500D01*
X107806250Y-78292500D02*
X107216250Y-82232500D01*
X109206250Y-74142500D02*
X109206250Y-78292500D01*
X109206250Y-78292500D02*
X107806250Y-78292500D01*
X129786250Y33521875D02*
X128411250Y33521875D01*
D11*
X129786250Y33521875D02*
X130436250Y35321875D01*
X130436250Y35321875D02*
X128661250Y40871875D01*
D10*
X132011250Y33471875D02*
X132011250Y32021875D01*
X138861250Y36721875D02*
X138271250Y32781875D01*
X140261250Y40871875D02*
X140261250Y36721875D01*
X140261250Y36721875D02*
X138861250Y36721875D01*
X83351875Y33521875D02*
X81976875Y33521875D01*
D11*
X83351875Y33521875D02*
X84001875Y35321875D01*
X84001875Y35321875D02*
X82226875Y40871875D01*
D10*
X85576875Y33471875D02*
X84276875Y31521875D01*
X92426875Y36721875D02*
X88026875Y30671875D01*
X93826875Y40871875D02*
X93826875Y36721875D01*
X93826875Y36721875D02*
X92426875Y36721875D01*
X160345625Y33521875D02*
X158970625Y33521875D01*
D11*
X160345625Y33521875D02*
X160995625Y35321875D01*
X160995625Y35321875D02*
X159220625Y40871875D01*
D10*
X162570625Y33471875D02*
X162570625Y32021875D01*
X169420625Y36721875D02*
X168830625Y32781875D01*
X170820625Y40871875D02*
X170820625Y36721875D01*
X170820625Y36721875D02*
X169420625Y36721875D01*
X68092500Y33521875D02*
X66717500Y33521875D01*
D11*
X68092500Y33521875D02*
X68742500Y35321875D01*
X68742500Y35321875D02*
X66967500Y40871875D01*
D10*
X70317500Y33471875D02*
X70317500Y32021875D01*
X77167500Y36721875D02*
X76577500Y32781875D01*
X78567500Y40871875D02*
X78567500Y36721875D01*
X78567500Y36721875D02*
X77167500Y36721875D01*
X129945000Y-52996875D02*
X128570000Y-52996875D01*
D11*
X129945000Y-52996875D02*
X130595000Y-51196875D01*
X130595000Y-51196875D02*
X128820000Y-45646875D01*
D10*
X132170000Y-53046875D02*
X132170000Y-54496875D01*
X139020000Y-49796875D02*
X138430000Y-53736875D01*
X140420000Y-45646875D02*
X140420000Y-49796875D01*
X140420000Y-49796875D02*
X139020000Y-49796875D01*
X99207500Y-67284375D02*
X97832500Y-67284375D01*
D11*
X99207500Y-67284375D02*
X99857500Y-65484375D01*
X99857500Y-65484375D02*
X98082500Y-59934375D01*
D10*
X101432500Y-67334375D02*
X101432500Y-68784375D01*
X108282500Y-64084375D02*
X107692500Y-68024375D01*
X109682500Y-59934375D02*
X109682500Y-64084375D01*
X109682500Y-64084375D02*
X108282500Y-64084375D01*
X114387500Y-24342500D02*
X113012500Y-24342500D01*
D11*
X114387500Y-24342500D02*
X115037500Y-22542500D01*
X115037500Y-22542500D02*
X113262500Y-16992500D01*
D10*
X116612500Y-24392500D02*
X115312500Y-26342500D01*
X123462500Y-21142500D02*
X119062500Y-27192500D01*
X124862500Y-16992500D02*
X124862500Y-21142500D01*
X124862500Y-21142500D02*
X123462500Y-21142500D01*
X160345625Y19234375D02*
X158970625Y19234375D01*
D11*
X160345625Y19234375D02*
X160995625Y21034375D01*
X160995625Y21034375D02*
X159220625Y26584375D01*
D10*
X162570625Y19184375D02*
X161270625Y17234375D01*
X169420625Y22434375D02*
X165020625Y16384375D01*
X170820625Y26584375D02*
X170820625Y22434375D01*
X170820625Y22434375D02*
X169420625Y22434375D01*
X114308125Y19234375D02*
X112933125Y19234375D01*
D11*
X114308125Y19234375D02*
X114958125Y21034375D01*
X114958125Y21034375D02*
X113183125Y26584375D01*
D10*
X116533125Y19184375D02*
X115233125Y17234375D01*
X123383125Y22434375D02*
X118983125Y16384375D01*
X124783125Y26584375D02*
X124783125Y22434375D01*
X124783125Y22434375D02*
X123383125Y22434375D01*
X160425000Y4867500D02*
X159050000Y4867500D01*
D11*
X160425000Y4867500D02*
X161075000Y6667500D01*
X161075000Y6667500D02*
X159300000Y12217500D01*
D10*
X162650000Y4817500D02*
X162650000Y3367500D01*
X169500000Y8067500D02*
X168910000Y4127500D01*
X170900000Y12217500D02*
X170900000Y8067500D01*
X170900000Y8067500D02*
X169500000Y8067500D01*
X144728125Y-81492500D02*
X143353125Y-81492500D01*
D11*
X144728125Y-81492500D02*
X145378125Y-79692500D01*
X145378125Y-79692500D02*
X143603125Y-74142500D01*
D10*
X146953125Y-81542500D02*
X145653125Y-83492500D01*
X153803125Y-78292500D02*
X149403125Y-84342500D01*
X155203125Y-74142500D02*
X155203125Y-78292500D01*
X155203125Y-78292500D02*
X153803125Y-78292500D01*
X83034375Y-81492500D02*
X81659375Y-81492500D01*
D11*
X83034375Y-81492500D02*
X83684375Y-79692500D01*
X83684375Y-79692500D02*
X81909375Y-74142500D01*
D10*
X85259375Y-81542500D02*
X83959375Y-83492500D01*
X92109375Y-78292500D02*
X87709375Y-84342500D01*
X93509375Y-74142500D02*
X93509375Y-78292500D01*
X93509375Y-78292500D02*
X92109375Y-78292500D01*
X129786250Y19234375D02*
X128411250Y19234375D01*
D11*
X129786250Y19234375D02*
X130436250Y21034375D01*
X130436250Y21034375D02*
X128661250Y26584375D01*
D10*
X132011250Y19184375D02*
X132011250Y17734375D01*
X138861250Y22434375D02*
X138271250Y18494375D01*
X140261250Y26584375D02*
X140261250Y22434375D01*
X140261250Y22434375D02*
X138861250Y22434375D01*
X52554375Y-67284375D02*
X51179375Y-67284375D01*
D11*
X52554375Y-67284375D02*
X53204375Y-65484375D01*
X53204375Y-65484375D02*
X51429375Y-59934375D01*
D10*
X54779375Y-67334375D02*
X53479375Y-69284375D01*
X61629375Y-64084375D02*
X57229375Y-70134375D01*
X63029375Y-59934375D02*
X63029375Y-64084375D01*
X63029375Y-64084375D02*
X61629375Y-64084375D01*
X83431250Y-38630000D02*
X82056250Y-38630000D01*
D11*
X83431250Y-38630000D02*
X84081250Y-36830000D01*
X84081250Y-36830000D02*
X82306250Y-31280000D01*
D10*
X85656250Y-38680000D02*
X84356250Y-40630000D01*
X92506250Y-35430000D02*
X88106250Y-41480000D01*
X93906250Y-31280000D02*
X93906250Y-35430000D01*
X93906250Y-35430000D02*
X92506250Y-35430000D01*
X114387500Y-38630000D02*
X113012500Y-38630000D01*
D11*
X114387500Y-38630000D02*
X115037500Y-36830000D01*
X115037500Y-36830000D02*
X113262500Y-31280000D01*
D10*
X116612500Y-38680000D02*
X115312500Y-40630000D01*
X123462500Y-35430000D02*
X119062500Y-41480000D01*
X124862500Y-31280000D02*
X124862500Y-35430000D01*
X124862500Y-35430000D02*
X123462500Y-35430000D01*
X129468750Y-95780000D02*
X128093750Y-95780000D01*
D11*
X129468750Y-95780000D02*
X130118750Y-93980000D01*
X130118750Y-93980000D02*
X128343750Y-88430000D01*
D10*
X131693750Y-95830000D02*
X131693750Y-97280000D01*
X138543750Y-92580000D02*
X137953750Y-96520000D01*
X139943750Y-88430000D02*
X139943750Y-92580000D01*
X139943750Y-92580000D02*
X138543750Y-92580000D01*
X52395625Y33521875D02*
X51020625Y33521875D01*
D11*
X52395625Y33521875D02*
X53045625Y35321875D01*
X53045625Y35321875D02*
X51270625Y40871875D01*
D10*
X54620625Y33471875D02*
X53320625Y31521875D01*
X61470625Y36721875D02*
X57070625Y30671875D01*
X62870625Y40871875D02*
X62870625Y36721875D01*
X62870625Y36721875D02*
X61470625Y36721875D01*
X113990625Y-95780000D02*
X112615625Y-95780000D01*
D11*
X113990625Y-95780000D02*
X114640625Y-93980000D01*
X114640625Y-93980000D02*
X112865625Y-88430000D01*
D10*
X116215625Y-95830000D02*
X114915625Y-97780000D01*
X123065625Y-92580000D02*
X118665625Y-98630000D01*
X124465625Y-88430000D02*
X124465625Y-92580000D01*
X124465625Y-92580000D02*
X123065625Y-92580000D01*
X83034375Y-95780000D02*
X81659375Y-95780000D01*
D11*
X83034375Y-95780000D02*
X83684375Y-93980000D01*
X83684375Y-93980000D02*
X81909375Y-88430000D01*
D10*
X85259375Y-95830000D02*
X83959375Y-97780000D01*
X92109375Y-92580000D02*
X87709375Y-98630000D01*
X93509375Y-88430000D02*
X93509375Y-92580000D01*
X93509375Y-92580000D02*
X92109375Y-92580000D01*
X52078125Y-95780000D02*
X50703125Y-95780000D01*
D11*
X52078125Y-95780000D02*
X52728125Y-93980000D01*
X52728125Y-93980000D02*
X50953125Y-88430000D01*
D10*
X54303125Y-95830000D02*
X53003125Y-97780000D01*
X61153125Y-92580000D02*
X56753125Y-98630000D01*
X62553125Y-88430000D02*
X62553125Y-92580000D01*
X62553125Y-92580000D02*
X61153125Y-92580000D01*
X68092500Y19234375D02*
X66717500Y19234375D01*
D11*
X68092500Y19234375D02*
X68742500Y21034375D01*
X68742500Y21034375D02*
X66967500Y26584375D01*
D10*
X70317500Y19184375D02*
X70317500Y17734375D01*
X77167500Y22434375D02*
X76577500Y18494375D01*
X78567500Y26584375D02*
X78567500Y22434375D01*
X78567500Y22434375D02*
X77167500Y22434375D01*
X145045625Y19234375D02*
X143670625Y19234375D01*
D11*
X145045625Y19234375D02*
X145695625Y21034375D01*
X145695625Y21034375D02*
X143920625Y26584375D01*
D10*
X147270625Y19184375D02*
X145970625Y17234375D01*
X154120625Y22434375D02*
X149720625Y16384375D01*
X155520625Y26584375D02*
X155520625Y22434375D01*
X155520625Y22434375D02*
X154120625Y22434375D01*
X52554375Y-52996875D02*
X51179375Y-52996875D01*
D11*
X52554375Y-52996875D02*
X53204375Y-51196875D01*
X53204375Y-51196875D02*
X51429375Y-45646875D01*
D10*
X54779375Y-53046875D02*
X53479375Y-54996875D01*
X61629375Y-49796875D02*
X57229375Y-55846875D01*
X63029375Y-45646875D02*
X63029375Y-49796875D01*
X63029375Y-49796875D02*
X61629375Y-49796875D01*
X83431250Y-9420000D02*
X82056250Y-9420000D01*
D11*
X83431250Y-9420000D02*
X84081250Y-7620000D01*
X84081250Y-7620000D02*
X82306250Y-2070000D01*
D10*
X85656250Y-9470000D02*
X84356250Y-11420000D01*
X92506250Y-6220000D02*
X88106250Y-12270000D01*
X93906250Y-2070000D02*
X93906250Y-6220000D01*
X93906250Y-6220000D02*
X92506250Y-6220000D01*
X36818750Y-95780000D02*
X35443750Y-95780000D01*
D11*
X36818750Y-95780000D02*
X37468750Y-93980000D01*
X37468750Y-93980000D02*
X35693750Y-88430000D01*
D10*
X39043750Y-95830000D02*
X39043750Y-97280000D01*
X45893750Y-92580000D02*
X45303750Y-96520000D01*
X47293750Y-88430000D02*
X47293750Y-92580000D01*
X47293750Y-92580000D02*
X45893750Y-92580000D01*
X99048750Y33521875D02*
X97673750Y33521875D01*
D11*
X99048750Y33521875D02*
X99698750Y35321875D01*
X99698750Y35321875D02*
X97923750Y40871875D01*
D10*
X101273750Y33471875D02*
X101273750Y32021875D01*
X108123750Y36721875D02*
X107533750Y32781875D01*
X109523750Y40871875D02*
X109523750Y36721875D01*
X109523750Y36721875D02*
X108123750Y36721875D01*
X145125000Y-9420000D02*
X143750000Y-9420000D01*
D11*
X145125000Y-9420000D02*
X145775000Y-7620000D01*
X145775000Y-7620000D02*
X144000000Y-2070000D01*
D10*
X147350000Y-9470000D02*
X146050000Y-11420000D01*
X154200000Y-6220000D02*
X149800000Y-12270000D01*
X155600000Y-2070000D02*
X155600000Y-6220000D01*
X155600000Y-6220000D02*
X154200000Y-6220000D01*
X52078125Y-81492500D02*
X50703125Y-81492500D01*
D11*
X52078125Y-81492500D02*
X52728125Y-79692500D01*
X52728125Y-79692500D02*
X50953125Y-74142500D01*
D10*
X54303125Y-81542500D02*
X53003125Y-83492500D01*
X61153125Y-78292500D02*
X56753125Y-84342500D01*
X62553125Y-74142500D02*
X62553125Y-78292500D01*
X62553125Y-78292500D02*
X61153125Y-78292500D01*
X52475000Y-24342500D02*
X51100000Y-24342500D01*
D11*
X52475000Y-24342500D02*
X53125000Y-22542500D01*
X53125000Y-22542500D02*
X51350000Y-16992500D01*
D10*
X54700000Y-24392500D02*
X53400000Y-26342500D01*
X61550000Y-21142500D02*
X57150000Y-27192500D01*
X62950000Y-16992500D02*
X62950000Y-21142500D01*
X62950000Y-21142500D02*
X61550000Y-21142500D01*
X114308125Y33521875D02*
X112933125Y33521875D01*
D11*
X114308125Y33521875D02*
X114958125Y35321875D01*
X114958125Y35321875D02*
X113183125Y40871875D01*
D10*
X116533125Y33471875D02*
X115233125Y31521875D01*
X123383125Y36721875D02*
X118983125Y30671875D01*
X124783125Y40871875D02*
X124783125Y36721875D01*
X124783125Y36721875D02*
X123383125Y36721875D01*
X52475000Y-9420000D02*
X51100000Y-9420000D01*
D11*
X52475000Y-9420000D02*
X53125000Y-7620000D01*
X53125000Y-7620000D02*
X51350000Y-2070000D01*
D10*
X54700000Y-9470000D02*
X53400000Y-11420000D01*
X61550000Y-6220000D02*
X57150000Y-12270000D01*
X62950000Y-2070000D02*
X62950000Y-6220000D01*
X62950000Y-6220000D02*
X61550000Y-6220000D01*
X68171875Y-24342500D02*
X66796875Y-24342500D01*
D11*
X68171875Y-24342500D02*
X68821875Y-22542500D01*
X68821875Y-22542500D02*
X67046875Y-16992500D01*
D10*
X70396875Y-24392500D02*
X70396875Y-25842500D01*
X77246875Y-21142500D02*
X76656875Y-25082500D01*
X78646875Y-16992500D02*
X78646875Y-21142500D01*
X78646875Y-21142500D02*
X77246875Y-21142500D01*
X129945000Y-67284375D02*
X128570000Y-67284375D01*
D11*
X129945000Y-67284375D02*
X130595000Y-65484375D01*
X130595000Y-65484375D02*
X128820000Y-59934375D01*
D10*
X132170000Y-67334375D02*
X132170000Y-68784375D01*
X139020000Y-64084375D02*
X138430000Y-68024375D01*
X140420000Y-59934375D02*
X140420000Y-64084375D01*
X140420000Y-64084375D02*
X139020000Y-64084375D01*
X99128125Y-38630000D02*
X97753125Y-38630000D01*
D11*
X99128125Y-38630000D02*
X99778125Y-36830000D01*
X99778125Y-36830000D02*
X98003125Y-31280000D01*
D10*
X101353125Y-38680000D02*
X101353125Y-40130000D01*
X108203125Y-35430000D02*
X107613125Y-39370000D01*
X109603125Y-31280000D02*
X109603125Y-35430000D01*
X109603125Y-35430000D02*
X108203125Y-35430000D01*
X145125000Y-24342500D02*
X143750000Y-24342500D01*
D11*
X145125000Y-24342500D02*
X145775000Y-22542500D01*
X145775000Y-22542500D02*
X144000000Y-16992500D01*
D10*
X147350000Y-24392500D02*
X146050000Y-26342500D01*
X154200000Y-21142500D02*
X149800000Y-27192500D01*
X155600000Y-16992500D02*
X155600000Y-21142500D01*
X155600000Y-21142500D02*
X154200000Y-21142500D01*
X99128125Y-24342500D02*
X97753125Y-24342500D01*
D11*
X99128125Y-24342500D02*
X99778125Y-22542500D01*
X99778125Y-22542500D02*
X98003125Y-16992500D01*
D10*
X101353125Y-24392500D02*
X101353125Y-25842500D01*
X108203125Y-21142500D02*
X107613125Y-25082500D01*
X109603125Y-16992500D02*
X109603125Y-21142500D01*
X109603125Y-21142500D02*
X108203125Y-21142500D01*
X52475000Y4867500D02*
X51100000Y4867500D01*
D11*
X52475000Y4867500D02*
X53125000Y6667500D01*
X53125000Y6667500D02*
X51350000Y12217500D01*
D10*
X54700000Y4817500D02*
X53400000Y2867500D01*
X61550000Y8067500D02*
X57150000Y2017500D01*
X62950000Y12217500D02*
X62950000Y8067500D01*
X62950000Y8067500D02*
X61550000Y8067500D01*
X37295000Y-67284375D02*
X35920000Y-67284375D01*
D11*
X37295000Y-67284375D02*
X37945000Y-65484375D01*
X37945000Y-65484375D02*
X36170000Y-59934375D01*
D10*
X39520000Y-67334375D02*
X39520000Y-68784375D01*
X46370000Y-64084375D02*
X45780000Y-68024375D01*
X47770000Y-59934375D02*
X47770000Y-64084375D01*
X47770000Y-64084375D02*
X46370000Y-64084375D01*
X99128125Y-9420000D02*
X97753125Y-9420000D01*
D11*
X99128125Y-9420000D02*
X99778125Y-7620000D01*
X99778125Y-7620000D02*
X98003125Y-2070000D01*
D10*
X101353125Y-9470000D02*
X101353125Y-10920000D01*
X108203125Y-6220000D02*
X107613125Y-10160000D01*
X109603125Y-2070000D02*
X109603125Y-6220000D01*
X109603125Y-6220000D02*
X108203125Y-6220000D01*
X145125000Y-38630000D02*
X143750000Y-38630000D01*
D11*
X145125000Y-38630000D02*
X145775000Y-36830000D01*
X145775000Y-36830000D02*
X144000000Y-31280000D01*
D10*
X147350000Y-38680000D02*
X146050000Y-40630000D01*
X154200000Y-35430000D02*
X149800000Y-41480000D01*
X155600000Y-31280000D02*
X155600000Y-35430000D01*
X155600000Y-35430000D02*
X154200000Y-35430000D01*
X114466875Y-67284375D02*
X113091875Y-67284375D01*
D11*
X114466875Y-67284375D02*
X115116875Y-65484375D01*
X115116875Y-65484375D02*
X113341875Y-59934375D01*
D10*
X116691875Y-67334375D02*
X115391875Y-69284375D01*
X123541875Y-64084375D02*
X119141875Y-70134375D01*
X124941875Y-59934375D02*
X124941875Y-64084375D01*
X124941875Y-64084375D02*
X123541875Y-64084375D01*
X113990625Y-81492500D02*
X112615625Y-81492500D01*
D11*
X113990625Y-81492500D02*
X114640625Y-79692500D01*
X114640625Y-79692500D02*
X112865625Y-74142500D01*
D10*
X116215625Y-81542500D02*
X114915625Y-83492500D01*
X123065625Y-78292500D02*
X118665625Y-84342500D01*
X124465625Y-74142500D02*
X124465625Y-78292500D01*
X124465625Y-78292500D02*
X123065625Y-78292500D01*
X37215625Y-24342500D02*
X35840625Y-24342500D01*
D11*
X37215625Y-24342500D02*
X37865625Y-22542500D01*
X37865625Y-22542500D02*
X36090625Y-16992500D01*
D10*
X39440625Y-24392500D02*
X39440625Y-25842500D01*
X46290625Y-21142500D02*
X45700625Y-25082500D01*
X47690625Y-16992500D02*
X47690625Y-21142500D01*
X47690625Y-21142500D02*
X46290625Y-21142500D01*
X160425000Y-38630000D02*
X159050000Y-38630000D01*
D11*
X160425000Y-38630000D02*
X161075000Y-36830000D01*
X161075000Y-36830000D02*
X159300000Y-31280000D01*
D10*
X162650000Y-38680000D02*
X161350000Y-40630000D01*
X169500000Y-35430000D02*
X165100000Y-41480000D01*
X170900000Y-31280000D02*
X170900000Y-35430000D01*
X170900000Y-35430000D02*
X169500000Y-35430000D01*
X98731250Y-95780000D02*
X97356250Y-95780000D01*
D11*
X98731250Y-95780000D02*
X99381250Y-93980000D01*
X99381250Y-93980000D02*
X97606250Y-88430000D01*
D10*
X100956250Y-95830000D02*
X100956250Y-97280000D01*
X107806250Y-92580000D02*
X107216250Y-96520000D01*
X109206250Y-88430000D02*
X109206250Y-92580000D01*
X109206250Y-92580000D02*
X107806250Y-92580000D01*
X129865625Y-38630000D02*
X128490625Y-38630000D01*
D11*
X129865625Y-38630000D02*
X130515625Y-36830000D01*
X130515625Y-36830000D02*
X128740625Y-31280000D01*
D10*
X132090625Y-38680000D02*
X132090625Y-40130000D01*
X138940625Y-35430000D02*
X138350625Y-39370000D01*
X140340625Y-31280000D02*
X140340625Y-35430000D01*
X140340625Y-35430000D02*
X138940625Y-35430000D01*
X99207500Y-52996875D02*
X97832500Y-52996875D01*
D11*
X99207500Y-52996875D02*
X99857500Y-51196875D01*
X99857500Y-51196875D02*
X98082500Y-45646875D01*
D10*
X101432500Y-53046875D02*
X101432500Y-54496875D01*
X108282500Y-49796875D02*
X107692500Y-53736875D01*
X109682500Y-45646875D02*
X109682500Y-49796875D01*
X109682500Y-49796875D02*
X108282500Y-49796875D01*
X68171875Y-38630000D02*
X66796875Y-38630000D01*
D11*
X68171875Y-38630000D02*
X68821875Y-36830000D01*
X68821875Y-36830000D02*
X67046875Y-31280000D01*
D10*
X70396875Y-38680000D02*
X70396875Y-40130000D01*
X77246875Y-35430000D02*
X76656875Y-39370000D01*
X78646875Y-31280000D02*
X78646875Y-35430000D01*
X78646875Y-35430000D02*
X77246875Y-35430000D01*
X37136250Y33521875D02*
X35761250Y33521875D01*
D11*
X37136250Y33521875D02*
X37786250Y35321875D01*
X37786250Y35321875D02*
X36011250Y40871875D01*
D10*
X39361250Y33471875D02*
X39361250Y32021875D01*
X46211250Y36721875D02*
X45621250Y32781875D01*
X47611250Y40871875D02*
X47611250Y36721875D01*
X47611250Y36721875D02*
X46211250Y36721875D01*
X129865625Y-9420000D02*
X128490625Y-9420000D01*
D11*
X129865625Y-9420000D02*
X130515625Y-7620000D01*
X130515625Y-7620000D02*
X128740625Y-2070000D01*
D10*
X132090625Y-9470000D02*
X132090625Y-10920000D01*
X138940625Y-6220000D02*
X138350625Y-10160000D01*
X140340625Y-2070000D02*
X140340625Y-6220000D01*
X140340625Y-6220000D02*
X138940625Y-6220000D01*
X83431250Y4867500D02*
X82056250Y4867500D01*
D11*
X83431250Y4867500D02*
X84081250Y6667500D01*
X84081250Y6667500D02*
X82306250Y12217500D01*
D10*
X85656250Y4817500D02*
X84356250Y2867500D01*
X92506250Y8067500D02*
X88106250Y2017500D01*
X93906250Y12217500D02*
X93906250Y8067500D01*
X93906250Y8067500D02*
X92506250Y8067500D01*
X68171875Y4867500D02*
X66796875Y4867500D01*
D11*
X68171875Y4867500D02*
X68821875Y6667500D01*
X68821875Y6667500D02*
X67046875Y12217500D01*
D10*
X70396875Y4817500D02*
X70396875Y3367500D01*
X77246875Y8067500D02*
X76656875Y4127500D01*
X78646875Y12217500D02*
X78646875Y8067500D01*
X78646875Y8067500D02*
X77246875Y8067500D01*
X52475000Y-38630000D02*
X51100000Y-38630000D01*
D11*
X52475000Y-38630000D02*
X53125000Y-36830000D01*
X53125000Y-36830000D02*
X51350000Y-31280000D01*
D10*
X54700000Y-38680000D02*
X53400000Y-40630000D01*
X61550000Y-35430000D02*
X57150000Y-41480000D01*
X62950000Y-31280000D02*
X62950000Y-35430000D01*
X62950000Y-35430000D02*
X61550000Y-35430000D01*
X68251250Y-67284375D02*
X66876250Y-67284375D01*
D11*
X68251250Y-67284375D02*
X68901250Y-65484375D01*
X68901250Y-65484375D02*
X67126250Y-59934375D01*
D10*
X70476250Y-67334375D02*
X70476250Y-68784375D01*
X77326250Y-64084375D02*
X76736250Y-68024375D01*
X78726250Y-59934375D02*
X78726250Y-64084375D01*
X78726250Y-64084375D02*
X77326250Y-64084375D01*
X99048750Y19234375D02*
X97673750Y19234375D01*
D11*
X99048750Y19234375D02*
X99698750Y21034375D01*
X99698750Y21034375D02*
X97923750Y26584375D01*
D10*
X101273750Y19184375D02*
X101273750Y17734375D01*
X108123750Y22434375D02*
X107533750Y18494375D01*
X109523750Y26584375D02*
X109523750Y22434375D01*
X109523750Y22434375D02*
X108123750Y22434375D01*
X37215625Y-9420000D02*
X35840625Y-9420000D01*
D11*
X37215625Y-9420000D02*
X37865625Y-7620000D01*
X37865625Y-7620000D02*
X36090625Y-2070000D01*
D10*
X39440625Y-9470000D02*
X39440625Y-10920000D01*
X46290625Y-6220000D02*
X45700625Y-10160000D01*
X47690625Y-2070000D02*
X47690625Y-6220000D01*
X47690625Y-6220000D02*
X46290625Y-6220000D01*
D11*
X161075000Y-93980000D02*
X159300000Y-88430000D01*
D10*
X169500000Y-92580000D02*
X168910000Y-96520000D01*
X170900000Y-88430000D02*
X170900000Y-92580000D01*
X170900000Y-92580000D02*
X169500000Y-92580000D01*
X145204375Y-52996875D02*
X143829375Y-52996875D01*
D11*
X145204375Y-52996875D02*
X145854375Y-51196875D01*
X145854375Y-51196875D02*
X144079375Y-45646875D01*
D10*
X147429375Y-53046875D02*
X146129375Y-54996875D01*
X154279375Y-49796875D02*
X149879375Y-55846875D01*
X155679375Y-45646875D02*
X155679375Y-49796875D01*
X155679375Y-49796875D02*
X154279375Y-49796875D01*
X160425000Y-24342500D02*
X159050000Y-24342500D01*
D11*
X160425000Y-24342500D02*
X161075000Y-22542500D01*
X161075000Y-22542500D02*
X159300000Y-16992500D01*
D10*
X162650000Y-24392500D02*
X162650000Y-25842500D01*
X169500000Y-21142500D02*
X168910000Y-25082500D01*
X170900000Y-16992500D02*
X170900000Y-21142500D01*
X170900000Y-21142500D02*
X169500000Y-21142500D01*
X36818750Y-81492500D02*
X35443750Y-81492500D01*
D11*
X36818750Y-81492500D02*
X37468750Y-79692500D01*
X37468750Y-79692500D02*
X35693750Y-74142500D01*
D10*
X39043750Y-81542500D02*
X39043750Y-82992500D01*
X45893750Y-78292500D02*
X45303750Y-82232500D01*
X47293750Y-74142500D02*
X47293750Y-78292500D01*
X47293750Y-78292500D02*
X45893750Y-78292500D01*
X114387500Y-9420000D02*
X113012500Y-9420000D01*
D11*
X114387500Y-9420000D02*
X115037500Y-7620000D01*
X115037500Y-7620000D02*
X113262500Y-2070000D01*
D10*
X116612500Y-9470000D02*
X115312500Y-11420000D01*
X123462500Y-6220000D02*
X119062500Y-12270000D01*
X124862500Y-2070000D02*
X124862500Y-6220000D01*
X124862500Y-6220000D02*
X123462500Y-6220000D01*
X37215625Y-38630000D02*
X35840625Y-38630000D01*
D11*
X37215625Y-38630000D02*
X37865625Y-36830000D01*
X37865625Y-36830000D02*
X36090625Y-31280000D01*
D10*
X39440625Y-38680000D02*
X39440625Y-40130000D01*
X46290625Y-35430000D02*
X45700625Y-39370000D01*
X47690625Y-31280000D02*
X47690625Y-35430000D01*
X47690625Y-35430000D02*
X46290625Y-35430000D01*
X129865625Y4867500D02*
X128490625Y4867500D01*
D11*
X129865625Y4867500D02*
X130515625Y6667500D01*
X130515625Y6667500D02*
X128740625Y12217500D01*
D10*
X132090625Y4817500D02*
X132090625Y3367500D01*
X138940625Y8067500D02*
X138350625Y4127500D01*
X140340625Y12217500D02*
X140340625Y8067500D01*
X140340625Y8067500D02*
X138940625Y8067500D01*
X129865625Y-24342500D02*
X128490625Y-24342500D01*
D11*
X129865625Y-24342500D02*
X130515625Y-22542500D01*
X130515625Y-22542500D02*
X128740625Y-16992500D01*
D10*
X132090625Y-24392500D02*
X132090625Y-25842500D01*
X138940625Y-21142500D02*
X138350625Y-25082500D01*
X140340625Y-16992500D02*
X140340625Y-21142500D01*
X140340625Y-21142500D02*
X138940625Y-21142500D01*
X67775000Y-81492500D02*
X66400000Y-81492500D01*
D11*
X67775000Y-81492500D02*
X68425000Y-79692500D01*
X68425000Y-79692500D02*
X66650000Y-74142500D01*
D10*
X70000000Y-81542500D02*
X70000000Y-82992500D01*
X76850000Y-78292500D02*
X76260000Y-82232500D01*
X78250000Y-74142500D02*
X78250000Y-78292500D01*
X78250000Y-78292500D02*
X76850000Y-78292500D01*
X129468750Y-81492500D02*
X128093750Y-81492500D01*
D11*
X129468750Y-81492500D02*
X130118750Y-79692500D01*
X130118750Y-79692500D02*
X128343750Y-74142500D01*
D10*
X131693750Y-81542500D02*
X131693750Y-82992500D01*
X138543750Y-78292500D02*
X137953750Y-82232500D01*
X139943750Y-74142500D02*
X139943750Y-78292500D01*
X139943750Y-78292500D02*
X138543750Y-78292500D01*
X114387500Y4867500D02*
X113012500Y4867500D01*
D11*
X114387500Y4867500D02*
X115037500Y6667500D01*
X115037500Y6667500D02*
X113262500Y12217500D01*
D10*
X116612500Y4817500D02*
X115312500Y2867500D01*
X123462500Y8067500D02*
X119062500Y2017500D01*
X124862500Y12217500D02*
X124862500Y8067500D01*
X124862500Y8067500D02*
X123462500Y8067500D01*
%TD*%
D12*
%TO.P,REF\u002A\u002A,*%
%TO.N,*%
X142679375Y-65734375D03*
D13*
X142779375Y-72484375D03*
D14*
X143829375Y-67484375D03*
D15*
X144079375Y-59934375D03*
D16*
X144879375Y-69284375D03*
X145479375Y-70184375D03*
D14*
X147129375Y-67484375D03*
D12*
X148179375Y-58484375D03*
X148179375Y-72484375D03*
X149879375Y-58484375D03*
D16*
X149879375Y-71384375D03*
D12*
X149879375Y-72484375D03*
D16*
X150379375Y-71384375D03*
D12*
X151579375Y-58484375D03*
X151579375Y-72484375D03*
D16*
X152479375Y-71234375D03*
X154579375Y-68584375D03*
D15*
X155679375Y-59934375D03*
D13*
X156979375Y-72484375D03*
D12*
X157079375Y-65734375D03*
D13*
%TO.P,REF\u002A\u002A,1*%
%TO.N,N/C*%
X142779375Y-58484375D03*
%TO.P,REF\u002A\u002A,2*%
X156979375Y-58484375D03*
D12*
%TO.P,REF\u002A\u002A,3*%
X157079375Y-62334375D03*
%TO.P,REF\u002A\u002A,4*%
X142679375Y-62334375D03*
%TO.P,REF\u002A\u002A,5*%
X142679375Y-64034375D03*
%TO.P,REF\u002A\u002A,6*%
X157079375Y-64034375D03*
%TD*%
%TO.P,REF\u002A\u002A,*%
%TO.N,*%
X80906250Y-22792500D03*
D13*
X81006250Y-29542500D03*
D14*
X82056250Y-24542500D03*
D15*
X82306250Y-16992500D03*
D16*
X83106250Y-26342500D03*
X83706250Y-27242500D03*
D14*
X85356250Y-24542500D03*
D12*
X86406250Y-15542500D03*
X86406250Y-29542500D03*
X88106250Y-15542500D03*
D16*
X88106250Y-28442500D03*
D12*
X88106250Y-29542500D03*
D16*
X88606250Y-28442500D03*
D12*
X89806250Y-15542500D03*
X89806250Y-29542500D03*
D16*
X90706250Y-28292500D03*
X92806250Y-25642500D03*
D15*
X93906250Y-16992500D03*
D13*
X95206250Y-29542500D03*
D12*
X95306250Y-22792500D03*
D13*
%TO.P,REF\u002A\u002A,1*%
%TO.N,N/C*%
X81006250Y-15542500D03*
%TO.P,REF\u002A\u002A,2*%
X95206250Y-15542500D03*
D12*
%TO.P,REF\u002A\u002A,3*%
X95306250Y-19392500D03*
%TO.P,REF\u002A\u002A,4*%
X80906250Y-19392500D03*
%TO.P,REF\u002A\u002A,5*%
X80906250Y-21092500D03*
%TO.P,REF\u002A\u002A,6*%
X95306250Y-21092500D03*
%TD*%
%TO.P,REF\u002A\u002A,*%
%TO.N,*%
X157900000Y-79942500D03*
D13*
X158000000Y-86692500D03*
D15*
X159300000Y-74142500D03*
D12*
X161350000Y-80162500D03*
X163400000Y-72692500D03*
X163400000Y-86692500D03*
X165100000Y-72692500D03*
X165100000Y-86692500D03*
X166800000Y-72692500D03*
X166800000Y-86692500D03*
X168910000Y-82252500D03*
D15*
X170900000Y-74142500D03*
D13*
X172200000Y-86692500D03*
D12*
X172300000Y-79942500D03*
D13*
%TO.P,REF\u002A\u002A,1*%
%TO.N,N/C*%
X158000000Y-72692500D03*
%TO.P,REF\u002A\u002A,2*%
X172200000Y-72692500D03*
D12*
%TO.P,REF\u002A\u002A,3*%
X172300000Y-76542500D03*
%TO.P,REF\u002A\u002A,4*%
X157900000Y-76542500D03*
%TO.P,REF\u002A\u002A,5*%
X157900000Y-78242500D03*
%TO.P,REF\u002A\u002A,6*%
X172300000Y-78242500D03*
%TD*%
%TO.P,REF\u002A\u002A,*%
%TO.N,*%
X157979375Y-51446875D03*
D13*
X158079375Y-58196875D03*
D14*
X159129375Y-53196875D03*
D15*
X159379375Y-45646875D03*
D17*
X159514375Y-56611875D03*
D14*
X162429375Y-53196875D03*
D18*
X162639375Y-56276875D03*
D12*
X163479375Y-44196875D03*
X163479375Y-58196875D03*
X165179375Y-44196875D03*
X165179375Y-58196875D03*
X166879375Y-44196875D03*
X166879375Y-58196875D03*
D18*
X168989375Y-53736875D03*
D15*
X170979375Y-45646875D03*
D19*
X171429375Y-55246875D03*
D13*
X172279375Y-58196875D03*
D12*
X172379375Y-51446875D03*
D13*
%TO.P,REF\u002A\u002A,1*%
%TO.N,N/C*%
X158079375Y-44196875D03*
%TO.P,REF\u002A\u002A,2*%
X172279375Y-44196875D03*
D12*
%TO.P,REF\u002A\u002A,3*%
X172379375Y-48046875D03*
%TO.P,REF\u002A\u002A,4*%
X157979375Y-48046875D03*
%TO.P,REF\u002A\u002A,5*%
X157979375Y-49746875D03*
%TO.P,REF\u002A\u002A,6*%
X172379375Y-49746875D03*
%TD*%
%TO.P,REF\u002A\u002A,*%
%TO.N,*%
X111941875Y-51446875D03*
D13*
X112041875Y-58196875D03*
D14*
X113091875Y-53196875D03*
D15*
X113341875Y-45646875D03*
D16*
X114141875Y-54996875D03*
X114741875Y-55896875D03*
D14*
X116391875Y-53196875D03*
D12*
X117441875Y-44196875D03*
X117441875Y-58196875D03*
X119141875Y-44196875D03*
D16*
X119141875Y-57096875D03*
D12*
X119141875Y-58196875D03*
D16*
X119641875Y-57096875D03*
D12*
X120841875Y-44196875D03*
X120841875Y-58196875D03*
D16*
X121741875Y-56946875D03*
X123841875Y-54296875D03*
D15*
X124941875Y-45646875D03*
D13*
X126241875Y-58196875D03*
D12*
X126341875Y-51446875D03*
D13*
%TO.P,REF\u002A\u002A,1*%
%TO.N,N/C*%
X112041875Y-44196875D03*
%TO.P,REF\u002A\u002A,2*%
X126241875Y-44196875D03*
D12*
%TO.P,REF\u002A\u002A,3*%
X126341875Y-48046875D03*
%TO.P,REF\u002A\u002A,4*%
X111941875Y-48046875D03*
%TO.P,REF\u002A\u002A,5*%
X111941875Y-49746875D03*
%TO.P,REF\u002A\u002A,6*%
X126341875Y-49746875D03*
%TD*%
%TO.P,REF\u002A\u002A,*%
%TO.N,*%
X157900000Y-7870000D03*
D13*
X158000000Y-14620000D03*
D14*
X159050000Y-9620000D03*
D15*
X159300000Y-2070000D03*
D16*
X160100000Y-11420000D03*
X160700000Y-12320000D03*
D14*
X162350000Y-9620000D03*
D12*
X163400000Y-620000D03*
X163400000Y-14620000D03*
X165100000Y-620000D03*
D16*
X165100000Y-13520000D03*
D12*
X165100000Y-14620000D03*
D16*
X165600000Y-13520000D03*
D12*
X166800000Y-620000D03*
X166800000Y-14620000D03*
D16*
X167700000Y-13370000D03*
X169800000Y-10720000D03*
D15*
X170900000Y-2070000D03*
D13*
X172200000Y-14620000D03*
D12*
X172300000Y-7870000D03*
D13*
%TO.P,REF\u002A\u002A,1*%
%TO.N,N/C*%
X158000000Y-620000D03*
%TO.P,REF\u002A\u002A,2*%
X172200000Y-620000D03*
D12*
%TO.P,REF\u002A\u002A,3*%
X172300000Y-4470000D03*
%TO.P,REF\u002A\u002A,4*%
X157900000Y-4470000D03*
%TO.P,REF\u002A\u002A,5*%
X157900000Y-6170000D03*
%TO.P,REF\u002A\u002A,6*%
X172300000Y-6170000D03*
%TD*%
%TO.P,REF\u002A\u002A,*%
%TO.N,*%
X142600000Y6417500D03*
D13*
X142700000Y-332500D03*
D14*
X143750000Y4667500D03*
D15*
X144000000Y12217500D03*
D16*
X144800000Y2867500D03*
X145400000Y1967500D03*
D14*
X147050000Y4667500D03*
D12*
X148100000Y13667500D03*
X148100000Y-332500D03*
X149800000Y13667500D03*
D16*
X149800000Y767500D03*
D12*
X149800000Y-332500D03*
D16*
X150300000Y767500D03*
D12*
X151500000Y13667500D03*
X151500000Y-332500D03*
D16*
X152400000Y917500D03*
X154500000Y3567500D03*
D15*
X155600000Y12217500D03*
D13*
X156900000Y-332500D03*
D12*
X157000000Y6417500D03*
D13*
%TO.P,REF\u002A\u002A,1*%
%TO.N,N/C*%
X142700000Y13667500D03*
%TO.P,REF\u002A\u002A,2*%
X156900000Y13667500D03*
D12*
%TO.P,REF\u002A\u002A,3*%
X157000000Y9817500D03*
%TO.P,REF\u002A\u002A,4*%
X142600000Y9817500D03*
%TO.P,REF\u002A\u002A,5*%
X142600000Y8117500D03*
%TO.P,REF\u002A\u002A,6*%
X157000000Y8117500D03*
%TD*%
%TO.P,REF\u002A\u002A,*%
%TO.N,*%
X34690625Y6417500D03*
D13*
X34790625Y-332500D03*
D14*
X35840625Y4667500D03*
D15*
X36090625Y12217500D03*
D17*
X36225625Y1252500D03*
D14*
X39140625Y4667500D03*
D18*
X39350625Y1587500D03*
D12*
X40190625Y13667500D03*
X40190625Y-332500D03*
X41890625Y13667500D03*
X41890625Y-332500D03*
X43590625Y13667500D03*
X43590625Y-332500D03*
D18*
X45700625Y4127500D03*
D15*
X47690625Y12217500D03*
D19*
X48140625Y2617500D03*
D13*
X48990625Y-332500D03*
D12*
X49090625Y6417500D03*
D13*
%TO.P,REF\u002A\u002A,1*%
%TO.N,N/C*%
X34790625Y13667500D03*
%TO.P,REF\u002A\u002A,2*%
X48990625Y13667500D03*
D12*
%TO.P,REF\u002A\u002A,3*%
X49090625Y9817500D03*
%TO.P,REF\u002A\u002A,4*%
X34690625Y9817500D03*
%TO.P,REF\u002A\u002A,5*%
X34690625Y8117500D03*
%TO.P,REF\u002A\u002A,6*%
X49090625Y8117500D03*
%TD*%
%TO.P,REF\u002A\u002A,*%
%TO.N,*%
X65726250Y-51446875D03*
D13*
X65826250Y-58196875D03*
D14*
X66876250Y-53196875D03*
D15*
X67126250Y-45646875D03*
D17*
X67261250Y-56611875D03*
D14*
X70176250Y-53196875D03*
D18*
X70386250Y-56276875D03*
D12*
X71226250Y-44196875D03*
X71226250Y-58196875D03*
X72926250Y-44196875D03*
X72926250Y-58196875D03*
X74626250Y-44196875D03*
X74626250Y-58196875D03*
D18*
X76736250Y-53736875D03*
D15*
X78726250Y-45646875D03*
D19*
X79176250Y-55246875D03*
D13*
X80026250Y-58196875D03*
D12*
X80126250Y-51446875D03*
D13*
%TO.P,REF\u002A\u002A,1*%
%TO.N,N/C*%
X65826250Y-44196875D03*
%TO.P,REF\u002A\u002A,2*%
X80026250Y-44196875D03*
D12*
%TO.P,REF\u002A\u002A,3*%
X80126250Y-48046875D03*
%TO.P,REF\u002A\u002A,4*%
X65726250Y-48046875D03*
%TO.P,REF\u002A\u002A,5*%
X65726250Y-49746875D03*
%TO.P,REF\u002A\u002A,6*%
X80126250Y-49746875D03*
%TD*%
%TO.P,REF\u002A\u002A,*%
%TO.N,*%
X80985625Y-65734375D03*
D13*
X81085625Y-72484375D03*
D14*
X82135625Y-67484375D03*
D15*
X82385625Y-59934375D03*
D16*
X83185625Y-69284375D03*
X83785625Y-70184375D03*
D14*
X85435625Y-67484375D03*
D12*
X86485625Y-58484375D03*
X86485625Y-72484375D03*
X88185625Y-58484375D03*
D16*
X88185625Y-71384375D03*
D12*
X88185625Y-72484375D03*
D16*
X88685625Y-71384375D03*
D12*
X89885625Y-58484375D03*
X89885625Y-72484375D03*
D16*
X90785625Y-71234375D03*
X92885625Y-68584375D03*
D15*
X93985625Y-59934375D03*
D13*
X95285625Y-72484375D03*
D12*
X95385625Y-65734375D03*
D13*
%TO.P,REF\u002A\u002A,1*%
%TO.N,N/C*%
X81085625Y-58484375D03*
%TO.P,REF\u002A\u002A,2*%
X95285625Y-58484375D03*
D12*
%TO.P,REF\u002A\u002A,3*%
X95385625Y-62334375D03*
%TO.P,REF\u002A\u002A,4*%
X80985625Y-62334375D03*
%TO.P,REF\u002A\u002A,5*%
X80985625Y-64034375D03*
%TO.P,REF\u002A\u002A,6*%
X95385625Y-64034375D03*
%TD*%
%TO.P,REF\u002A\u002A,*%
%TO.N,*%
X65250000Y-94230000D03*
D13*
X65350000Y-100980000D03*
D14*
X66400000Y-95980000D03*
D15*
X66650000Y-88430000D03*
D17*
X66785000Y-99395000D03*
D14*
X69700000Y-95980000D03*
D18*
X69910000Y-99060000D03*
D12*
X70750000Y-86980000D03*
X70750000Y-100980000D03*
X72450000Y-86980000D03*
X72450000Y-100980000D03*
X74150000Y-86980000D03*
X74150000Y-100980000D03*
D18*
X76260000Y-96520000D03*
D15*
X78250000Y-88430000D03*
D19*
X78700000Y-98030000D03*
D13*
X79550000Y-100980000D03*
D12*
X79650000Y-94230000D03*
D13*
%TO.P,REF\u002A\u002A,1*%
%TO.N,N/C*%
X65350000Y-86980000D03*
%TO.P,REF\u002A\u002A,2*%
X79550000Y-86980000D03*
D12*
%TO.P,REF\u002A\u002A,3*%
X79650000Y-90830000D03*
%TO.P,REF\u002A\u002A,4*%
X65250000Y-90830000D03*
%TO.P,REF\u002A\u002A,5*%
X65250000Y-92530000D03*
%TO.P,REF\u002A\u002A,6*%
X79650000Y-92530000D03*
%TD*%
%TO.P,REF\u002A\u002A,*%
%TO.N,*%
X96603125Y6417500D03*
D13*
X96703125Y-332500D03*
D14*
X97753125Y4667500D03*
D15*
X98003125Y12217500D03*
D17*
X98138125Y1252500D03*
D14*
X101053125Y4667500D03*
D18*
X101263125Y1587500D03*
D12*
X102103125Y13667500D03*
X102103125Y-332500D03*
X103803125Y13667500D03*
X103803125Y-332500D03*
X105503125Y13667500D03*
X105503125Y-332500D03*
D18*
X107613125Y4127500D03*
D15*
X109603125Y12217500D03*
D19*
X110053125Y2617500D03*
D13*
X110903125Y-332500D03*
D12*
X111003125Y6417500D03*
D13*
%TO.P,REF\u002A\u002A,1*%
%TO.N,N/C*%
X96703125Y13667500D03*
%TO.P,REF\u002A\u002A,2*%
X110903125Y13667500D03*
D12*
%TO.P,REF\u002A\u002A,3*%
X111003125Y9817500D03*
%TO.P,REF\u002A\u002A,4*%
X96603125Y9817500D03*
%TO.P,REF\u002A\u002A,5*%
X96603125Y8117500D03*
%TO.P,REF\u002A\u002A,6*%
X111003125Y8117500D03*
%TD*%
%TO.P,REF\u002A\u002A,*%
%TO.N,*%
X49870625Y20784375D03*
D13*
X49970625Y14034375D03*
D14*
X51020625Y19034375D03*
D15*
X51270625Y26584375D03*
D16*
X52070625Y17234375D03*
X52670625Y16334375D03*
D14*
X54320625Y19034375D03*
D12*
X55370625Y28034375D03*
X55370625Y14034375D03*
X57070625Y28034375D03*
D16*
X57070625Y15134375D03*
D12*
X57070625Y14034375D03*
D16*
X57570625Y15134375D03*
D12*
X58770625Y28034375D03*
X58770625Y14034375D03*
D16*
X59670625Y15284375D03*
X61770625Y17934375D03*
D15*
X62870625Y26584375D03*
D13*
X64170625Y14034375D03*
D12*
X64270625Y20784375D03*
D13*
%TO.P,REF\u002A\u002A,1*%
%TO.N,N/C*%
X49970625Y28034375D03*
%TO.P,REF\u002A\u002A,2*%
X64170625Y28034375D03*
D12*
%TO.P,REF\u002A\u002A,3*%
X64270625Y24184375D03*
%TO.P,REF\u002A\u002A,4*%
X49870625Y24184375D03*
%TO.P,REF\u002A\u002A,5*%
X49870625Y22484375D03*
%TO.P,REF\u002A\u002A,6*%
X64270625Y22484375D03*
%TD*%
%TO.P,REF\u002A\u002A,*%
%TO.N,*%
X157979375Y-65734375D03*
D13*
X158079375Y-72484375D03*
D14*
X159129375Y-67484375D03*
D15*
X159379375Y-59934375D03*
D16*
X160179375Y-69284375D03*
X160779375Y-70184375D03*
D14*
X162429375Y-67484375D03*
D12*
X163479375Y-58484375D03*
X163479375Y-72484375D03*
X165179375Y-58484375D03*
D16*
X165179375Y-71384375D03*
D12*
X165179375Y-72484375D03*
D16*
X165679375Y-71384375D03*
D12*
X166879375Y-58484375D03*
X166879375Y-72484375D03*
D16*
X167779375Y-71234375D03*
X169879375Y-68584375D03*
D15*
X170979375Y-59934375D03*
D13*
X172279375Y-72484375D03*
D12*
X172379375Y-65734375D03*
D13*
%TO.P,REF\u002A\u002A,1*%
%TO.N,N/C*%
X158079375Y-58484375D03*
%TO.P,REF\u002A\u002A,2*%
X172279375Y-58484375D03*
D12*
%TO.P,REF\u002A\u002A,3*%
X172379375Y-62334375D03*
%TO.P,REF\u002A\u002A,4*%
X157979375Y-62334375D03*
%TO.P,REF\u002A\u002A,5*%
X157979375Y-64034375D03*
%TO.P,REF\u002A\u002A,6*%
X172379375Y-64034375D03*
%TD*%
%TO.P,REF\u002A\u002A,*%
%TO.N,*%
X34611250Y20784375D03*
D13*
X34711250Y14034375D03*
D14*
X35761250Y19034375D03*
D15*
X36011250Y26584375D03*
D17*
X36146250Y15619375D03*
D14*
X39061250Y19034375D03*
D18*
X39271250Y15954375D03*
D12*
X40111250Y28034375D03*
X40111250Y14034375D03*
X41811250Y28034375D03*
X41811250Y14034375D03*
X43511250Y28034375D03*
X43511250Y14034375D03*
D18*
X45621250Y18494375D03*
D15*
X47611250Y26584375D03*
D19*
X48061250Y16984375D03*
D13*
X48911250Y14034375D03*
D12*
X49011250Y20784375D03*
D13*
%TO.P,REF\u002A\u002A,1*%
%TO.N,N/C*%
X34711250Y28034375D03*
%TO.P,REF\u002A\u002A,2*%
X48911250Y28034375D03*
D12*
%TO.P,REF\u002A\u002A,3*%
X49011250Y24184375D03*
%TO.P,REF\u002A\u002A,4*%
X34611250Y24184375D03*
%TO.P,REF\u002A\u002A,5*%
X34611250Y22484375D03*
%TO.P,REF\u002A\u002A,6*%
X49011250Y22484375D03*
%TD*%
%TO.P,REF\u002A\u002A,*%
%TO.N,*%
X65646875Y-7870000D03*
D13*
X65746875Y-14620000D03*
D14*
X66796875Y-9620000D03*
D15*
X67046875Y-2070000D03*
D17*
X67181875Y-13035000D03*
D14*
X70096875Y-9620000D03*
D18*
X70306875Y-12700000D03*
D12*
X71146875Y-620000D03*
X71146875Y-14620000D03*
X72846875Y-620000D03*
X72846875Y-14620000D03*
X74546875Y-620000D03*
X74546875Y-14620000D03*
D18*
X76656875Y-10160000D03*
D15*
X78646875Y-2070000D03*
D19*
X79096875Y-11670000D03*
D13*
X79946875Y-14620000D03*
D12*
X80046875Y-7870000D03*
D13*
%TO.P,REF\u002A\u002A,1*%
%TO.N,N/C*%
X65746875Y-620000D03*
%TO.P,REF\u002A\u002A,2*%
X79946875Y-620000D03*
D12*
%TO.P,REF\u002A\u002A,3*%
X80046875Y-4470000D03*
%TO.P,REF\u002A\u002A,4*%
X65646875Y-4470000D03*
%TO.P,REF\u002A\u002A,5*%
X65646875Y-6170000D03*
%TO.P,REF\u002A\u002A,6*%
X80046875Y-6170000D03*
%TD*%
%TO.P,REF\u002A\u002A,*%
%TO.N,*%
X142203125Y-94230000D03*
D13*
X142303125Y-100980000D03*
D14*
X143353125Y-95980000D03*
D15*
X143603125Y-88430000D03*
D16*
X144403125Y-97780000D03*
X145003125Y-98680000D03*
D14*
X146653125Y-95980000D03*
D12*
X147703125Y-86980000D03*
X147703125Y-100980000D03*
X149403125Y-86980000D03*
D16*
X149403125Y-99880000D03*
D12*
X149403125Y-100980000D03*
D16*
X149903125Y-99880000D03*
D12*
X151103125Y-86980000D03*
X151103125Y-100980000D03*
D16*
X152003125Y-99730000D03*
X154103125Y-97080000D03*
D15*
X155203125Y-88430000D03*
D13*
X156503125Y-100980000D03*
D12*
X156603125Y-94230000D03*
D13*
%TO.P,REF\u002A\u002A,1*%
%TO.N,N/C*%
X142303125Y-86980000D03*
%TO.P,REF\u002A\u002A,2*%
X156503125Y-86980000D03*
D12*
%TO.P,REF\u002A\u002A,3*%
X156603125Y-90830000D03*
%TO.P,REF\u002A\u002A,4*%
X142203125Y-90830000D03*
%TO.P,REF\u002A\u002A,5*%
X142203125Y-92530000D03*
%TO.P,REF\u002A\u002A,6*%
X156603125Y-92530000D03*
%TD*%
%TO.P,REF\u002A\u002A,*%
%TO.N,*%
X34770000Y-51446875D03*
D13*
X34870000Y-58196875D03*
D14*
X35920000Y-53196875D03*
D15*
X36170000Y-45646875D03*
D17*
X36305000Y-56611875D03*
D14*
X39220000Y-53196875D03*
D18*
X39430000Y-56276875D03*
D12*
X40270000Y-44196875D03*
X40270000Y-58196875D03*
X41970000Y-44196875D03*
X41970000Y-58196875D03*
X43670000Y-44196875D03*
X43670000Y-58196875D03*
D18*
X45780000Y-53736875D03*
D15*
X47770000Y-45646875D03*
D19*
X48220000Y-55246875D03*
D13*
X49070000Y-58196875D03*
D12*
X49170000Y-51446875D03*
D13*
%TO.P,REF\u002A\u002A,1*%
%TO.N,N/C*%
X34870000Y-44196875D03*
%TO.P,REF\u002A\u002A,2*%
X49070000Y-44196875D03*
D12*
%TO.P,REF\u002A\u002A,3*%
X49170000Y-48046875D03*
%TO.P,REF\u002A\u002A,4*%
X34770000Y-48046875D03*
%TO.P,REF\u002A\u002A,5*%
X34770000Y-49746875D03*
%TO.P,REF\u002A\u002A,6*%
X49170000Y-49746875D03*
%TD*%
%TO.P,REF\u002A\u002A,*%
%TO.N,*%
X80826875Y20784375D03*
D13*
X80926875Y14034375D03*
D14*
X81976875Y19034375D03*
D15*
X82226875Y26584375D03*
D16*
X83026875Y17234375D03*
X83626875Y16334375D03*
D14*
X85276875Y19034375D03*
D12*
X86326875Y28034375D03*
X86326875Y14034375D03*
X88026875Y28034375D03*
D16*
X88026875Y15134375D03*
D12*
X88026875Y14034375D03*
D16*
X88526875Y15134375D03*
D12*
X89726875Y28034375D03*
X89726875Y14034375D03*
D16*
X90626875Y15284375D03*
X92726875Y17934375D03*
D15*
X93826875Y26584375D03*
D13*
X95126875Y14034375D03*
D12*
X95226875Y20784375D03*
D13*
%TO.P,REF\u002A\u002A,1*%
%TO.N,N/C*%
X80926875Y28034375D03*
%TO.P,REF\u002A\u002A,2*%
X95126875Y28034375D03*
D12*
%TO.P,REF\u002A\u002A,3*%
X95226875Y24184375D03*
%TO.P,REF\u002A\u002A,4*%
X80826875Y24184375D03*
%TO.P,REF\u002A\u002A,5*%
X80826875Y22484375D03*
%TO.P,REF\u002A\u002A,6*%
X95226875Y22484375D03*
%TD*%
%TO.P,REF\u002A\u002A,*%
%TO.N,*%
X142520625Y35071875D03*
D13*
X142620625Y28321875D03*
D14*
X143670625Y33321875D03*
D15*
X143920625Y40871875D03*
D16*
X144720625Y31521875D03*
X145320625Y30621875D03*
D14*
X146970625Y33321875D03*
D12*
X148020625Y42321875D03*
X148020625Y28321875D03*
X149720625Y42321875D03*
D16*
X149720625Y29421875D03*
D12*
X149720625Y28321875D03*
D16*
X150220625Y29421875D03*
D12*
X151420625Y42321875D03*
X151420625Y28321875D03*
D16*
X152320625Y29571875D03*
X154420625Y32221875D03*
D15*
X155520625Y40871875D03*
D13*
X156820625Y28321875D03*
D12*
X156920625Y35071875D03*
D13*
%TO.P,REF\u002A\u002A,1*%
%TO.N,N/C*%
X142620625Y42321875D03*
%TO.P,REF\u002A\u002A,2*%
X156820625Y42321875D03*
D12*
%TO.P,REF\u002A\u002A,3*%
X156920625Y38471875D03*
%TO.P,REF\u002A\u002A,4*%
X142520625Y38471875D03*
%TO.P,REF\u002A\u002A,5*%
X142520625Y36771875D03*
%TO.P,REF\u002A\u002A,6*%
X156920625Y36771875D03*
%TD*%
%TO.P,REF\u002A\u002A,*%
%TO.N,*%
X80985625Y-51446875D03*
D13*
X81085625Y-58196875D03*
D14*
X82135625Y-53196875D03*
D15*
X82385625Y-45646875D03*
D16*
X83185625Y-54996875D03*
X83785625Y-55896875D03*
D14*
X85435625Y-53196875D03*
D12*
X86485625Y-44196875D03*
X86485625Y-58196875D03*
X88185625Y-44196875D03*
D16*
X88185625Y-57096875D03*
D12*
X88185625Y-58196875D03*
D16*
X88685625Y-57096875D03*
D12*
X89885625Y-44196875D03*
X89885625Y-58196875D03*
D16*
X90785625Y-56946875D03*
X92885625Y-54296875D03*
D15*
X93985625Y-45646875D03*
D13*
X95285625Y-58196875D03*
D12*
X95385625Y-51446875D03*
D13*
%TO.P,REF\u002A\u002A,1*%
%TO.N,N/C*%
X81085625Y-44196875D03*
%TO.P,REF\u002A\u002A,2*%
X95285625Y-44196875D03*
D12*
%TO.P,REF\u002A\u002A,3*%
X95385625Y-48046875D03*
%TO.P,REF\u002A\u002A,4*%
X80985625Y-48046875D03*
%TO.P,REF\u002A\u002A,5*%
X80985625Y-49746875D03*
%TO.P,REF\u002A\u002A,6*%
X95385625Y-49746875D03*
%TD*%
%TO.P,REF\u002A\u002A,*%
%TO.N,*%
X96206250Y-79942500D03*
D13*
X96306250Y-86692500D03*
D14*
X97356250Y-81692500D03*
D15*
X97606250Y-74142500D03*
D17*
X97741250Y-85107500D03*
D14*
X100656250Y-81692500D03*
D18*
X100866250Y-84772500D03*
D12*
X101706250Y-72692500D03*
X101706250Y-86692500D03*
X103406250Y-72692500D03*
X103406250Y-86692500D03*
X105106250Y-72692500D03*
X105106250Y-86692500D03*
D18*
X107216250Y-82232500D03*
D15*
X109206250Y-74142500D03*
D19*
X109656250Y-83742500D03*
D13*
X110506250Y-86692500D03*
D12*
X110606250Y-79942500D03*
D13*
%TO.P,REF\u002A\u002A,1*%
%TO.N,N/C*%
X96306250Y-72692500D03*
%TO.P,REF\u002A\u002A,2*%
X110506250Y-72692500D03*
D12*
%TO.P,REF\u002A\u002A,3*%
X110606250Y-76542500D03*
%TO.P,REF\u002A\u002A,4*%
X96206250Y-76542500D03*
%TO.P,REF\u002A\u002A,5*%
X96206250Y-78242500D03*
%TO.P,REF\u002A\u002A,6*%
X110606250Y-78242500D03*
%TD*%
%TO.P,REF\u002A\u002A,*%
%TO.N,*%
X127261250Y35071875D03*
D13*
X127361250Y28321875D03*
D14*
X128411250Y33321875D03*
D15*
X128661250Y40871875D03*
D17*
X128796250Y29906875D03*
D14*
X131711250Y33321875D03*
D18*
X131921250Y30241875D03*
D12*
X132761250Y42321875D03*
X132761250Y28321875D03*
X134461250Y42321875D03*
X134461250Y28321875D03*
X136161250Y42321875D03*
X136161250Y28321875D03*
D18*
X138271250Y32781875D03*
D15*
X140261250Y40871875D03*
D19*
X140711250Y31271875D03*
D13*
X141561250Y28321875D03*
D12*
X141661250Y35071875D03*
D13*
%TO.P,REF\u002A\u002A,1*%
%TO.N,N/C*%
X127361250Y42321875D03*
%TO.P,REF\u002A\u002A,2*%
X141561250Y42321875D03*
D12*
%TO.P,REF\u002A\u002A,3*%
X141661250Y38471875D03*
%TO.P,REF\u002A\u002A,4*%
X127261250Y38471875D03*
%TO.P,REF\u002A\u002A,5*%
X127261250Y36771875D03*
%TO.P,REF\u002A\u002A,6*%
X141661250Y36771875D03*
%TD*%
%TO.P,REF\u002A\u002A,*%
%TO.N,*%
X80826875Y35071875D03*
D13*
X80926875Y28321875D03*
D14*
X81976875Y33321875D03*
D15*
X82226875Y40871875D03*
D16*
X83026875Y31521875D03*
X83626875Y30621875D03*
D14*
X85276875Y33321875D03*
D12*
X86326875Y42321875D03*
X86326875Y28321875D03*
X88026875Y42321875D03*
D16*
X88026875Y29421875D03*
D12*
X88026875Y28321875D03*
D16*
X88526875Y29421875D03*
D12*
X89726875Y42321875D03*
X89726875Y28321875D03*
D16*
X90626875Y29571875D03*
X92726875Y32221875D03*
D15*
X93826875Y40871875D03*
D13*
X95126875Y28321875D03*
D12*
X95226875Y35071875D03*
D13*
%TO.P,REF\u002A\u002A,1*%
%TO.N,N/C*%
X80926875Y42321875D03*
%TO.P,REF\u002A\u002A,2*%
X95126875Y42321875D03*
D12*
%TO.P,REF\u002A\u002A,3*%
X95226875Y38471875D03*
%TO.P,REF\u002A\u002A,4*%
X80826875Y38471875D03*
%TO.P,REF\u002A\u002A,5*%
X80826875Y36771875D03*
%TO.P,REF\u002A\u002A,6*%
X95226875Y36771875D03*
%TD*%
%TO.P,REF\u002A\u002A,*%
%TO.N,*%
X157820625Y35071875D03*
D13*
X157920625Y28321875D03*
D14*
X158970625Y33321875D03*
D15*
X159220625Y40871875D03*
D17*
X159355625Y29906875D03*
D14*
X162270625Y33321875D03*
D18*
X162480625Y30241875D03*
D12*
X163320625Y42321875D03*
X163320625Y28321875D03*
X165020625Y42321875D03*
X165020625Y28321875D03*
X166720625Y42321875D03*
X166720625Y28321875D03*
D18*
X168830625Y32781875D03*
D15*
X170820625Y40871875D03*
D19*
X171270625Y31271875D03*
D13*
X172120625Y28321875D03*
D12*
X172220625Y35071875D03*
D13*
%TO.P,REF\u002A\u002A,1*%
%TO.N,N/C*%
X157920625Y42321875D03*
%TO.P,REF\u002A\u002A,2*%
X172120625Y42321875D03*
D12*
%TO.P,REF\u002A\u002A,3*%
X172220625Y38471875D03*
%TO.P,REF\u002A\u002A,4*%
X157820625Y38471875D03*
%TO.P,REF\u002A\u002A,5*%
X157820625Y36771875D03*
%TO.P,REF\u002A\u002A,6*%
X172220625Y36771875D03*
%TD*%
%TO.P,REF\u002A\u002A,*%
%TO.N,*%
X65567500Y35071875D03*
D13*
X65667500Y28321875D03*
D14*
X66717500Y33321875D03*
D15*
X66967500Y40871875D03*
D17*
X67102500Y29906875D03*
D14*
X70017500Y33321875D03*
D18*
X70227500Y30241875D03*
D12*
X71067500Y42321875D03*
X71067500Y28321875D03*
X72767500Y42321875D03*
X72767500Y28321875D03*
X74467500Y42321875D03*
X74467500Y28321875D03*
D18*
X76577500Y32781875D03*
D15*
X78567500Y40871875D03*
D19*
X79017500Y31271875D03*
D13*
X79867500Y28321875D03*
D12*
X79967500Y35071875D03*
D13*
%TO.P,REF\u002A\u002A,1*%
%TO.N,N/C*%
X65667500Y42321875D03*
%TO.P,REF\u002A\u002A,2*%
X79867500Y42321875D03*
D12*
%TO.P,REF\u002A\u002A,3*%
X79967500Y38471875D03*
%TO.P,REF\u002A\u002A,4*%
X65567500Y38471875D03*
%TO.P,REF\u002A\u002A,5*%
X65567500Y36771875D03*
%TO.P,REF\u002A\u002A,6*%
X79967500Y36771875D03*
%TD*%
%TO.P,REF\u002A\u002A,*%
%TO.N,*%
X127420000Y-51446875D03*
D13*
X127520000Y-58196875D03*
D14*
X128570000Y-53196875D03*
D15*
X128820000Y-45646875D03*
D17*
X128955000Y-56611875D03*
D14*
X131870000Y-53196875D03*
D18*
X132080000Y-56276875D03*
D12*
X132920000Y-44196875D03*
X132920000Y-58196875D03*
X134620000Y-44196875D03*
X134620000Y-58196875D03*
X136320000Y-44196875D03*
X136320000Y-58196875D03*
D18*
X138430000Y-53736875D03*
D15*
X140420000Y-45646875D03*
D19*
X140870000Y-55246875D03*
D13*
X141720000Y-58196875D03*
D12*
X141820000Y-51446875D03*
D13*
%TO.P,REF\u002A\u002A,1*%
%TO.N,N/C*%
X127520000Y-44196875D03*
%TO.P,REF\u002A\u002A,2*%
X141720000Y-44196875D03*
D12*
%TO.P,REF\u002A\u002A,3*%
X141820000Y-48046875D03*
%TO.P,REF\u002A\u002A,4*%
X127420000Y-48046875D03*
%TO.P,REF\u002A\u002A,5*%
X127420000Y-49746875D03*
%TO.P,REF\u002A\u002A,6*%
X141820000Y-49746875D03*
%TD*%
%TO.P,REF\u002A\u002A,*%
%TO.N,*%
X96682500Y-65734375D03*
D13*
X96782500Y-72484375D03*
D14*
X97832500Y-67484375D03*
D15*
X98082500Y-59934375D03*
D17*
X98217500Y-70899375D03*
D14*
X101132500Y-67484375D03*
D18*
X101342500Y-70564375D03*
D12*
X102182500Y-58484375D03*
X102182500Y-72484375D03*
X103882500Y-58484375D03*
X103882500Y-72484375D03*
X105582500Y-58484375D03*
X105582500Y-72484375D03*
D18*
X107692500Y-68024375D03*
D15*
X109682500Y-59934375D03*
D19*
X110132500Y-69534375D03*
D13*
X110982500Y-72484375D03*
D12*
X111082500Y-65734375D03*
D13*
%TO.P,REF\u002A\u002A,1*%
%TO.N,N/C*%
X96782500Y-58484375D03*
%TO.P,REF\u002A\u002A,2*%
X110982500Y-58484375D03*
D12*
%TO.P,REF\u002A\u002A,3*%
X111082500Y-62334375D03*
%TO.P,REF\u002A\u002A,4*%
X96682500Y-62334375D03*
%TO.P,REF\u002A\u002A,5*%
X96682500Y-64034375D03*
%TO.P,REF\u002A\u002A,6*%
X111082500Y-64034375D03*
%TD*%
%TO.P,REF\u002A\u002A,*%
%TO.N,*%
X111862500Y-22792500D03*
D13*
X111962500Y-29542500D03*
D14*
X113012500Y-24542500D03*
D15*
X113262500Y-16992500D03*
D16*
X114062500Y-26342500D03*
X114662500Y-27242500D03*
D14*
X116312500Y-24542500D03*
D12*
X117362500Y-15542500D03*
X117362500Y-29542500D03*
X119062500Y-15542500D03*
D16*
X119062500Y-28442500D03*
D12*
X119062500Y-29542500D03*
D16*
X119562500Y-28442500D03*
D12*
X120762500Y-15542500D03*
X120762500Y-29542500D03*
D16*
X121662500Y-28292500D03*
X123762500Y-25642500D03*
D15*
X124862500Y-16992500D03*
D13*
X126162500Y-29542500D03*
D12*
X126262500Y-22792500D03*
D13*
%TO.P,REF\u002A\u002A,1*%
%TO.N,N/C*%
X111962500Y-15542500D03*
%TO.P,REF\u002A\u002A,2*%
X126162500Y-15542500D03*
D12*
%TO.P,REF\u002A\u002A,3*%
X126262500Y-19392500D03*
%TO.P,REF\u002A\u002A,4*%
X111862500Y-19392500D03*
%TO.P,REF\u002A\u002A,5*%
X111862500Y-21092500D03*
%TO.P,REF\u002A\u002A,6*%
X126262500Y-21092500D03*
%TD*%
%TO.P,REF\u002A\u002A,*%
%TO.N,*%
X157820625Y20784375D03*
D13*
X157920625Y14034375D03*
D14*
X158970625Y19034375D03*
D15*
X159220625Y26584375D03*
D16*
X160020625Y17234375D03*
X160620625Y16334375D03*
D14*
X162270625Y19034375D03*
D12*
X163320625Y28034375D03*
X163320625Y14034375D03*
X165020625Y28034375D03*
D16*
X165020625Y15134375D03*
D12*
X165020625Y14034375D03*
D16*
X165520625Y15134375D03*
D12*
X166720625Y28034375D03*
X166720625Y14034375D03*
D16*
X167620625Y15284375D03*
X169720625Y17934375D03*
D15*
X170820625Y26584375D03*
D13*
X172120625Y14034375D03*
D12*
X172220625Y20784375D03*
D13*
%TO.P,REF\u002A\u002A,1*%
%TO.N,N/C*%
X157920625Y28034375D03*
%TO.P,REF\u002A\u002A,2*%
X172120625Y28034375D03*
D12*
%TO.P,REF\u002A\u002A,3*%
X172220625Y24184375D03*
%TO.P,REF\u002A\u002A,4*%
X157820625Y24184375D03*
%TO.P,REF\u002A\u002A,5*%
X157820625Y22484375D03*
%TO.P,REF\u002A\u002A,6*%
X172220625Y22484375D03*
%TD*%
%TO.P,REF\u002A\u002A,*%
%TO.N,*%
X111783125Y20784375D03*
D13*
X111883125Y14034375D03*
D14*
X112933125Y19034375D03*
D15*
X113183125Y26584375D03*
D16*
X113983125Y17234375D03*
X114583125Y16334375D03*
D14*
X116233125Y19034375D03*
D12*
X117283125Y28034375D03*
X117283125Y14034375D03*
X118983125Y28034375D03*
D16*
X118983125Y15134375D03*
D12*
X118983125Y14034375D03*
D16*
X119483125Y15134375D03*
D12*
X120683125Y28034375D03*
X120683125Y14034375D03*
D16*
X121583125Y15284375D03*
X123683125Y17934375D03*
D15*
X124783125Y26584375D03*
D13*
X126083125Y14034375D03*
D12*
X126183125Y20784375D03*
D13*
%TO.P,REF\u002A\u002A,1*%
%TO.N,N/C*%
X111883125Y28034375D03*
%TO.P,REF\u002A\u002A,2*%
X126083125Y28034375D03*
D12*
%TO.P,REF\u002A\u002A,3*%
X126183125Y24184375D03*
%TO.P,REF\u002A\u002A,4*%
X111783125Y24184375D03*
%TO.P,REF\u002A\u002A,5*%
X111783125Y22484375D03*
%TO.P,REF\u002A\u002A,6*%
X126183125Y22484375D03*
%TD*%
%TO.P,REF\u002A\u002A,*%
%TO.N,*%
X157900000Y6417500D03*
D13*
X158000000Y-332500D03*
D14*
X159050000Y4667500D03*
D15*
X159300000Y12217500D03*
D17*
X159435000Y1252500D03*
D14*
X162350000Y4667500D03*
D18*
X162560000Y1587500D03*
D12*
X163400000Y13667500D03*
X163400000Y-332500D03*
X165100000Y13667500D03*
X165100000Y-332500D03*
X166800000Y13667500D03*
X166800000Y-332500D03*
D18*
X168910000Y4127500D03*
D15*
X170900000Y12217500D03*
D19*
X171350000Y2617500D03*
D13*
X172200000Y-332500D03*
D12*
X172300000Y6417500D03*
D13*
%TO.P,REF\u002A\u002A,1*%
%TO.N,N/C*%
X158000000Y13667500D03*
%TO.P,REF\u002A\u002A,2*%
X172200000Y13667500D03*
D12*
%TO.P,REF\u002A\u002A,3*%
X172300000Y9817500D03*
%TO.P,REF\u002A\u002A,4*%
X157900000Y9817500D03*
%TO.P,REF\u002A\u002A,5*%
X157900000Y8117500D03*
%TO.P,REF\u002A\u002A,6*%
X172300000Y8117500D03*
%TD*%
%TO.P,REF\u002A\u002A,*%
%TO.N,*%
X142203125Y-79942500D03*
D13*
X142303125Y-86692500D03*
D14*
X143353125Y-81692500D03*
D15*
X143603125Y-74142500D03*
D16*
X144403125Y-83492500D03*
X145003125Y-84392500D03*
D14*
X146653125Y-81692500D03*
D12*
X147703125Y-72692500D03*
X147703125Y-86692500D03*
X149403125Y-72692500D03*
D16*
X149403125Y-85592500D03*
D12*
X149403125Y-86692500D03*
D16*
X149903125Y-85592500D03*
D12*
X151103125Y-72692500D03*
X151103125Y-86692500D03*
D16*
X152003125Y-85442500D03*
X154103125Y-82792500D03*
D15*
X155203125Y-74142500D03*
D13*
X156503125Y-86692500D03*
D12*
X156603125Y-79942500D03*
D13*
%TO.P,REF\u002A\u002A,1*%
%TO.N,N/C*%
X142303125Y-72692500D03*
%TO.P,REF\u002A\u002A,2*%
X156503125Y-72692500D03*
D12*
%TO.P,REF\u002A\u002A,3*%
X156603125Y-76542500D03*
%TO.P,REF\u002A\u002A,4*%
X142203125Y-76542500D03*
%TO.P,REF\u002A\u002A,5*%
X142203125Y-78242500D03*
%TO.P,REF\u002A\u002A,6*%
X156603125Y-78242500D03*
%TD*%
%TO.P,REF\u002A\u002A,*%
%TO.N,*%
X80509375Y-79942500D03*
D13*
X80609375Y-86692500D03*
D14*
X81659375Y-81692500D03*
D15*
X81909375Y-74142500D03*
D16*
X82709375Y-83492500D03*
X83309375Y-84392500D03*
D14*
X84959375Y-81692500D03*
D12*
X86009375Y-72692500D03*
X86009375Y-86692500D03*
X87709375Y-72692500D03*
D16*
X87709375Y-85592500D03*
D12*
X87709375Y-86692500D03*
D16*
X88209375Y-85592500D03*
D12*
X89409375Y-72692500D03*
X89409375Y-86692500D03*
D16*
X90309375Y-85442500D03*
X92409375Y-82792500D03*
D15*
X93509375Y-74142500D03*
D13*
X94809375Y-86692500D03*
D12*
X94909375Y-79942500D03*
D13*
%TO.P,REF\u002A\u002A,1*%
%TO.N,N/C*%
X80609375Y-72692500D03*
%TO.P,REF\u002A\u002A,2*%
X94809375Y-72692500D03*
D12*
%TO.P,REF\u002A\u002A,3*%
X94909375Y-76542500D03*
%TO.P,REF\u002A\u002A,4*%
X80509375Y-76542500D03*
%TO.P,REF\u002A\u002A,5*%
X80509375Y-78242500D03*
%TO.P,REF\u002A\u002A,6*%
X94909375Y-78242500D03*
%TD*%
%TO.P,REF\u002A\u002A,*%
%TO.N,*%
X127261250Y20784375D03*
D13*
X127361250Y14034375D03*
D14*
X128411250Y19034375D03*
D15*
X128661250Y26584375D03*
D17*
X128796250Y15619375D03*
D14*
X131711250Y19034375D03*
D18*
X131921250Y15954375D03*
D12*
X132761250Y28034375D03*
X132761250Y14034375D03*
X134461250Y28034375D03*
X134461250Y14034375D03*
X136161250Y28034375D03*
X136161250Y14034375D03*
D18*
X138271250Y18494375D03*
D15*
X140261250Y26584375D03*
D19*
X140711250Y16984375D03*
D13*
X141561250Y14034375D03*
D12*
X141661250Y20784375D03*
D13*
%TO.P,REF\u002A\u002A,1*%
%TO.N,N/C*%
X127361250Y28034375D03*
%TO.P,REF\u002A\u002A,2*%
X141561250Y28034375D03*
D12*
%TO.P,REF\u002A\u002A,3*%
X141661250Y24184375D03*
%TO.P,REF\u002A\u002A,4*%
X127261250Y24184375D03*
%TO.P,REF\u002A\u002A,5*%
X127261250Y22484375D03*
%TO.P,REF\u002A\u002A,6*%
X141661250Y22484375D03*
%TD*%
%TO.P,REF\u002A\u002A,*%
%TO.N,*%
X50029375Y-65734375D03*
D13*
X50129375Y-72484375D03*
D14*
X51179375Y-67484375D03*
D15*
X51429375Y-59934375D03*
D16*
X52229375Y-69284375D03*
X52829375Y-70184375D03*
D14*
X54479375Y-67484375D03*
D12*
X55529375Y-58484375D03*
X55529375Y-72484375D03*
X57229375Y-58484375D03*
D16*
X57229375Y-71384375D03*
D12*
X57229375Y-72484375D03*
D16*
X57729375Y-71384375D03*
D12*
X58929375Y-58484375D03*
X58929375Y-72484375D03*
D16*
X59829375Y-71234375D03*
X61929375Y-68584375D03*
D15*
X63029375Y-59934375D03*
D13*
X64329375Y-72484375D03*
D12*
X64429375Y-65734375D03*
D13*
%TO.P,REF\u002A\u002A,1*%
%TO.N,N/C*%
X50129375Y-58484375D03*
%TO.P,REF\u002A\u002A,2*%
X64329375Y-58484375D03*
D12*
%TO.P,REF\u002A\u002A,3*%
X64429375Y-62334375D03*
%TO.P,REF\u002A\u002A,4*%
X50029375Y-62334375D03*
%TO.P,REF\u002A\u002A,5*%
X50029375Y-64034375D03*
%TO.P,REF\u002A\u002A,6*%
X64429375Y-64034375D03*
%TD*%
%TO.P,REF\u002A\u002A,*%
%TO.N,*%
X80906250Y-37080000D03*
D13*
X81006250Y-43830000D03*
D14*
X82056250Y-38830000D03*
D15*
X82306250Y-31280000D03*
D16*
X83106250Y-40630000D03*
X83706250Y-41530000D03*
D14*
X85356250Y-38830000D03*
D12*
X86406250Y-29830000D03*
X86406250Y-43830000D03*
X88106250Y-29830000D03*
D16*
X88106250Y-42730000D03*
D12*
X88106250Y-43830000D03*
D16*
X88606250Y-42730000D03*
D12*
X89806250Y-29830000D03*
X89806250Y-43830000D03*
D16*
X90706250Y-42580000D03*
X92806250Y-39930000D03*
D15*
X93906250Y-31280000D03*
D13*
X95206250Y-43830000D03*
D12*
X95306250Y-37080000D03*
D13*
%TO.P,REF\u002A\u002A,1*%
%TO.N,N/C*%
X81006250Y-29830000D03*
%TO.P,REF\u002A\u002A,2*%
X95206250Y-29830000D03*
D12*
%TO.P,REF\u002A\u002A,3*%
X95306250Y-33680000D03*
%TO.P,REF\u002A\u002A,4*%
X80906250Y-33680000D03*
%TO.P,REF\u002A\u002A,5*%
X80906250Y-35380000D03*
%TO.P,REF\u002A\u002A,6*%
X95306250Y-35380000D03*
%TD*%
%TO.P,REF\u002A\u002A,*%
%TO.N,*%
X111862500Y-37080000D03*
D13*
X111962500Y-43830000D03*
D14*
X113012500Y-38830000D03*
D15*
X113262500Y-31280000D03*
D16*
X114062500Y-40630000D03*
X114662500Y-41530000D03*
D14*
X116312500Y-38830000D03*
D12*
X117362500Y-29830000D03*
X117362500Y-43830000D03*
X119062500Y-29830000D03*
D16*
X119062500Y-42730000D03*
D12*
X119062500Y-43830000D03*
D16*
X119562500Y-42730000D03*
D12*
X120762500Y-29830000D03*
X120762500Y-43830000D03*
D16*
X121662500Y-42580000D03*
X123762500Y-39930000D03*
D15*
X124862500Y-31280000D03*
D13*
X126162500Y-43830000D03*
D12*
X126262500Y-37080000D03*
D13*
%TO.P,REF\u002A\u002A,1*%
%TO.N,N/C*%
X111962500Y-29830000D03*
%TO.P,REF\u002A\u002A,2*%
X126162500Y-29830000D03*
D12*
%TO.P,REF\u002A\u002A,3*%
X126262500Y-33680000D03*
%TO.P,REF\u002A\u002A,4*%
X111862500Y-33680000D03*
%TO.P,REF\u002A\u002A,5*%
X111862500Y-35380000D03*
%TO.P,REF\u002A\u002A,6*%
X126262500Y-35380000D03*
%TD*%
%TO.P,REF\u002A\u002A,*%
%TO.N,*%
X126943750Y-94230000D03*
D13*
X127043750Y-100980000D03*
D14*
X128093750Y-95980000D03*
D15*
X128343750Y-88430000D03*
D17*
X128478750Y-99395000D03*
D14*
X131393750Y-95980000D03*
D18*
X131603750Y-99060000D03*
D12*
X132443750Y-86980000D03*
X132443750Y-100980000D03*
X134143750Y-86980000D03*
X134143750Y-100980000D03*
X135843750Y-86980000D03*
X135843750Y-100980000D03*
D18*
X137953750Y-96520000D03*
D15*
X139943750Y-88430000D03*
D19*
X140393750Y-98030000D03*
D13*
X141243750Y-100980000D03*
D12*
X141343750Y-94230000D03*
D13*
%TO.P,REF\u002A\u002A,1*%
%TO.N,N/C*%
X127043750Y-86980000D03*
%TO.P,REF\u002A\u002A,2*%
X141243750Y-86980000D03*
D12*
%TO.P,REF\u002A\u002A,3*%
X141343750Y-90830000D03*
%TO.P,REF\u002A\u002A,4*%
X126943750Y-90830000D03*
%TO.P,REF\u002A\u002A,5*%
X126943750Y-92530000D03*
%TO.P,REF\u002A\u002A,6*%
X141343750Y-92530000D03*
%TD*%
%TO.P,REF\u002A\u002A,*%
%TO.N,*%
X49870625Y35071875D03*
D13*
X49970625Y28321875D03*
D14*
X51020625Y33321875D03*
D15*
X51270625Y40871875D03*
D16*
X52070625Y31521875D03*
X52670625Y30621875D03*
D14*
X54320625Y33321875D03*
D12*
X55370625Y42321875D03*
X55370625Y28321875D03*
X57070625Y42321875D03*
D16*
X57070625Y29421875D03*
D12*
X57070625Y28321875D03*
D16*
X57570625Y29421875D03*
D12*
X58770625Y42321875D03*
X58770625Y28321875D03*
D16*
X59670625Y29571875D03*
X61770625Y32221875D03*
D15*
X62870625Y40871875D03*
D13*
X64170625Y28321875D03*
D12*
X64270625Y35071875D03*
D13*
%TO.P,REF\u002A\u002A,1*%
%TO.N,N/C*%
X49970625Y42321875D03*
%TO.P,REF\u002A\u002A,2*%
X64170625Y42321875D03*
D12*
%TO.P,REF\u002A\u002A,3*%
X64270625Y38471875D03*
%TO.P,REF\u002A\u002A,4*%
X49870625Y38471875D03*
%TO.P,REF\u002A\u002A,5*%
X49870625Y36771875D03*
%TO.P,REF\u002A\u002A,6*%
X64270625Y36771875D03*
%TD*%
%TO.P,REF\u002A\u002A,*%
%TO.N,*%
X111465625Y-94230000D03*
D13*
X111565625Y-100980000D03*
D14*
X112615625Y-95980000D03*
D15*
X112865625Y-88430000D03*
D16*
X113665625Y-97780000D03*
X114265625Y-98680000D03*
D14*
X115915625Y-95980000D03*
D12*
X116965625Y-86980000D03*
X116965625Y-100980000D03*
X118665625Y-86980000D03*
D16*
X118665625Y-99880000D03*
D12*
X118665625Y-100980000D03*
D16*
X119165625Y-99880000D03*
D12*
X120365625Y-86980000D03*
X120365625Y-100980000D03*
D16*
X121265625Y-99730000D03*
X123365625Y-97080000D03*
D15*
X124465625Y-88430000D03*
D13*
X125765625Y-100980000D03*
D12*
X125865625Y-94230000D03*
D13*
%TO.P,REF\u002A\u002A,1*%
%TO.N,N/C*%
X111565625Y-86980000D03*
%TO.P,REF\u002A\u002A,2*%
X125765625Y-86980000D03*
D12*
%TO.P,REF\u002A\u002A,3*%
X125865625Y-90830000D03*
%TO.P,REF\u002A\u002A,4*%
X111465625Y-90830000D03*
%TO.P,REF\u002A\u002A,5*%
X111465625Y-92530000D03*
%TO.P,REF\u002A\u002A,6*%
X125865625Y-92530000D03*
%TD*%
%TO.P,REF\u002A\u002A,*%
%TO.N,*%
X80509375Y-94230000D03*
D13*
X80609375Y-100980000D03*
D14*
X81659375Y-95980000D03*
D15*
X81909375Y-88430000D03*
D16*
X82709375Y-97780000D03*
X83309375Y-98680000D03*
D14*
X84959375Y-95980000D03*
D12*
X86009375Y-86980000D03*
X86009375Y-100980000D03*
X87709375Y-86980000D03*
D16*
X87709375Y-99880000D03*
D12*
X87709375Y-100980000D03*
D16*
X88209375Y-99880000D03*
D12*
X89409375Y-86980000D03*
X89409375Y-100980000D03*
D16*
X90309375Y-99730000D03*
X92409375Y-97080000D03*
D15*
X93509375Y-88430000D03*
D13*
X94809375Y-100980000D03*
D12*
X94909375Y-94230000D03*
D13*
%TO.P,REF\u002A\u002A,1*%
%TO.N,N/C*%
X80609375Y-86980000D03*
%TO.P,REF\u002A\u002A,2*%
X94809375Y-86980000D03*
D12*
%TO.P,REF\u002A\u002A,3*%
X94909375Y-90830000D03*
%TO.P,REF\u002A\u002A,4*%
X80509375Y-90830000D03*
%TO.P,REF\u002A\u002A,5*%
X80509375Y-92530000D03*
%TO.P,REF\u002A\u002A,6*%
X94909375Y-92530000D03*
%TD*%
%TO.P,REF\u002A\u002A,*%
%TO.N,*%
X49553125Y-94230000D03*
D13*
X49653125Y-100980000D03*
D14*
X50703125Y-95980000D03*
D15*
X50953125Y-88430000D03*
D16*
X51753125Y-97780000D03*
X52353125Y-98680000D03*
D14*
X54003125Y-95980000D03*
D12*
X55053125Y-86980000D03*
X55053125Y-100980000D03*
X56753125Y-86980000D03*
D16*
X56753125Y-99880000D03*
D12*
X56753125Y-100980000D03*
D16*
X57253125Y-99880000D03*
D12*
X58453125Y-86980000D03*
X58453125Y-100980000D03*
D16*
X59353125Y-99730000D03*
X61453125Y-97080000D03*
D15*
X62553125Y-88430000D03*
D13*
X63853125Y-100980000D03*
D12*
X63953125Y-94230000D03*
D13*
%TO.P,REF\u002A\u002A,1*%
%TO.N,N/C*%
X49653125Y-86980000D03*
%TO.P,REF\u002A\u002A,2*%
X63853125Y-86980000D03*
D12*
%TO.P,REF\u002A\u002A,3*%
X63953125Y-90830000D03*
%TO.P,REF\u002A\u002A,4*%
X49553125Y-90830000D03*
%TO.P,REF\u002A\u002A,5*%
X49553125Y-92530000D03*
%TO.P,REF\u002A\u002A,6*%
X63953125Y-92530000D03*
%TD*%
%TO.P,REF\u002A\u002A,*%
%TO.N,*%
X65567500Y20784375D03*
D13*
X65667500Y14034375D03*
D14*
X66717500Y19034375D03*
D15*
X66967500Y26584375D03*
D17*
X67102500Y15619375D03*
D14*
X70017500Y19034375D03*
D18*
X70227500Y15954375D03*
D12*
X71067500Y28034375D03*
X71067500Y14034375D03*
X72767500Y28034375D03*
X72767500Y14034375D03*
X74467500Y28034375D03*
X74467500Y14034375D03*
D18*
X76577500Y18494375D03*
D15*
X78567500Y26584375D03*
D19*
X79017500Y16984375D03*
D13*
X79867500Y14034375D03*
D12*
X79967500Y20784375D03*
D13*
%TO.P,REF\u002A\u002A,1*%
%TO.N,N/C*%
X65667500Y28034375D03*
%TO.P,REF\u002A\u002A,2*%
X79867500Y28034375D03*
D12*
%TO.P,REF\u002A\u002A,3*%
X79967500Y24184375D03*
%TO.P,REF\u002A\u002A,4*%
X65567500Y24184375D03*
%TO.P,REF\u002A\u002A,5*%
X65567500Y22484375D03*
%TO.P,REF\u002A\u002A,6*%
X79967500Y22484375D03*
%TD*%
%TO.P,REF\u002A\u002A,*%
%TO.N,*%
X142520625Y20784375D03*
D13*
X142620625Y14034375D03*
D14*
X143670625Y19034375D03*
D15*
X143920625Y26584375D03*
D16*
X144720625Y17234375D03*
X145320625Y16334375D03*
D14*
X146970625Y19034375D03*
D12*
X148020625Y28034375D03*
X148020625Y14034375D03*
X149720625Y28034375D03*
D16*
X149720625Y15134375D03*
D12*
X149720625Y14034375D03*
D16*
X150220625Y15134375D03*
D12*
X151420625Y28034375D03*
X151420625Y14034375D03*
D16*
X152320625Y15284375D03*
X154420625Y17934375D03*
D15*
X155520625Y26584375D03*
D13*
X156820625Y14034375D03*
D12*
X156920625Y20784375D03*
D13*
%TO.P,REF\u002A\u002A,1*%
%TO.N,N/C*%
X142620625Y28034375D03*
%TO.P,REF\u002A\u002A,2*%
X156820625Y28034375D03*
D12*
%TO.P,REF\u002A\u002A,3*%
X156920625Y24184375D03*
%TO.P,REF\u002A\u002A,4*%
X142520625Y24184375D03*
%TO.P,REF\u002A\u002A,5*%
X142520625Y22484375D03*
%TO.P,REF\u002A\u002A,6*%
X156920625Y22484375D03*
%TD*%
%TO.P,REF\u002A\u002A,*%
%TO.N,*%
X50029375Y-51446875D03*
D13*
X50129375Y-58196875D03*
D14*
X51179375Y-53196875D03*
D15*
X51429375Y-45646875D03*
D16*
X52229375Y-54996875D03*
X52829375Y-55896875D03*
D14*
X54479375Y-53196875D03*
D12*
X55529375Y-44196875D03*
X55529375Y-58196875D03*
X57229375Y-44196875D03*
D16*
X57229375Y-57096875D03*
D12*
X57229375Y-58196875D03*
D16*
X57729375Y-57096875D03*
D12*
X58929375Y-44196875D03*
X58929375Y-58196875D03*
D16*
X59829375Y-56946875D03*
X61929375Y-54296875D03*
D15*
X63029375Y-45646875D03*
D13*
X64329375Y-58196875D03*
D12*
X64429375Y-51446875D03*
D13*
%TO.P,REF\u002A\u002A,1*%
%TO.N,N/C*%
X50129375Y-44196875D03*
%TO.P,REF\u002A\u002A,2*%
X64329375Y-44196875D03*
D12*
%TO.P,REF\u002A\u002A,3*%
X64429375Y-48046875D03*
%TO.P,REF\u002A\u002A,4*%
X50029375Y-48046875D03*
%TO.P,REF\u002A\u002A,5*%
X50029375Y-49746875D03*
%TO.P,REF\u002A\u002A,6*%
X64429375Y-49746875D03*
%TD*%
%TO.P,REF\u002A\u002A,*%
%TO.N,*%
X80906250Y-7870000D03*
D13*
X81006250Y-14620000D03*
D14*
X82056250Y-9620000D03*
D15*
X82306250Y-2070000D03*
D16*
X83106250Y-11420000D03*
X83706250Y-12320000D03*
D14*
X85356250Y-9620000D03*
D12*
X86406250Y-620000D03*
X86406250Y-14620000D03*
X88106250Y-620000D03*
D16*
X88106250Y-13520000D03*
D12*
X88106250Y-14620000D03*
D16*
X88606250Y-13520000D03*
D12*
X89806250Y-620000D03*
X89806250Y-14620000D03*
D16*
X90706250Y-13370000D03*
X92806250Y-10720000D03*
D15*
X93906250Y-2070000D03*
D13*
X95206250Y-14620000D03*
D12*
X95306250Y-7870000D03*
D13*
%TO.P,REF\u002A\u002A,1*%
%TO.N,N/C*%
X81006250Y-620000D03*
%TO.P,REF\u002A\u002A,2*%
X95206250Y-620000D03*
D12*
%TO.P,REF\u002A\u002A,3*%
X95306250Y-4470000D03*
%TO.P,REF\u002A\u002A,4*%
X80906250Y-4470000D03*
%TO.P,REF\u002A\u002A,5*%
X80906250Y-6170000D03*
%TO.P,REF\u002A\u002A,6*%
X95306250Y-6170000D03*
%TD*%
%TO.P,REF\u002A\u002A,*%
%TO.N,*%
X34293750Y-94230000D03*
D13*
X34393750Y-100980000D03*
D14*
X35443750Y-95980000D03*
D15*
X35693750Y-88430000D03*
D17*
X35828750Y-99395000D03*
D14*
X38743750Y-95980000D03*
D18*
X38953750Y-99060000D03*
D12*
X39793750Y-86980000D03*
X39793750Y-100980000D03*
X41493750Y-86980000D03*
X41493750Y-100980000D03*
X43193750Y-86980000D03*
X43193750Y-100980000D03*
D18*
X45303750Y-96520000D03*
D15*
X47293750Y-88430000D03*
D19*
X47743750Y-98030000D03*
D13*
X48593750Y-100980000D03*
D12*
X48693750Y-94230000D03*
D13*
%TO.P,REF\u002A\u002A,1*%
%TO.N,N/C*%
X34393750Y-86980000D03*
%TO.P,REF\u002A\u002A,2*%
X48593750Y-86980000D03*
D12*
%TO.P,REF\u002A\u002A,3*%
X48693750Y-90830000D03*
%TO.P,REF\u002A\u002A,4*%
X34293750Y-90830000D03*
%TO.P,REF\u002A\u002A,5*%
X34293750Y-92530000D03*
%TO.P,REF\u002A\u002A,6*%
X48693750Y-92530000D03*
%TD*%
%TO.P,REF\u002A\u002A,*%
%TO.N,*%
X96523750Y35071875D03*
D13*
X96623750Y28321875D03*
D14*
X97673750Y33321875D03*
D15*
X97923750Y40871875D03*
D17*
X98058750Y29906875D03*
D14*
X100973750Y33321875D03*
D18*
X101183750Y30241875D03*
D12*
X102023750Y42321875D03*
X102023750Y28321875D03*
X103723750Y42321875D03*
X103723750Y28321875D03*
X105423750Y42321875D03*
X105423750Y28321875D03*
D18*
X107533750Y32781875D03*
D15*
X109523750Y40871875D03*
D19*
X109973750Y31271875D03*
D13*
X110823750Y28321875D03*
D12*
X110923750Y35071875D03*
D13*
%TO.P,REF\u002A\u002A,1*%
%TO.N,N/C*%
X96623750Y42321875D03*
%TO.P,REF\u002A\u002A,2*%
X110823750Y42321875D03*
D12*
%TO.P,REF\u002A\u002A,3*%
X110923750Y38471875D03*
%TO.P,REF\u002A\u002A,4*%
X96523750Y38471875D03*
%TO.P,REF\u002A\u002A,5*%
X96523750Y36771875D03*
%TO.P,REF\u002A\u002A,6*%
X110923750Y36771875D03*
%TD*%
%TO.P,REF\u002A\u002A,*%
%TO.N,*%
X142600000Y-7870000D03*
D13*
X142700000Y-14620000D03*
D14*
X143750000Y-9620000D03*
D15*
X144000000Y-2070000D03*
D16*
X144800000Y-11420000D03*
X145400000Y-12320000D03*
D14*
X147050000Y-9620000D03*
D12*
X148100000Y-620000D03*
X148100000Y-14620000D03*
X149800000Y-620000D03*
D16*
X149800000Y-13520000D03*
D12*
X149800000Y-14620000D03*
D16*
X150300000Y-13520000D03*
D12*
X151500000Y-620000D03*
X151500000Y-14620000D03*
D16*
X152400000Y-13370000D03*
X154500000Y-10720000D03*
D15*
X155600000Y-2070000D03*
D13*
X156900000Y-14620000D03*
D12*
X157000000Y-7870000D03*
D13*
%TO.P,REF\u002A\u002A,1*%
%TO.N,N/C*%
X142700000Y-620000D03*
%TO.P,REF\u002A\u002A,2*%
X156900000Y-620000D03*
D12*
%TO.P,REF\u002A\u002A,3*%
X157000000Y-4470000D03*
%TO.P,REF\u002A\u002A,4*%
X142600000Y-4470000D03*
%TO.P,REF\u002A\u002A,5*%
X142600000Y-6170000D03*
%TO.P,REF\u002A\u002A,6*%
X157000000Y-6170000D03*
%TD*%
%TO.P,REF\u002A\u002A,*%
%TO.N,*%
X49553125Y-79942500D03*
D13*
X49653125Y-86692500D03*
D14*
X50703125Y-81692500D03*
D15*
X50953125Y-74142500D03*
D16*
X51753125Y-83492500D03*
X52353125Y-84392500D03*
D14*
X54003125Y-81692500D03*
D12*
X55053125Y-72692500D03*
X55053125Y-86692500D03*
X56753125Y-72692500D03*
D16*
X56753125Y-85592500D03*
D12*
X56753125Y-86692500D03*
D16*
X57253125Y-85592500D03*
D12*
X58453125Y-72692500D03*
X58453125Y-86692500D03*
D16*
X59353125Y-85442500D03*
X61453125Y-82792500D03*
D15*
X62553125Y-74142500D03*
D13*
X63853125Y-86692500D03*
D12*
X63953125Y-79942500D03*
D13*
%TO.P,REF\u002A\u002A,1*%
%TO.N,N/C*%
X49653125Y-72692500D03*
%TO.P,REF\u002A\u002A,2*%
X63853125Y-72692500D03*
D12*
%TO.P,REF\u002A\u002A,3*%
X63953125Y-76542500D03*
%TO.P,REF\u002A\u002A,4*%
X49553125Y-76542500D03*
%TO.P,REF\u002A\u002A,5*%
X49553125Y-78242500D03*
%TO.P,REF\u002A\u002A,6*%
X63953125Y-78242500D03*
%TD*%
%TO.P,REF\u002A\u002A,*%
%TO.N,*%
X49950000Y-22792500D03*
D13*
X50050000Y-29542500D03*
D14*
X51100000Y-24542500D03*
D15*
X51350000Y-16992500D03*
D16*
X52150000Y-26342500D03*
X52750000Y-27242500D03*
D14*
X54400000Y-24542500D03*
D12*
X55450000Y-15542500D03*
X55450000Y-29542500D03*
X57150000Y-15542500D03*
D16*
X57150000Y-28442500D03*
D12*
X57150000Y-29542500D03*
D16*
X57650000Y-28442500D03*
D12*
X58850000Y-15542500D03*
X58850000Y-29542500D03*
D16*
X59750000Y-28292500D03*
X61850000Y-25642500D03*
D15*
X62950000Y-16992500D03*
D13*
X64250000Y-29542500D03*
D12*
X64350000Y-22792500D03*
D13*
%TO.P,REF\u002A\u002A,1*%
%TO.N,N/C*%
X50050000Y-15542500D03*
%TO.P,REF\u002A\u002A,2*%
X64250000Y-15542500D03*
D12*
%TO.P,REF\u002A\u002A,3*%
X64350000Y-19392500D03*
%TO.P,REF\u002A\u002A,4*%
X49950000Y-19392500D03*
%TO.P,REF\u002A\u002A,5*%
X49950000Y-21092500D03*
%TO.P,REF\u002A\u002A,6*%
X64350000Y-21092500D03*
%TD*%
%TO.P,REF\u002A\u002A,*%
%TO.N,*%
X111783125Y35071875D03*
D13*
X111883125Y28321875D03*
D14*
X112933125Y33321875D03*
D15*
X113183125Y40871875D03*
D16*
X113983125Y31521875D03*
X114583125Y30621875D03*
D14*
X116233125Y33321875D03*
D12*
X117283125Y42321875D03*
X117283125Y28321875D03*
X118983125Y42321875D03*
D16*
X118983125Y29421875D03*
D12*
X118983125Y28321875D03*
D16*
X119483125Y29421875D03*
D12*
X120683125Y42321875D03*
X120683125Y28321875D03*
D16*
X121583125Y29571875D03*
X123683125Y32221875D03*
D15*
X124783125Y40871875D03*
D13*
X126083125Y28321875D03*
D12*
X126183125Y35071875D03*
D13*
%TO.P,REF\u002A\u002A,1*%
%TO.N,N/C*%
X111883125Y42321875D03*
%TO.P,REF\u002A\u002A,2*%
X126083125Y42321875D03*
D12*
%TO.P,REF\u002A\u002A,3*%
X126183125Y38471875D03*
%TO.P,REF\u002A\u002A,4*%
X111783125Y38471875D03*
%TO.P,REF\u002A\u002A,5*%
X111783125Y36771875D03*
%TO.P,REF\u002A\u002A,6*%
X126183125Y36771875D03*
%TD*%
%TO.P,REF\u002A\u002A,*%
%TO.N,*%
X49950000Y-7870000D03*
D13*
X50050000Y-14620000D03*
D14*
X51100000Y-9620000D03*
D15*
X51350000Y-2070000D03*
D16*
X52150000Y-11420000D03*
X52750000Y-12320000D03*
D14*
X54400000Y-9620000D03*
D12*
X55450000Y-620000D03*
X55450000Y-14620000D03*
X57150000Y-620000D03*
D16*
X57150000Y-13520000D03*
D12*
X57150000Y-14620000D03*
D16*
X57650000Y-13520000D03*
D12*
X58850000Y-620000D03*
X58850000Y-14620000D03*
D16*
X59750000Y-13370000D03*
X61850000Y-10720000D03*
D15*
X62950000Y-2070000D03*
D13*
X64250000Y-14620000D03*
D12*
X64350000Y-7870000D03*
D13*
%TO.P,REF\u002A\u002A,1*%
%TO.N,N/C*%
X50050000Y-620000D03*
%TO.P,REF\u002A\u002A,2*%
X64250000Y-620000D03*
D12*
%TO.P,REF\u002A\u002A,3*%
X64350000Y-4470000D03*
%TO.P,REF\u002A\u002A,4*%
X49950000Y-4470000D03*
%TO.P,REF\u002A\u002A,5*%
X49950000Y-6170000D03*
%TO.P,REF\u002A\u002A,6*%
X64350000Y-6170000D03*
%TD*%
%TO.P,REF\u002A\u002A,*%
%TO.N,*%
X65646875Y-22792500D03*
D13*
X65746875Y-29542500D03*
D14*
X66796875Y-24542500D03*
D15*
X67046875Y-16992500D03*
D17*
X67181875Y-27957500D03*
D14*
X70096875Y-24542500D03*
D18*
X70306875Y-27622500D03*
D12*
X71146875Y-15542500D03*
X71146875Y-29542500D03*
X72846875Y-15542500D03*
X72846875Y-29542500D03*
X74546875Y-15542500D03*
X74546875Y-29542500D03*
D18*
X76656875Y-25082500D03*
D15*
X78646875Y-16992500D03*
D19*
X79096875Y-26592500D03*
D13*
X79946875Y-29542500D03*
D12*
X80046875Y-22792500D03*
D13*
%TO.P,REF\u002A\u002A,1*%
%TO.N,N/C*%
X65746875Y-15542500D03*
%TO.P,REF\u002A\u002A,2*%
X79946875Y-15542500D03*
D12*
%TO.P,REF\u002A\u002A,3*%
X80046875Y-19392500D03*
%TO.P,REF\u002A\u002A,4*%
X65646875Y-19392500D03*
%TO.P,REF\u002A\u002A,5*%
X65646875Y-21092500D03*
%TO.P,REF\u002A\u002A,6*%
X80046875Y-21092500D03*
%TD*%
%TO.P,REF\u002A\u002A,*%
%TO.N,*%
X127420000Y-65734375D03*
D13*
X127520000Y-72484375D03*
D14*
X128570000Y-67484375D03*
D15*
X128820000Y-59934375D03*
D17*
X128955000Y-70899375D03*
D14*
X131870000Y-67484375D03*
D18*
X132080000Y-70564375D03*
D12*
X132920000Y-58484375D03*
X132920000Y-72484375D03*
X134620000Y-58484375D03*
X134620000Y-72484375D03*
X136320000Y-58484375D03*
X136320000Y-72484375D03*
D18*
X138430000Y-68024375D03*
D15*
X140420000Y-59934375D03*
D19*
X140870000Y-69534375D03*
D13*
X141720000Y-72484375D03*
D12*
X141820000Y-65734375D03*
D13*
%TO.P,REF\u002A\u002A,1*%
%TO.N,N/C*%
X127520000Y-58484375D03*
%TO.P,REF\u002A\u002A,2*%
X141720000Y-58484375D03*
D12*
%TO.P,REF\u002A\u002A,3*%
X141820000Y-62334375D03*
%TO.P,REF\u002A\u002A,4*%
X127420000Y-62334375D03*
%TO.P,REF\u002A\u002A,5*%
X127420000Y-64034375D03*
%TO.P,REF\u002A\u002A,6*%
X141820000Y-64034375D03*
%TD*%
%TO.P,REF\u002A\u002A,*%
%TO.N,*%
X96603125Y-37080000D03*
D13*
X96703125Y-43830000D03*
D14*
X97753125Y-38830000D03*
D15*
X98003125Y-31280000D03*
D17*
X98138125Y-42245000D03*
D14*
X101053125Y-38830000D03*
D18*
X101263125Y-41910000D03*
D12*
X102103125Y-29830000D03*
X102103125Y-43830000D03*
X103803125Y-29830000D03*
X103803125Y-43830000D03*
X105503125Y-29830000D03*
X105503125Y-43830000D03*
D18*
X107613125Y-39370000D03*
D15*
X109603125Y-31280000D03*
D19*
X110053125Y-40880000D03*
D13*
X110903125Y-43830000D03*
D12*
X111003125Y-37080000D03*
D13*
%TO.P,REF\u002A\u002A,1*%
%TO.N,N/C*%
X96703125Y-29830000D03*
%TO.P,REF\u002A\u002A,2*%
X110903125Y-29830000D03*
D12*
%TO.P,REF\u002A\u002A,3*%
X111003125Y-33680000D03*
%TO.P,REF\u002A\u002A,4*%
X96603125Y-33680000D03*
%TO.P,REF\u002A\u002A,5*%
X96603125Y-35380000D03*
%TO.P,REF\u002A\u002A,6*%
X111003125Y-35380000D03*
%TD*%
%TO.P,REF\u002A\u002A,*%
%TO.N,*%
X142600000Y-22792500D03*
D13*
X142700000Y-29542500D03*
D14*
X143750000Y-24542500D03*
D15*
X144000000Y-16992500D03*
D16*
X144800000Y-26342500D03*
X145400000Y-27242500D03*
D14*
X147050000Y-24542500D03*
D12*
X148100000Y-15542500D03*
X148100000Y-29542500D03*
X149800000Y-15542500D03*
D16*
X149800000Y-28442500D03*
D12*
X149800000Y-29542500D03*
D16*
X150300000Y-28442500D03*
D12*
X151500000Y-15542500D03*
X151500000Y-29542500D03*
D16*
X152400000Y-28292500D03*
X154500000Y-25642500D03*
D15*
X155600000Y-16992500D03*
D13*
X156900000Y-29542500D03*
D12*
X157000000Y-22792500D03*
D13*
%TO.P,REF\u002A\u002A,1*%
%TO.N,N/C*%
X142700000Y-15542500D03*
%TO.P,REF\u002A\u002A,2*%
X156900000Y-15542500D03*
D12*
%TO.P,REF\u002A\u002A,3*%
X157000000Y-19392500D03*
%TO.P,REF\u002A\u002A,4*%
X142600000Y-19392500D03*
%TO.P,REF\u002A\u002A,5*%
X142600000Y-21092500D03*
%TO.P,REF\u002A\u002A,6*%
X157000000Y-21092500D03*
%TD*%
%TO.P,REF\u002A\u002A,*%
%TO.N,*%
X96603125Y-22792500D03*
D13*
X96703125Y-29542500D03*
D14*
X97753125Y-24542500D03*
D15*
X98003125Y-16992500D03*
D17*
X98138125Y-27957500D03*
D14*
X101053125Y-24542500D03*
D18*
X101263125Y-27622500D03*
D12*
X102103125Y-15542500D03*
X102103125Y-29542500D03*
X103803125Y-15542500D03*
X103803125Y-29542500D03*
X105503125Y-15542500D03*
X105503125Y-29542500D03*
D18*
X107613125Y-25082500D03*
D15*
X109603125Y-16992500D03*
D19*
X110053125Y-26592500D03*
D13*
X110903125Y-29542500D03*
D12*
X111003125Y-22792500D03*
D13*
%TO.P,REF\u002A\u002A,1*%
%TO.N,N/C*%
X96703125Y-15542500D03*
%TO.P,REF\u002A\u002A,2*%
X110903125Y-15542500D03*
D12*
%TO.P,REF\u002A\u002A,3*%
X111003125Y-19392500D03*
%TO.P,REF\u002A\u002A,4*%
X96603125Y-19392500D03*
%TO.P,REF\u002A\u002A,5*%
X96603125Y-21092500D03*
%TO.P,REF\u002A\u002A,6*%
X111003125Y-21092500D03*
%TD*%
%TO.P,REF\u002A\u002A,*%
%TO.N,*%
X49950000Y6417500D03*
D13*
X50050000Y-332500D03*
D14*
X51100000Y4667500D03*
D15*
X51350000Y12217500D03*
D16*
X52150000Y2867500D03*
X52750000Y1967500D03*
D14*
X54400000Y4667500D03*
D12*
X55450000Y13667500D03*
X55450000Y-332500D03*
X57150000Y13667500D03*
D16*
X57150000Y767500D03*
D12*
X57150000Y-332500D03*
D16*
X57650000Y767500D03*
D12*
X58850000Y13667500D03*
X58850000Y-332500D03*
D16*
X59750000Y917500D03*
X61850000Y3567500D03*
D15*
X62950000Y12217500D03*
D13*
X64250000Y-332500D03*
D12*
X64350000Y6417500D03*
D13*
%TO.P,REF\u002A\u002A,1*%
%TO.N,N/C*%
X50050000Y13667500D03*
%TO.P,REF\u002A\u002A,2*%
X64250000Y13667500D03*
D12*
%TO.P,REF\u002A\u002A,3*%
X64350000Y9817500D03*
%TO.P,REF\u002A\u002A,4*%
X49950000Y9817500D03*
%TO.P,REF\u002A\u002A,5*%
X49950000Y8117500D03*
%TO.P,REF\u002A\u002A,6*%
X64350000Y8117500D03*
%TD*%
%TO.P,REF\u002A\u002A,*%
%TO.N,*%
X34770000Y-65734375D03*
D13*
X34870000Y-72484375D03*
D14*
X35920000Y-67484375D03*
D15*
X36170000Y-59934375D03*
D17*
X36305000Y-70899375D03*
D14*
X39220000Y-67484375D03*
D18*
X39430000Y-70564375D03*
D12*
X40270000Y-58484375D03*
X40270000Y-72484375D03*
X41970000Y-58484375D03*
X41970000Y-72484375D03*
X43670000Y-58484375D03*
X43670000Y-72484375D03*
D18*
X45780000Y-68024375D03*
D15*
X47770000Y-59934375D03*
D19*
X48220000Y-69534375D03*
D13*
X49070000Y-72484375D03*
D12*
X49170000Y-65734375D03*
D13*
%TO.P,REF\u002A\u002A,1*%
%TO.N,N/C*%
X34870000Y-58484375D03*
%TO.P,REF\u002A\u002A,2*%
X49070000Y-58484375D03*
D12*
%TO.P,REF\u002A\u002A,3*%
X49170000Y-62334375D03*
%TO.P,REF\u002A\u002A,4*%
X34770000Y-62334375D03*
%TO.P,REF\u002A\u002A,5*%
X34770000Y-64034375D03*
%TO.P,REF\u002A\u002A,6*%
X49170000Y-64034375D03*
%TD*%
%TO.P,REF\u002A\u002A,*%
%TO.N,*%
X96603125Y-7870000D03*
D13*
X96703125Y-14620000D03*
D14*
X97753125Y-9620000D03*
D15*
X98003125Y-2070000D03*
D17*
X98138125Y-13035000D03*
D14*
X101053125Y-9620000D03*
D18*
X101263125Y-12700000D03*
D12*
X102103125Y-620000D03*
X102103125Y-14620000D03*
X103803125Y-620000D03*
X103803125Y-14620000D03*
X105503125Y-620000D03*
X105503125Y-14620000D03*
D18*
X107613125Y-10160000D03*
D15*
X109603125Y-2070000D03*
D19*
X110053125Y-11670000D03*
D13*
X110903125Y-14620000D03*
D12*
X111003125Y-7870000D03*
D13*
%TO.P,REF\u002A\u002A,1*%
%TO.N,N/C*%
X96703125Y-620000D03*
%TO.P,REF\u002A\u002A,2*%
X110903125Y-620000D03*
D12*
%TO.P,REF\u002A\u002A,3*%
X111003125Y-4470000D03*
%TO.P,REF\u002A\u002A,4*%
X96603125Y-4470000D03*
%TO.P,REF\u002A\u002A,5*%
X96603125Y-6170000D03*
%TO.P,REF\u002A\u002A,6*%
X111003125Y-6170000D03*
%TD*%
%TO.P,REF\u002A\u002A,*%
%TO.N,*%
X142600000Y-37080000D03*
D13*
X142700000Y-43830000D03*
D14*
X143750000Y-38830000D03*
D15*
X144000000Y-31280000D03*
D16*
X144800000Y-40630000D03*
X145400000Y-41530000D03*
D14*
X147050000Y-38830000D03*
D12*
X148100000Y-29830000D03*
X148100000Y-43830000D03*
X149800000Y-29830000D03*
D16*
X149800000Y-42730000D03*
D12*
X149800000Y-43830000D03*
D16*
X150300000Y-42730000D03*
D12*
X151500000Y-29830000D03*
X151500000Y-43830000D03*
D16*
X152400000Y-42580000D03*
X154500000Y-39930000D03*
D15*
X155600000Y-31280000D03*
D13*
X156900000Y-43830000D03*
D12*
X157000000Y-37080000D03*
D13*
%TO.P,REF\u002A\u002A,1*%
%TO.N,N/C*%
X142700000Y-29830000D03*
%TO.P,REF\u002A\u002A,2*%
X156900000Y-29830000D03*
D12*
%TO.P,REF\u002A\u002A,3*%
X157000000Y-33680000D03*
%TO.P,REF\u002A\u002A,4*%
X142600000Y-33680000D03*
%TO.P,REF\u002A\u002A,5*%
X142600000Y-35380000D03*
%TO.P,REF\u002A\u002A,6*%
X157000000Y-35380000D03*
%TD*%
%TO.P,REF\u002A\u002A,*%
%TO.N,*%
X111941875Y-65734375D03*
D13*
X112041875Y-72484375D03*
D14*
X113091875Y-67484375D03*
D15*
X113341875Y-59934375D03*
D16*
X114141875Y-69284375D03*
X114741875Y-70184375D03*
D14*
X116391875Y-67484375D03*
D12*
X117441875Y-58484375D03*
X117441875Y-72484375D03*
X119141875Y-58484375D03*
D16*
X119141875Y-71384375D03*
D12*
X119141875Y-72484375D03*
D16*
X119641875Y-71384375D03*
D12*
X120841875Y-58484375D03*
X120841875Y-72484375D03*
D16*
X121741875Y-71234375D03*
X123841875Y-68584375D03*
D15*
X124941875Y-59934375D03*
D13*
X126241875Y-72484375D03*
D12*
X126341875Y-65734375D03*
D13*
%TO.P,REF\u002A\u002A,1*%
%TO.N,N/C*%
X112041875Y-58484375D03*
%TO.P,REF\u002A\u002A,2*%
X126241875Y-58484375D03*
D12*
%TO.P,REF\u002A\u002A,3*%
X126341875Y-62334375D03*
%TO.P,REF\u002A\u002A,4*%
X111941875Y-62334375D03*
%TO.P,REF\u002A\u002A,5*%
X111941875Y-64034375D03*
%TO.P,REF\u002A\u002A,6*%
X126341875Y-64034375D03*
%TD*%
%TO.P,REF\u002A\u002A,*%
%TO.N,*%
X111465625Y-79942500D03*
D13*
X111565625Y-86692500D03*
D14*
X112615625Y-81692500D03*
D15*
X112865625Y-74142500D03*
D16*
X113665625Y-83492500D03*
X114265625Y-84392500D03*
D14*
X115915625Y-81692500D03*
D12*
X116965625Y-72692500D03*
X116965625Y-86692500D03*
X118665625Y-72692500D03*
D16*
X118665625Y-85592500D03*
D12*
X118665625Y-86692500D03*
D16*
X119165625Y-85592500D03*
D12*
X120365625Y-72692500D03*
X120365625Y-86692500D03*
D16*
X121265625Y-85442500D03*
X123365625Y-82792500D03*
D15*
X124465625Y-74142500D03*
D13*
X125765625Y-86692500D03*
D12*
X125865625Y-79942500D03*
D13*
%TO.P,REF\u002A\u002A,1*%
%TO.N,N/C*%
X111565625Y-72692500D03*
%TO.P,REF\u002A\u002A,2*%
X125765625Y-72692500D03*
D12*
%TO.P,REF\u002A\u002A,3*%
X125865625Y-76542500D03*
%TO.P,REF\u002A\u002A,4*%
X111465625Y-76542500D03*
%TO.P,REF\u002A\u002A,5*%
X111465625Y-78242500D03*
%TO.P,REF\u002A\u002A,6*%
X125865625Y-78242500D03*
%TD*%
%TO.P,REF\u002A\u002A,*%
%TO.N,*%
X34690625Y-22792500D03*
D13*
X34790625Y-29542500D03*
D14*
X35840625Y-24542500D03*
D15*
X36090625Y-16992500D03*
D17*
X36225625Y-27957500D03*
D14*
X39140625Y-24542500D03*
D18*
X39350625Y-27622500D03*
D12*
X40190625Y-15542500D03*
X40190625Y-29542500D03*
X41890625Y-15542500D03*
X41890625Y-29542500D03*
X43590625Y-15542500D03*
X43590625Y-29542500D03*
D18*
X45700625Y-25082500D03*
D15*
X47690625Y-16992500D03*
D19*
X48140625Y-26592500D03*
D13*
X48990625Y-29542500D03*
D12*
X49090625Y-22792500D03*
D13*
%TO.P,REF\u002A\u002A,1*%
%TO.N,N/C*%
X34790625Y-15542500D03*
%TO.P,REF\u002A\u002A,2*%
X48990625Y-15542500D03*
D12*
%TO.P,REF\u002A\u002A,3*%
X49090625Y-19392500D03*
%TO.P,REF\u002A\u002A,4*%
X34690625Y-19392500D03*
%TO.P,REF\u002A\u002A,5*%
X34690625Y-21092500D03*
%TO.P,REF\u002A\u002A,6*%
X49090625Y-21092500D03*
%TD*%
%TO.P,REF\u002A\u002A,*%
%TO.N,*%
X157900000Y-37080000D03*
D13*
X158000000Y-43830000D03*
D14*
X159050000Y-38830000D03*
D15*
X159300000Y-31280000D03*
D16*
X160100000Y-40630000D03*
X160700000Y-41530000D03*
D14*
X162350000Y-38830000D03*
D12*
X163400000Y-29830000D03*
X163400000Y-43830000D03*
X165100000Y-29830000D03*
D16*
X165100000Y-42730000D03*
D12*
X165100000Y-43830000D03*
D16*
X165600000Y-42730000D03*
D12*
X166800000Y-29830000D03*
X166800000Y-43830000D03*
D16*
X167700000Y-42580000D03*
X169800000Y-39930000D03*
D15*
X170900000Y-31280000D03*
D13*
X172200000Y-43830000D03*
D12*
X172300000Y-37080000D03*
D13*
%TO.P,REF\u002A\u002A,1*%
%TO.N,N/C*%
X158000000Y-29830000D03*
%TO.P,REF\u002A\u002A,2*%
X172200000Y-29830000D03*
D12*
%TO.P,REF\u002A\u002A,3*%
X172300000Y-33680000D03*
%TO.P,REF\u002A\u002A,4*%
X157900000Y-33680000D03*
%TO.P,REF\u002A\u002A,5*%
X157900000Y-35380000D03*
%TO.P,REF\u002A\u002A,6*%
X172300000Y-35380000D03*
%TD*%
%TO.P,REF\u002A\u002A,*%
%TO.N,*%
X96206250Y-94230000D03*
D13*
X96306250Y-100980000D03*
D14*
X97356250Y-95980000D03*
D15*
X97606250Y-88430000D03*
D17*
X97741250Y-99395000D03*
D14*
X100656250Y-95980000D03*
D18*
X100866250Y-99060000D03*
D12*
X101706250Y-86980000D03*
X101706250Y-100980000D03*
X103406250Y-86980000D03*
X103406250Y-100980000D03*
X105106250Y-86980000D03*
X105106250Y-100980000D03*
D18*
X107216250Y-96520000D03*
D15*
X109206250Y-88430000D03*
D19*
X109656250Y-98030000D03*
D13*
X110506250Y-100980000D03*
D12*
X110606250Y-94230000D03*
D13*
%TO.P,REF\u002A\u002A,1*%
%TO.N,N/C*%
X96306250Y-86980000D03*
%TO.P,REF\u002A\u002A,2*%
X110506250Y-86980000D03*
D12*
%TO.P,REF\u002A\u002A,3*%
X110606250Y-90830000D03*
%TO.P,REF\u002A\u002A,4*%
X96206250Y-90830000D03*
%TO.P,REF\u002A\u002A,5*%
X96206250Y-92530000D03*
%TO.P,REF\u002A\u002A,6*%
X110606250Y-92530000D03*
%TD*%
%TO.P,REF\u002A\u002A,*%
%TO.N,*%
X127340625Y-37080000D03*
D13*
X127440625Y-43830000D03*
D14*
X128490625Y-38830000D03*
D15*
X128740625Y-31280000D03*
D17*
X128875625Y-42245000D03*
D14*
X131790625Y-38830000D03*
D18*
X132000625Y-41910000D03*
D12*
X132840625Y-29830000D03*
X132840625Y-43830000D03*
X134540625Y-29830000D03*
X134540625Y-43830000D03*
X136240625Y-29830000D03*
X136240625Y-43830000D03*
D18*
X138350625Y-39370000D03*
D15*
X140340625Y-31280000D03*
D19*
X140790625Y-40880000D03*
D13*
X141640625Y-43830000D03*
D12*
X141740625Y-37080000D03*
D13*
%TO.P,REF\u002A\u002A,1*%
%TO.N,N/C*%
X127440625Y-29830000D03*
%TO.P,REF\u002A\u002A,2*%
X141640625Y-29830000D03*
D12*
%TO.P,REF\u002A\u002A,3*%
X141740625Y-33680000D03*
%TO.P,REF\u002A\u002A,4*%
X127340625Y-33680000D03*
%TO.P,REF\u002A\u002A,5*%
X127340625Y-35380000D03*
%TO.P,REF\u002A\u002A,6*%
X141740625Y-35380000D03*
%TD*%
%TO.P,REF\u002A\u002A,*%
%TO.N,*%
X96682500Y-51446875D03*
D13*
X96782500Y-58196875D03*
D14*
X97832500Y-53196875D03*
D15*
X98082500Y-45646875D03*
D17*
X98217500Y-56611875D03*
D14*
X101132500Y-53196875D03*
D18*
X101342500Y-56276875D03*
D12*
X102182500Y-44196875D03*
X102182500Y-58196875D03*
X103882500Y-44196875D03*
X103882500Y-58196875D03*
X105582500Y-44196875D03*
X105582500Y-58196875D03*
D18*
X107692500Y-53736875D03*
D15*
X109682500Y-45646875D03*
D19*
X110132500Y-55246875D03*
D13*
X110982500Y-58196875D03*
D12*
X111082500Y-51446875D03*
D13*
%TO.P,REF\u002A\u002A,1*%
%TO.N,N/C*%
X96782500Y-44196875D03*
%TO.P,REF\u002A\u002A,2*%
X110982500Y-44196875D03*
D12*
%TO.P,REF\u002A\u002A,3*%
X111082500Y-48046875D03*
%TO.P,REF\u002A\u002A,4*%
X96682500Y-48046875D03*
%TO.P,REF\u002A\u002A,5*%
X96682500Y-49746875D03*
%TO.P,REF\u002A\u002A,6*%
X111082500Y-49746875D03*
%TD*%
%TO.P,REF\u002A\u002A,*%
%TO.N,*%
X65646875Y-37080000D03*
D13*
X65746875Y-43830000D03*
D14*
X66796875Y-38830000D03*
D15*
X67046875Y-31280000D03*
D17*
X67181875Y-42245000D03*
D14*
X70096875Y-38830000D03*
D18*
X70306875Y-41910000D03*
D12*
X71146875Y-29830000D03*
X71146875Y-43830000D03*
X72846875Y-29830000D03*
X72846875Y-43830000D03*
X74546875Y-29830000D03*
X74546875Y-43830000D03*
D18*
X76656875Y-39370000D03*
D15*
X78646875Y-31280000D03*
D19*
X79096875Y-40880000D03*
D13*
X79946875Y-43830000D03*
D12*
X80046875Y-37080000D03*
D13*
%TO.P,REF\u002A\u002A,1*%
%TO.N,N/C*%
X65746875Y-29830000D03*
%TO.P,REF\u002A\u002A,2*%
X79946875Y-29830000D03*
D12*
%TO.P,REF\u002A\u002A,3*%
X80046875Y-33680000D03*
%TO.P,REF\u002A\u002A,4*%
X65646875Y-33680000D03*
%TO.P,REF\u002A\u002A,5*%
X65646875Y-35380000D03*
%TO.P,REF\u002A\u002A,6*%
X80046875Y-35380000D03*
%TD*%
%TO.P,REF\u002A\u002A,*%
%TO.N,*%
X34611250Y35071875D03*
D13*
X34711250Y28321875D03*
D14*
X35761250Y33321875D03*
D15*
X36011250Y40871875D03*
D17*
X36146250Y29906875D03*
D14*
X39061250Y33321875D03*
D18*
X39271250Y30241875D03*
D12*
X40111250Y42321875D03*
X40111250Y28321875D03*
X41811250Y42321875D03*
X41811250Y28321875D03*
X43511250Y42321875D03*
X43511250Y28321875D03*
D18*
X45621250Y32781875D03*
D15*
X47611250Y40871875D03*
D19*
X48061250Y31271875D03*
D13*
X48911250Y28321875D03*
D12*
X49011250Y35071875D03*
D13*
%TO.P,REF\u002A\u002A,1*%
%TO.N,N/C*%
X34711250Y42321875D03*
%TO.P,REF\u002A\u002A,2*%
X48911250Y42321875D03*
D12*
%TO.P,REF\u002A\u002A,3*%
X49011250Y38471875D03*
%TO.P,REF\u002A\u002A,4*%
X34611250Y38471875D03*
%TO.P,REF\u002A\u002A,5*%
X34611250Y36771875D03*
%TO.P,REF\u002A\u002A,6*%
X49011250Y36771875D03*
%TD*%
%TO.P,REF\u002A\u002A,*%
%TO.N,*%
X127340625Y-7870000D03*
D13*
X127440625Y-14620000D03*
D14*
X128490625Y-9620000D03*
D15*
X128740625Y-2070000D03*
D17*
X128875625Y-13035000D03*
D14*
X131790625Y-9620000D03*
D18*
X132000625Y-12700000D03*
D12*
X132840625Y-620000D03*
X132840625Y-14620000D03*
X134540625Y-620000D03*
X134540625Y-14620000D03*
X136240625Y-620000D03*
X136240625Y-14620000D03*
D18*
X138350625Y-10160000D03*
D15*
X140340625Y-2070000D03*
D19*
X140790625Y-11670000D03*
D13*
X141640625Y-14620000D03*
D12*
X141740625Y-7870000D03*
D13*
%TO.P,REF\u002A\u002A,1*%
%TO.N,N/C*%
X127440625Y-620000D03*
%TO.P,REF\u002A\u002A,2*%
X141640625Y-620000D03*
D12*
%TO.P,REF\u002A\u002A,3*%
X141740625Y-4470000D03*
%TO.P,REF\u002A\u002A,4*%
X127340625Y-4470000D03*
%TO.P,REF\u002A\u002A,5*%
X127340625Y-6170000D03*
%TO.P,REF\u002A\u002A,6*%
X141740625Y-6170000D03*
%TD*%
%TO.P,REF\u002A\u002A,*%
%TO.N,*%
X80906250Y6417500D03*
D13*
X81006250Y-332500D03*
D14*
X82056250Y4667500D03*
D15*
X82306250Y12217500D03*
D16*
X83106250Y2867500D03*
X83706250Y1967500D03*
D14*
X85356250Y4667500D03*
D12*
X86406250Y13667500D03*
X86406250Y-332500D03*
X88106250Y13667500D03*
D16*
X88106250Y767500D03*
D12*
X88106250Y-332500D03*
D16*
X88606250Y767500D03*
D12*
X89806250Y13667500D03*
X89806250Y-332500D03*
D16*
X90706250Y917500D03*
X92806250Y3567500D03*
D15*
X93906250Y12217500D03*
D13*
X95206250Y-332500D03*
D12*
X95306250Y6417500D03*
D13*
%TO.P,REF\u002A\u002A,1*%
%TO.N,N/C*%
X81006250Y13667500D03*
%TO.P,REF\u002A\u002A,2*%
X95206250Y13667500D03*
D12*
%TO.P,REF\u002A\u002A,3*%
X95306250Y9817500D03*
%TO.P,REF\u002A\u002A,4*%
X80906250Y9817500D03*
%TO.P,REF\u002A\u002A,5*%
X80906250Y8117500D03*
%TO.P,REF\u002A\u002A,6*%
X95306250Y8117500D03*
%TD*%
%TO.P,REF\u002A\u002A,*%
%TO.N,*%
X65646875Y6417500D03*
D13*
X65746875Y-332500D03*
D14*
X66796875Y4667500D03*
D15*
X67046875Y12217500D03*
D17*
X67181875Y1252500D03*
D14*
X70096875Y4667500D03*
D18*
X70306875Y1587500D03*
D12*
X71146875Y13667500D03*
X71146875Y-332500D03*
X72846875Y13667500D03*
X72846875Y-332500D03*
X74546875Y13667500D03*
X74546875Y-332500D03*
D18*
X76656875Y4127500D03*
D15*
X78646875Y12217500D03*
D19*
X79096875Y2617500D03*
D13*
X79946875Y-332500D03*
D12*
X80046875Y6417500D03*
D13*
%TO.P,REF\u002A\u002A,1*%
%TO.N,N/C*%
X65746875Y13667500D03*
%TO.P,REF\u002A\u002A,2*%
X79946875Y13667500D03*
D12*
%TO.P,REF\u002A\u002A,3*%
X80046875Y9817500D03*
%TO.P,REF\u002A\u002A,4*%
X65646875Y9817500D03*
%TO.P,REF\u002A\u002A,5*%
X65646875Y8117500D03*
%TO.P,REF\u002A\u002A,6*%
X80046875Y8117500D03*
%TD*%
%TO.P,REF\u002A\u002A,*%
%TO.N,*%
X49950000Y-37080000D03*
D13*
X50050000Y-43830000D03*
D14*
X51100000Y-38830000D03*
D15*
X51350000Y-31280000D03*
D16*
X52150000Y-40630000D03*
X52750000Y-41530000D03*
D14*
X54400000Y-38830000D03*
D12*
X55450000Y-29830000D03*
X55450000Y-43830000D03*
X57150000Y-29830000D03*
D16*
X57150000Y-42730000D03*
D12*
X57150000Y-43830000D03*
D16*
X57650000Y-42730000D03*
D12*
X58850000Y-29830000D03*
X58850000Y-43830000D03*
D16*
X59750000Y-42580000D03*
X61850000Y-39930000D03*
D15*
X62950000Y-31280000D03*
D13*
X64250000Y-43830000D03*
D12*
X64350000Y-37080000D03*
D13*
%TO.P,REF\u002A\u002A,1*%
%TO.N,N/C*%
X50050000Y-29830000D03*
%TO.P,REF\u002A\u002A,2*%
X64250000Y-29830000D03*
D12*
%TO.P,REF\u002A\u002A,3*%
X64350000Y-33680000D03*
%TO.P,REF\u002A\u002A,4*%
X49950000Y-33680000D03*
%TO.P,REF\u002A\u002A,5*%
X49950000Y-35380000D03*
%TO.P,REF\u002A\u002A,6*%
X64350000Y-35380000D03*
%TD*%
%TO.P,REF\u002A\u002A,*%
%TO.N,*%
X65726250Y-65734375D03*
D13*
X65826250Y-72484375D03*
D14*
X66876250Y-67484375D03*
D15*
X67126250Y-59934375D03*
D17*
X67261250Y-70899375D03*
D14*
X70176250Y-67484375D03*
D18*
X70386250Y-70564375D03*
D12*
X71226250Y-58484375D03*
X71226250Y-72484375D03*
X72926250Y-58484375D03*
X72926250Y-72484375D03*
X74626250Y-58484375D03*
X74626250Y-72484375D03*
D18*
X76736250Y-68024375D03*
D15*
X78726250Y-59934375D03*
D19*
X79176250Y-69534375D03*
D13*
X80026250Y-72484375D03*
D12*
X80126250Y-65734375D03*
D13*
%TO.P,REF\u002A\u002A,1*%
%TO.N,N/C*%
X65826250Y-58484375D03*
%TO.P,REF\u002A\u002A,2*%
X80026250Y-58484375D03*
D12*
%TO.P,REF\u002A\u002A,3*%
X80126250Y-62334375D03*
%TO.P,REF\u002A\u002A,4*%
X65726250Y-62334375D03*
%TO.P,REF\u002A\u002A,5*%
X65726250Y-64034375D03*
%TO.P,REF\u002A\u002A,6*%
X80126250Y-64034375D03*
%TD*%
%TO.P,REF\u002A\u002A,*%
%TO.N,*%
X96523750Y20784375D03*
D13*
X96623750Y14034375D03*
D14*
X97673750Y19034375D03*
D15*
X97923750Y26584375D03*
D17*
X98058750Y15619375D03*
D14*
X100973750Y19034375D03*
D18*
X101183750Y15954375D03*
D12*
X102023750Y28034375D03*
X102023750Y14034375D03*
X103723750Y28034375D03*
X103723750Y14034375D03*
X105423750Y28034375D03*
X105423750Y14034375D03*
D18*
X107533750Y18494375D03*
D15*
X109523750Y26584375D03*
D19*
X109973750Y16984375D03*
D13*
X110823750Y14034375D03*
D12*
X110923750Y20784375D03*
D13*
%TO.P,REF\u002A\u002A,1*%
%TO.N,N/C*%
X96623750Y28034375D03*
%TO.P,REF\u002A\u002A,2*%
X110823750Y28034375D03*
D12*
%TO.P,REF\u002A\u002A,3*%
X110923750Y24184375D03*
%TO.P,REF\u002A\u002A,4*%
X96523750Y24184375D03*
%TO.P,REF\u002A\u002A,5*%
X96523750Y22484375D03*
%TO.P,REF\u002A\u002A,6*%
X110923750Y22484375D03*
%TD*%
%TO.P,REF\u002A\u002A,*%
%TO.N,*%
X34690625Y-7870000D03*
D13*
X34790625Y-14620000D03*
D14*
X35840625Y-9620000D03*
D15*
X36090625Y-2070000D03*
D17*
X36225625Y-13035000D03*
D14*
X39140625Y-9620000D03*
D18*
X39350625Y-12700000D03*
D12*
X40190625Y-620000D03*
X40190625Y-14620000D03*
X41890625Y-620000D03*
X41890625Y-14620000D03*
X43590625Y-620000D03*
X43590625Y-14620000D03*
D18*
X45700625Y-10160000D03*
D15*
X47690625Y-2070000D03*
D19*
X48140625Y-11670000D03*
D13*
X48990625Y-14620000D03*
D12*
X49090625Y-7870000D03*
D13*
%TO.P,REF\u002A\u002A,1*%
%TO.N,N/C*%
X34790625Y-620000D03*
%TO.P,REF\u002A\u002A,2*%
X48990625Y-620000D03*
D12*
%TO.P,REF\u002A\u002A,3*%
X49090625Y-4470000D03*
%TO.P,REF\u002A\u002A,4*%
X34690625Y-4470000D03*
%TO.P,REF\u002A\u002A,5*%
X34690625Y-6170000D03*
%TO.P,REF\u002A\u002A,6*%
X49090625Y-6170000D03*
%TD*%
%TO.P,REF\u002A\u002A,*%
%TO.N,*%
X157900000Y-94230000D03*
D13*
X158000000Y-100980000D03*
D15*
X159300000Y-88430000D03*
D12*
X161350000Y-94450000D03*
X163400000Y-86980000D03*
X163400000Y-100980000D03*
X165100000Y-86980000D03*
X165100000Y-100980000D03*
X166800000Y-86980000D03*
X166800000Y-100980000D03*
X168910000Y-96540000D03*
D15*
X170900000Y-88430000D03*
D13*
X172200000Y-100980000D03*
D12*
X172300000Y-94230000D03*
D13*
%TO.P,REF\u002A\u002A,1*%
%TO.N,N/C*%
X158000000Y-86980000D03*
%TO.P,REF\u002A\u002A,2*%
X172200000Y-86980000D03*
D12*
%TO.P,REF\u002A\u002A,3*%
X172300000Y-90830000D03*
%TO.P,REF\u002A\u002A,4*%
X157900000Y-90830000D03*
%TO.P,REF\u002A\u002A,5*%
X157900000Y-92530000D03*
%TO.P,REF\u002A\u002A,6*%
X172300000Y-92530000D03*
%TD*%
%TO.P,REF\u002A\u002A,*%
%TO.N,*%
X142679375Y-51446875D03*
D13*
X142779375Y-58196875D03*
D14*
X143829375Y-53196875D03*
D15*
X144079375Y-45646875D03*
D16*
X144879375Y-54996875D03*
X145479375Y-55896875D03*
D14*
X147129375Y-53196875D03*
D12*
X148179375Y-44196875D03*
X148179375Y-58196875D03*
X149879375Y-44196875D03*
D16*
X149879375Y-57096875D03*
D12*
X149879375Y-58196875D03*
D16*
X150379375Y-57096875D03*
D12*
X151579375Y-44196875D03*
X151579375Y-58196875D03*
D16*
X152479375Y-56946875D03*
X154579375Y-54296875D03*
D15*
X155679375Y-45646875D03*
D13*
X156979375Y-58196875D03*
D12*
X157079375Y-51446875D03*
D13*
%TO.P,REF\u002A\u002A,1*%
%TO.N,N/C*%
X142779375Y-44196875D03*
%TO.P,REF\u002A\u002A,2*%
X156979375Y-44196875D03*
D12*
%TO.P,REF\u002A\u002A,3*%
X157079375Y-48046875D03*
%TO.P,REF\u002A\u002A,4*%
X142679375Y-48046875D03*
%TO.P,REF\u002A\u002A,5*%
X142679375Y-49746875D03*
%TO.P,REF\u002A\u002A,6*%
X157079375Y-49746875D03*
%TD*%
%TO.P,REF\u002A\u002A,*%
%TO.N,*%
X157900000Y-22792500D03*
D13*
X158000000Y-29542500D03*
D14*
X159050000Y-24542500D03*
D15*
X159300000Y-16992500D03*
D17*
X159435000Y-27957500D03*
D14*
X162350000Y-24542500D03*
D18*
X162560000Y-27622500D03*
D12*
X163400000Y-15542500D03*
X163400000Y-29542500D03*
X165100000Y-15542500D03*
X165100000Y-29542500D03*
X166800000Y-15542500D03*
X166800000Y-29542500D03*
D18*
X168910000Y-25082500D03*
D15*
X170900000Y-16992500D03*
D19*
X171350000Y-26592500D03*
D13*
X172200000Y-29542500D03*
D12*
X172300000Y-22792500D03*
D13*
%TO.P,REF\u002A\u002A,1*%
%TO.N,N/C*%
X158000000Y-15542500D03*
%TO.P,REF\u002A\u002A,2*%
X172200000Y-15542500D03*
D12*
%TO.P,REF\u002A\u002A,3*%
X172300000Y-19392500D03*
%TO.P,REF\u002A\u002A,4*%
X157900000Y-19392500D03*
%TO.P,REF\u002A\u002A,5*%
X157900000Y-21092500D03*
%TO.P,REF\u002A\u002A,6*%
X172300000Y-21092500D03*
%TD*%
%TO.P,REF\u002A\u002A,*%
%TO.N,*%
X34293750Y-79942500D03*
D13*
X34393750Y-86692500D03*
D14*
X35443750Y-81692500D03*
D15*
X35693750Y-74142500D03*
D17*
X35828750Y-85107500D03*
D14*
X38743750Y-81692500D03*
D18*
X38953750Y-84772500D03*
D12*
X39793750Y-72692500D03*
X39793750Y-86692500D03*
X41493750Y-72692500D03*
X41493750Y-86692500D03*
X43193750Y-72692500D03*
X43193750Y-86692500D03*
D18*
X45303750Y-82232500D03*
D15*
X47293750Y-74142500D03*
D19*
X47743750Y-83742500D03*
D13*
X48593750Y-86692500D03*
D12*
X48693750Y-79942500D03*
D13*
%TO.P,REF\u002A\u002A,1*%
%TO.N,N/C*%
X34393750Y-72692500D03*
%TO.P,REF\u002A\u002A,2*%
X48593750Y-72692500D03*
D12*
%TO.P,REF\u002A\u002A,3*%
X48693750Y-76542500D03*
%TO.P,REF\u002A\u002A,4*%
X34293750Y-76542500D03*
%TO.P,REF\u002A\u002A,5*%
X34293750Y-78242500D03*
%TO.P,REF\u002A\u002A,6*%
X48693750Y-78242500D03*
%TD*%
%TO.P,REF\u002A\u002A,*%
%TO.N,*%
X111862500Y-7870000D03*
D13*
X111962500Y-14620000D03*
D14*
X113012500Y-9620000D03*
D15*
X113262500Y-2070000D03*
D16*
X114062500Y-11420000D03*
X114662500Y-12320000D03*
D14*
X116312500Y-9620000D03*
D12*
X117362500Y-620000D03*
X117362500Y-14620000D03*
X119062500Y-620000D03*
D16*
X119062500Y-13520000D03*
D12*
X119062500Y-14620000D03*
D16*
X119562500Y-13520000D03*
D12*
X120762500Y-620000D03*
X120762500Y-14620000D03*
D16*
X121662500Y-13370000D03*
X123762500Y-10720000D03*
D15*
X124862500Y-2070000D03*
D13*
X126162500Y-14620000D03*
D12*
X126262500Y-7870000D03*
D13*
%TO.P,REF\u002A\u002A,1*%
%TO.N,N/C*%
X111962500Y-620000D03*
%TO.P,REF\u002A\u002A,2*%
X126162500Y-620000D03*
D12*
%TO.P,REF\u002A\u002A,3*%
X126262500Y-4470000D03*
%TO.P,REF\u002A\u002A,4*%
X111862500Y-4470000D03*
%TO.P,REF\u002A\u002A,5*%
X111862500Y-6170000D03*
%TO.P,REF\u002A\u002A,6*%
X126262500Y-6170000D03*
%TD*%
%TO.P,REF\u002A\u002A,*%
%TO.N,*%
X34690625Y-37080000D03*
D13*
X34790625Y-43830000D03*
D14*
X35840625Y-38830000D03*
D15*
X36090625Y-31280000D03*
D17*
X36225625Y-42245000D03*
D14*
X39140625Y-38830000D03*
D18*
X39350625Y-41910000D03*
D12*
X40190625Y-29830000D03*
X40190625Y-43830000D03*
X41890625Y-29830000D03*
X41890625Y-43830000D03*
X43590625Y-29830000D03*
X43590625Y-43830000D03*
D18*
X45700625Y-39370000D03*
D15*
X47690625Y-31280000D03*
D19*
X48140625Y-40880000D03*
D13*
X48990625Y-43830000D03*
D12*
X49090625Y-37080000D03*
D13*
%TO.P,REF\u002A\u002A,1*%
%TO.N,N/C*%
X34790625Y-29830000D03*
%TO.P,REF\u002A\u002A,2*%
X48990625Y-29830000D03*
D12*
%TO.P,REF\u002A\u002A,3*%
X49090625Y-33680000D03*
%TO.P,REF\u002A\u002A,4*%
X34690625Y-33680000D03*
%TO.P,REF\u002A\u002A,5*%
X34690625Y-35380000D03*
%TO.P,REF\u002A\u002A,6*%
X49090625Y-35380000D03*
%TD*%
%TO.P,REF\u002A\u002A,*%
%TO.N,*%
X127340625Y6417500D03*
D13*
X127440625Y-332500D03*
D14*
X128490625Y4667500D03*
D15*
X128740625Y12217500D03*
D17*
X128875625Y1252500D03*
D14*
X131790625Y4667500D03*
D18*
X132000625Y1587500D03*
D12*
X132840625Y13667500D03*
X132840625Y-332500D03*
X134540625Y13667500D03*
X134540625Y-332500D03*
X136240625Y13667500D03*
X136240625Y-332500D03*
D18*
X138350625Y4127500D03*
D15*
X140340625Y12217500D03*
D19*
X140790625Y2617500D03*
D13*
X141640625Y-332500D03*
D12*
X141740625Y6417500D03*
D13*
%TO.P,REF\u002A\u002A,1*%
%TO.N,N/C*%
X127440625Y13667500D03*
%TO.P,REF\u002A\u002A,2*%
X141640625Y13667500D03*
D12*
%TO.P,REF\u002A\u002A,3*%
X141740625Y9817500D03*
%TO.P,REF\u002A\u002A,4*%
X127340625Y9817500D03*
%TO.P,REF\u002A\u002A,5*%
X127340625Y8117500D03*
%TO.P,REF\u002A\u002A,6*%
X141740625Y8117500D03*
%TD*%
%TO.P,REF\u002A\u002A,*%
%TO.N,*%
X127340625Y-22792500D03*
D13*
X127440625Y-29542500D03*
D14*
X128490625Y-24542500D03*
D15*
X128740625Y-16992500D03*
D17*
X128875625Y-27957500D03*
D14*
X131790625Y-24542500D03*
D18*
X132000625Y-27622500D03*
D12*
X132840625Y-15542500D03*
X132840625Y-29542500D03*
X134540625Y-15542500D03*
X134540625Y-29542500D03*
X136240625Y-15542500D03*
X136240625Y-29542500D03*
D18*
X138350625Y-25082500D03*
D15*
X140340625Y-16992500D03*
D19*
X140790625Y-26592500D03*
D13*
X141640625Y-29542500D03*
D12*
X141740625Y-22792500D03*
D13*
%TO.P,REF\u002A\u002A,1*%
%TO.N,N/C*%
X127440625Y-15542500D03*
%TO.P,REF\u002A\u002A,2*%
X141640625Y-15542500D03*
D12*
%TO.P,REF\u002A\u002A,3*%
X141740625Y-19392500D03*
%TO.P,REF\u002A\u002A,4*%
X127340625Y-19392500D03*
%TO.P,REF\u002A\u002A,5*%
X127340625Y-21092500D03*
%TO.P,REF\u002A\u002A,6*%
X141740625Y-21092500D03*
%TD*%
%TO.P,REF\u002A\u002A,*%
%TO.N,*%
X65250000Y-79942500D03*
D13*
X65350000Y-86692500D03*
D14*
X66400000Y-81692500D03*
D15*
X66650000Y-74142500D03*
D17*
X66785000Y-85107500D03*
D14*
X69700000Y-81692500D03*
D18*
X69910000Y-84772500D03*
D12*
X70750000Y-72692500D03*
X70750000Y-86692500D03*
X72450000Y-72692500D03*
X72450000Y-86692500D03*
X74150000Y-72692500D03*
X74150000Y-86692500D03*
D18*
X76260000Y-82232500D03*
D15*
X78250000Y-74142500D03*
D19*
X78700000Y-83742500D03*
D13*
X79550000Y-86692500D03*
D12*
X79650000Y-79942500D03*
D13*
%TO.P,REF\u002A\u002A,1*%
%TO.N,N/C*%
X65350000Y-72692500D03*
%TO.P,REF\u002A\u002A,2*%
X79550000Y-72692500D03*
D12*
%TO.P,REF\u002A\u002A,3*%
X79650000Y-76542500D03*
%TO.P,REF\u002A\u002A,4*%
X65250000Y-76542500D03*
%TO.P,REF\u002A\u002A,5*%
X65250000Y-78242500D03*
%TO.P,REF\u002A\u002A,6*%
X79650000Y-78242500D03*
%TD*%
%TO.P,REF\u002A\u002A,*%
%TO.N,*%
X126943750Y-79942500D03*
D13*
X127043750Y-86692500D03*
D14*
X128093750Y-81692500D03*
D15*
X128343750Y-74142500D03*
D17*
X128478750Y-85107500D03*
D14*
X131393750Y-81692500D03*
D18*
X131603750Y-84772500D03*
D12*
X132443750Y-72692500D03*
X132443750Y-86692500D03*
X134143750Y-72692500D03*
X134143750Y-86692500D03*
X135843750Y-72692500D03*
X135843750Y-86692500D03*
D18*
X137953750Y-82232500D03*
D15*
X139943750Y-74142500D03*
D19*
X140393750Y-83742500D03*
D13*
X141243750Y-86692500D03*
D12*
X141343750Y-79942500D03*
D13*
%TO.P,REF\u002A\u002A,1*%
%TO.N,N/C*%
X127043750Y-72692500D03*
%TO.P,REF\u002A\u002A,2*%
X141243750Y-72692500D03*
D12*
%TO.P,REF\u002A\u002A,3*%
X141343750Y-76542500D03*
%TO.P,REF\u002A\u002A,4*%
X126943750Y-76542500D03*
%TO.P,REF\u002A\u002A,5*%
X126943750Y-78242500D03*
%TO.P,REF\u002A\u002A,6*%
X141343750Y-78242500D03*
%TD*%
%TO.P,REF\u002A\u002A,*%
%TO.N,*%
X111862500Y6417500D03*
D13*
X111962500Y-332500D03*
D14*
X113012500Y4667500D03*
D15*
X113262500Y12217500D03*
D16*
X114062500Y2867500D03*
X114662500Y1967500D03*
D14*
X116312500Y4667500D03*
D12*
X117362500Y13667500D03*
X117362500Y-332500D03*
X119062500Y13667500D03*
D16*
X119062500Y767500D03*
D12*
X119062500Y-332500D03*
D16*
X119562500Y767500D03*
D12*
X120762500Y13667500D03*
X120762500Y-332500D03*
D16*
X121662500Y917500D03*
X123762500Y3567500D03*
D15*
X124862500Y12217500D03*
D13*
X126162500Y-332500D03*
D12*
X126262500Y6417500D03*
D13*
%TO.P,REF\u002A\u002A,1*%
%TO.N,N/C*%
X111962500Y13667500D03*
%TO.P,REF\u002A\u002A,2*%
X126162500Y13667500D03*
D12*
%TO.P,REF\u002A\u002A,3*%
X126262500Y9817500D03*
%TO.P,REF\u002A\u002A,4*%
X111862500Y9817500D03*
%TO.P,REF\u002A\u002A,5*%
X111862500Y8117500D03*
%TO.P,REF\u002A\u002A,6*%
X126262500Y8117500D03*
%TD*%
M02*
