%TF.GenerationSoftware,KiCad,Pcbnew,7.0.2*%
%TF.CreationDate,2023-05-08T22:29:03+02:00*%
%TF.ProjectId,verasity_PCB,76657261-7369-4747-995f-5043422e6b69,rev?*%
%TF.SameCoordinates,Original*%
%TF.FileFunction,Paste,Top*%
%TF.FilePolarity,Positive*%
%FSLAX46Y46*%
G04 Gerber Fmt 4.6, Leading zero omitted, Abs format (unit mm)*
G04 Created by KiCad (PCBNEW 7.0.2) date 2023-05-08 22:29:03*
%MOMM*%
%LPD*%
G01*
G04 APERTURE LIST*
%ADD10R,1.400000X0.800000*%
%ADD11R,0.500000X0.500000*%
G04 APERTURE END LIST*
D10*
%TO.C,REF\u002A\u002A*%
X147929375Y-60059375D03*
X147929375Y-61509375D03*
X153129375Y-60059375D03*
X153129375Y-61509375D03*
%TD*%
%TO.C,REF\u002A\u002A*%
X86156250Y-17117500D03*
X86156250Y-18567500D03*
X91356250Y-17117500D03*
X91356250Y-18567500D03*
%TD*%
D11*
%TO.C,REF\u002A\u002A*%
X161750000Y-82842500D03*
X161750000Y-84742500D03*
D10*
X163150000Y-74267500D03*
X163150000Y-75717500D03*
D11*
X167650000Y-82842500D03*
X167650000Y-84742500D03*
D10*
X168350000Y-74267500D03*
X168350000Y-75717500D03*
%TD*%
%TO.C,REF\u002A\u002A*%
X163229375Y-45771875D03*
X163229375Y-47221875D03*
X168429375Y-45771875D03*
X168429375Y-47221875D03*
%TD*%
%TO.C,REF\u002A\u002A*%
X117191875Y-45771875D03*
X117191875Y-47221875D03*
X122391875Y-45771875D03*
X122391875Y-47221875D03*
%TD*%
%TO.C,REF\u002A\u002A*%
X163150000Y-2195000D03*
X163150000Y-3645000D03*
X168350000Y-2195000D03*
X168350000Y-3645000D03*
%TD*%
%TO.C,REF\u002A\u002A*%
X147850000Y12092500D03*
X147850000Y10642500D03*
X153050000Y12092500D03*
X153050000Y10642500D03*
%TD*%
%TO.C,REF\u002A\u002A*%
X39940625Y12092500D03*
X39940625Y10642500D03*
X45140625Y12092500D03*
X45140625Y10642500D03*
%TD*%
%TO.C,REF\u002A\u002A*%
X70976250Y-45771875D03*
X70976250Y-47221875D03*
X76176250Y-45771875D03*
X76176250Y-47221875D03*
%TD*%
%TO.C,REF\u002A\u002A*%
X86235625Y-60059375D03*
X86235625Y-61509375D03*
X91435625Y-60059375D03*
X91435625Y-61509375D03*
%TD*%
%TO.C,REF\u002A\u002A*%
X70500000Y-88555000D03*
X70500000Y-90005000D03*
X75700000Y-88555000D03*
X75700000Y-90005000D03*
%TD*%
%TO.C,REF\u002A\u002A*%
X101853125Y12092500D03*
X101853125Y10642500D03*
X107053125Y12092500D03*
X107053125Y10642500D03*
%TD*%
%TO.C,REF\u002A\u002A*%
X55120625Y26459375D03*
X55120625Y25009375D03*
X60320625Y26459375D03*
X60320625Y25009375D03*
%TD*%
%TO.C,REF\u002A\u002A*%
X163229375Y-60059375D03*
X163229375Y-61509375D03*
X168429375Y-60059375D03*
X168429375Y-61509375D03*
%TD*%
%TO.C,REF\u002A\u002A*%
X39861250Y26459375D03*
X39861250Y25009375D03*
X45061250Y26459375D03*
X45061250Y25009375D03*
%TD*%
%TO.C,REF\u002A\u002A*%
X70896875Y-2195000D03*
X70896875Y-3645000D03*
X76096875Y-2195000D03*
X76096875Y-3645000D03*
%TD*%
%TO.C,REF\u002A\u002A*%
X147453125Y-88555000D03*
X147453125Y-90005000D03*
X152653125Y-88555000D03*
X152653125Y-90005000D03*
%TD*%
%TO.C,REF\u002A\u002A*%
X40020000Y-45771875D03*
X40020000Y-47221875D03*
X45220000Y-45771875D03*
X45220000Y-47221875D03*
%TD*%
%TO.C,REF\u002A\u002A*%
X86076875Y26459375D03*
X86076875Y25009375D03*
X91276875Y26459375D03*
X91276875Y25009375D03*
%TD*%
%TO.C,REF\u002A\u002A*%
X147770625Y40746875D03*
X147770625Y39296875D03*
X152970625Y40746875D03*
X152970625Y39296875D03*
%TD*%
%TO.C,REF\u002A\u002A*%
X86235625Y-45771875D03*
X86235625Y-47221875D03*
X91435625Y-45771875D03*
X91435625Y-47221875D03*
%TD*%
%TO.C,REF\u002A\u002A*%
X101456250Y-74267500D03*
X101456250Y-75717500D03*
X106656250Y-74267500D03*
X106656250Y-75717500D03*
%TD*%
%TO.C,REF\u002A\u002A*%
X132511250Y40746875D03*
X132511250Y39296875D03*
X137711250Y40746875D03*
X137711250Y39296875D03*
%TD*%
%TO.C,REF\u002A\u002A*%
X86076875Y40746875D03*
X86076875Y39296875D03*
X91276875Y40746875D03*
X91276875Y39296875D03*
%TD*%
%TO.C,REF\u002A\u002A*%
X163070625Y40746875D03*
X163070625Y39296875D03*
X168270625Y40746875D03*
X168270625Y39296875D03*
%TD*%
%TO.C,REF\u002A\u002A*%
X70817500Y40746875D03*
X70817500Y39296875D03*
X76017500Y40746875D03*
X76017500Y39296875D03*
%TD*%
%TO.C,REF\u002A\u002A*%
X132670000Y-45771875D03*
X132670000Y-47221875D03*
X137870000Y-45771875D03*
X137870000Y-47221875D03*
%TD*%
%TO.C,REF\u002A\u002A*%
X101932500Y-60059375D03*
X101932500Y-61509375D03*
X107132500Y-60059375D03*
X107132500Y-61509375D03*
%TD*%
%TO.C,REF\u002A\u002A*%
X117112500Y-17117500D03*
X117112500Y-18567500D03*
X122312500Y-17117500D03*
X122312500Y-18567500D03*
%TD*%
%TO.C,REF\u002A\u002A*%
X163070625Y26459375D03*
X163070625Y25009375D03*
X168270625Y26459375D03*
X168270625Y25009375D03*
%TD*%
%TO.C,REF\u002A\u002A*%
X117033125Y26459375D03*
X117033125Y25009375D03*
X122233125Y26459375D03*
X122233125Y25009375D03*
%TD*%
%TO.C,REF\u002A\u002A*%
X163150000Y12092500D03*
X163150000Y10642500D03*
X168350000Y12092500D03*
X168350000Y10642500D03*
%TD*%
%TO.C,REF\u002A\u002A*%
X147453125Y-74267500D03*
X147453125Y-75717500D03*
X152653125Y-74267500D03*
X152653125Y-75717500D03*
%TD*%
%TO.C,REF\u002A\u002A*%
X85759375Y-74267500D03*
X85759375Y-75717500D03*
X90959375Y-74267500D03*
X90959375Y-75717500D03*
%TD*%
%TO.C,REF\u002A\u002A*%
X132511250Y26459375D03*
X132511250Y25009375D03*
X137711250Y26459375D03*
X137711250Y25009375D03*
%TD*%
%TO.C,REF\u002A\u002A*%
X55279375Y-60059375D03*
X55279375Y-61509375D03*
X60479375Y-60059375D03*
X60479375Y-61509375D03*
%TD*%
%TO.C,REF\u002A\u002A*%
X86156250Y-31405000D03*
X86156250Y-32855000D03*
X91356250Y-31405000D03*
X91356250Y-32855000D03*
%TD*%
%TO.C,REF\u002A\u002A*%
X117112500Y-31405000D03*
X117112500Y-32855000D03*
X122312500Y-31405000D03*
X122312500Y-32855000D03*
%TD*%
%TO.C,REF\u002A\u002A*%
X132193750Y-88555000D03*
X132193750Y-90005000D03*
X137393750Y-88555000D03*
X137393750Y-90005000D03*
%TD*%
%TO.C,REF\u002A\u002A*%
X55120625Y40746875D03*
X55120625Y39296875D03*
X60320625Y40746875D03*
X60320625Y39296875D03*
%TD*%
%TO.C,REF\u002A\u002A*%
X116715625Y-88555000D03*
X116715625Y-90005000D03*
X121915625Y-88555000D03*
X121915625Y-90005000D03*
%TD*%
%TO.C,REF\u002A\u002A*%
X85759375Y-88555000D03*
X85759375Y-90005000D03*
X90959375Y-88555000D03*
X90959375Y-90005000D03*
%TD*%
%TO.C,REF\u002A\u002A*%
X54803125Y-88555000D03*
X54803125Y-90005000D03*
X60003125Y-88555000D03*
X60003125Y-90005000D03*
%TD*%
%TO.C,REF\u002A\u002A*%
X70817500Y26459375D03*
X70817500Y25009375D03*
X76017500Y26459375D03*
X76017500Y25009375D03*
%TD*%
%TO.C,REF\u002A\u002A*%
X147770625Y26459375D03*
X147770625Y25009375D03*
X152970625Y26459375D03*
X152970625Y25009375D03*
%TD*%
%TO.C,REF\u002A\u002A*%
X55279375Y-45771875D03*
X55279375Y-47221875D03*
X60479375Y-45771875D03*
X60479375Y-47221875D03*
%TD*%
%TO.C,REF\u002A\u002A*%
X86156250Y-2195000D03*
X86156250Y-3645000D03*
X91356250Y-2195000D03*
X91356250Y-3645000D03*
%TD*%
%TO.C,REF\u002A\u002A*%
X39543750Y-88555000D03*
X39543750Y-90005000D03*
X44743750Y-88555000D03*
X44743750Y-90005000D03*
%TD*%
%TO.C,REF\u002A\u002A*%
X101773750Y40746875D03*
X101773750Y39296875D03*
X106973750Y40746875D03*
X106973750Y39296875D03*
%TD*%
%TO.C,REF\u002A\u002A*%
X147850000Y-2195000D03*
X147850000Y-3645000D03*
X153050000Y-2195000D03*
X153050000Y-3645000D03*
%TD*%
%TO.C,REF\u002A\u002A*%
X54803125Y-74267500D03*
X54803125Y-75717500D03*
X60003125Y-74267500D03*
X60003125Y-75717500D03*
%TD*%
%TO.C,REF\u002A\u002A*%
X55200000Y-17117500D03*
X55200000Y-18567500D03*
X60400000Y-17117500D03*
X60400000Y-18567500D03*
%TD*%
%TO.C,REF\u002A\u002A*%
X117033125Y40746875D03*
X117033125Y39296875D03*
X122233125Y40746875D03*
X122233125Y39296875D03*
%TD*%
%TO.C,REF\u002A\u002A*%
X55200000Y-2195000D03*
X55200000Y-3645000D03*
X60400000Y-2195000D03*
X60400000Y-3645000D03*
%TD*%
%TO.C,REF\u002A\u002A*%
X70896875Y-17117500D03*
X70896875Y-18567500D03*
X76096875Y-17117500D03*
X76096875Y-18567500D03*
%TD*%
%TO.C,REF\u002A\u002A*%
X132670000Y-60059375D03*
X132670000Y-61509375D03*
X137870000Y-60059375D03*
X137870000Y-61509375D03*
%TD*%
%TO.C,REF\u002A\u002A*%
X101853125Y-31405000D03*
X101853125Y-32855000D03*
X107053125Y-31405000D03*
X107053125Y-32855000D03*
%TD*%
%TO.C,REF\u002A\u002A*%
X147850000Y-17117500D03*
X147850000Y-18567500D03*
X153050000Y-17117500D03*
X153050000Y-18567500D03*
%TD*%
%TO.C,REF\u002A\u002A*%
X101853125Y-17117500D03*
X101853125Y-18567500D03*
X107053125Y-17117500D03*
X107053125Y-18567500D03*
%TD*%
%TO.C,REF\u002A\u002A*%
X55200000Y12092500D03*
X55200000Y10642500D03*
X60400000Y12092500D03*
X60400000Y10642500D03*
%TD*%
%TO.C,REF\u002A\u002A*%
X40020000Y-60059375D03*
X40020000Y-61509375D03*
X45220000Y-60059375D03*
X45220000Y-61509375D03*
%TD*%
%TO.C,REF\u002A\u002A*%
X101853125Y-2195000D03*
X101853125Y-3645000D03*
X107053125Y-2195000D03*
X107053125Y-3645000D03*
%TD*%
%TO.C,REF\u002A\u002A*%
X147850000Y-31405000D03*
X147850000Y-32855000D03*
X153050000Y-31405000D03*
X153050000Y-32855000D03*
%TD*%
%TO.C,REF\u002A\u002A*%
X117191875Y-60059375D03*
X117191875Y-61509375D03*
X122391875Y-60059375D03*
X122391875Y-61509375D03*
%TD*%
%TO.C,REF\u002A\u002A*%
X116715625Y-74267500D03*
X116715625Y-75717500D03*
X121915625Y-74267500D03*
X121915625Y-75717500D03*
%TD*%
%TO.C,REF\u002A\u002A*%
X39940625Y-17117500D03*
X39940625Y-18567500D03*
X45140625Y-17117500D03*
X45140625Y-18567500D03*
%TD*%
%TO.C,REF\u002A\u002A*%
X163150000Y-31405000D03*
X163150000Y-32855000D03*
X168350000Y-31405000D03*
X168350000Y-32855000D03*
%TD*%
%TO.C,REF\u002A\u002A*%
X101456250Y-88555000D03*
X101456250Y-90005000D03*
X106656250Y-88555000D03*
X106656250Y-90005000D03*
%TD*%
%TO.C,REF\u002A\u002A*%
X132590625Y-31405000D03*
X132590625Y-32855000D03*
X137790625Y-31405000D03*
X137790625Y-32855000D03*
%TD*%
%TO.C,REF\u002A\u002A*%
X101932500Y-45771875D03*
X101932500Y-47221875D03*
X107132500Y-45771875D03*
X107132500Y-47221875D03*
%TD*%
%TO.C,REF\u002A\u002A*%
X70896875Y-31405000D03*
X70896875Y-32855000D03*
X76096875Y-31405000D03*
X76096875Y-32855000D03*
%TD*%
%TO.C,REF\u002A\u002A*%
X39861250Y40746875D03*
X39861250Y39296875D03*
X45061250Y40746875D03*
X45061250Y39296875D03*
%TD*%
%TO.C,REF\u002A\u002A*%
X132590625Y-2195000D03*
X132590625Y-3645000D03*
X137790625Y-2195000D03*
X137790625Y-3645000D03*
%TD*%
%TO.C,REF\u002A\u002A*%
X86156250Y12092500D03*
X86156250Y10642500D03*
X91356250Y12092500D03*
X91356250Y10642500D03*
%TD*%
%TO.C,REF\u002A\u002A*%
X70896875Y12092500D03*
X70896875Y10642500D03*
X76096875Y12092500D03*
X76096875Y10642500D03*
%TD*%
%TO.C,REF\u002A\u002A*%
X55200000Y-31405000D03*
X55200000Y-32855000D03*
X60400000Y-31405000D03*
X60400000Y-32855000D03*
%TD*%
%TO.C,REF\u002A\u002A*%
X70976250Y-60059375D03*
X70976250Y-61509375D03*
X76176250Y-60059375D03*
X76176250Y-61509375D03*
%TD*%
%TO.C,REF\u002A\u002A*%
X101773750Y26459375D03*
X101773750Y25009375D03*
X106973750Y26459375D03*
X106973750Y25009375D03*
%TD*%
%TO.C,REF\u002A\u002A*%
X39940625Y-2195000D03*
X39940625Y-3645000D03*
X45140625Y-2195000D03*
X45140625Y-3645000D03*
%TD*%
D11*
%TO.C,REF\u002A\u002A*%
X161750000Y-97130000D03*
X161750000Y-99030000D03*
D10*
X163150000Y-88555000D03*
X163150000Y-90005000D03*
D11*
X167650000Y-97130000D03*
X167650000Y-99030000D03*
D10*
X168350000Y-88555000D03*
X168350000Y-90005000D03*
%TD*%
%TO.C,REF\u002A\u002A*%
X147929375Y-45771875D03*
X147929375Y-47221875D03*
X153129375Y-45771875D03*
X153129375Y-47221875D03*
%TD*%
%TO.C,REF\u002A\u002A*%
X163150000Y-17117500D03*
X163150000Y-18567500D03*
X168350000Y-17117500D03*
X168350000Y-18567500D03*
%TD*%
%TO.C,REF\u002A\u002A*%
X39543750Y-74267500D03*
X39543750Y-75717500D03*
X44743750Y-74267500D03*
X44743750Y-75717500D03*
%TD*%
%TO.C,REF\u002A\u002A*%
X117112500Y-2195000D03*
X117112500Y-3645000D03*
X122312500Y-2195000D03*
X122312500Y-3645000D03*
%TD*%
%TO.C,REF\u002A\u002A*%
X39940625Y-31405000D03*
X39940625Y-32855000D03*
X45140625Y-31405000D03*
X45140625Y-32855000D03*
%TD*%
%TO.C,REF\u002A\u002A*%
X132590625Y12092500D03*
X132590625Y10642500D03*
X137790625Y12092500D03*
X137790625Y10642500D03*
%TD*%
%TO.C,REF\u002A\u002A*%
X132590625Y-17117500D03*
X132590625Y-18567500D03*
X137790625Y-17117500D03*
X137790625Y-18567500D03*
%TD*%
%TO.C,REF\u002A\u002A*%
X70500000Y-74267500D03*
X70500000Y-75717500D03*
X75700000Y-74267500D03*
X75700000Y-75717500D03*
%TD*%
%TO.C,REF\u002A\u002A*%
X132193750Y-74267500D03*
X132193750Y-75717500D03*
X137393750Y-74267500D03*
X137393750Y-75717500D03*
%TD*%
%TO.C,REF\u002A\u002A*%
X117112500Y12092500D03*
X117112500Y10642500D03*
X122312500Y12092500D03*
X122312500Y10642500D03*
%TD*%
M02*
