M48
; DRILL file {KiCad 7.0.2} date Mon 08 May 2023 10:29:05 PM CEST
; FORMAT={-:-/ absolute / metric / decimal}
; #@! TF.CreationDate,2023-05-08T22:29:05+02:00
; #@! TF.GenerationSoftware,Kicad,Pcbnew,7.0.2
; #@! TF.FileFunction,NonPlated,1,2,NPTH
FMAT,2
METRIC
; #@! TA.AperFunction,NonPlated,NPTH,ComponentDrill
T1C1.702
; #@! TA.AperFunction,NonPlated,NPTH,ComponentDrill
T2C1.900
; #@! TA.AperFunction,NonPlated,NPTH,ComponentDrill
T3C3.300
; #@! TA.AperFunction,NonPlated,NPTH,ComponentDrill
T4C3.350
; #@! TA.AperFunction,NonPlated,NPTH,ComponentDrill
T5C3.400
; #@! TA.AperFunction,NonPlated,NPTH,ComponentDrill
T6C3.800
; #@! TA.AperFunction,NonPlated,NPTH,ComponentDrill
T7C4.280
%
G90
G05
T1
X35.994Y-79.692
X35.994Y-93.98
X36.311Y35.322
X36.311Y21.034
X36.391Y6.667
X36.391Y-7.62
X36.391Y-22.543
X36.391Y-36.83
X36.47Y-51.197
X36.47Y-65.484
X46.994Y-79.692
X46.994Y-93.98
X47.311Y35.322
X47.311Y21.034
X47.391Y6.667
X47.391Y-7.62
X47.391Y-22.543
X47.391Y-36.83
X47.47Y-51.197
X47.47Y-65.484
X66.95Y-79.692
X66.95Y-93.98
X67.267Y35.322
X67.267Y21.034
X67.347Y6.667
X67.347Y-7.62
X67.347Y-22.543
X67.347Y-36.83
X67.426Y-51.197
X67.426Y-65.484
X77.95Y-79.692
X77.95Y-93.98
X78.267Y35.322
X78.267Y21.034
X78.347Y6.667
X78.347Y-7.62
X78.347Y-22.543
X78.347Y-36.83
X78.426Y-51.197
X78.426Y-65.484
X97.906Y-79.692
X97.906Y-93.98
X98.224Y35.322
X98.224Y21.034
X98.303Y6.667
X98.303Y-7.62
X98.303Y-22.543
X98.303Y-36.83
X98.382Y-51.197
X98.382Y-65.484
X108.906Y-79.692
X108.906Y-93.98
X109.224Y35.322
X109.224Y21.034
X109.303Y6.667
X109.303Y-7.62
X109.303Y-22.543
X109.303Y-36.83
X109.382Y-51.197
X109.382Y-65.484
X128.644Y-79.692
X128.644Y-93.98
X128.961Y35.322
X128.961Y21.034
X129.041Y6.667
X129.041Y-7.62
X129.041Y-22.543
X129.041Y-36.83
X129.12Y-51.197
X129.12Y-65.484
X139.644Y-79.692
X139.644Y-93.98
X139.961Y35.322
X139.961Y21.034
X140.041Y6.667
X140.041Y-7.62
X140.041Y-22.543
X140.041Y-36.83
X140.12Y-51.197
X140.12Y-65.484
X159.521Y35.322
X159.6Y6.667
X159.6Y-22.543
X159.6Y-79.692
X159.6Y-93.98
X159.679Y-51.197
X170.521Y35.322
X170.6Y6.667
X170.6Y-22.543
X170.6Y-79.692
X170.6Y-93.98
X170.679Y-51.197
T2
X51.253Y-79.692
X51.253Y-93.98
X51.571Y35.322
X51.571Y21.034
X51.65Y6.667
X51.65Y-7.62
X51.65Y-22.543
X51.65Y-36.83
X51.729Y-51.197
X51.729Y-65.484
X62.253Y-79.692
X62.253Y-93.98
X62.571Y35.322
X62.571Y21.034
X62.65Y6.667
X62.65Y-7.62
X62.65Y-22.543
X62.65Y-36.83
X62.729Y-51.197
X62.729Y-65.484
X82.209Y-79.692
X82.209Y-93.98
X82.527Y35.322
X82.527Y21.034
X82.606Y6.667
X82.606Y-7.62
X82.606Y-22.543
X82.606Y-36.83
X82.686Y-51.197
X82.686Y-65.484
X93.209Y-79.692
X93.209Y-93.98
X93.527Y35.322
X93.527Y21.034
X93.606Y6.667
X93.606Y-7.62
X93.606Y-22.543
X93.606Y-36.83
X93.686Y-51.197
X93.686Y-65.484
X113.166Y-79.692
X113.166Y-93.98
X113.483Y35.322
X113.483Y21.034
X113.562Y6.667
X113.562Y-7.62
X113.562Y-22.543
X113.562Y-36.83
X113.642Y-51.197
X113.642Y-65.484
X124.166Y-79.692
X124.166Y-93.98
X124.483Y35.322
X124.483Y21.034
X124.562Y6.667
X124.562Y-7.62
X124.562Y-22.543
X124.562Y-36.83
X124.642Y-51.197
X124.642Y-65.484
X143.903Y-79.692
X143.903Y-93.98
X144.221Y35.322
X144.221Y21.034
X144.3Y6.667
X144.3Y-7.62
X144.3Y-22.543
X144.3Y-36.83
X144.379Y-51.197
X144.379Y-65.484
X154.903Y-79.692
X154.903Y-93.98
X155.221Y35.322
X155.221Y21.034
X155.3Y6.667
X155.3Y-7.62
X155.3Y-22.543
X155.3Y-36.83
X155.379Y-51.197
X155.379Y-65.484
X159.521Y21.034
X159.6Y-7.62
X159.6Y-36.83
X159.679Y-65.484
X170.521Y21.034
X170.6Y-7.62
X170.6Y-36.83
X170.679Y-65.484
T3
X42.144Y-74.992
X42.144Y-89.28
X42.461Y40.022
X42.461Y25.734
X42.541Y11.367
X42.541Y-2.92
X42.541Y-17.842
X42.541Y-32.13
X42.62Y-46.497
X42.62Y-60.784
X57.403Y-74.992
X57.403Y-89.28
X57.721Y40.022
X57.721Y25.734
X57.8Y11.367
X57.8Y-2.92
X57.8Y-17.842
X57.8Y-32.13
X57.879Y-46.497
X57.879Y-60.784
X73.1Y-74.992
X73.1Y-89.28
X73.417Y40.022
X73.417Y25.734
X73.497Y11.367
X73.497Y-2.92
X73.497Y-17.842
X73.497Y-32.13
X73.576Y-46.497
X73.576Y-60.784
X88.359Y-74.992
X88.359Y-89.28
X88.677Y40.022
X88.677Y25.734
X88.756Y11.367
X88.756Y-2.92
X88.756Y-17.842
X88.756Y-32.13
X88.836Y-46.497
X88.836Y-60.784
X104.056Y-74.992
X104.056Y-89.28
X104.374Y40.022
X104.374Y25.734
X104.453Y11.367
X104.453Y-2.92
X104.453Y-17.842
X104.453Y-32.13
X104.532Y-46.497
X104.532Y-60.784
X119.316Y-74.992
X119.316Y-89.28
X119.633Y40.022
X119.633Y25.734
X119.712Y11.367
X119.712Y-2.92
X119.712Y-17.842
X119.712Y-32.13
X119.792Y-46.497
X119.792Y-60.784
X134.794Y-74.992
X134.794Y-89.28
X135.111Y40.022
X135.111Y25.734
X135.191Y11.367
X135.191Y-2.92
X135.191Y-17.842
X135.191Y-32.13
X135.27Y-46.497
X135.27Y-60.784
X150.053Y-74.992
X150.053Y-89.28
X150.371Y40.022
X150.371Y25.734
X150.45Y11.367
X150.45Y-2.92
X150.45Y-17.842
X150.45Y-32.13
X150.529Y-46.497
X150.529Y-60.784
X165.671Y40.022
X165.671Y25.734
X165.75Y11.367
X165.75Y-2.92
X165.75Y-17.842
X165.75Y-32.13
X165.75Y-74.992
X165.75Y-89.28
X165.829Y-46.497
X165.829Y-60.784
T5
X165.1Y-79.692
X165.1Y-93.98
T6
X41.494Y-79.692
X41.494Y-93.98
X41.811Y35.322
X41.811Y21.034
X41.891Y6.667
X41.891Y-7.62
X41.891Y-22.543
X41.891Y-36.83
X41.97Y-51.197
X41.97Y-65.484
X72.45Y-79.692
X72.45Y-93.98
X72.767Y35.322
X72.767Y21.034
X72.847Y6.667
X72.847Y-7.62
X72.847Y-22.543
X72.847Y-36.83
X72.926Y-51.197
X72.926Y-65.484
X103.406Y-79.692
X103.406Y-93.98
X103.724Y35.322
X103.724Y21.034
X103.803Y6.667
X103.803Y-7.62
X103.803Y-22.543
X103.803Y-36.83
X103.882Y-51.197
X103.882Y-65.484
X134.144Y-79.692
X134.144Y-93.98
X134.461Y35.322
X134.461Y21.034
X134.541Y6.667
X134.541Y-7.62
X134.541Y-22.543
X134.541Y-36.83
X134.62Y-51.197
X134.62Y-65.484
X165.021Y35.322
X165.1Y6.667
X165.1Y-22.543
X165.179Y-51.197
T7
X56.753Y-79.692
X56.753Y-93.98
X57.071Y35.322
X57.071Y21.034
X57.15Y6.667
X57.15Y-7.62
X57.15Y-22.543
X57.15Y-36.83
X57.229Y-51.197
X57.229Y-65.484
X87.709Y-79.692
X87.709Y-93.98
X88.027Y35.322
X88.027Y21.034
X88.106Y6.667
X88.106Y-7.62
X88.106Y-22.543
X88.106Y-36.83
X88.186Y-51.197
X88.186Y-65.484
X118.666Y-79.692
X118.666Y-93.98
X118.983Y35.322
X118.983Y21.034
X119.062Y6.667
X119.062Y-7.62
X119.062Y-22.543
X119.062Y-36.83
X119.142Y-51.197
X119.142Y-65.484
X149.403Y-79.692
X149.403Y-93.98
X149.721Y35.322
X149.721Y21.034
X149.8Y6.667
X149.8Y-7.62
X149.8Y-22.543
X149.8Y-36.83
X149.879Y-51.197
X149.879Y-65.484
X165.021Y21.034
X165.1Y-7.62
X165.1Y-36.83
X165.179Y-65.484
T4
X42.959Y-74.995G85X41.309Y-74.995
G05
X42.959Y-89.282G85X41.309Y-89.282
G05
X43.276Y40.02G85X41.626Y40.02
G05
X43.276Y25.732G85X41.626Y25.732
G05
X43.356Y11.365G85X41.706Y11.365
G05
X43.356Y-2.922G85X41.706Y-2.922
G05
X43.356Y-17.845G85X41.706Y-17.845
G05
X43.356Y-32.132G85X41.706Y-32.132
G05
X43.435Y-46.499G85X41.785Y-46.499
G05
X43.435Y-60.786G85X41.785Y-60.786
G05
X58.218Y-74.995G85X56.568Y-74.995
G05
X58.218Y-89.282G85X56.568Y-89.282
G05
X58.536Y40.02G85X56.886Y40.02
G05
X58.536Y25.732G85X56.886Y25.732
G05
X58.615Y11.365G85X56.965Y11.365
G05
X58.615Y-2.922G85X56.965Y-2.922
G05
X58.615Y-17.845G85X56.965Y-17.845
G05
X58.615Y-32.132G85X56.965Y-32.132
G05
X58.694Y-46.499G85X57.044Y-46.499
G05
X58.694Y-60.786G85X57.044Y-60.786
G05
X73.915Y-74.995G85X72.265Y-74.995
G05
X73.915Y-89.282G85X72.265Y-89.282
G05
X74.233Y40.02G85X72.582Y40.02
G05
X74.233Y25.732G85X72.582Y25.732
G05
X74.312Y11.365G85X72.662Y11.365
G05
X74.312Y-2.922G85X72.662Y-2.922
G05
X74.312Y-17.845G85X72.662Y-17.845
G05
X74.312Y-32.132G85X72.662Y-32.132
G05
X74.391Y-46.499G85X72.741Y-46.499
G05
X74.391Y-60.786G85X72.741Y-60.786
G05
X89.174Y-74.995G85X87.524Y-74.995
G05
X89.174Y-89.282G85X87.524Y-89.282
G05
X89.492Y40.02G85X87.842Y40.02
G05
X89.492Y25.732G85X87.842Y25.732
G05
X89.571Y11.365G85X87.921Y11.365
G05
X89.571Y-2.922G85X87.921Y-2.922
G05
X89.571Y-17.845G85X87.921Y-17.845
G05
X89.571Y-32.132G85X87.921Y-32.132
G05
X89.651Y-46.499G85X88.001Y-46.499
G05
X89.651Y-60.786G85X88.001Y-60.786
G05
X104.871Y-74.995G85X103.221Y-74.995
G05
X104.871Y-89.282G85X103.221Y-89.282
G05
X105.189Y40.02G85X103.539Y40.02
G05
X105.189Y25.732G85X103.539Y25.732
G05
X105.268Y11.365G85X103.618Y11.365
G05
X105.268Y-2.922G85X103.618Y-2.922
G05
X105.268Y-17.845G85X103.618Y-17.845
G05
X105.268Y-32.132G85X103.618Y-32.132
G05
X105.347Y-46.499G85X103.697Y-46.499
G05
X105.347Y-60.786G85X103.697Y-60.786
G05
X120.131Y-74.995G85X118.481Y-74.995
G05
X120.131Y-89.282G85X118.481Y-89.282
G05
X120.448Y40.02G85X118.798Y40.02
G05
X120.448Y25.732G85X118.798Y25.732
G05
X120.527Y11.365G85X118.877Y11.365
G05
X120.527Y-2.922G85X118.877Y-2.922
G05
X120.527Y-17.845G85X118.877Y-17.845
G05
X120.527Y-32.132G85X118.877Y-32.132
G05
X120.607Y-46.499G85X118.957Y-46.499
G05
X120.607Y-60.786G85X118.957Y-60.786
G05
X135.609Y-74.995G85X133.959Y-74.995
G05
X135.609Y-89.282G85X133.959Y-89.282
G05
X135.926Y40.02G85X134.276Y40.02
G05
X135.926Y25.732G85X134.276Y25.732
G05
X136.006Y11.365G85X134.356Y11.365
G05
X136.006Y-2.922G85X134.356Y-2.922
G05
X136.006Y-17.845G85X134.356Y-17.845
G05
X136.006Y-32.132G85X134.356Y-32.132
G05
X136.085Y-46.499G85X134.435Y-46.499
G05
X136.085Y-60.786G85X134.435Y-60.786
G05
X150.868Y-74.995G85X149.218Y-74.995
G05
X150.868Y-89.282G85X149.218Y-89.282
G05
X151.186Y40.02G85X149.536Y40.02
G05
X151.186Y25.732G85X149.536Y25.732
G05
X151.265Y11.365G85X149.615Y11.365
G05
X151.265Y-2.922G85X149.615Y-2.922
G05
X151.265Y-17.845G85X149.615Y-17.845
G05
X151.265Y-32.132G85X149.615Y-32.132
G05
X151.344Y-46.499G85X149.694Y-46.499
G05
X151.344Y-60.786G85X149.694Y-60.786
G05
X166.486Y40.02G85X164.836Y40.02
G05
X166.486Y25.732G85X164.836Y25.732
G05
X166.565Y11.365G85X164.915Y11.365
G05
X166.565Y-2.922G85X164.915Y-2.922
G05
X166.565Y-17.845G85X164.915Y-17.845
G05
X166.565Y-32.132G85X164.915Y-32.132
G05
X166.565Y-74.995G85X164.915Y-74.995
G05
X166.565Y-89.282G85X164.915Y-89.282
G05
X166.644Y-46.499G85X164.994Y-46.499
G05
X166.644Y-60.786G85X164.994Y-60.786
G05
T0
M30
