%TF.GenerationSoftware,KiCad,Pcbnew,7.0.2*%
%TF.CreationDate,2023-05-08T22:42:50+02:00*%
%TF.ProjectId,verasity_PCB,76657261-7369-4747-995f-5043422e6b69,rev?*%
%TF.SameCoordinates,Original*%
%TF.FileFunction,Legend,Top*%
%TF.FilePolarity,Positive*%
%FSLAX46Y46*%
G04 Gerber Fmt 4.6, Leading zero omitted, Abs format (unit mm)*
G04 Created by KiCad (PCBNEW 7.0.2) date 2023-05-08 22:42:50*
%MOMM*%
%LPD*%
G01*
G04 APERTURE LIST*
%ADD10C,0.100000*%
%ADD11C,0.150000*%
G04 APERTURE END LIST*
D10*
%TO.C,REF\u002A\u002A*%
X69786666Y-81882619D02*
X69453333Y-81406428D01*
X69215238Y-81882619D02*
X69215238Y-80882619D01*
X69215238Y-80882619D02*
X69596190Y-80882619D01*
X69596190Y-80882619D02*
X69691428Y-80930238D01*
X69691428Y-80930238D02*
X69739047Y-80977857D01*
X69739047Y-80977857D02*
X69786666Y-81073095D01*
X69786666Y-81073095D02*
X69786666Y-81215952D01*
X69786666Y-81215952D02*
X69739047Y-81311190D01*
X69739047Y-81311190D02*
X69691428Y-81358809D01*
X69691428Y-81358809D02*
X69596190Y-81406428D01*
X69596190Y-81406428D02*
X69215238Y-81406428D01*
X70215238Y-81358809D02*
X70548571Y-81358809D01*
X70691428Y-81882619D02*
X70215238Y-81882619D01*
X70215238Y-81882619D02*
X70215238Y-80882619D01*
X70215238Y-80882619D02*
X70691428Y-80882619D01*
X71453333Y-81358809D02*
X71120000Y-81358809D01*
X71120000Y-81882619D02*
X71120000Y-80882619D01*
X71120000Y-80882619D02*
X71596190Y-80882619D01*
X72120000Y-80882619D02*
X72120000Y-81120714D01*
X71881905Y-81025476D02*
X72120000Y-81120714D01*
X72120000Y-81120714D02*
X72358095Y-81025476D01*
X71977143Y-81311190D02*
X72120000Y-81120714D01*
X72120000Y-81120714D02*
X72262857Y-81311190D01*
X72881905Y-80882619D02*
X72881905Y-81120714D01*
X72643810Y-81025476D02*
X72881905Y-81120714D01*
X72881905Y-81120714D02*
X73120000Y-81025476D01*
X72739048Y-81311190D02*
X72881905Y-81120714D01*
X72881905Y-81120714D02*
X73024762Y-81311190D01*
D11*
X55643806Y-99085000D02*
X55739044Y-99132619D01*
X55739044Y-99132619D02*
X55929520Y-99132619D01*
X55929520Y-99132619D02*
X56024758Y-99085000D01*
X56024758Y-99085000D02*
X56072377Y-98989761D01*
X56072377Y-98989761D02*
X56072377Y-98942142D01*
X56072377Y-98942142D02*
X56024758Y-98846904D01*
X56024758Y-98846904D02*
X55929520Y-98799285D01*
X55929520Y-98799285D02*
X55786663Y-98799285D01*
X55786663Y-98799285D02*
X55691425Y-98751666D01*
X55691425Y-98751666D02*
X55643806Y-98656428D01*
X55643806Y-98656428D02*
X55643806Y-98608809D01*
X55643806Y-98608809D02*
X55691425Y-98513571D01*
X55691425Y-98513571D02*
X55786663Y-98465952D01*
X55786663Y-98465952D02*
X55929520Y-98465952D01*
X55929520Y-98465952D02*
X56024758Y-98513571D01*
X56643806Y-99132619D02*
X56548568Y-99085000D01*
X56548568Y-99085000D02*
X56500949Y-99037380D01*
X56500949Y-99037380D02*
X56453330Y-98942142D01*
X56453330Y-98942142D02*
X56453330Y-98656428D01*
X56453330Y-98656428D02*
X56500949Y-98561190D01*
X56500949Y-98561190D02*
X56548568Y-98513571D01*
X56548568Y-98513571D02*
X56643806Y-98465952D01*
X56643806Y-98465952D02*
X56786663Y-98465952D01*
X56786663Y-98465952D02*
X56881901Y-98513571D01*
X56881901Y-98513571D02*
X56929520Y-98561190D01*
X56929520Y-98561190D02*
X56977139Y-98656428D01*
X56977139Y-98656428D02*
X56977139Y-98942142D01*
X56977139Y-98942142D02*
X56929520Y-99037380D01*
X56929520Y-99037380D02*
X56881901Y-99085000D01*
X56881901Y-99085000D02*
X56786663Y-99132619D01*
X56786663Y-99132619D02*
X56643806Y-99132619D01*
X57834282Y-99085000D02*
X57739044Y-99132619D01*
X57739044Y-99132619D02*
X57548568Y-99132619D01*
X57548568Y-99132619D02*
X57453330Y-99085000D01*
X57453330Y-99085000D02*
X57405711Y-99037380D01*
X57405711Y-99037380D02*
X57358092Y-98942142D01*
X57358092Y-98942142D02*
X57358092Y-98656428D01*
X57358092Y-98656428D02*
X57405711Y-98561190D01*
X57405711Y-98561190D02*
X57453330Y-98513571D01*
X57453330Y-98513571D02*
X57548568Y-98465952D01*
X57548568Y-98465952D02*
X57739044Y-98465952D01*
X57739044Y-98465952D02*
X57834282Y-98513571D01*
X58262854Y-99132619D02*
X58262854Y-98132619D01*
X58358092Y-98751666D02*
X58643806Y-99132619D01*
X58643806Y-98465952D02*
X58262854Y-98846904D01*
X59453330Y-99085000D02*
X59358092Y-99132619D01*
X59358092Y-99132619D02*
X59167616Y-99132619D01*
X59167616Y-99132619D02*
X59072378Y-99085000D01*
X59072378Y-99085000D02*
X59024759Y-98989761D01*
X59024759Y-98989761D02*
X59024759Y-98608809D01*
X59024759Y-98608809D02*
X59072378Y-98513571D01*
X59072378Y-98513571D02*
X59167616Y-98465952D01*
X59167616Y-98465952D02*
X59358092Y-98465952D01*
X59358092Y-98465952D02*
X59453330Y-98513571D01*
X59453330Y-98513571D02*
X59500949Y-98608809D01*
X59500949Y-98608809D02*
X59500949Y-98704047D01*
X59500949Y-98704047D02*
X59024759Y-98799285D01*
X59786664Y-98465952D02*
X60167616Y-98465952D01*
X59929521Y-98132619D02*
X59929521Y-98989761D01*
X59929521Y-98989761D02*
X59977140Y-99085000D01*
X59977140Y-99085000D02*
X60072378Y-99132619D01*
X60072378Y-99132619D02*
X60167616Y-99132619D01*
X60262855Y-99227857D02*
X61024759Y-99227857D01*
X61262855Y-99132619D02*
X61262855Y-98132619D01*
X61358093Y-98751666D02*
X61643807Y-99132619D01*
X61643807Y-98465952D02*
X61262855Y-98846904D01*
X62500950Y-99132619D02*
X62500950Y-98608809D01*
X62500950Y-98608809D02*
X62453331Y-98513571D01*
X62453331Y-98513571D02*
X62358093Y-98465952D01*
X62358093Y-98465952D02*
X62167617Y-98465952D01*
X62167617Y-98465952D02*
X62072379Y-98513571D01*
X62500950Y-99085000D02*
X62405712Y-99132619D01*
X62405712Y-99132619D02*
X62167617Y-99132619D01*
X62167617Y-99132619D02*
X62072379Y-99085000D01*
X62072379Y-99085000D02*
X62024760Y-98989761D01*
X62024760Y-98989761D02*
X62024760Y-98894523D01*
X62024760Y-98894523D02*
X62072379Y-98799285D01*
X62072379Y-98799285D02*
X62167617Y-98751666D01*
X62167617Y-98751666D02*
X62405712Y-98751666D01*
X62405712Y-98751666D02*
X62500950Y-98704047D01*
X63119998Y-99132619D02*
X63024760Y-99085000D01*
X63024760Y-99085000D02*
X62977141Y-98989761D01*
X62977141Y-98989761D02*
X62977141Y-98132619D01*
X63500951Y-99132619D02*
X63500951Y-98465952D01*
X63500951Y-98132619D02*
X63453332Y-98180238D01*
X63453332Y-98180238D02*
X63500951Y-98227857D01*
X63500951Y-98227857D02*
X63548570Y-98180238D01*
X63548570Y-98180238D02*
X63500951Y-98132619D01*
X63500951Y-98132619D02*
X63500951Y-98227857D01*
X63977141Y-99132619D02*
X63977141Y-98132619D01*
X64405712Y-99132619D02*
X64405712Y-98608809D01*
X64405712Y-98608809D02*
X64358093Y-98513571D01*
X64358093Y-98513571D02*
X64262855Y-98465952D01*
X64262855Y-98465952D02*
X64119998Y-98465952D01*
X64119998Y-98465952D02*
X64024760Y-98513571D01*
X64024760Y-98513571D02*
X63977141Y-98561190D01*
X64643808Y-99227857D02*
X65405712Y-99227857D01*
X66072379Y-98465952D02*
X66072379Y-99275476D01*
X66072379Y-99275476D02*
X66024760Y-99370714D01*
X66024760Y-99370714D02*
X65977141Y-99418333D01*
X65977141Y-99418333D02*
X65881903Y-99465952D01*
X65881903Y-99465952D02*
X65739046Y-99465952D01*
X65739046Y-99465952D02*
X65643808Y-99418333D01*
X66072379Y-99085000D02*
X65977141Y-99132619D01*
X65977141Y-99132619D02*
X65786665Y-99132619D01*
X65786665Y-99132619D02*
X65691427Y-99085000D01*
X65691427Y-99085000D02*
X65643808Y-99037380D01*
X65643808Y-99037380D02*
X65596189Y-98942142D01*
X65596189Y-98942142D02*
X65596189Y-98656428D01*
X65596189Y-98656428D02*
X65643808Y-98561190D01*
X65643808Y-98561190D02*
X65691427Y-98513571D01*
X65691427Y-98513571D02*
X65786665Y-98465952D01*
X65786665Y-98465952D02*
X65977141Y-98465952D01*
X65977141Y-98465952D02*
X66072379Y-98513571D01*
X66977141Y-99132619D02*
X66977141Y-98608809D01*
X66977141Y-98608809D02*
X66929522Y-98513571D01*
X66929522Y-98513571D02*
X66834284Y-98465952D01*
X66834284Y-98465952D02*
X66643808Y-98465952D01*
X66643808Y-98465952D02*
X66548570Y-98513571D01*
X66977141Y-99085000D02*
X66881903Y-99132619D01*
X66881903Y-99132619D02*
X66643808Y-99132619D01*
X66643808Y-99132619D02*
X66548570Y-99085000D01*
X66548570Y-99085000D02*
X66500951Y-98989761D01*
X66500951Y-98989761D02*
X66500951Y-98894523D01*
X66500951Y-98894523D02*
X66548570Y-98799285D01*
X66548570Y-98799285D02*
X66643808Y-98751666D01*
X66643808Y-98751666D02*
X66881903Y-98751666D01*
X66881903Y-98751666D02*
X66977141Y-98704047D01*
X67310475Y-98465952D02*
X67691427Y-98465952D01*
X67453332Y-98132619D02*
X67453332Y-98989761D01*
X67453332Y-98989761D02*
X67500951Y-99085000D01*
X67500951Y-99085000D02*
X67596189Y-99132619D01*
X67596189Y-99132619D02*
X67691427Y-99132619D01*
X68405713Y-99085000D02*
X68310475Y-99132619D01*
X68310475Y-99132619D02*
X68119999Y-99132619D01*
X68119999Y-99132619D02*
X68024761Y-99085000D01*
X68024761Y-99085000D02*
X67977142Y-98989761D01*
X67977142Y-98989761D02*
X67977142Y-98608809D01*
X67977142Y-98608809D02*
X68024761Y-98513571D01*
X68024761Y-98513571D02*
X68119999Y-98465952D01*
X68119999Y-98465952D02*
X68310475Y-98465952D01*
X68310475Y-98465952D02*
X68405713Y-98513571D01*
X68405713Y-98513571D02*
X68453332Y-98608809D01*
X68453332Y-98608809D02*
X68453332Y-98704047D01*
X68453332Y-98704047D02*
X67977142Y-98799285D01*
X68881904Y-99132619D02*
X68881904Y-98465952D01*
X68881904Y-98656428D02*
X68929523Y-98561190D01*
X68929523Y-98561190D02*
X68977142Y-98513571D01*
X68977142Y-98513571D02*
X69072380Y-98465952D01*
X69072380Y-98465952D02*
X69167618Y-98465952D01*
X69643809Y-99132619D02*
X69548571Y-99085000D01*
X69548571Y-99085000D02*
X69500952Y-99037380D01*
X69500952Y-99037380D02*
X69453333Y-98942142D01*
X69453333Y-98942142D02*
X69453333Y-98656428D01*
X69453333Y-98656428D02*
X69500952Y-98561190D01*
X69500952Y-98561190D02*
X69548571Y-98513571D01*
X69548571Y-98513571D02*
X69643809Y-98465952D01*
X69643809Y-98465952D02*
X69786666Y-98465952D01*
X69786666Y-98465952D02*
X69881904Y-98513571D01*
X69881904Y-98513571D02*
X69929523Y-98561190D01*
X69929523Y-98561190D02*
X69977142Y-98656428D01*
X69977142Y-98656428D02*
X69977142Y-98942142D01*
X69977142Y-98942142D02*
X69929523Y-99037380D01*
X69929523Y-99037380D02*
X69881904Y-99085000D01*
X69881904Y-99085000D02*
X69786666Y-99132619D01*
X69786666Y-99132619D02*
X69643809Y-99132619D01*
X70405714Y-98465952D02*
X70405714Y-99132619D01*
X70405714Y-98561190D02*
X70453333Y-98513571D01*
X70453333Y-98513571D02*
X70548571Y-98465952D01*
X70548571Y-98465952D02*
X70691428Y-98465952D01*
X70691428Y-98465952D02*
X70786666Y-98513571D01*
X70786666Y-98513571D02*
X70834285Y-98608809D01*
X70834285Y-98608809D02*
X70834285Y-99132619D01*
X71786666Y-99132619D02*
X71310476Y-99132619D01*
X71310476Y-99132619D02*
X71310476Y-98132619D01*
X72120000Y-99132619D02*
X72120000Y-98132619D01*
X72120000Y-98132619D02*
X72500952Y-98132619D01*
X72500952Y-98132619D02*
X72596190Y-98180238D01*
X72596190Y-98180238D02*
X72643809Y-98227857D01*
X72643809Y-98227857D02*
X72691428Y-98323095D01*
X72691428Y-98323095D02*
X72691428Y-98465952D01*
X72691428Y-98465952D02*
X72643809Y-98561190D01*
X72643809Y-98561190D02*
X72596190Y-98608809D01*
X72596190Y-98608809D02*
X72500952Y-98656428D01*
X72500952Y-98656428D02*
X72120000Y-98656428D01*
X72881905Y-99227857D02*
X73643809Y-99227857D01*
X73881905Y-99132619D02*
X73881905Y-98465952D01*
X73881905Y-98656428D02*
X73929524Y-98561190D01*
X73929524Y-98561190D02*
X73977143Y-98513571D01*
X73977143Y-98513571D02*
X74072381Y-98465952D01*
X74072381Y-98465952D02*
X74167619Y-98465952D01*
X74881905Y-99085000D02*
X74786667Y-99132619D01*
X74786667Y-99132619D02*
X74596191Y-99132619D01*
X74596191Y-99132619D02*
X74500953Y-99085000D01*
X74500953Y-99085000D02*
X74453334Y-98989761D01*
X74453334Y-98989761D02*
X74453334Y-98608809D01*
X74453334Y-98608809D02*
X74500953Y-98513571D01*
X74500953Y-98513571D02*
X74596191Y-98465952D01*
X74596191Y-98465952D02*
X74786667Y-98465952D01*
X74786667Y-98465952D02*
X74881905Y-98513571D01*
X74881905Y-98513571D02*
X74929524Y-98608809D01*
X74929524Y-98608809D02*
X74929524Y-98704047D01*
X74929524Y-98704047D02*
X74453334Y-98799285D01*
X75358096Y-99132619D02*
X75358096Y-98465952D01*
X75358096Y-98656428D02*
X75405715Y-98561190D01*
X75405715Y-98561190D02*
X75453334Y-98513571D01*
X75453334Y-98513571D02*
X75548572Y-98465952D01*
X75548572Y-98465952D02*
X75643810Y-98465952D01*
X75977144Y-99132619D02*
X75977144Y-98465952D01*
X75977144Y-98656428D02*
X76024763Y-98561190D01*
X76024763Y-98561190D02*
X76072382Y-98513571D01*
X76072382Y-98513571D02*
X76167620Y-98465952D01*
X76167620Y-98465952D02*
X76262858Y-98465952D01*
X77024763Y-99132619D02*
X77024763Y-98608809D01*
X77024763Y-98608809D02*
X76977144Y-98513571D01*
X76977144Y-98513571D02*
X76881906Y-98465952D01*
X76881906Y-98465952D02*
X76691430Y-98465952D01*
X76691430Y-98465952D02*
X76596192Y-98513571D01*
X77024763Y-99085000D02*
X76929525Y-99132619D01*
X76929525Y-99132619D02*
X76691430Y-99132619D01*
X76691430Y-99132619D02*
X76596192Y-99085000D01*
X76596192Y-99085000D02*
X76548573Y-98989761D01*
X76548573Y-98989761D02*
X76548573Y-98894523D01*
X76548573Y-98894523D02*
X76596192Y-98799285D01*
X76596192Y-98799285D02*
X76691430Y-98751666D01*
X76691430Y-98751666D02*
X76929525Y-98751666D01*
X76929525Y-98751666D02*
X77024763Y-98704047D01*
X77929525Y-98465952D02*
X77929525Y-99275476D01*
X77929525Y-99275476D02*
X77881906Y-99370714D01*
X77881906Y-99370714D02*
X77834287Y-99418333D01*
X77834287Y-99418333D02*
X77739049Y-99465952D01*
X77739049Y-99465952D02*
X77596192Y-99465952D01*
X77596192Y-99465952D02*
X77500954Y-99418333D01*
X77929525Y-99085000D02*
X77834287Y-99132619D01*
X77834287Y-99132619D02*
X77643811Y-99132619D01*
X77643811Y-99132619D02*
X77548573Y-99085000D01*
X77548573Y-99085000D02*
X77500954Y-99037380D01*
X77500954Y-99037380D02*
X77453335Y-98942142D01*
X77453335Y-98942142D02*
X77453335Y-98656428D01*
X77453335Y-98656428D02*
X77500954Y-98561190D01*
X77500954Y-98561190D02*
X77548573Y-98513571D01*
X77548573Y-98513571D02*
X77643811Y-98465952D01*
X77643811Y-98465952D02*
X77834287Y-98465952D01*
X77834287Y-98465952D02*
X77929525Y-98513571D01*
X78548573Y-99132619D02*
X78453335Y-99085000D01*
X78453335Y-99085000D02*
X78405716Y-99037380D01*
X78405716Y-99037380D02*
X78358097Y-98942142D01*
X78358097Y-98942142D02*
X78358097Y-98656428D01*
X78358097Y-98656428D02*
X78405716Y-98561190D01*
X78405716Y-98561190D02*
X78453335Y-98513571D01*
X78453335Y-98513571D02*
X78548573Y-98465952D01*
X78548573Y-98465952D02*
X78691430Y-98465952D01*
X78691430Y-98465952D02*
X78786668Y-98513571D01*
X78786668Y-98513571D02*
X78834287Y-98561190D01*
X78834287Y-98561190D02*
X78881906Y-98656428D01*
X78881906Y-98656428D02*
X78881906Y-98942142D01*
X78881906Y-98942142D02*
X78834287Y-99037380D01*
X78834287Y-99037380D02*
X78786668Y-99085000D01*
X78786668Y-99085000D02*
X78691430Y-99132619D01*
X78691430Y-99132619D02*
X78548573Y-99132619D01*
X79310478Y-98465952D02*
X79310478Y-99132619D01*
X79310478Y-98561190D02*
X79358097Y-98513571D01*
X79358097Y-98513571D02*
X79453335Y-98465952D01*
X79453335Y-98465952D02*
X79596192Y-98465952D01*
X79596192Y-98465952D02*
X79691430Y-98513571D01*
X79691430Y-98513571D02*
X79739049Y-98608809D01*
X79739049Y-98608809D02*
X79739049Y-99132619D01*
X79977145Y-99227857D02*
X80739049Y-99227857D01*
X80977145Y-99132619D02*
X80977145Y-98132619D01*
X81405716Y-99132619D02*
X81405716Y-98608809D01*
X81405716Y-98608809D02*
X81358097Y-98513571D01*
X81358097Y-98513571D02*
X81262859Y-98465952D01*
X81262859Y-98465952D02*
X81120002Y-98465952D01*
X81120002Y-98465952D02*
X81024764Y-98513571D01*
X81024764Y-98513571D02*
X80977145Y-98561190D01*
X82024764Y-99132619D02*
X81929526Y-99085000D01*
X81929526Y-99085000D02*
X81881907Y-99037380D01*
X81881907Y-99037380D02*
X81834288Y-98942142D01*
X81834288Y-98942142D02*
X81834288Y-98656428D01*
X81834288Y-98656428D02*
X81881907Y-98561190D01*
X81881907Y-98561190D02*
X81929526Y-98513571D01*
X81929526Y-98513571D02*
X82024764Y-98465952D01*
X82024764Y-98465952D02*
X82167621Y-98465952D01*
X82167621Y-98465952D02*
X82262859Y-98513571D01*
X82262859Y-98513571D02*
X82310478Y-98561190D01*
X82310478Y-98561190D02*
X82358097Y-98656428D01*
X82358097Y-98656428D02*
X82358097Y-98942142D01*
X82358097Y-98942142D02*
X82310478Y-99037380D01*
X82310478Y-99037380D02*
X82262859Y-99085000D01*
X82262859Y-99085000D02*
X82167621Y-99132619D01*
X82167621Y-99132619D02*
X82024764Y-99132619D01*
X82643812Y-98465952D02*
X83024764Y-98465952D01*
X82786669Y-98132619D02*
X82786669Y-98989761D01*
X82786669Y-98989761D02*
X82834288Y-99085000D01*
X82834288Y-99085000D02*
X82929526Y-99132619D01*
X82929526Y-99132619D02*
X83024764Y-99132619D01*
X83310479Y-99085000D02*
X83405717Y-99132619D01*
X83405717Y-99132619D02*
X83596193Y-99132619D01*
X83596193Y-99132619D02*
X83691431Y-99085000D01*
X83691431Y-99085000D02*
X83739050Y-98989761D01*
X83739050Y-98989761D02*
X83739050Y-98942142D01*
X83739050Y-98942142D02*
X83691431Y-98846904D01*
X83691431Y-98846904D02*
X83596193Y-98799285D01*
X83596193Y-98799285D02*
X83453336Y-98799285D01*
X83453336Y-98799285D02*
X83358098Y-98751666D01*
X83358098Y-98751666D02*
X83310479Y-98656428D01*
X83310479Y-98656428D02*
X83310479Y-98608809D01*
X83310479Y-98608809D02*
X83358098Y-98513571D01*
X83358098Y-98513571D02*
X83453336Y-98465952D01*
X83453336Y-98465952D02*
X83596193Y-98465952D01*
X83596193Y-98465952D02*
X83691431Y-98513571D01*
X84072384Y-98465952D02*
X84262860Y-99132619D01*
X84262860Y-99132619D02*
X84453336Y-98656428D01*
X84453336Y-98656428D02*
X84643812Y-99132619D01*
X84643812Y-99132619D02*
X84834288Y-98465952D01*
X85643812Y-99132619D02*
X85643812Y-98608809D01*
X85643812Y-98608809D02*
X85596193Y-98513571D01*
X85596193Y-98513571D02*
X85500955Y-98465952D01*
X85500955Y-98465952D02*
X85310479Y-98465952D01*
X85310479Y-98465952D02*
X85215241Y-98513571D01*
X85643812Y-99085000D02*
X85548574Y-99132619D01*
X85548574Y-99132619D02*
X85310479Y-99132619D01*
X85310479Y-99132619D02*
X85215241Y-99085000D01*
X85215241Y-99085000D02*
X85167622Y-98989761D01*
X85167622Y-98989761D02*
X85167622Y-98894523D01*
X85167622Y-98894523D02*
X85215241Y-98799285D01*
X85215241Y-98799285D02*
X85310479Y-98751666D01*
X85310479Y-98751666D02*
X85548574Y-98751666D01*
X85548574Y-98751666D02*
X85643812Y-98704047D01*
X86120003Y-98465952D02*
X86120003Y-99465952D01*
X86120003Y-98513571D02*
X86215241Y-98465952D01*
X86215241Y-98465952D02*
X86405717Y-98465952D01*
X86405717Y-98465952D02*
X86500955Y-98513571D01*
X86500955Y-98513571D02*
X86548574Y-98561190D01*
X86548574Y-98561190D02*
X86596193Y-98656428D01*
X86596193Y-98656428D02*
X86596193Y-98942142D01*
X86596193Y-98942142D02*
X86548574Y-99037380D01*
X86548574Y-99037380D02*
X86500955Y-99085000D01*
X86500955Y-99085000D02*
X86405717Y-99132619D01*
X86405717Y-99132619D02*
X86215241Y-99132619D01*
X86215241Y-99132619D02*
X86120003Y-99085000D01*
%TD*%
M02*
