%TF.GenerationSoftware,KiCad,Pcbnew,7.0.2*%
%TF.CreationDate,2023-05-08T22:42:52+02:00*%
%TF.ProjectId,verasity_PCB,76657261-7369-4747-995f-5043422e6b69,rev?*%
%TF.SameCoordinates,Original*%
%TF.FileFunction,Drillmap*%
%TF.FilePolarity,Positive*%
%FSLAX45Y45*%
G04 Gerber Fmt 4.5, Leading zero omitted, Abs format (unit mm)*
G04 Created by KiCad (PCBNEW 7.0.2) date 2023-05-08 22:42:52*
%MOMM*%
%LPD*%
G01*
G04 APERTURE LIST*
%ADD10C,0.200000*%
%ADD11C,0.190000*%
%ADD12C,0.330000*%
%ADD13C,0.335000*%
%ADD14C,0.428000*%
G04 APERTURE END LIST*
D10*
D11*
X6467000Y-8922000D02*
X6657000Y-9112000D01*
X6657000Y-8922000D02*
X6467000Y-9112000D01*
X7567000Y-8922000D02*
X7757000Y-9112000D01*
X7757000Y-8922000D02*
X7567000Y-9112000D01*
D12*
X7342000Y-8547000D02*
G75*
G03*
X7342000Y-8547000I-165000J0D01*
G01*
D13*
X7176000Y-8379700D02*
X7176000Y-8714700D01*
X7008500Y-8547200D02*
X7343500Y-8547200D01*
D10*
X7258500Y-8379700D02*
X7093500Y-8379700D01*
X7093500Y-8379700D02*
G75*
G03*
X7093500Y-8714700I0J-167500D01*
G01*
X7093500Y-8714700D02*
X7258500Y-8714700D01*
X7258500Y-8714700D02*
G75*
G03*
X7258500Y-8379700I0J167500D01*
G01*
D14*
X7263322Y-9168322D02*
X7263322Y-8865678D01*
X6960678Y-8865678D01*
X6960678Y-9168322D01*
X7263322Y-9168322D01*
D10*
X6634119Y-10030024D02*
X6634119Y-9830024D01*
X6634119Y-9830024D02*
X6681738Y-9830024D01*
X6681738Y-9830024D02*
X6710309Y-9839548D01*
X6710309Y-9839548D02*
X6729357Y-9858595D01*
X6729357Y-9858595D02*
X6738881Y-9877643D01*
X6738881Y-9877643D02*
X6748405Y-9915738D01*
X6748405Y-9915738D02*
X6748405Y-9944310D01*
X6748405Y-9944310D02*
X6738881Y-9982405D01*
X6738881Y-9982405D02*
X6729357Y-10001452D01*
X6729357Y-10001452D02*
X6710309Y-10020500D01*
X6710309Y-10020500D02*
X6681738Y-10030024D01*
X6681738Y-10030024D02*
X6634119Y-10030024D01*
X6834119Y-10030024D02*
X6834119Y-9896690D01*
X6834119Y-9934786D02*
X6843643Y-9915738D01*
X6843643Y-9915738D02*
X6853167Y-9906214D01*
X6853167Y-9906214D02*
X6872214Y-9896690D01*
X6872214Y-9896690D02*
X6891262Y-9896690D01*
X6957928Y-10030024D02*
X6957928Y-9896690D01*
X6957928Y-9830024D02*
X6948405Y-9839548D01*
X6948405Y-9839548D02*
X6957928Y-9849071D01*
X6957928Y-9849071D02*
X6967452Y-9839548D01*
X6967452Y-9839548D02*
X6957928Y-9830024D01*
X6957928Y-9830024D02*
X6957928Y-9849071D01*
X7081738Y-10030024D02*
X7062690Y-10020500D01*
X7062690Y-10020500D02*
X7053167Y-10001452D01*
X7053167Y-10001452D02*
X7053167Y-9830024D01*
X7186500Y-10030024D02*
X7167452Y-10020500D01*
X7167452Y-10020500D02*
X7157928Y-10001452D01*
X7157928Y-10001452D02*
X7157928Y-9830024D01*
X7415071Y-10030024D02*
X7415071Y-9830024D01*
X7415071Y-9830024D02*
X7481738Y-9972881D01*
X7481738Y-9972881D02*
X7548405Y-9830024D01*
X7548405Y-9830024D02*
X7548405Y-10030024D01*
X7729357Y-10030024D02*
X7729357Y-9925262D01*
X7729357Y-9925262D02*
X7719833Y-9906214D01*
X7719833Y-9906214D02*
X7700786Y-9896690D01*
X7700786Y-9896690D02*
X7662690Y-9896690D01*
X7662690Y-9896690D02*
X7643643Y-9906214D01*
X7729357Y-10020500D02*
X7710309Y-10030024D01*
X7710309Y-10030024D02*
X7662690Y-10030024D01*
X7662690Y-10030024D02*
X7643643Y-10020500D01*
X7643643Y-10020500D02*
X7634119Y-10001452D01*
X7634119Y-10001452D02*
X7634119Y-9982405D01*
X7634119Y-9982405D02*
X7643643Y-9963357D01*
X7643643Y-9963357D02*
X7662690Y-9953833D01*
X7662690Y-9953833D02*
X7710309Y-9953833D01*
X7710309Y-9953833D02*
X7729357Y-9944310D01*
X7824595Y-9896690D02*
X7824595Y-10096690D01*
X7824595Y-9906214D02*
X7843643Y-9896690D01*
X7843643Y-9896690D02*
X7881738Y-9896690D01*
X7881738Y-9896690D02*
X7900786Y-9906214D01*
X7900786Y-9906214D02*
X7910309Y-9915738D01*
X7910309Y-9915738D02*
X7919833Y-9934786D01*
X7919833Y-9934786D02*
X7919833Y-9991929D01*
X7919833Y-9991929D02*
X7910309Y-10010976D01*
X7910309Y-10010976D02*
X7900786Y-10020500D01*
X7900786Y-10020500D02*
X7881738Y-10030024D01*
X7881738Y-10030024D02*
X7843643Y-10030024D01*
X7843643Y-10030024D02*
X7824595Y-10020500D01*
X8005548Y-10010976D02*
X8015071Y-10020500D01*
X8015071Y-10020500D02*
X8005548Y-10030024D01*
X8005548Y-10030024D02*
X7996024Y-10020500D01*
X7996024Y-10020500D02*
X8005548Y-10010976D01*
X8005548Y-10010976D02*
X8005548Y-10030024D01*
X8005548Y-9906214D02*
X8015071Y-9915738D01*
X8015071Y-9915738D02*
X8005548Y-9925262D01*
X8005548Y-9925262D02*
X7996024Y-9915738D01*
X7996024Y-9915738D02*
X8005548Y-9906214D01*
X8005548Y-9906214D02*
X8005548Y-9925262D01*
D11*
X6196500Y-10262500D02*
X6386500Y-10452500D01*
X6386500Y-10262500D02*
X6196500Y-10452500D01*
D10*
X6738881Y-10450024D02*
X6624595Y-10450024D01*
X6681738Y-10450024D02*
X6681738Y-10250024D01*
X6681738Y-10250024D02*
X6662690Y-10278595D01*
X6662690Y-10278595D02*
X6643643Y-10297643D01*
X6643643Y-10297643D02*
X6624595Y-10307167D01*
X6824595Y-10430976D02*
X6834119Y-10440500D01*
X6834119Y-10440500D02*
X6824595Y-10450024D01*
X6824595Y-10450024D02*
X6815071Y-10440500D01*
X6815071Y-10440500D02*
X6824595Y-10430976D01*
X6824595Y-10430976D02*
X6824595Y-10450024D01*
X6929357Y-10450024D02*
X6967452Y-10450024D01*
X6967452Y-10450024D02*
X6986500Y-10440500D01*
X6986500Y-10440500D02*
X6996024Y-10430976D01*
X6996024Y-10430976D02*
X7015071Y-10402405D01*
X7015071Y-10402405D02*
X7024595Y-10364310D01*
X7024595Y-10364310D02*
X7024595Y-10288119D01*
X7024595Y-10288119D02*
X7015071Y-10269071D01*
X7015071Y-10269071D02*
X7005548Y-10259548D01*
X7005548Y-10259548D02*
X6986500Y-10250024D01*
X6986500Y-10250024D02*
X6948405Y-10250024D01*
X6948405Y-10250024D02*
X6929357Y-10259548D01*
X6929357Y-10259548D02*
X6919833Y-10269071D01*
X6919833Y-10269071D02*
X6910309Y-10288119D01*
X6910309Y-10288119D02*
X6910309Y-10335738D01*
X6910309Y-10335738D02*
X6919833Y-10354786D01*
X6919833Y-10354786D02*
X6929357Y-10364310D01*
X6929357Y-10364310D02*
X6948405Y-10373833D01*
X6948405Y-10373833D02*
X6986500Y-10373833D01*
X6986500Y-10373833D02*
X7005548Y-10364310D01*
X7005548Y-10364310D02*
X7015071Y-10354786D01*
X7015071Y-10354786D02*
X7024595Y-10335738D01*
X7148405Y-10250024D02*
X7167452Y-10250024D01*
X7167452Y-10250024D02*
X7186500Y-10259548D01*
X7186500Y-10259548D02*
X7196024Y-10269071D01*
X7196024Y-10269071D02*
X7205548Y-10288119D01*
X7205548Y-10288119D02*
X7215071Y-10326214D01*
X7215071Y-10326214D02*
X7215071Y-10373833D01*
X7215071Y-10373833D02*
X7205548Y-10411929D01*
X7205548Y-10411929D02*
X7196024Y-10430976D01*
X7196024Y-10430976D02*
X7186500Y-10440500D01*
X7186500Y-10440500D02*
X7167452Y-10450024D01*
X7167452Y-10450024D02*
X7148405Y-10450024D01*
X7148405Y-10450024D02*
X7129357Y-10440500D01*
X7129357Y-10440500D02*
X7119833Y-10430976D01*
X7119833Y-10430976D02*
X7110309Y-10411929D01*
X7110309Y-10411929D02*
X7100786Y-10373833D01*
X7100786Y-10373833D02*
X7100786Y-10326214D01*
X7100786Y-10326214D02*
X7110309Y-10288119D01*
X7110309Y-10288119D02*
X7119833Y-10269071D01*
X7119833Y-10269071D02*
X7129357Y-10259548D01*
X7129357Y-10259548D02*
X7148405Y-10250024D01*
X7338881Y-10250024D02*
X7357929Y-10250024D01*
X7357929Y-10250024D02*
X7376976Y-10259548D01*
X7376976Y-10259548D02*
X7386500Y-10269071D01*
X7386500Y-10269071D02*
X7396024Y-10288119D01*
X7396024Y-10288119D02*
X7405548Y-10326214D01*
X7405548Y-10326214D02*
X7405548Y-10373833D01*
X7405548Y-10373833D02*
X7396024Y-10411929D01*
X7396024Y-10411929D02*
X7386500Y-10430976D01*
X7386500Y-10430976D02*
X7376976Y-10440500D01*
X7376976Y-10440500D02*
X7357929Y-10450024D01*
X7357929Y-10450024D02*
X7338881Y-10450024D01*
X7338881Y-10450024D02*
X7319833Y-10440500D01*
X7319833Y-10440500D02*
X7310309Y-10430976D01*
X7310309Y-10430976D02*
X7300786Y-10411929D01*
X7300786Y-10411929D02*
X7291262Y-10373833D01*
X7291262Y-10373833D02*
X7291262Y-10326214D01*
X7291262Y-10326214D02*
X7300786Y-10288119D01*
X7300786Y-10288119D02*
X7310309Y-10269071D01*
X7310309Y-10269071D02*
X7319833Y-10259548D01*
X7319833Y-10259548D02*
X7338881Y-10250024D01*
X7491262Y-10450024D02*
X7491262Y-10316690D01*
X7491262Y-10335738D02*
X7500786Y-10326214D01*
X7500786Y-10326214D02*
X7519833Y-10316690D01*
X7519833Y-10316690D02*
X7548405Y-10316690D01*
X7548405Y-10316690D02*
X7567452Y-10326214D01*
X7567452Y-10326214D02*
X7576976Y-10345262D01*
X7576976Y-10345262D02*
X7576976Y-10450024D01*
X7576976Y-10345262D02*
X7586500Y-10326214D01*
X7586500Y-10326214D02*
X7605548Y-10316690D01*
X7605548Y-10316690D02*
X7634119Y-10316690D01*
X7634119Y-10316690D02*
X7653167Y-10326214D01*
X7653167Y-10326214D02*
X7662690Y-10345262D01*
X7662690Y-10345262D02*
X7662690Y-10450024D01*
X7757929Y-10450024D02*
X7757929Y-10316690D01*
X7757929Y-10335738D02*
X7767452Y-10326214D01*
X7767452Y-10326214D02*
X7786500Y-10316690D01*
X7786500Y-10316690D02*
X7815071Y-10316690D01*
X7815071Y-10316690D02*
X7834119Y-10326214D01*
X7834119Y-10326214D02*
X7843643Y-10345262D01*
X7843643Y-10345262D02*
X7843643Y-10450024D01*
X7843643Y-10345262D02*
X7853167Y-10326214D01*
X7853167Y-10326214D02*
X7872214Y-10316690D01*
X7872214Y-10316690D02*
X7900786Y-10316690D01*
X7900786Y-10316690D02*
X7919833Y-10326214D01*
X7919833Y-10326214D02*
X7929357Y-10345262D01*
X7929357Y-10345262D02*
X7929357Y-10450024D01*
X8319833Y-10240500D02*
X8148405Y-10497643D01*
X8576976Y-10250024D02*
X8596024Y-10250024D01*
X8596024Y-10250024D02*
X8615072Y-10259548D01*
X8615072Y-10259548D02*
X8624595Y-10269071D01*
X8624595Y-10269071D02*
X8634119Y-10288119D01*
X8634119Y-10288119D02*
X8643643Y-10326214D01*
X8643643Y-10326214D02*
X8643643Y-10373833D01*
X8643643Y-10373833D02*
X8634119Y-10411929D01*
X8634119Y-10411929D02*
X8624595Y-10430976D01*
X8624595Y-10430976D02*
X8615072Y-10440500D01*
X8615072Y-10440500D02*
X8596024Y-10450024D01*
X8596024Y-10450024D02*
X8576976Y-10450024D01*
X8576976Y-10450024D02*
X8557929Y-10440500D01*
X8557929Y-10440500D02*
X8548405Y-10430976D01*
X8548405Y-10430976D02*
X8538881Y-10411929D01*
X8538881Y-10411929D02*
X8529357Y-10373833D01*
X8529357Y-10373833D02*
X8529357Y-10326214D01*
X8529357Y-10326214D02*
X8538881Y-10288119D01*
X8538881Y-10288119D02*
X8548405Y-10269071D01*
X8548405Y-10269071D02*
X8557929Y-10259548D01*
X8557929Y-10259548D02*
X8576976Y-10250024D01*
X8729357Y-10430976D02*
X8738881Y-10440500D01*
X8738881Y-10440500D02*
X8729357Y-10450024D01*
X8729357Y-10450024D02*
X8719834Y-10440500D01*
X8719834Y-10440500D02*
X8729357Y-10430976D01*
X8729357Y-10430976D02*
X8729357Y-10450024D01*
X8862691Y-10250024D02*
X8881738Y-10250024D01*
X8881738Y-10250024D02*
X8900786Y-10259548D01*
X8900786Y-10259548D02*
X8910310Y-10269071D01*
X8910310Y-10269071D02*
X8919834Y-10288119D01*
X8919834Y-10288119D02*
X8929357Y-10326214D01*
X8929357Y-10326214D02*
X8929357Y-10373833D01*
X8929357Y-10373833D02*
X8919834Y-10411929D01*
X8919834Y-10411929D02*
X8910310Y-10430976D01*
X8910310Y-10430976D02*
X8900786Y-10440500D01*
X8900786Y-10440500D02*
X8881738Y-10450024D01*
X8881738Y-10450024D02*
X8862691Y-10450024D01*
X8862691Y-10450024D02*
X8843643Y-10440500D01*
X8843643Y-10440500D02*
X8834119Y-10430976D01*
X8834119Y-10430976D02*
X8824595Y-10411929D01*
X8824595Y-10411929D02*
X8815072Y-10373833D01*
X8815072Y-10373833D02*
X8815072Y-10326214D01*
X8815072Y-10326214D02*
X8824595Y-10288119D01*
X8824595Y-10288119D02*
X8834119Y-10269071D01*
X8834119Y-10269071D02*
X8843643Y-10259548D01*
X8843643Y-10259548D02*
X8862691Y-10250024D01*
X8996024Y-10250024D02*
X9129357Y-10250024D01*
X9129357Y-10250024D02*
X9043643Y-10450024D01*
X9291262Y-10316690D02*
X9291262Y-10450024D01*
X9243643Y-10240500D02*
X9196024Y-10383357D01*
X9196024Y-10383357D02*
X9319834Y-10383357D01*
X9424595Y-10335738D02*
X9405548Y-10326214D01*
X9405548Y-10326214D02*
X9396024Y-10316690D01*
X9396024Y-10316690D02*
X9386500Y-10297643D01*
X9386500Y-10297643D02*
X9386500Y-10288119D01*
X9386500Y-10288119D02*
X9396024Y-10269071D01*
X9396024Y-10269071D02*
X9405548Y-10259548D01*
X9405548Y-10259548D02*
X9424595Y-10250024D01*
X9424595Y-10250024D02*
X9462691Y-10250024D01*
X9462691Y-10250024D02*
X9481738Y-10259548D01*
X9481738Y-10259548D02*
X9491262Y-10269071D01*
X9491262Y-10269071D02*
X9500786Y-10288119D01*
X9500786Y-10288119D02*
X9500786Y-10297643D01*
X9500786Y-10297643D02*
X9491262Y-10316690D01*
X9491262Y-10316690D02*
X9481738Y-10326214D01*
X9481738Y-10326214D02*
X9462691Y-10335738D01*
X9462691Y-10335738D02*
X9424595Y-10335738D01*
X9424595Y-10335738D02*
X9405548Y-10345262D01*
X9405548Y-10345262D02*
X9396024Y-10354786D01*
X9396024Y-10354786D02*
X9386500Y-10373833D01*
X9386500Y-10373833D02*
X9386500Y-10411929D01*
X9386500Y-10411929D02*
X9396024Y-10430976D01*
X9396024Y-10430976D02*
X9405548Y-10440500D01*
X9405548Y-10440500D02*
X9424595Y-10450024D01*
X9424595Y-10450024D02*
X9462691Y-10450024D01*
X9462691Y-10450024D02*
X9481738Y-10440500D01*
X9481738Y-10440500D02*
X9491262Y-10430976D01*
X9491262Y-10430976D02*
X9500786Y-10411929D01*
X9500786Y-10411929D02*
X9500786Y-10373833D01*
X9500786Y-10373833D02*
X9491262Y-10354786D01*
X9491262Y-10354786D02*
X9481738Y-10345262D01*
X9481738Y-10345262D02*
X9462691Y-10335738D01*
X9576976Y-10250024D02*
X9576976Y-10288119D01*
X9653167Y-10250024D02*
X9653167Y-10288119D01*
X9948405Y-10526214D02*
X9938881Y-10516690D01*
X9938881Y-10516690D02*
X9919834Y-10488119D01*
X9919834Y-10488119D02*
X9910310Y-10469071D01*
X9910310Y-10469071D02*
X9900786Y-10440500D01*
X9900786Y-10440500D02*
X9891262Y-10392881D01*
X9891262Y-10392881D02*
X9891262Y-10354786D01*
X9891262Y-10354786D02*
X9900786Y-10307167D01*
X9900786Y-10307167D02*
X9910310Y-10278595D01*
X9910310Y-10278595D02*
X9919834Y-10259548D01*
X9919834Y-10259548D02*
X9938881Y-10230976D01*
X9938881Y-10230976D02*
X9948405Y-10221452D01*
X10015072Y-10269071D02*
X10024596Y-10259548D01*
X10024596Y-10259548D02*
X10043643Y-10250024D01*
X10043643Y-10250024D02*
X10091262Y-10250024D01*
X10091262Y-10250024D02*
X10110310Y-10259548D01*
X10110310Y-10259548D02*
X10119834Y-10269071D01*
X10119834Y-10269071D02*
X10129357Y-10288119D01*
X10129357Y-10288119D02*
X10129357Y-10307167D01*
X10129357Y-10307167D02*
X10119834Y-10335738D01*
X10119834Y-10335738D02*
X10005548Y-10450024D01*
X10005548Y-10450024D02*
X10129357Y-10450024D01*
X10367453Y-10450024D02*
X10367453Y-10250024D01*
X10453167Y-10450024D02*
X10453167Y-10345262D01*
X10453167Y-10345262D02*
X10443643Y-10326214D01*
X10443643Y-10326214D02*
X10424596Y-10316690D01*
X10424596Y-10316690D02*
X10396024Y-10316690D01*
X10396024Y-10316690D02*
X10376977Y-10326214D01*
X10376977Y-10326214D02*
X10367453Y-10335738D01*
X10576977Y-10450024D02*
X10557929Y-10440500D01*
X10557929Y-10440500D02*
X10548405Y-10430976D01*
X10548405Y-10430976D02*
X10538881Y-10411929D01*
X10538881Y-10411929D02*
X10538881Y-10354786D01*
X10538881Y-10354786D02*
X10548405Y-10335738D01*
X10548405Y-10335738D02*
X10557929Y-10326214D01*
X10557929Y-10326214D02*
X10576977Y-10316690D01*
X10576977Y-10316690D02*
X10605548Y-10316690D01*
X10605548Y-10316690D02*
X10624596Y-10326214D01*
X10624596Y-10326214D02*
X10634119Y-10335738D01*
X10634119Y-10335738D02*
X10643643Y-10354786D01*
X10643643Y-10354786D02*
X10643643Y-10411929D01*
X10643643Y-10411929D02*
X10634119Y-10430976D01*
X10634119Y-10430976D02*
X10624596Y-10440500D01*
X10624596Y-10440500D02*
X10605548Y-10450024D01*
X10605548Y-10450024D02*
X10576977Y-10450024D01*
X10757929Y-10450024D02*
X10738881Y-10440500D01*
X10738881Y-10440500D02*
X10729358Y-10421452D01*
X10729358Y-10421452D02*
X10729358Y-10250024D01*
X10910310Y-10440500D02*
X10891262Y-10450024D01*
X10891262Y-10450024D02*
X10853167Y-10450024D01*
X10853167Y-10450024D02*
X10834119Y-10440500D01*
X10834119Y-10440500D02*
X10824596Y-10421452D01*
X10824596Y-10421452D02*
X10824596Y-10345262D01*
X10824596Y-10345262D02*
X10834119Y-10326214D01*
X10834119Y-10326214D02*
X10853167Y-10316690D01*
X10853167Y-10316690D02*
X10891262Y-10316690D01*
X10891262Y-10316690D02*
X10910310Y-10326214D01*
X10910310Y-10326214D02*
X10919834Y-10345262D01*
X10919834Y-10345262D02*
X10919834Y-10364310D01*
X10919834Y-10364310D02*
X10824596Y-10383357D01*
X10996024Y-10440500D02*
X11015072Y-10450024D01*
X11015072Y-10450024D02*
X11053167Y-10450024D01*
X11053167Y-10450024D02*
X11072215Y-10440500D01*
X11072215Y-10440500D02*
X11081739Y-10421452D01*
X11081739Y-10421452D02*
X11081739Y-10411929D01*
X11081739Y-10411929D02*
X11072215Y-10392881D01*
X11072215Y-10392881D02*
X11053167Y-10383357D01*
X11053167Y-10383357D02*
X11024596Y-10383357D01*
X11024596Y-10383357D02*
X11005548Y-10373833D01*
X11005548Y-10373833D02*
X10996024Y-10354786D01*
X10996024Y-10354786D02*
X10996024Y-10345262D01*
X10996024Y-10345262D02*
X11005548Y-10326214D01*
X11005548Y-10326214D02*
X11024596Y-10316690D01*
X11024596Y-10316690D02*
X11053167Y-10316690D01*
X11053167Y-10316690D02*
X11072215Y-10326214D01*
X11148405Y-10526214D02*
X11157929Y-10516690D01*
X11157929Y-10516690D02*
X11176977Y-10488119D01*
X11176977Y-10488119D02*
X11186500Y-10469071D01*
X11186500Y-10469071D02*
X11196024Y-10440500D01*
X11196024Y-10440500D02*
X11205548Y-10392881D01*
X11205548Y-10392881D02*
X11205548Y-10354786D01*
X11205548Y-10354786D02*
X11196024Y-10307167D01*
X11196024Y-10307167D02*
X11186500Y-10278595D01*
X11186500Y-10278595D02*
X11176977Y-10259548D01*
X11176977Y-10259548D02*
X11157929Y-10230976D01*
X11157929Y-10230976D02*
X11148405Y-10221452D01*
X11510310Y-10526214D02*
X11500786Y-10516690D01*
X11500786Y-10516690D02*
X11481738Y-10488119D01*
X11481738Y-10488119D02*
X11472215Y-10469071D01*
X11472215Y-10469071D02*
X11462691Y-10440500D01*
X11462691Y-10440500D02*
X11453167Y-10392881D01*
X11453167Y-10392881D02*
X11453167Y-10354786D01*
X11453167Y-10354786D02*
X11462691Y-10307167D01*
X11462691Y-10307167D02*
X11472215Y-10278595D01*
X11472215Y-10278595D02*
X11481738Y-10259548D01*
X11481738Y-10259548D02*
X11500786Y-10230976D01*
X11500786Y-10230976D02*
X11510310Y-10221452D01*
X11586500Y-10316690D02*
X11586500Y-10450024D01*
X11586500Y-10335738D02*
X11596024Y-10326214D01*
X11596024Y-10326214D02*
X11615072Y-10316690D01*
X11615072Y-10316690D02*
X11643643Y-10316690D01*
X11643643Y-10316690D02*
X11662691Y-10326214D01*
X11662691Y-10326214D02*
X11672215Y-10345262D01*
X11672215Y-10345262D02*
X11672215Y-10450024D01*
X11796024Y-10450024D02*
X11776977Y-10440500D01*
X11776977Y-10440500D02*
X11767453Y-10430976D01*
X11767453Y-10430976D02*
X11757929Y-10411929D01*
X11757929Y-10411929D02*
X11757929Y-10354786D01*
X11757929Y-10354786D02*
X11767453Y-10335738D01*
X11767453Y-10335738D02*
X11776977Y-10326214D01*
X11776977Y-10326214D02*
X11796024Y-10316690D01*
X11796024Y-10316690D02*
X11824596Y-10316690D01*
X11824596Y-10316690D02*
X11843643Y-10326214D01*
X11843643Y-10326214D02*
X11853167Y-10335738D01*
X11853167Y-10335738D02*
X11862691Y-10354786D01*
X11862691Y-10354786D02*
X11862691Y-10411929D01*
X11862691Y-10411929D02*
X11853167Y-10430976D01*
X11853167Y-10430976D02*
X11843643Y-10440500D01*
X11843643Y-10440500D02*
X11824596Y-10450024D01*
X11824596Y-10450024D02*
X11796024Y-10450024D01*
X11919834Y-10316690D02*
X11996024Y-10316690D01*
X11948405Y-10250024D02*
X11948405Y-10421452D01*
X11948405Y-10421452D02*
X11957929Y-10440500D01*
X11957929Y-10440500D02*
X11976977Y-10450024D01*
X11976977Y-10450024D02*
X11996024Y-10450024D01*
X12215072Y-10316690D02*
X12215072Y-10516690D01*
X12215072Y-10326214D02*
X12234119Y-10316690D01*
X12234119Y-10316690D02*
X12272215Y-10316690D01*
X12272215Y-10316690D02*
X12291262Y-10326214D01*
X12291262Y-10326214D02*
X12300786Y-10335738D01*
X12300786Y-10335738D02*
X12310310Y-10354786D01*
X12310310Y-10354786D02*
X12310310Y-10411929D01*
X12310310Y-10411929D02*
X12300786Y-10430976D01*
X12300786Y-10430976D02*
X12291262Y-10440500D01*
X12291262Y-10440500D02*
X12272215Y-10450024D01*
X12272215Y-10450024D02*
X12234119Y-10450024D01*
X12234119Y-10450024D02*
X12215072Y-10440500D01*
X12424596Y-10450024D02*
X12405548Y-10440500D01*
X12405548Y-10440500D02*
X12396024Y-10421452D01*
X12396024Y-10421452D02*
X12396024Y-10250024D01*
X12586500Y-10450024D02*
X12586500Y-10345262D01*
X12586500Y-10345262D02*
X12576977Y-10326214D01*
X12576977Y-10326214D02*
X12557929Y-10316690D01*
X12557929Y-10316690D02*
X12519834Y-10316690D01*
X12519834Y-10316690D02*
X12500786Y-10326214D01*
X12586500Y-10440500D02*
X12567453Y-10450024D01*
X12567453Y-10450024D02*
X12519834Y-10450024D01*
X12519834Y-10450024D02*
X12500786Y-10440500D01*
X12500786Y-10440500D02*
X12491262Y-10421452D01*
X12491262Y-10421452D02*
X12491262Y-10402405D01*
X12491262Y-10402405D02*
X12500786Y-10383357D01*
X12500786Y-10383357D02*
X12519834Y-10373833D01*
X12519834Y-10373833D02*
X12567453Y-10373833D01*
X12567453Y-10373833D02*
X12586500Y-10364310D01*
X12653167Y-10316690D02*
X12729358Y-10316690D01*
X12681739Y-10250024D02*
X12681739Y-10421452D01*
X12681739Y-10421452D02*
X12691262Y-10440500D01*
X12691262Y-10440500D02*
X12710310Y-10450024D01*
X12710310Y-10450024D02*
X12729358Y-10450024D01*
X12872215Y-10440500D02*
X12853167Y-10450024D01*
X12853167Y-10450024D02*
X12815072Y-10450024D01*
X12815072Y-10450024D02*
X12796024Y-10440500D01*
X12796024Y-10440500D02*
X12786500Y-10421452D01*
X12786500Y-10421452D02*
X12786500Y-10345262D01*
X12786500Y-10345262D02*
X12796024Y-10326214D01*
X12796024Y-10326214D02*
X12815072Y-10316690D01*
X12815072Y-10316690D02*
X12853167Y-10316690D01*
X12853167Y-10316690D02*
X12872215Y-10326214D01*
X12872215Y-10326214D02*
X12881739Y-10345262D01*
X12881739Y-10345262D02*
X12881739Y-10364310D01*
X12881739Y-10364310D02*
X12786500Y-10383357D01*
X13053167Y-10450024D02*
X13053167Y-10250024D01*
X13053167Y-10440500D02*
X13034120Y-10450024D01*
X13034120Y-10450024D02*
X12996024Y-10450024D01*
X12996024Y-10450024D02*
X12976977Y-10440500D01*
X12976977Y-10440500D02*
X12967453Y-10430976D01*
X12967453Y-10430976D02*
X12957929Y-10411929D01*
X12957929Y-10411929D02*
X12957929Y-10354786D01*
X12957929Y-10354786D02*
X12967453Y-10335738D01*
X12967453Y-10335738D02*
X12976977Y-10326214D01*
X12976977Y-10326214D02*
X12996024Y-10316690D01*
X12996024Y-10316690D02*
X13034120Y-10316690D01*
X13034120Y-10316690D02*
X13053167Y-10326214D01*
X13129358Y-10526214D02*
X13138881Y-10516690D01*
X13138881Y-10516690D02*
X13157929Y-10488119D01*
X13157929Y-10488119D02*
X13167453Y-10469071D01*
X13167453Y-10469071D02*
X13176977Y-10440500D01*
X13176977Y-10440500D02*
X13186500Y-10392881D01*
X13186500Y-10392881D02*
X13186500Y-10354786D01*
X13186500Y-10354786D02*
X13176977Y-10307167D01*
X13176977Y-10307167D02*
X13167453Y-10278595D01*
X13167453Y-10278595D02*
X13157929Y-10259548D01*
X13157929Y-10259548D02*
X13138881Y-10230976D01*
X13138881Y-10230976D02*
X13129358Y-10221452D01*
X6386500Y-10667500D02*
G75*
G03*
X6386500Y-10667500I-100000J0D01*
G01*
X6615071Y-10560024D02*
X6738881Y-10560024D01*
X6738881Y-10560024D02*
X6672214Y-10636214D01*
X6672214Y-10636214D02*
X6700786Y-10636214D01*
X6700786Y-10636214D02*
X6719833Y-10645738D01*
X6719833Y-10645738D02*
X6729357Y-10655262D01*
X6729357Y-10655262D02*
X6738881Y-10674310D01*
X6738881Y-10674310D02*
X6738881Y-10721929D01*
X6738881Y-10721929D02*
X6729357Y-10740976D01*
X6729357Y-10740976D02*
X6719833Y-10750500D01*
X6719833Y-10750500D02*
X6700786Y-10760024D01*
X6700786Y-10760024D02*
X6643643Y-10760024D01*
X6643643Y-10760024D02*
X6624595Y-10750500D01*
X6624595Y-10750500D02*
X6615071Y-10740976D01*
X6824595Y-10740976D02*
X6834119Y-10750500D01*
X6834119Y-10750500D02*
X6824595Y-10760024D01*
X6824595Y-10760024D02*
X6815071Y-10750500D01*
X6815071Y-10750500D02*
X6824595Y-10740976D01*
X6824595Y-10740976D02*
X6824595Y-10760024D01*
X6900786Y-10560024D02*
X7024595Y-10560024D01*
X7024595Y-10560024D02*
X6957928Y-10636214D01*
X6957928Y-10636214D02*
X6986500Y-10636214D01*
X6986500Y-10636214D02*
X7005548Y-10645738D01*
X7005548Y-10645738D02*
X7015071Y-10655262D01*
X7015071Y-10655262D02*
X7024595Y-10674310D01*
X7024595Y-10674310D02*
X7024595Y-10721929D01*
X7024595Y-10721929D02*
X7015071Y-10740976D01*
X7015071Y-10740976D02*
X7005548Y-10750500D01*
X7005548Y-10750500D02*
X6986500Y-10760024D01*
X6986500Y-10760024D02*
X6929357Y-10760024D01*
X6929357Y-10760024D02*
X6910309Y-10750500D01*
X6910309Y-10750500D02*
X6900786Y-10740976D01*
X7148405Y-10560024D02*
X7167452Y-10560024D01*
X7167452Y-10560024D02*
X7186500Y-10569548D01*
X7186500Y-10569548D02*
X7196024Y-10579071D01*
X7196024Y-10579071D02*
X7205548Y-10598119D01*
X7205548Y-10598119D02*
X7215071Y-10636214D01*
X7215071Y-10636214D02*
X7215071Y-10683833D01*
X7215071Y-10683833D02*
X7205548Y-10721929D01*
X7205548Y-10721929D02*
X7196024Y-10740976D01*
X7196024Y-10740976D02*
X7186500Y-10750500D01*
X7186500Y-10750500D02*
X7167452Y-10760024D01*
X7167452Y-10760024D02*
X7148405Y-10760024D01*
X7148405Y-10760024D02*
X7129357Y-10750500D01*
X7129357Y-10750500D02*
X7119833Y-10740976D01*
X7119833Y-10740976D02*
X7110309Y-10721929D01*
X7110309Y-10721929D02*
X7100786Y-10683833D01*
X7100786Y-10683833D02*
X7100786Y-10636214D01*
X7100786Y-10636214D02*
X7110309Y-10598119D01*
X7110309Y-10598119D02*
X7119833Y-10579071D01*
X7119833Y-10579071D02*
X7129357Y-10569548D01*
X7129357Y-10569548D02*
X7148405Y-10560024D01*
X7338881Y-10560024D02*
X7357929Y-10560024D01*
X7357929Y-10560024D02*
X7376976Y-10569548D01*
X7376976Y-10569548D02*
X7386500Y-10579071D01*
X7386500Y-10579071D02*
X7396024Y-10598119D01*
X7396024Y-10598119D02*
X7405548Y-10636214D01*
X7405548Y-10636214D02*
X7405548Y-10683833D01*
X7405548Y-10683833D02*
X7396024Y-10721929D01*
X7396024Y-10721929D02*
X7386500Y-10740976D01*
X7386500Y-10740976D02*
X7376976Y-10750500D01*
X7376976Y-10750500D02*
X7357929Y-10760024D01*
X7357929Y-10760024D02*
X7338881Y-10760024D01*
X7338881Y-10760024D02*
X7319833Y-10750500D01*
X7319833Y-10750500D02*
X7310309Y-10740976D01*
X7310309Y-10740976D02*
X7300786Y-10721929D01*
X7300786Y-10721929D02*
X7291262Y-10683833D01*
X7291262Y-10683833D02*
X7291262Y-10636214D01*
X7291262Y-10636214D02*
X7300786Y-10598119D01*
X7300786Y-10598119D02*
X7310309Y-10579071D01*
X7310309Y-10579071D02*
X7319833Y-10569548D01*
X7319833Y-10569548D02*
X7338881Y-10560024D01*
X7491262Y-10760024D02*
X7491262Y-10626690D01*
X7491262Y-10645738D02*
X7500786Y-10636214D01*
X7500786Y-10636214D02*
X7519833Y-10626690D01*
X7519833Y-10626690D02*
X7548405Y-10626690D01*
X7548405Y-10626690D02*
X7567452Y-10636214D01*
X7567452Y-10636214D02*
X7576976Y-10655262D01*
X7576976Y-10655262D02*
X7576976Y-10760024D01*
X7576976Y-10655262D02*
X7586500Y-10636214D01*
X7586500Y-10636214D02*
X7605548Y-10626690D01*
X7605548Y-10626690D02*
X7634119Y-10626690D01*
X7634119Y-10626690D02*
X7653167Y-10636214D01*
X7653167Y-10636214D02*
X7662690Y-10655262D01*
X7662690Y-10655262D02*
X7662690Y-10760024D01*
X7757929Y-10760024D02*
X7757929Y-10626690D01*
X7757929Y-10645738D02*
X7767452Y-10636214D01*
X7767452Y-10636214D02*
X7786500Y-10626690D01*
X7786500Y-10626690D02*
X7815071Y-10626690D01*
X7815071Y-10626690D02*
X7834119Y-10636214D01*
X7834119Y-10636214D02*
X7843643Y-10655262D01*
X7843643Y-10655262D02*
X7843643Y-10760024D01*
X7843643Y-10655262D02*
X7853167Y-10636214D01*
X7853167Y-10636214D02*
X7872214Y-10626690D01*
X7872214Y-10626690D02*
X7900786Y-10626690D01*
X7900786Y-10626690D02*
X7919833Y-10636214D01*
X7919833Y-10636214D02*
X7929357Y-10655262D01*
X7929357Y-10655262D02*
X7929357Y-10760024D01*
X8319833Y-10550500D02*
X8148405Y-10807643D01*
X8576976Y-10560024D02*
X8596024Y-10560024D01*
X8596024Y-10560024D02*
X8615072Y-10569548D01*
X8615072Y-10569548D02*
X8624595Y-10579071D01*
X8624595Y-10579071D02*
X8634119Y-10598119D01*
X8634119Y-10598119D02*
X8643643Y-10636214D01*
X8643643Y-10636214D02*
X8643643Y-10683833D01*
X8643643Y-10683833D02*
X8634119Y-10721929D01*
X8634119Y-10721929D02*
X8624595Y-10740976D01*
X8624595Y-10740976D02*
X8615072Y-10750500D01*
X8615072Y-10750500D02*
X8596024Y-10760024D01*
X8596024Y-10760024D02*
X8576976Y-10760024D01*
X8576976Y-10760024D02*
X8557929Y-10750500D01*
X8557929Y-10750500D02*
X8548405Y-10740976D01*
X8548405Y-10740976D02*
X8538881Y-10721929D01*
X8538881Y-10721929D02*
X8529357Y-10683833D01*
X8529357Y-10683833D02*
X8529357Y-10636214D01*
X8529357Y-10636214D02*
X8538881Y-10598119D01*
X8538881Y-10598119D02*
X8548405Y-10579071D01*
X8548405Y-10579071D02*
X8557929Y-10569548D01*
X8557929Y-10569548D02*
X8576976Y-10560024D01*
X8729357Y-10740976D02*
X8738881Y-10750500D01*
X8738881Y-10750500D02*
X8729357Y-10760024D01*
X8729357Y-10760024D02*
X8719834Y-10750500D01*
X8719834Y-10750500D02*
X8729357Y-10740976D01*
X8729357Y-10740976D02*
X8729357Y-10760024D01*
X8929357Y-10760024D02*
X8815072Y-10760024D01*
X8872214Y-10760024D02*
X8872214Y-10560024D01*
X8872214Y-10560024D02*
X8853167Y-10588595D01*
X8853167Y-10588595D02*
X8834119Y-10607643D01*
X8834119Y-10607643D02*
X8815072Y-10617167D01*
X9005548Y-10579071D02*
X9015072Y-10569548D01*
X9015072Y-10569548D02*
X9034119Y-10560024D01*
X9034119Y-10560024D02*
X9081738Y-10560024D01*
X9081738Y-10560024D02*
X9100786Y-10569548D01*
X9100786Y-10569548D02*
X9110310Y-10579071D01*
X9110310Y-10579071D02*
X9119834Y-10598119D01*
X9119834Y-10598119D02*
X9119834Y-10617167D01*
X9119834Y-10617167D02*
X9110310Y-10645738D01*
X9110310Y-10645738D02*
X8996024Y-10760024D01*
X8996024Y-10760024D02*
X9119834Y-10760024D01*
X9215072Y-10760024D02*
X9253167Y-10760024D01*
X9253167Y-10760024D02*
X9272215Y-10750500D01*
X9272215Y-10750500D02*
X9281738Y-10740976D01*
X9281738Y-10740976D02*
X9300786Y-10712405D01*
X9300786Y-10712405D02*
X9310310Y-10674310D01*
X9310310Y-10674310D02*
X9310310Y-10598119D01*
X9310310Y-10598119D02*
X9300786Y-10579071D01*
X9300786Y-10579071D02*
X9291262Y-10569548D01*
X9291262Y-10569548D02*
X9272215Y-10560024D01*
X9272215Y-10560024D02*
X9234119Y-10560024D01*
X9234119Y-10560024D02*
X9215072Y-10569548D01*
X9215072Y-10569548D02*
X9205548Y-10579071D01*
X9205548Y-10579071D02*
X9196024Y-10598119D01*
X9196024Y-10598119D02*
X9196024Y-10645738D01*
X9196024Y-10645738D02*
X9205548Y-10664786D01*
X9205548Y-10664786D02*
X9215072Y-10674310D01*
X9215072Y-10674310D02*
X9234119Y-10683833D01*
X9234119Y-10683833D02*
X9272215Y-10683833D01*
X9272215Y-10683833D02*
X9291262Y-10674310D01*
X9291262Y-10674310D02*
X9300786Y-10664786D01*
X9300786Y-10664786D02*
X9310310Y-10645738D01*
X9405548Y-10760024D02*
X9443643Y-10760024D01*
X9443643Y-10760024D02*
X9462691Y-10750500D01*
X9462691Y-10750500D02*
X9472215Y-10740976D01*
X9472215Y-10740976D02*
X9491262Y-10712405D01*
X9491262Y-10712405D02*
X9500786Y-10674310D01*
X9500786Y-10674310D02*
X9500786Y-10598119D01*
X9500786Y-10598119D02*
X9491262Y-10579071D01*
X9491262Y-10579071D02*
X9481738Y-10569548D01*
X9481738Y-10569548D02*
X9462691Y-10560024D01*
X9462691Y-10560024D02*
X9424595Y-10560024D01*
X9424595Y-10560024D02*
X9405548Y-10569548D01*
X9405548Y-10569548D02*
X9396024Y-10579071D01*
X9396024Y-10579071D02*
X9386500Y-10598119D01*
X9386500Y-10598119D02*
X9386500Y-10645738D01*
X9386500Y-10645738D02*
X9396024Y-10664786D01*
X9396024Y-10664786D02*
X9405548Y-10674310D01*
X9405548Y-10674310D02*
X9424595Y-10683833D01*
X9424595Y-10683833D02*
X9462691Y-10683833D01*
X9462691Y-10683833D02*
X9481738Y-10674310D01*
X9481738Y-10674310D02*
X9491262Y-10664786D01*
X9491262Y-10664786D02*
X9500786Y-10645738D01*
X9576976Y-10560024D02*
X9576976Y-10598119D01*
X9653167Y-10560024D02*
X9653167Y-10598119D01*
X9948405Y-10836214D02*
X9938881Y-10826690D01*
X9938881Y-10826690D02*
X9919834Y-10798119D01*
X9919834Y-10798119D02*
X9910310Y-10779071D01*
X9910310Y-10779071D02*
X9900786Y-10750500D01*
X9900786Y-10750500D02*
X9891262Y-10702881D01*
X9891262Y-10702881D02*
X9891262Y-10664786D01*
X9891262Y-10664786D02*
X9900786Y-10617167D01*
X9900786Y-10617167D02*
X9910310Y-10588595D01*
X9910310Y-10588595D02*
X9919834Y-10569548D01*
X9919834Y-10569548D02*
X9938881Y-10540976D01*
X9938881Y-10540976D02*
X9948405Y-10531452D01*
X10129357Y-10760024D02*
X10015072Y-10760024D01*
X10072215Y-10760024D02*
X10072215Y-10560024D01*
X10072215Y-10560024D02*
X10053167Y-10588595D01*
X10053167Y-10588595D02*
X10034119Y-10607643D01*
X10034119Y-10607643D02*
X10015072Y-10617167D01*
X10367453Y-10760024D02*
X10367453Y-10560024D01*
X10453167Y-10760024D02*
X10453167Y-10655262D01*
X10453167Y-10655262D02*
X10443643Y-10636214D01*
X10443643Y-10636214D02*
X10424596Y-10626690D01*
X10424596Y-10626690D02*
X10396024Y-10626690D01*
X10396024Y-10626690D02*
X10376977Y-10636214D01*
X10376977Y-10636214D02*
X10367453Y-10645738D01*
X10576977Y-10760024D02*
X10557929Y-10750500D01*
X10557929Y-10750500D02*
X10548405Y-10740976D01*
X10548405Y-10740976D02*
X10538881Y-10721929D01*
X10538881Y-10721929D02*
X10538881Y-10664786D01*
X10538881Y-10664786D02*
X10548405Y-10645738D01*
X10548405Y-10645738D02*
X10557929Y-10636214D01*
X10557929Y-10636214D02*
X10576977Y-10626690D01*
X10576977Y-10626690D02*
X10605548Y-10626690D01*
X10605548Y-10626690D02*
X10624596Y-10636214D01*
X10624596Y-10636214D02*
X10634119Y-10645738D01*
X10634119Y-10645738D02*
X10643643Y-10664786D01*
X10643643Y-10664786D02*
X10643643Y-10721929D01*
X10643643Y-10721929D02*
X10634119Y-10740976D01*
X10634119Y-10740976D02*
X10624596Y-10750500D01*
X10624596Y-10750500D02*
X10605548Y-10760024D01*
X10605548Y-10760024D02*
X10576977Y-10760024D01*
X10757929Y-10760024D02*
X10738881Y-10750500D01*
X10738881Y-10750500D02*
X10729358Y-10731452D01*
X10729358Y-10731452D02*
X10729358Y-10560024D01*
X10910310Y-10750500D02*
X10891262Y-10760024D01*
X10891262Y-10760024D02*
X10853167Y-10760024D01*
X10853167Y-10760024D02*
X10834119Y-10750500D01*
X10834119Y-10750500D02*
X10824596Y-10731452D01*
X10824596Y-10731452D02*
X10824596Y-10655262D01*
X10824596Y-10655262D02*
X10834119Y-10636214D01*
X10834119Y-10636214D02*
X10853167Y-10626690D01*
X10853167Y-10626690D02*
X10891262Y-10626690D01*
X10891262Y-10626690D02*
X10910310Y-10636214D01*
X10910310Y-10636214D02*
X10919834Y-10655262D01*
X10919834Y-10655262D02*
X10919834Y-10674310D01*
X10919834Y-10674310D02*
X10824596Y-10693357D01*
X10986500Y-10836214D02*
X10996024Y-10826690D01*
X10996024Y-10826690D02*
X11015072Y-10798119D01*
X11015072Y-10798119D02*
X11024596Y-10779071D01*
X11024596Y-10779071D02*
X11034119Y-10750500D01*
X11034119Y-10750500D02*
X11043643Y-10702881D01*
X11043643Y-10702881D02*
X11043643Y-10664786D01*
X11043643Y-10664786D02*
X11034119Y-10617167D01*
X11034119Y-10617167D02*
X11024596Y-10588595D01*
X11024596Y-10588595D02*
X11015072Y-10569548D01*
X11015072Y-10569548D02*
X10996024Y-10540976D01*
X10996024Y-10540976D02*
X10986500Y-10531452D01*
X11348405Y-10836214D02*
X11338881Y-10826690D01*
X11338881Y-10826690D02*
X11319834Y-10798119D01*
X11319834Y-10798119D02*
X11310310Y-10779071D01*
X11310310Y-10779071D02*
X11300786Y-10750500D01*
X11300786Y-10750500D02*
X11291262Y-10702881D01*
X11291262Y-10702881D02*
X11291262Y-10664786D01*
X11291262Y-10664786D02*
X11300786Y-10617167D01*
X11300786Y-10617167D02*
X11310310Y-10588595D01*
X11310310Y-10588595D02*
X11319834Y-10569548D01*
X11319834Y-10569548D02*
X11338881Y-10540976D01*
X11338881Y-10540976D02*
X11348405Y-10531452D01*
X11424596Y-10626690D02*
X11424596Y-10760024D01*
X11424596Y-10645738D02*
X11434119Y-10636214D01*
X11434119Y-10636214D02*
X11453167Y-10626690D01*
X11453167Y-10626690D02*
X11481738Y-10626690D01*
X11481738Y-10626690D02*
X11500786Y-10636214D01*
X11500786Y-10636214D02*
X11510310Y-10655262D01*
X11510310Y-10655262D02*
X11510310Y-10760024D01*
X11634119Y-10760024D02*
X11615072Y-10750500D01*
X11615072Y-10750500D02*
X11605548Y-10740976D01*
X11605548Y-10740976D02*
X11596024Y-10721929D01*
X11596024Y-10721929D02*
X11596024Y-10664786D01*
X11596024Y-10664786D02*
X11605548Y-10645738D01*
X11605548Y-10645738D02*
X11615072Y-10636214D01*
X11615072Y-10636214D02*
X11634119Y-10626690D01*
X11634119Y-10626690D02*
X11662691Y-10626690D01*
X11662691Y-10626690D02*
X11681738Y-10636214D01*
X11681738Y-10636214D02*
X11691262Y-10645738D01*
X11691262Y-10645738D02*
X11700786Y-10664786D01*
X11700786Y-10664786D02*
X11700786Y-10721929D01*
X11700786Y-10721929D02*
X11691262Y-10740976D01*
X11691262Y-10740976D02*
X11681738Y-10750500D01*
X11681738Y-10750500D02*
X11662691Y-10760024D01*
X11662691Y-10760024D02*
X11634119Y-10760024D01*
X11757929Y-10626690D02*
X11834119Y-10626690D01*
X11786500Y-10560024D02*
X11786500Y-10731452D01*
X11786500Y-10731452D02*
X11796024Y-10750500D01*
X11796024Y-10750500D02*
X11815072Y-10760024D01*
X11815072Y-10760024D02*
X11834119Y-10760024D01*
X12053167Y-10626690D02*
X12053167Y-10826690D01*
X12053167Y-10636214D02*
X12072215Y-10626690D01*
X12072215Y-10626690D02*
X12110310Y-10626690D01*
X12110310Y-10626690D02*
X12129358Y-10636214D01*
X12129358Y-10636214D02*
X12138881Y-10645738D01*
X12138881Y-10645738D02*
X12148405Y-10664786D01*
X12148405Y-10664786D02*
X12148405Y-10721929D01*
X12148405Y-10721929D02*
X12138881Y-10740976D01*
X12138881Y-10740976D02*
X12129358Y-10750500D01*
X12129358Y-10750500D02*
X12110310Y-10760024D01*
X12110310Y-10760024D02*
X12072215Y-10760024D01*
X12072215Y-10760024D02*
X12053167Y-10750500D01*
X12262691Y-10760024D02*
X12243643Y-10750500D01*
X12243643Y-10750500D02*
X12234119Y-10731452D01*
X12234119Y-10731452D02*
X12234119Y-10560024D01*
X12424596Y-10760024D02*
X12424596Y-10655262D01*
X12424596Y-10655262D02*
X12415072Y-10636214D01*
X12415072Y-10636214D02*
X12396024Y-10626690D01*
X12396024Y-10626690D02*
X12357929Y-10626690D01*
X12357929Y-10626690D02*
X12338881Y-10636214D01*
X12424596Y-10750500D02*
X12405548Y-10760024D01*
X12405548Y-10760024D02*
X12357929Y-10760024D01*
X12357929Y-10760024D02*
X12338881Y-10750500D01*
X12338881Y-10750500D02*
X12329358Y-10731452D01*
X12329358Y-10731452D02*
X12329358Y-10712405D01*
X12329358Y-10712405D02*
X12338881Y-10693357D01*
X12338881Y-10693357D02*
X12357929Y-10683833D01*
X12357929Y-10683833D02*
X12405548Y-10683833D01*
X12405548Y-10683833D02*
X12424596Y-10674310D01*
X12491262Y-10626690D02*
X12567453Y-10626690D01*
X12519834Y-10560024D02*
X12519834Y-10731452D01*
X12519834Y-10731452D02*
X12529358Y-10750500D01*
X12529358Y-10750500D02*
X12548405Y-10760024D01*
X12548405Y-10760024D02*
X12567453Y-10760024D01*
X12710310Y-10750500D02*
X12691262Y-10760024D01*
X12691262Y-10760024D02*
X12653167Y-10760024D01*
X12653167Y-10760024D02*
X12634119Y-10750500D01*
X12634119Y-10750500D02*
X12624596Y-10731452D01*
X12624596Y-10731452D02*
X12624596Y-10655262D01*
X12624596Y-10655262D02*
X12634119Y-10636214D01*
X12634119Y-10636214D02*
X12653167Y-10626690D01*
X12653167Y-10626690D02*
X12691262Y-10626690D01*
X12691262Y-10626690D02*
X12710310Y-10636214D01*
X12710310Y-10636214D02*
X12719834Y-10655262D01*
X12719834Y-10655262D02*
X12719834Y-10674310D01*
X12719834Y-10674310D02*
X12624596Y-10693357D01*
X12891262Y-10760024D02*
X12891262Y-10560024D01*
X12891262Y-10750500D02*
X12872215Y-10760024D01*
X12872215Y-10760024D02*
X12834119Y-10760024D01*
X12834119Y-10760024D02*
X12815072Y-10750500D01*
X12815072Y-10750500D02*
X12805548Y-10740976D01*
X12805548Y-10740976D02*
X12796024Y-10721929D01*
X12796024Y-10721929D02*
X12796024Y-10664786D01*
X12796024Y-10664786D02*
X12805548Y-10645738D01*
X12805548Y-10645738D02*
X12815072Y-10636214D01*
X12815072Y-10636214D02*
X12834119Y-10626690D01*
X12834119Y-10626690D02*
X12872215Y-10626690D01*
X12872215Y-10626690D02*
X12891262Y-10636214D01*
X12967453Y-10836214D02*
X12976977Y-10826690D01*
X12976977Y-10826690D02*
X12996024Y-10798119D01*
X12996024Y-10798119D02*
X13005548Y-10779071D01*
X13005548Y-10779071D02*
X13015072Y-10750500D01*
X13015072Y-10750500D02*
X13024596Y-10702881D01*
X13024596Y-10702881D02*
X13024596Y-10664786D01*
X13024596Y-10664786D02*
X13015072Y-10617167D01*
X13015072Y-10617167D02*
X13005548Y-10588595D01*
X13005548Y-10588595D02*
X12996024Y-10569548D01*
X12996024Y-10569548D02*
X12976977Y-10540976D01*
X12976977Y-10540976D02*
X12967453Y-10531452D01*
X6286500Y-10887500D02*
X6286500Y-11087500D01*
X6186500Y-10987500D02*
X6386500Y-10987500D01*
X6615071Y-10880024D02*
X6738881Y-10880024D01*
X6738881Y-10880024D02*
X6672214Y-10956214D01*
X6672214Y-10956214D02*
X6700786Y-10956214D01*
X6700786Y-10956214D02*
X6719833Y-10965738D01*
X6719833Y-10965738D02*
X6729357Y-10975262D01*
X6729357Y-10975262D02*
X6738881Y-10994310D01*
X6738881Y-10994310D02*
X6738881Y-11041929D01*
X6738881Y-11041929D02*
X6729357Y-11060976D01*
X6729357Y-11060976D02*
X6719833Y-11070500D01*
X6719833Y-11070500D02*
X6700786Y-11080024D01*
X6700786Y-11080024D02*
X6643643Y-11080024D01*
X6643643Y-11080024D02*
X6624595Y-11070500D01*
X6624595Y-11070500D02*
X6615071Y-11060976D01*
X6824595Y-11060976D02*
X6834119Y-11070500D01*
X6834119Y-11070500D02*
X6824595Y-11080024D01*
X6824595Y-11080024D02*
X6815071Y-11070500D01*
X6815071Y-11070500D02*
X6824595Y-11060976D01*
X6824595Y-11060976D02*
X6824595Y-11080024D01*
X6900786Y-10880024D02*
X7024595Y-10880024D01*
X7024595Y-10880024D02*
X6957928Y-10956214D01*
X6957928Y-10956214D02*
X6986500Y-10956214D01*
X6986500Y-10956214D02*
X7005548Y-10965738D01*
X7005548Y-10965738D02*
X7015071Y-10975262D01*
X7015071Y-10975262D02*
X7024595Y-10994310D01*
X7024595Y-10994310D02*
X7024595Y-11041929D01*
X7024595Y-11041929D02*
X7015071Y-11060976D01*
X7015071Y-11060976D02*
X7005548Y-11070500D01*
X7005548Y-11070500D02*
X6986500Y-11080024D01*
X6986500Y-11080024D02*
X6929357Y-11080024D01*
X6929357Y-11080024D02*
X6910309Y-11070500D01*
X6910309Y-11070500D02*
X6900786Y-11060976D01*
X7205548Y-10880024D02*
X7110309Y-10880024D01*
X7110309Y-10880024D02*
X7100786Y-10975262D01*
X7100786Y-10975262D02*
X7110309Y-10965738D01*
X7110309Y-10965738D02*
X7129357Y-10956214D01*
X7129357Y-10956214D02*
X7176976Y-10956214D01*
X7176976Y-10956214D02*
X7196024Y-10965738D01*
X7196024Y-10965738D02*
X7205548Y-10975262D01*
X7205548Y-10975262D02*
X7215071Y-10994310D01*
X7215071Y-10994310D02*
X7215071Y-11041929D01*
X7215071Y-11041929D02*
X7205548Y-11060976D01*
X7205548Y-11060976D02*
X7196024Y-11070500D01*
X7196024Y-11070500D02*
X7176976Y-11080024D01*
X7176976Y-11080024D02*
X7129357Y-11080024D01*
X7129357Y-11080024D02*
X7110309Y-11070500D01*
X7110309Y-11070500D02*
X7100786Y-11060976D01*
X7338881Y-10880024D02*
X7357929Y-10880024D01*
X7357929Y-10880024D02*
X7376976Y-10889548D01*
X7376976Y-10889548D02*
X7386500Y-10899071D01*
X7386500Y-10899071D02*
X7396024Y-10918119D01*
X7396024Y-10918119D02*
X7405548Y-10956214D01*
X7405548Y-10956214D02*
X7405548Y-11003833D01*
X7405548Y-11003833D02*
X7396024Y-11041929D01*
X7396024Y-11041929D02*
X7386500Y-11060976D01*
X7386500Y-11060976D02*
X7376976Y-11070500D01*
X7376976Y-11070500D02*
X7357929Y-11080024D01*
X7357929Y-11080024D02*
X7338881Y-11080024D01*
X7338881Y-11080024D02*
X7319833Y-11070500D01*
X7319833Y-11070500D02*
X7310309Y-11060976D01*
X7310309Y-11060976D02*
X7300786Y-11041929D01*
X7300786Y-11041929D02*
X7291262Y-11003833D01*
X7291262Y-11003833D02*
X7291262Y-10956214D01*
X7291262Y-10956214D02*
X7300786Y-10918119D01*
X7300786Y-10918119D02*
X7310309Y-10899071D01*
X7310309Y-10899071D02*
X7319833Y-10889548D01*
X7319833Y-10889548D02*
X7338881Y-10880024D01*
X7491262Y-11080024D02*
X7491262Y-10946690D01*
X7491262Y-10965738D02*
X7500786Y-10956214D01*
X7500786Y-10956214D02*
X7519833Y-10946690D01*
X7519833Y-10946690D02*
X7548405Y-10946690D01*
X7548405Y-10946690D02*
X7567452Y-10956214D01*
X7567452Y-10956214D02*
X7576976Y-10975262D01*
X7576976Y-10975262D02*
X7576976Y-11080024D01*
X7576976Y-10975262D02*
X7586500Y-10956214D01*
X7586500Y-10956214D02*
X7605548Y-10946690D01*
X7605548Y-10946690D02*
X7634119Y-10946690D01*
X7634119Y-10946690D02*
X7653167Y-10956214D01*
X7653167Y-10956214D02*
X7662690Y-10975262D01*
X7662690Y-10975262D02*
X7662690Y-11080024D01*
X7757929Y-11080024D02*
X7757929Y-10946690D01*
X7757929Y-10965738D02*
X7767452Y-10956214D01*
X7767452Y-10956214D02*
X7786500Y-10946690D01*
X7786500Y-10946690D02*
X7815071Y-10946690D01*
X7815071Y-10946690D02*
X7834119Y-10956214D01*
X7834119Y-10956214D02*
X7843643Y-10975262D01*
X7843643Y-10975262D02*
X7843643Y-11080024D01*
X7843643Y-10975262D02*
X7853167Y-10956214D01*
X7853167Y-10956214D02*
X7872214Y-10946690D01*
X7872214Y-10946690D02*
X7900786Y-10946690D01*
X7900786Y-10946690D02*
X7919833Y-10956214D01*
X7919833Y-10956214D02*
X7929357Y-10975262D01*
X7929357Y-10975262D02*
X7929357Y-11080024D01*
X8319833Y-10870500D02*
X8148405Y-11127643D01*
X8576976Y-10880024D02*
X8596024Y-10880024D01*
X8596024Y-10880024D02*
X8615072Y-10889548D01*
X8615072Y-10889548D02*
X8624595Y-10899071D01*
X8624595Y-10899071D02*
X8634119Y-10918119D01*
X8634119Y-10918119D02*
X8643643Y-10956214D01*
X8643643Y-10956214D02*
X8643643Y-11003833D01*
X8643643Y-11003833D02*
X8634119Y-11041929D01*
X8634119Y-11041929D02*
X8624595Y-11060976D01*
X8624595Y-11060976D02*
X8615072Y-11070500D01*
X8615072Y-11070500D02*
X8596024Y-11080024D01*
X8596024Y-11080024D02*
X8576976Y-11080024D01*
X8576976Y-11080024D02*
X8557929Y-11070500D01*
X8557929Y-11070500D02*
X8548405Y-11060976D01*
X8548405Y-11060976D02*
X8538881Y-11041929D01*
X8538881Y-11041929D02*
X8529357Y-11003833D01*
X8529357Y-11003833D02*
X8529357Y-10956214D01*
X8529357Y-10956214D02*
X8538881Y-10918119D01*
X8538881Y-10918119D02*
X8548405Y-10899071D01*
X8548405Y-10899071D02*
X8557929Y-10889548D01*
X8557929Y-10889548D02*
X8576976Y-10880024D01*
X8729357Y-11060976D02*
X8738881Y-11070500D01*
X8738881Y-11070500D02*
X8729357Y-11080024D01*
X8729357Y-11080024D02*
X8719834Y-11070500D01*
X8719834Y-11070500D02*
X8729357Y-11060976D01*
X8729357Y-11060976D02*
X8729357Y-11080024D01*
X8929357Y-11080024D02*
X8815072Y-11080024D01*
X8872214Y-11080024D02*
X8872214Y-10880024D01*
X8872214Y-10880024D02*
X8853167Y-10908595D01*
X8853167Y-10908595D02*
X8834119Y-10927643D01*
X8834119Y-10927643D02*
X8815072Y-10937167D01*
X8996024Y-10880024D02*
X9119834Y-10880024D01*
X9119834Y-10880024D02*
X9053167Y-10956214D01*
X9053167Y-10956214D02*
X9081738Y-10956214D01*
X9081738Y-10956214D02*
X9100786Y-10965738D01*
X9100786Y-10965738D02*
X9110310Y-10975262D01*
X9110310Y-10975262D02*
X9119834Y-10994310D01*
X9119834Y-10994310D02*
X9119834Y-11041929D01*
X9119834Y-11041929D02*
X9110310Y-11060976D01*
X9110310Y-11060976D02*
X9100786Y-11070500D01*
X9100786Y-11070500D02*
X9081738Y-11080024D01*
X9081738Y-11080024D02*
X9024595Y-11080024D01*
X9024595Y-11080024D02*
X9005548Y-11070500D01*
X9005548Y-11070500D02*
X8996024Y-11060976D01*
X9310310Y-11080024D02*
X9196024Y-11080024D01*
X9253167Y-11080024D02*
X9253167Y-10880024D01*
X9253167Y-10880024D02*
X9234119Y-10908595D01*
X9234119Y-10908595D02*
X9215072Y-10927643D01*
X9215072Y-10927643D02*
X9196024Y-10937167D01*
X9405548Y-11080024D02*
X9443643Y-11080024D01*
X9443643Y-11080024D02*
X9462691Y-11070500D01*
X9462691Y-11070500D02*
X9472215Y-11060976D01*
X9472215Y-11060976D02*
X9491262Y-11032405D01*
X9491262Y-11032405D02*
X9500786Y-10994310D01*
X9500786Y-10994310D02*
X9500786Y-10918119D01*
X9500786Y-10918119D02*
X9491262Y-10899071D01*
X9491262Y-10899071D02*
X9481738Y-10889548D01*
X9481738Y-10889548D02*
X9462691Y-10880024D01*
X9462691Y-10880024D02*
X9424595Y-10880024D01*
X9424595Y-10880024D02*
X9405548Y-10889548D01*
X9405548Y-10889548D02*
X9396024Y-10899071D01*
X9396024Y-10899071D02*
X9386500Y-10918119D01*
X9386500Y-10918119D02*
X9386500Y-10965738D01*
X9386500Y-10965738D02*
X9396024Y-10984786D01*
X9396024Y-10984786D02*
X9405548Y-10994310D01*
X9405548Y-10994310D02*
X9424595Y-11003833D01*
X9424595Y-11003833D02*
X9462691Y-11003833D01*
X9462691Y-11003833D02*
X9481738Y-10994310D01*
X9481738Y-10994310D02*
X9491262Y-10984786D01*
X9491262Y-10984786D02*
X9500786Y-10965738D01*
X9576976Y-10880024D02*
X9576976Y-10918119D01*
X9653167Y-10880024D02*
X9653167Y-10918119D01*
X9948405Y-11156214D02*
X9938881Y-11146690D01*
X9938881Y-11146690D02*
X9919834Y-11118119D01*
X9919834Y-11118119D02*
X9910310Y-11099071D01*
X9910310Y-11099071D02*
X9900786Y-11070500D01*
X9900786Y-11070500D02*
X9891262Y-11022881D01*
X9891262Y-11022881D02*
X9891262Y-10984786D01*
X9891262Y-10984786D02*
X9900786Y-10937167D01*
X9900786Y-10937167D02*
X9910310Y-10908595D01*
X9910310Y-10908595D02*
X9919834Y-10889548D01*
X9919834Y-10889548D02*
X9938881Y-10860976D01*
X9938881Y-10860976D02*
X9948405Y-10851452D01*
X10129357Y-11080024D02*
X10015072Y-11080024D01*
X10072215Y-11080024D02*
X10072215Y-10880024D01*
X10072215Y-10880024D02*
X10053167Y-10908595D01*
X10053167Y-10908595D02*
X10034119Y-10927643D01*
X10034119Y-10927643D02*
X10015072Y-10937167D01*
X10357929Y-11070500D02*
X10376977Y-11080024D01*
X10376977Y-11080024D02*
X10415072Y-11080024D01*
X10415072Y-11080024D02*
X10434119Y-11070500D01*
X10434119Y-11070500D02*
X10443643Y-11051452D01*
X10443643Y-11051452D02*
X10443643Y-11041929D01*
X10443643Y-11041929D02*
X10434119Y-11022881D01*
X10434119Y-11022881D02*
X10415072Y-11013357D01*
X10415072Y-11013357D02*
X10386500Y-11013357D01*
X10386500Y-11013357D02*
X10367453Y-11003833D01*
X10367453Y-11003833D02*
X10357929Y-10984786D01*
X10357929Y-10984786D02*
X10357929Y-10975262D01*
X10357929Y-10975262D02*
X10367453Y-10956214D01*
X10367453Y-10956214D02*
X10386500Y-10946690D01*
X10386500Y-10946690D02*
X10415072Y-10946690D01*
X10415072Y-10946690D02*
X10434119Y-10956214D01*
X10557929Y-11080024D02*
X10538881Y-11070500D01*
X10538881Y-11070500D02*
X10529358Y-11051452D01*
X10529358Y-11051452D02*
X10529358Y-10880024D01*
X10662691Y-11080024D02*
X10643643Y-11070500D01*
X10643643Y-11070500D02*
X10634119Y-11060976D01*
X10634119Y-11060976D02*
X10624596Y-11041929D01*
X10624596Y-11041929D02*
X10624596Y-10984786D01*
X10624596Y-10984786D02*
X10634119Y-10965738D01*
X10634119Y-10965738D02*
X10643643Y-10956214D01*
X10643643Y-10956214D02*
X10662691Y-10946690D01*
X10662691Y-10946690D02*
X10691262Y-10946690D01*
X10691262Y-10946690D02*
X10710310Y-10956214D01*
X10710310Y-10956214D02*
X10719834Y-10965738D01*
X10719834Y-10965738D02*
X10729358Y-10984786D01*
X10729358Y-10984786D02*
X10729358Y-11041929D01*
X10729358Y-11041929D02*
X10719834Y-11060976D01*
X10719834Y-11060976D02*
X10710310Y-11070500D01*
X10710310Y-11070500D02*
X10691262Y-11080024D01*
X10691262Y-11080024D02*
X10662691Y-11080024D01*
X10786500Y-10946690D02*
X10862691Y-10946690D01*
X10815072Y-10880024D02*
X10815072Y-11051452D01*
X10815072Y-11051452D02*
X10824596Y-11070500D01*
X10824596Y-11070500D02*
X10843643Y-11080024D01*
X10843643Y-11080024D02*
X10862691Y-11080024D01*
X10910310Y-11156214D02*
X10919834Y-11146690D01*
X10919834Y-11146690D02*
X10938881Y-11118119D01*
X10938881Y-11118119D02*
X10948405Y-11099071D01*
X10948405Y-11099071D02*
X10957929Y-11070500D01*
X10957929Y-11070500D02*
X10967453Y-11022881D01*
X10967453Y-11022881D02*
X10967453Y-10984786D01*
X10967453Y-10984786D02*
X10957929Y-10937167D01*
X10957929Y-10937167D02*
X10948405Y-10908595D01*
X10948405Y-10908595D02*
X10938881Y-10889548D01*
X10938881Y-10889548D02*
X10919834Y-10860976D01*
X10919834Y-10860976D02*
X10910310Y-10851452D01*
X11272215Y-11156214D02*
X11262691Y-11146690D01*
X11262691Y-11146690D02*
X11243643Y-11118119D01*
X11243643Y-11118119D02*
X11234119Y-11099071D01*
X11234119Y-11099071D02*
X11224596Y-11070500D01*
X11224596Y-11070500D02*
X11215072Y-11022881D01*
X11215072Y-11022881D02*
X11215072Y-10984786D01*
X11215072Y-10984786D02*
X11224596Y-10937167D01*
X11224596Y-10937167D02*
X11234119Y-10908595D01*
X11234119Y-10908595D02*
X11243643Y-10889548D01*
X11243643Y-10889548D02*
X11262691Y-10860976D01*
X11262691Y-10860976D02*
X11272215Y-10851452D01*
X11348405Y-10946690D02*
X11348405Y-11080024D01*
X11348405Y-10965738D02*
X11357929Y-10956214D01*
X11357929Y-10956214D02*
X11376976Y-10946690D01*
X11376976Y-10946690D02*
X11405548Y-10946690D01*
X11405548Y-10946690D02*
X11424596Y-10956214D01*
X11424596Y-10956214D02*
X11434119Y-10975262D01*
X11434119Y-10975262D02*
X11434119Y-11080024D01*
X11557929Y-11080024D02*
X11538881Y-11070500D01*
X11538881Y-11070500D02*
X11529357Y-11060976D01*
X11529357Y-11060976D02*
X11519834Y-11041929D01*
X11519834Y-11041929D02*
X11519834Y-10984786D01*
X11519834Y-10984786D02*
X11529357Y-10965738D01*
X11529357Y-10965738D02*
X11538881Y-10956214D01*
X11538881Y-10956214D02*
X11557929Y-10946690D01*
X11557929Y-10946690D02*
X11586500Y-10946690D01*
X11586500Y-10946690D02*
X11605548Y-10956214D01*
X11605548Y-10956214D02*
X11615072Y-10965738D01*
X11615072Y-10965738D02*
X11624596Y-10984786D01*
X11624596Y-10984786D02*
X11624596Y-11041929D01*
X11624596Y-11041929D02*
X11615072Y-11060976D01*
X11615072Y-11060976D02*
X11605548Y-11070500D01*
X11605548Y-11070500D02*
X11586500Y-11080024D01*
X11586500Y-11080024D02*
X11557929Y-11080024D01*
X11681738Y-10946690D02*
X11757929Y-10946690D01*
X11710310Y-10880024D02*
X11710310Y-11051452D01*
X11710310Y-11051452D02*
X11719834Y-11070500D01*
X11719834Y-11070500D02*
X11738881Y-11080024D01*
X11738881Y-11080024D02*
X11757929Y-11080024D01*
X11976977Y-10946690D02*
X11976977Y-11146690D01*
X11976977Y-10956214D02*
X11996024Y-10946690D01*
X11996024Y-10946690D02*
X12034119Y-10946690D01*
X12034119Y-10946690D02*
X12053167Y-10956214D01*
X12053167Y-10956214D02*
X12062691Y-10965738D01*
X12062691Y-10965738D02*
X12072215Y-10984786D01*
X12072215Y-10984786D02*
X12072215Y-11041929D01*
X12072215Y-11041929D02*
X12062691Y-11060976D01*
X12062691Y-11060976D02*
X12053167Y-11070500D01*
X12053167Y-11070500D02*
X12034119Y-11080024D01*
X12034119Y-11080024D02*
X11996024Y-11080024D01*
X11996024Y-11080024D02*
X11976977Y-11070500D01*
X12186500Y-11080024D02*
X12167453Y-11070500D01*
X12167453Y-11070500D02*
X12157929Y-11051452D01*
X12157929Y-11051452D02*
X12157929Y-10880024D01*
X12348405Y-11080024D02*
X12348405Y-10975262D01*
X12348405Y-10975262D02*
X12338881Y-10956214D01*
X12338881Y-10956214D02*
X12319834Y-10946690D01*
X12319834Y-10946690D02*
X12281738Y-10946690D01*
X12281738Y-10946690D02*
X12262691Y-10956214D01*
X12348405Y-11070500D02*
X12329358Y-11080024D01*
X12329358Y-11080024D02*
X12281738Y-11080024D01*
X12281738Y-11080024D02*
X12262691Y-11070500D01*
X12262691Y-11070500D02*
X12253167Y-11051452D01*
X12253167Y-11051452D02*
X12253167Y-11032405D01*
X12253167Y-11032405D02*
X12262691Y-11013357D01*
X12262691Y-11013357D02*
X12281738Y-11003833D01*
X12281738Y-11003833D02*
X12329358Y-11003833D01*
X12329358Y-11003833D02*
X12348405Y-10994310D01*
X12415072Y-10946690D02*
X12491262Y-10946690D01*
X12443643Y-10880024D02*
X12443643Y-11051452D01*
X12443643Y-11051452D02*
X12453167Y-11070500D01*
X12453167Y-11070500D02*
X12472215Y-11080024D01*
X12472215Y-11080024D02*
X12491262Y-11080024D01*
X12634119Y-11070500D02*
X12615072Y-11080024D01*
X12615072Y-11080024D02*
X12576977Y-11080024D01*
X12576977Y-11080024D02*
X12557929Y-11070500D01*
X12557929Y-11070500D02*
X12548405Y-11051452D01*
X12548405Y-11051452D02*
X12548405Y-10975262D01*
X12548405Y-10975262D02*
X12557929Y-10956214D01*
X12557929Y-10956214D02*
X12576977Y-10946690D01*
X12576977Y-10946690D02*
X12615072Y-10946690D01*
X12615072Y-10946690D02*
X12634119Y-10956214D01*
X12634119Y-10956214D02*
X12643643Y-10975262D01*
X12643643Y-10975262D02*
X12643643Y-10994310D01*
X12643643Y-10994310D02*
X12548405Y-11013357D01*
X12815072Y-11080024D02*
X12815072Y-10880024D01*
X12815072Y-11070500D02*
X12796024Y-11080024D01*
X12796024Y-11080024D02*
X12757929Y-11080024D01*
X12757929Y-11080024D02*
X12738881Y-11070500D01*
X12738881Y-11070500D02*
X12729358Y-11060976D01*
X12729358Y-11060976D02*
X12719834Y-11041929D01*
X12719834Y-11041929D02*
X12719834Y-10984786D01*
X12719834Y-10984786D02*
X12729358Y-10965738D01*
X12729358Y-10965738D02*
X12738881Y-10956214D01*
X12738881Y-10956214D02*
X12757929Y-10946690D01*
X12757929Y-10946690D02*
X12796024Y-10946690D01*
X12796024Y-10946690D02*
X12815072Y-10956214D01*
X12891262Y-11156214D02*
X12900786Y-11146690D01*
X12900786Y-11146690D02*
X12919834Y-11118119D01*
X12919834Y-11118119D02*
X12929358Y-11099071D01*
X12929358Y-11099071D02*
X12938881Y-11070500D01*
X12938881Y-11070500D02*
X12948405Y-11022881D01*
X12948405Y-11022881D02*
X12948405Y-10984786D01*
X12948405Y-10984786D02*
X12938881Y-10937167D01*
X12938881Y-10937167D02*
X12929358Y-10908595D01*
X12929358Y-10908595D02*
X12919834Y-10889548D01*
X12919834Y-10889548D02*
X12900786Y-10860976D01*
X12900786Y-10860976D02*
X12891262Y-10851452D01*
X6357211Y-11378211D02*
X6357211Y-11236789D01*
X6215789Y-11236789D01*
X6215789Y-11378211D01*
X6357211Y-11378211D01*
X6719833Y-11266690D02*
X6719833Y-11400024D01*
X6672214Y-11190500D02*
X6624595Y-11333357D01*
X6624595Y-11333357D02*
X6748405Y-11333357D01*
X6824595Y-11380976D02*
X6834119Y-11390500D01*
X6834119Y-11390500D02*
X6824595Y-11400024D01*
X6824595Y-11400024D02*
X6815071Y-11390500D01*
X6815071Y-11390500D02*
X6824595Y-11380976D01*
X6824595Y-11380976D02*
X6824595Y-11400024D01*
X6910309Y-11219071D02*
X6919833Y-11209548D01*
X6919833Y-11209548D02*
X6938881Y-11200024D01*
X6938881Y-11200024D02*
X6986500Y-11200024D01*
X6986500Y-11200024D02*
X7005548Y-11209548D01*
X7005548Y-11209548D02*
X7015071Y-11219071D01*
X7015071Y-11219071D02*
X7024595Y-11238119D01*
X7024595Y-11238119D02*
X7024595Y-11257167D01*
X7024595Y-11257167D02*
X7015071Y-11285738D01*
X7015071Y-11285738D02*
X6900786Y-11400024D01*
X6900786Y-11400024D02*
X7024595Y-11400024D01*
X7138881Y-11285738D02*
X7119833Y-11276214D01*
X7119833Y-11276214D02*
X7110309Y-11266690D01*
X7110309Y-11266690D02*
X7100786Y-11247643D01*
X7100786Y-11247643D02*
X7100786Y-11238119D01*
X7100786Y-11238119D02*
X7110309Y-11219071D01*
X7110309Y-11219071D02*
X7119833Y-11209548D01*
X7119833Y-11209548D02*
X7138881Y-11200024D01*
X7138881Y-11200024D02*
X7176976Y-11200024D01*
X7176976Y-11200024D02*
X7196024Y-11209548D01*
X7196024Y-11209548D02*
X7205548Y-11219071D01*
X7205548Y-11219071D02*
X7215071Y-11238119D01*
X7215071Y-11238119D02*
X7215071Y-11247643D01*
X7215071Y-11247643D02*
X7205548Y-11266690D01*
X7205548Y-11266690D02*
X7196024Y-11276214D01*
X7196024Y-11276214D02*
X7176976Y-11285738D01*
X7176976Y-11285738D02*
X7138881Y-11285738D01*
X7138881Y-11285738D02*
X7119833Y-11295262D01*
X7119833Y-11295262D02*
X7110309Y-11304786D01*
X7110309Y-11304786D02*
X7100786Y-11323833D01*
X7100786Y-11323833D02*
X7100786Y-11361928D01*
X7100786Y-11361928D02*
X7110309Y-11380976D01*
X7110309Y-11380976D02*
X7119833Y-11390500D01*
X7119833Y-11390500D02*
X7138881Y-11400024D01*
X7138881Y-11400024D02*
X7176976Y-11400024D01*
X7176976Y-11400024D02*
X7196024Y-11390500D01*
X7196024Y-11390500D02*
X7205548Y-11380976D01*
X7205548Y-11380976D02*
X7215071Y-11361928D01*
X7215071Y-11361928D02*
X7215071Y-11323833D01*
X7215071Y-11323833D02*
X7205548Y-11304786D01*
X7205548Y-11304786D02*
X7196024Y-11295262D01*
X7196024Y-11295262D02*
X7176976Y-11285738D01*
X7338881Y-11200024D02*
X7357929Y-11200024D01*
X7357929Y-11200024D02*
X7376976Y-11209548D01*
X7376976Y-11209548D02*
X7386500Y-11219071D01*
X7386500Y-11219071D02*
X7396024Y-11238119D01*
X7396024Y-11238119D02*
X7405548Y-11276214D01*
X7405548Y-11276214D02*
X7405548Y-11323833D01*
X7405548Y-11323833D02*
X7396024Y-11361928D01*
X7396024Y-11361928D02*
X7386500Y-11380976D01*
X7386500Y-11380976D02*
X7376976Y-11390500D01*
X7376976Y-11390500D02*
X7357929Y-11400024D01*
X7357929Y-11400024D02*
X7338881Y-11400024D01*
X7338881Y-11400024D02*
X7319833Y-11390500D01*
X7319833Y-11390500D02*
X7310309Y-11380976D01*
X7310309Y-11380976D02*
X7300786Y-11361928D01*
X7300786Y-11361928D02*
X7291262Y-11323833D01*
X7291262Y-11323833D02*
X7291262Y-11276214D01*
X7291262Y-11276214D02*
X7300786Y-11238119D01*
X7300786Y-11238119D02*
X7310309Y-11219071D01*
X7310309Y-11219071D02*
X7319833Y-11209548D01*
X7319833Y-11209548D02*
X7338881Y-11200024D01*
X7491262Y-11400024D02*
X7491262Y-11266690D01*
X7491262Y-11285738D02*
X7500786Y-11276214D01*
X7500786Y-11276214D02*
X7519833Y-11266690D01*
X7519833Y-11266690D02*
X7548405Y-11266690D01*
X7548405Y-11266690D02*
X7567452Y-11276214D01*
X7567452Y-11276214D02*
X7576976Y-11295262D01*
X7576976Y-11295262D02*
X7576976Y-11400024D01*
X7576976Y-11295262D02*
X7586500Y-11276214D01*
X7586500Y-11276214D02*
X7605548Y-11266690D01*
X7605548Y-11266690D02*
X7634119Y-11266690D01*
X7634119Y-11266690D02*
X7653167Y-11276214D01*
X7653167Y-11276214D02*
X7662690Y-11295262D01*
X7662690Y-11295262D02*
X7662690Y-11400024D01*
X7757929Y-11400024D02*
X7757929Y-11266690D01*
X7757929Y-11285738D02*
X7767452Y-11276214D01*
X7767452Y-11276214D02*
X7786500Y-11266690D01*
X7786500Y-11266690D02*
X7815071Y-11266690D01*
X7815071Y-11266690D02*
X7834119Y-11276214D01*
X7834119Y-11276214D02*
X7843643Y-11295262D01*
X7843643Y-11295262D02*
X7843643Y-11400024D01*
X7843643Y-11295262D02*
X7853167Y-11276214D01*
X7853167Y-11276214D02*
X7872214Y-11266690D01*
X7872214Y-11266690D02*
X7900786Y-11266690D01*
X7900786Y-11266690D02*
X7919833Y-11276214D01*
X7919833Y-11276214D02*
X7929357Y-11295262D01*
X7929357Y-11295262D02*
X7929357Y-11400024D01*
X8319833Y-11190500D02*
X8148405Y-11447643D01*
X8576976Y-11200024D02*
X8596024Y-11200024D01*
X8596024Y-11200024D02*
X8615072Y-11209548D01*
X8615072Y-11209548D02*
X8624595Y-11219071D01*
X8624595Y-11219071D02*
X8634119Y-11238119D01*
X8634119Y-11238119D02*
X8643643Y-11276214D01*
X8643643Y-11276214D02*
X8643643Y-11323833D01*
X8643643Y-11323833D02*
X8634119Y-11361928D01*
X8634119Y-11361928D02*
X8624595Y-11380976D01*
X8624595Y-11380976D02*
X8615072Y-11390500D01*
X8615072Y-11390500D02*
X8596024Y-11400024D01*
X8596024Y-11400024D02*
X8576976Y-11400024D01*
X8576976Y-11400024D02*
X8557929Y-11390500D01*
X8557929Y-11390500D02*
X8548405Y-11380976D01*
X8548405Y-11380976D02*
X8538881Y-11361928D01*
X8538881Y-11361928D02*
X8529357Y-11323833D01*
X8529357Y-11323833D02*
X8529357Y-11276214D01*
X8529357Y-11276214D02*
X8538881Y-11238119D01*
X8538881Y-11238119D02*
X8548405Y-11219071D01*
X8548405Y-11219071D02*
X8557929Y-11209548D01*
X8557929Y-11209548D02*
X8576976Y-11200024D01*
X8729357Y-11380976D02*
X8738881Y-11390500D01*
X8738881Y-11390500D02*
X8729357Y-11400024D01*
X8729357Y-11400024D02*
X8719834Y-11390500D01*
X8719834Y-11390500D02*
X8729357Y-11380976D01*
X8729357Y-11380976D02*
X8729357Y-11400024D01*
X8929357Y-11400024D02*
X8815072Y-11400024D01*
X8872214Y-11400024D02*
X8872214Y-11200024D01*
X8872214Y-11200024D02*
X8853167Y-11228595D01*
X8853167Y-11228595D02*
X8834119Y-11247643D01*
X8834119Y-11247643D02*
X8815072Y-11257167D01*
X9100786Y-11200024D02*
X9062691Y-11200024D01*
X9062691Y-11200024D02*
X9043643Y-11209548D01*
X9043643Y-11209548D02*
X9034119Y-11219071D01*
X9034119Y-11219071D02*
X9015072Y-11247643D01*
X9015072Y-11247643D02*
X9005548Y-11285738D01*
X9005548Y-11285738D02*
X9005548Y-11361928D01*
X9005548Y-11361928D02*
X9015072Y-11380976D01*
X9015072Y-11380976D02*
X9024595Y-11390500D01*
X9024595Y-11390500D02*
X9043643Y-11400024D01*
X9043643Y-11400024D02*
X9081738Y-11400024D01*
X9081738Y-11400024D02*
X9100786Y-11390500D01*
X9100786Y-11390500D02*
X9110310Y-11380976D01*
X9110310Y-11380976D02*
X9119834Y-11361928D01*
X9119834Y-11361928D02*
X9119834Y-11314309D01*
X9119834Y-11314309D02*
X9110310Y-11295262D01*
X9110310Y-11295262D02*
X9100786Y-11285738D01*
X9100786Y-11285738D02*
X9081738Y-11276214D01*
X9081738Y-11276214D02*
X9043643Y-11276214D01*
X9043643Y-11276214D02*
X9024595Y-11285738D01*
X9024595Y-11285738D02*
X9015072Y-11295262D01*
X9015072Y-11295262D02*
X9005548Y-11314309D01*
X9234119Y-11285738D02*
X9215072Y-11276214D01*
X9215072Y-11276214D02*
X9205548Y-11266690D01*
X9205548Y-11266690D02*
X9196024Y-11247643D01*
X9196024Y-11247643D02*
X9196024Y-11238119D01*
X9196024Y-11238119D02*
X9205548Y-11219071D01*
X9205548Y-11219071D02*
X9215072Y-11209548D01*
X9215072Y-11209548D02*
X9234119Y-11200024D01*
X9234119Y-11200024D02*
X9272215Y-11200024D01*
X9272215Y-11200024D02*
X9291262Y-11209548D01*
X9291262Y-11209548D02*
X9300786Y-11219071D01*
X9300786Y-11219071D02*
X9310310Y-11238119D01*
X9310310Y-11238119D02*
X9310310Y-11247643D01*
X9310310Y-11247643D02*
X9300786Y-11266690D01*
X9300786Y-11266690D02*
X9291262Y-11276214D01*
X9291262Y-11276214D02*
X9272215Y-11285738D01*
X9272215Y-11285738D02*
X9234119Y-11285738D01*
X9234119Y-11285738D02*
X9215072Y-11295262D01*
X9215072Y-11295262D02*
X9205548Y-11304786D01*
X9205548Y-11304786D02*
X9196024Y-11323833D01*
X9196024Y-11323833D02*
X9196024Y-11361928D01*
X9196024Y-11361928D02*
X9205548Y-11380976D01*
X9205548Y-11380976D02*
X9215072Y-11390500D01*
X9215072Y-11390500D02*
X9234119Y-11400024D01*
X9234119Y-11400024D02*
X9272215Y-11400024D01*
X9272215Y-11400024D02*
X9291262Y-11390500D01*
X9291262Y-11390500D02*
X9300786Y-11380976D01*
X9300786Y-11380976D02*
X9310310Y-11361928D01*
X9310310Y-11361928D02*
X9310310Y-11323833D01*
X9310310Y-11323833D02*
X9300786Y-11304786D01*
X9300786Y-11304786D02*
X9291262Y-11295262D01*
X9291262Y-11295262D02*
X9272215Y-11285738D01*
X9491262Y-11200024D02*
X9396024Y-11200024D01*
X9396024Y-11200024D02*
X9386500Y-11295262D01*
X9386500Y-11295262D02*
X9396024Y-11285738D01*
X9396024Y-11285738D02*
X9415072Y-11276214D01*
X9415072Y-11276214D02*
X9462691Y-11276214D01*
X9462691Y-11276214D02*
X9481738Y-11285738D01*
X9481738Y-11285738D02*
X9491262Y-11295262D01*
X9491262Y-11295262D02*
X9500786Y-11314309D01*
X9500786Y-11314309D02*
X9500786Y-11361928D01*
X9500786Y-11361928D02*
X9491262Y-11380976D01*
X9491262Y-11380976D02*
X9481738Y-11390500D01*
X9481738Y-11390500D02*
X9462691Y-11400024D01*
X9462691Y-11400024D02*
X9415072Y-11400024D01*
X9415072Y-11400024D02*
X9396024Y-11390500D01*
X9396024Y-11390500D02*
X9386500Y-11380976D01*
X9576976Y-11200024D02*
X9576976Y-11238119D01*
X9653167Y-11200024D02*
X9653167Y-11238119D01*
X9948405Y-11476214D02*
X9938881Y-11466690D01*
X9938881Y-11466690D02*
X9919834Y-11438119D01*
X9919834Y-11438119D02*
X9910310Y-11419071D01*
X9910310Y-11419071D02*
X9900786Y-11390500D01*
X9900786Y-11390500D02*
X9891262Y-11342881D01*
X9891262Y-11342881D02*
X9891262Y-11304786D01*
X9891262Y-11304786D02*
X9900786Y-11257167D01*
X9900786Y-11257167D02*
X9910310Y-11228595D01*
X9910310Y-11228595D02*
X9919834Y-11209548D01*
X9919834Y-11209548D02*
X9938881Y-11180976D01*
X9938881Y-11180976D02*
X9948405Y-11171452D01*
X10129357Y-11400024D02*
X10015072Y-11400024D01*
X10072215Y-11400024D02*
X10072215Y-11200024D01*
X10072215Y-11200024D02*
X10053167Y-11228595D01*
X10053167Y-11228595D02*
X10034119Y-11247643D01*
X10034119Y-11247643D02*
X10015072Y-11257167D01*
X10367453Y-11400024D02*
X10367453Y-11200024D01*
X10453167Y-11400024D02*
X10453167Y-11295262D01*
X10453167Y-11295262D02*
X10443643Y-11276214D01*
X10443643Y-11276214D02*
X10424596Y-11266690D01*
X10424596Y-11266690D02*
X10396024Y-11266690D01*
X10396024Y-11266690D02*
X10376977Y-11276214D01*
X10376977Y-11276214D02*
X10367453Y-11285738D01*
X10576977Y-11400024D02*
X10557929Y-11390500D01*
X10557929Y-11390500D02*
X10548405Y-11380976D01*
X10548405Y-11380976D02*
X10538881Y-11361928D01*
X10538881Y-11361928D02*
X10538881Y-11304786D01*
X10538881Y-11304786D02*
X10548405Y-11285738D01*
X10548405Y-11285738D02*
X10557929Y-11276214D01*
X10557929Y-11276214D02*
X10576977Y-11266690D01*
X10576977Y-11266690D02*
X10605548Y-11266690D01*
X10605548Y-11266690D02*
X10624596Y-11276214D01*
X10624596Y-11276214D02*
X10634119Y-11285738D01*
X10634119Y-11285738D02*
X10643643Y-11304786D01*
X10643643Y-11304786D02*
X10643643Y-11361928D01*
X10643643Y-11361928D02*
X10634119Y-11380976D01*
X10634119Y-11380976D02*
X10624596Y-11390500D01*
X10624596Y-11390500D02*
X10605548Y-11400024D01*
X10605548Y-11400024D02*
X10576977Y-11400024D01*
X10757929Y-11400024D02*
X10738881Y-11390500D01*
X10738881Y-11390500D02*
X10729358Y-11371452D01*
X10729358Y-11371452D02*
X10729358Y-11200024D01*
X10910310Y-11390500D02*
X10891262Y-11400024D01*
X10891262Y-11400024D02*
X10853167Y-11400024D01*
X10853167Y-11400024D02*
X10834119Y-11390500D01*
X10834119Y-11390500D02*
X10824596Y-11371452D01*
X10824596Y-11371452D02*
X10824596Y-11295262D01*
X10824596Y-11295262D02*
X10834119Y-11276214D01*
X10834119Y-11276214D02*
X10853167Y-11266690D01*
X10853167Y-11266690D02*
X10891262Y-11266690D01*
X10891262Y-11266690D02*
X10910310Y-11276214D01*
X10910310Y-11276214D02*
X10919834Y-11295262D01*
X10919834Y-11295262D02*
X10919834Y-11314309D01*
X10919834Y-11314309D02*
X10824596Y-11333357D01*
X10986500Y-11476214D02*
X10996024Y-11466690D01*
X10996024Y-11466690D02*
X11015072Y-11438119D01*
X11015072Y-11438119D02*
X11024596Y-11419071D01*
X11024596Y-11419071D02*
X11034119Y-11390500D01*
X11034119Y-11390500D02*
X11043643Y-11342881D01*
X11043643Y-11342881D02*
X11043643Y-11304786D01*
X11043643Y-11304786D02*
X11034119Y-11257167D01*
X11034119Y-11257167D02*
X11024596Y-11228595D01*
X11024596Y-11228595D02*
X11015072Y-11209548D01*
X11015072Y-11209548D02*
X10996024Y-11180976D01*
X10996024Y-11180976D02*
X10986500Y-11171452D01*
X11348405Y-11476214D02*
X11338881Y-11466690D01*
X11338881Y-11466690D02*
X11319834Y-11438119D01*
X11319834Y-11438119D02*
X11310310Y-11419071D01*
X11310310Y-11419071D02*
X11300786Y-11390500D01*
X11300786Y-11390500D02*
X11291262Y-11342881D01*
X11291262Y-11342881D02*
X11291262Y-11304786D01*
X11291262Y-11304786D02*
X11300786Y-11257167D01*
X11300786Y-11257167D02*
X11310310Y-11228595D01*
X11310310Y-11228595D02*
X11319834Y-11209548D01*
X11319834Y-11209548D02*
X11338881Y-11180976D01*
X11338881Y-11180976D02*
X11348405Y-11171452D01*
X11424596Y-11266690D02*
X11424596Y-11400024D01*
X11424596Y-11285738D02*
X11434119Y-11276214D01*
X11434119Y-11276214D02*
X11453167Y-11266690D01*
X11453167Y-11266690D02*
X11481738Y-11266690D01*
X11481738Y-11266690D02*
X11500786Y-11276214D01*
X11500786Y-11276214D02*
X11510310Y-11295262D01*
X11510310Y-11295262D02*
X11510310Y-11400024D01*
X11634119Y-11400024D02*
X11615072Y-11390500D01*
X11615072Y-11390500D02*
X11605548Y-11380976D01*
X11605548Y-11380976D02*
X11596024Y-11361928D01*
X11596024Y-11361928D02*
X11596024Y-11304786D01*
X11596024Y-11304786D02*
X11605548Y-11285738D01*
X11605548Y-11285738D02*
X11615072Y-11276214D01*
X11615072Y-11276214D02*
X11634119Y-11266690D01*
X11634119Y-11266690D02*
X11662691Y-11266690D01*
X11662691Y-11266690D02*
X11681738Y-11276214D01*
X11681738Y-11276214D02*
X11691262Y-11285738D01*
X11691262Y-11285738D02*
X11700786Y-11304786D01*
X11700786Y-11304786D02*
X11700786Y-11361928D01*
X11700786Y-11361928D02*
X11691262Y-11380976D01*
X11691262Y-11380976D02*
X11681738Y-11390500D01*
X11681738Y-11390500D02*
X11662691Y-11400024D01*
X11662691Y-11400024D02*
X11634119Y-11400024D01*
X11757929Y-11266690D02*
X11834119Y-11266690D01*
X11786500Y-11200024D02*
X11786500Y-11371452D01*
X11786500Y-11371452D02*
X11796024Y-11390500D01*
X11796024Y-11390500D02*
X11815072Y-11400024D01*
X11815072Y-11400024D02*
X11834119Y-11400024D01*
X12053167Y-11266690D02*
X12053167Y-11466690D01*
X12053167Y-11276214D02*
X12072215Y-11266690D01*
X12072215Y-11266690D02*
X12110310Y-11266690D01*
X12110310Y-11266690D02*
X12129358Y-11276214D01*
X12129358Y-11276214D02*
X12138881Y-11285738D01*
X12138881Y-11285738D02*
X12148405Y-11304786D01*
X12148405Y-11304786D02*
X12148405Y-11361928D01*
X12148405Y-11361928D02*
X12138881Y-11380976D01*
X12138881Y-11380976D02*
X12129358Y-11390500D01*
X12129358Y-11390500D02*
X12110310Y-11400024D01*
X12110310Y-11400024D02*
X12072215Y-11400024D01*
X12072215Y-11400024D02*
X12053167Y-11390500D01*
X12262691Y-11400024D02*
X12243643Y-11390500D01*
X12243643Y-11390500D02*
X12234119Y-11371452D01*
X12234119Y-11371452D02*
X12234119Y-11200024D01*
X12424596Y-11400024D02*
X12424596Y-11295262D01*
X12424596Y-11295262D02*
X12415072Y-11276214D01*
X12415072Y-11276214D02*
X12396024Y-11266690D01*
X12396024Y-11266690D02*
X12357929Y-11266690D01*
X12357929Y-11266690D02*
X12338881Y-11276214D01*
X12424596Y-11390500D02*
X12405548Y-11400024D01*
X12405548Y-11400024D02*
X12357929Y-11400024D01*
X12357929Y-11400024D02*
X12338881Y-11390500D01*
X12338881Y-11390500D02*
X12329358Y-11371452D01*
X12329358Y-11371452D02*
X12329358Y-11352405D01*
X12329358Y-11352405D02*
X12338881Y-11333357D01*
X12338881Y-11333357D02*
X12357929Y-11323833D01*
X12357929Y-11323833D02*
X12405548Y-11323833D01*
X12405548Y-11323833D02*
X12424596Y-11314309D01*
X12491262Y-11266690D02*
X12567453Y-11266690D01*
X12519834Y-11200024D02*
X12519834Y-11371452D01*
X12519834Y-11371452D02*
X12529358Y-11390500D01*
X12529358Y-11390500D02*
X12548405Y-11400024D01*
X12548405Y-11400024D02*
X12567453Y-11400024D01*
X12710310Y-11390500D02*
X12691262Y-11400024D01*
X12691262Y-11400024D02*
X12653167Y-11400024D01*
X12653167Y-11400024D02*
X12634119Y-11390500D01*
X12634119Y-11390500D02*
X12624596Y-11371452D01*
X12624596Y-11371452D02*
X12624596Y-11295262D01*
X12624596Y-11295262D02*
X12634119Y-11276214D01*
X12634119Y-11276214D02*
X12653167Y-11266690D01*
X12653167Y-11266690D02*
X12691262Y-11266690D01*
X12691262Y-11266690D02*
X12710310Y-11276214D01*
X12710310Y-11276214D02*
X12719834Y-11295262D01*
X12719834Y-11295262D02*
X12719834Y-11314309D01*
X12719834Y-11314309D02*
X12624596Y-11333357D01*
X12891262Y-11400024D02*
X12891262Y-11200024D01*
X12891262Y-11390500D02*
X12872215Y-11400024D01*
X12872215Y-11400024D02*
X12834119Y-11400024D01*
X12834119Y-11400024D02*
X12815072Y-11390500D01*
X12815072Y-11390500D02*
X12805548Y-11380976D01*
X12805548Y-11380976D02*
X12796024Y-11361928D01*
X12796024Y-11361928D02*
X12796024Y-11304786D01*
X12796024Y-11304786D02*
X12805548Y-11285738D01*
X12805548Y-11285738D02*
X12815072Y-11276214D01*
X12815072Y-11276214D02*
X12834119Y-11266690D01*
X12834119Y-11266690D02*
X12872215Y-11266690D01*
X12872215Y-11266690D02*
X12891262Y-11276214D01*
X12967453Y-11476214D02*
X12976977Y-11466690D01*
X12976977Y-11466690D02*
X12996024Y-11438119D01*
X12996024Y-11438119D02*
X13005548Y-11419071D01*
X13005548Y-11419071D02*
X13015072Y-11390500D01*
X13015072Y-11390500D02*
X13024596Y-11342881D01*
X13024596Y-11342881D02*
X13024596Y-11304786D01*
X13024596Y-11304786D02*
X13015072Y-11257167D01*
X13015072Y-11257167D02*
X13005548Y-11228595D01*
X13005548Y-11228595D02*
X12996024Y-11209548D01*
X12996024Y-11209548D02*
X12976977Y-11180976D01*
X12976977Y-11180976D02*
X12967453Y-11171452D01*
M02*
