%TF.GenerationSoftware,KiCad,Pcbnew,7.0.2*%
%TF.CreationDate,2023-05-08T22:42:50+02:00*%
%TF.ProjectId,verasity_PCB,76657261-7369-4747-995f-5043422e6b69,rev?*%
%TF.SameCoordinates,Original*%
%TF.FileFunction,Copper,L2,Bot*%
%TF.FilePolarity,Positive*%
%FSLAX46Y46*%
G04 Gerber Fmt 4.6, Leading zero omitted, Abs format (unit mm)*
G04 Created by KiCad (PCBNEW 7.0.2) date 2023-05-08 22:42:50*
%MOMM*%
%LPD*%
G01*
G04 APERTURE LIST*
G04 Aperture macros list*
%AMRoundRect*
0 Rectangle with rounded corners*
0 $1 Rounding radius*
0 $2 $3 $4 $5 $6 $7 $8 $9 X,Y pos of 4 corners*
0 Add a 4 corners polygon primitive as box body*
4,1,4,$2,$3,$4,$5,$6,$7,$8,$9,$2,$3,0*
0 Add four circle primitives for the rounded corners*
1,1,$1+$1,$2,$3*
1,1,$1+$1,$4,$5*
1,1,$1+$1,$6,$7*
1,1,$1+$1,$8,$9*
0 Add four rect primitives between the rounded corners*
20,1,$1+$1,$2,$3,$4,$5,0*
20,1,$1+$1,$4,$5,$6,$7,0*
20,1,$1+$1,$6,$7,$8,$9,0*
20,1,$1+$1,$8,$9,$2,$3,0*%
G04 Aperture macros list end*
%TA.AperFunction,EtchedComponent*%
%ADD10C,0.500000*%
%TD*%
%TA.AperFunction,EtchedComponent*%
%ADD11C,0.400000*%
%TD*%
%TA.AperFunction,ComponentPad*%
%ADD12C,1.500000*%
%TD*%
%TA.AperFunction,ComponentPad*%
%ADD13C,2.000000*%
%TD*%
%TA.AperFunction,SMDPad,CuDef*%
%ADD14RoundRect,0.225000X-0.225000X-0.375000X0.225000X-0.375000X0.225000X0.375000X-0.225000X0.375000X0*%
%TD*%
%TA.AperFunction,ComponentPad*%
%ADD15C,3.000000*%
%TD*%
%TA.AperFunction,ComponentPad*%
%ADD16C,2.500000*%
%TD*%
G04 APERTURE END LIST*
D10*
%TO.C,REF\u002A\u002A*%
X66445000Y-91970000D02*
X65070000Y-91970000D01*
D11*
X66445000Y-91970000D02*
X67095000Y-90170000D01*
X67095000Y-90170000D02*
X65320000Y-84620000D01*
D10*
X68670000Y-92020000D02*
X67370000Y-93970000D01*
X75520000Y-88770000D02*
X71120000Y-94820000D01*
X76920000Y-84620000D02*
X76920000Y-88770000D01*
X76920000Y-88770000D02*
X75520000Y-88770000D01*
%TD*%
D12*
%TO.P,REF\u002A\u002A,*%
%TO.N,*%
X63920000Y-90420000D03*
D13*
X64020000Y-97170000D03*
D14*
X65070000Y-92170000D03*
D15*
X65320000Y-84620000D03*
D16*
X66120000Y-93970000D03*
X66720000Y-94870000D03*
D14*
X68370000Y-92170000D03*
D12*
X69420000Y-83170000D03*
X69420000Y-97170000D03*
X71120000Y-83170000D03*
D16*
X71120000Y-96070000D03*
D12*
X71120000Y-97170000D03*
D16*
X71620000Y-96070000D03*
D12*
X72820000Y-83170000D03*
X72820000Y-97170000D03*
D16*
X73720000Y-95920000D03*
X75820000Y-93270000D03*
D15*
X76920000Y-84620000D03*
D13*
X78220000Y-97170000D03*
D12*
X78320000Y-90420000D03*
D13*
%TO.P,REF\u002A\u002A,1*%
%TO.N,N/C*%
X64020000Y-83170000D03*
%TO.P,REF\u002A\u002A,2*%
X78220000Y-83170000D03*
D12*
%TO.P,REF\u002A\u002A,3*%
X78320000Y-87020000D03*
%TO.P,REF\u002A\u002A,4*%
X63920000Y-87020000D03*
%TO.P,REF\u002A\u002A,5*%
X63920000Y-88720000D03*
%TO.P,REF\u002A\u002A,6*%
X78320000Y-88720000D03*
%TD*%
M02*
