%TF.GenerationSoftware,KiCad,Pcbnew,7.0.2*%
%TF.CreationDate,2023-05-08T22:42:50+02:00*%
%TF.ProjectId,verasity_PCB,76657261-7369-4747-995f-5043422e6b69,rev?*%
%TF.SameCoordinates,Original*%
%TF.FileFunction,Copper,L1,Top*%
%TF.FilePolarity,Positive*%
%FSLAX46Y46*%
G04 Gerber Fmt 4.6, Leading zero omitted, Abs format (unit mm)*
G04 Created by KiCad (PCBNEW 7.0.2) date 2023-05-08 22:42:50*
%MOMM*%
%LPD*%
G01*
G04 APERTURE LIST*
%TA.AperFunction,EtchedComponent*%
%ADD10C,0.500000*%
%TD*%
%TA.AperFunction,EtchedComponent*%
%ADD11C,0.300000*%
%TD*%
%TA.AperFunction,ComponentPad*%
%ADD12C,1.500000*%
%TD*%
%TA.AperFunction,ComponentPad*%
%ADD13C,2.000000*%
%TD*%
%TA.AperFunction,ComponentPad*%
%ADD14C,3.000000*%
%TD*%
%TA.AperFunction,ComponentPad*%
%ADD15C,2.500000*%
%TD*%
%TA.AperFunction,SMDPad,CuDef*%
%ADD16R,1.400000X0.800000*%
%TD*%
G04 APERTURE END LIST*
D10*
%TO.C,REF\u002A\u002A*%
X66870000Y-87020000D02*
X64345000Y-87020000D01*
X67095000Y-88770000D02*
X64220000Y-88770000D01*
X68020000Y-84770000D02*
X66870000Y-87020000D01*
X68395000Y-86220000D02*
X67095000Y-88770000D01*
X68695000Y-84770000D02*
X68045000Y-84770000D01*
X74570000Y-88720000D02*
X74570000Y-86270000D01*
X74570000Y-93270000D02*
X67720000Y-94370000D01*
D11*
X75570000Y-86070000D02*
X74870000Y-84720000D01*
D10*
X75720000Y-87020000D02*
X75570000Y-86070000D01*
X77845000Y-87020000D02*
X75720000Y-87020000D01*
X78320000Y-88720000D02*
X74570000Y-88720000D01*
%TD*%
D12*
%TO.P,REF\u002A\u002A,*%
%TO.N,*%
X63920000Y-90420000D03*
D13*
X64020000Y-97170000D03*
D14*
X65320000Y-84620000D03*
D15*
X66120000Y-93970000D03*
X66720000Y-94870000D03*
D16*
X69170000Y-84745000D03*
X69170000Y-86195000D03*
D12*
X69420000Y-83170000D03*
X69420000Y-97170000D03*
X71120000Y-83170000D03*
D15*
X71120000Y-96070000D03*
D12*
X71120000Y-97170000D03*
D15*
X71620000Y-96070000D03*
D12*
X72820000Y-83170000D03*
X72820000Y-97170000D03*
D15*
X73720000Y-95920000D03*
D16*
X74370000Y-84745000D03*
X74370000Y-86195000D03*
D15*
X75820000Y-93270000D03*
D14*
X76920000Y-84620000D03*
D13*
X78220000Y-97170000D03*
D12*
X78320000Y-90420000D03*
D13*
%TO.P,REF\u002A\u002A,1*%
%TO.N,N/C*%
X64020000Y-83170000D03*
%TO.P,REF\u002A\u002A,2*%
X78220000Y-83170000D03*
D12*
%TO.P,REF\u002A\u002A,3*%
X78320000Y-87020000D03*
%TO.P,REF\u002A\u002A,4*%
X63920000Y-87020000D03*
%TO.P,REF\u002A\u002A,5*%
X63920000Y-88720000D03*
%TO.P,REF\u002A\u002A,6*%
X78320000Y-88720000D03*
%TD*%
M02*
