%TF.GenerationSoftware,KiCad,Pcbnew,7.0.2*%
%TF.CreationDate,2023-05-08T22:38:25+02:00*%
%TF.ProjectId,verasity_PCB,76657261-7369-4747-995f-5043422e6b69,rev?*%
%TF.SameCoordinates,Original*%
%TF.FileFunction,Copper,L1,Top*%
%TF.FilePolarity,Positive*%
%FSLAX46Y46*%
G04 Gerber Fmt 4.6, Leading zero omitted, Abs format (unit mm)*
G04 Created by KiCad (PCBNEW 7.0.2) date 2023-05-08 22:38:25*
%MOMM*%
%LPD*%
G01*
G04 APERTURE LIST*
%TA.AperFunction,EtchedComponent*%
%ADD10C,0.500000*%
%TD*%
%TA.AperFunction,EtchedComponent*%
%ADD11C,0.300000*%
%TD*%
%TA.AperFunction,ComponentPad*%
%ADD12C,1.500000*%
%TD*%
%TA.AperFunction,ComponentPad*%
%ADD13C,2.000000*%
%TD*%
%TA.AperFunction,ComponentPad*%
%ADD14C,3.000000*%
%TD*%
%TA.AperFunction,ComponentPad*%
%ADD15C,4.000000*%
%TD*%
%TA.AperFunction,SMDPad,CuDef*%
%ADD16R,1.400000X0.800000*%
%TD*%
G04 APERTURE END LIST*
D10*
%TO.C,REF\u002A\u002A*%
X37243750Y-90830000D02*
X34718750Y-90830000D01*
X37468750Y-92580000D02*
X34593750Y-92580000D01*
X38393750Y-88580000D02*
X37243750Y-90830000D01*
X38768750Y-90030000D02*
X37468750Y-92580000D01*
X39068750Y-88580000D02*
X38418750Y-88580000D01*
X44943750Y-92530000D02*
X44943750Y-90080000D01*
D11*
X45943750Y-89880000D02*
X45243750Y-88530000D01*
D10*
X46093750Y-90830000D02*
X45943750Y-89880000D01*
X48218750Y-90830000D02*
X46093750Y-90830000D01*
X48693750Y-92530000D02*
X44943750Y-92530000D01*
%TD*%
D12*
%TO.P,REF\u002A\u002A,*%
%TO.N,*%
X34293750Y-94230000D03*
D13*
X34393750Y-100980000D03*
D14*
X35693750Y-88430000D03*
D15*
X38953750Y-99060000D03*
D16*
X39543750Y-88555000D03*
X39543750Y-90005000D03*
D12*
X39793750Y-86980000D03*
X39793750Y-100980000D03*
X41493750Y-86980000D03*
X41493750Y-100980000D03*
X43193750Y-86980000D03*
X43193750Y-100980000D03*
D16*
X44743750Y-88555000D03*
X44743750Y-90005000D03*
D15*
X45303750Y-96520000D03*
D14*
X47293750Y-88430000D03*
D13*
X48593750Y-100980000D03*
D12*
X48693750Y-94230000D03*
D13*
%TO.P,REF\u002A\u002A,1*%
%TO.N,N/C*%
X34393750Y-86980000D03*
%TO.P,REF\u002A\u002A,2*%
X48593750Y-86980000D03*
D12*
%TO.P,REF\u002A\u002A,3*%
X48693750Y-90830000D03*
%TO.P,REF\u002A\u002A,4*%
X34293750Y-90830000D03*
%TO.P,REF\u002A\u002A,5*%
X34293750Y-92530000D03*
%TO.P,REF\u002A\u002A,6*%
X48693750Y-92530000D03*
%TD*%
M02*
