%TF.GenerationSoftware,KiCad,Pcbnew,7.0.2*%
%TF.CreationDate,2023-05-08T22:38:28+02:00*%
%TF.ProjectId,verasity_PCB,76657261-7369-4747-995f-5043422e6b69,rev?*%
%TF.SameCoordinates,Original*%
%TF.FileFunction,Drillmap*%
%TF.FilePolarity,Positive*%
%FSLAX45Y45*%
G04 Gerber Fmt 4.5, Leading zero omitted, Abs format (unit mm)*
G04 Created by KiCad (PCBNEW 7.0.2) date 2023-05-08 22:38:28*
%MOMM*%
%LPD*%
G01*
G04 APERTURE LIST*
%ADD10C,0.200000*%
%ADD11C,0.170180*%
%ADD12C,0.330000*%
%ADD13C,0.335000*%
%ADD14C,0.380000*%
G04 APERTURE END LIST*
D10*
D11*
X3514285Y-9312910D02*
X3684465Y-9483090D01*
X3684465Y-9312910D02*
X3514285Y-9483090D01*
X4614285Y-9312910D02*
X4784465Y-9483090D01*
X4784465Y-9312910D02*
X4614285Y-9483090D01*
D12*
X4379375Y-8928000D02*
G75*
G03*
X4379375Y-8928000I-165000J0D01*
G01*
D13*
X4213375Y-8760700D02*
X4213375Y-9095700D01*
X4045875Y-8928200D02*
X4380875Y-8928200D01*
D10*
X4295875Y-8760700D02*
X4130875Y-8760700D01*
X4130875Y-8760700D02*
G75*
G03*
X4130875Y-9095700I0J-167500D01*
G01*
X4130875Y-9095700D02*
X4295875Y-9095700D01*
X4295875Y-9095700D02*
G75*
G03*
X4295875Y-8760700I0J167500D01*
G01*
D14*
X4283727Y-9532352D02*
X4283727Y-9263648D01*
X4015023Y-9263648D01*
X4015023Y-9532352D01*
X4283727Y-9532352D01*
D10*
X3671494Y-10411024D02*
X3671494Y-10211024D01*
X3671494Y-10211024D02*
X3719113Y-10211024D01*
X3719113Y-10211024D02*
X3747684Y-10220548D01*
X3747684Y-10220548D02*
X3766732Y-10239595D01*
X3766732Y-10239595D02*
X3776256Y-10258643D01*
X3776256Y-10258643D02*
X3785780Y-10296738D01*
X3785780Y-10296738D02*
X3785780Y-10325310D01*
X3785780Y-10325310D02*
X3776256Y-10363405D01*
X3776256Y-10363405D02*
X3766732Y-10382452D01*
X3766732Y-10382452D02*
X3747684Y-10401500D01*
X3747684Y-10401500D02*
X3719113Y-10411024D01*
X3719113Y-10411024D02*
X3671494Y-10411024D01*
X3871494Y-10411024D02*
X3871494Y-10277690D01*
X3871494Y-10315786D02*
X3881018Y-10296738D01*
X3881018Y-10296738D02*
X3890542Y-10287214D01*
X3890542Y-10287214D02*
X3909589Y-10277690D01*
X3909589Y-10277690D02*
X3928637Y-10277690D01*
X3995303Y-10411024D02*
X3995303Y-10277690D01*
X3995303Y-10211024D02*
X3985780Y-10220548D01*
X3985780Y-10220548D02*
X3995303Y-10230071D01*
X3995303Y-10230071D02*
X4004827Y-10220548D01*
X4004827Y-10220548D02*
X3995303Y-10211024D01*
X3995303Y-10211024D02*
X3995303Y-10230071D01*
X4119113Y-10411024D02*
X4100065Y-10401500D01*
X4100065Y-10401500D02*
X4090542Y-10382452D01*
X4090542Y-10382452D02*
X4090542Y-10211024D01*
X4223875Y-10411024D02*
X4204827Y-10401500D01*
X4204827Y-10401500D02*
X4195304Y-10382452D01*
X4195304Y-10382452D02*
X4195304Y-10211024D01*
X4452446Y-10411024D02*
X4452446Y-10211024D01*
X4452446Y-10211024D02*
X4519113Y-10353881D01*
X4519113Y-10353881D02*
X4585780Y-10211024D01*
X4585780Y-10211024D02*
X4585780Y-10411024D01*
X4766732Y-10411024D02*
X4766732Y-10306262D01*
X4766732Y-10306262D02*
X4757208Y-10287214D01*
X4757208Y-10287214D02*
X4738161Y-10277690D01*
X4738161Y-10277690D02*
X4700065Y-10277690D01*
X4700065Y-10277690D02*
X4681018Y-10287214D01*
X4766732Y-10401500D02*
X4747685Y-10411024D01*
X4747685Y-10411024D02*
X4700065Y-10411024D01*
X4700065Y-10411024D02*
X4681018Y-10401500D01*
X4681018Y-10401500D02*
X4671494Y-10382452D01*
X4671494Y-10382452D02*
X4671494Y-10363405D01*
X4671494Y-10363405D02*
X4681018Y-10344357D01*
X4681018Y-10344357D02*
X4700065Y-10334833D01*
X4700065Y-10334833D02*
X4747685Y-10334833D01*
X4747685Y-10334833D02*
X4766732Y-10325310D01*
X4861970Y-10277690D02*
X4861970Y-10477690D01*
X4861970Y-10287214D02*
X4881018Y-10277690D01*
X4881018Y-10277690D02*
X4919113Y-10277690D01*
X4919113Y-10277690D02*
X4938161Y-10287214D01*
X4938161Y-10287214D02*
X4947685Y-10296738D01*
X4947685Y-10296738D02*
X4957208Y-10315786D01*
X4957208Y-10315786D02*
X4957208Y-10372929D01*
X4957208Y-10372929D02*
X4947685Y-10391976D01*
X4947685Y-10391976D02*
X4938161Y-10401500D01*
X4938161Y-10401500D02*
X4919113Y-10411024D01*
X4919113Y-10411024D02*
X4881018Y-10411024D01*
X4881018Y-10411024D02*
X4861970Y-10401500D01*
X5042923Y-10391976D02*
X5052446Y-10401500D01*
X5052446Y-10401500D02*
X5042923Y-10411024D01*
X5042923Y-10411024D02*
X5033399Y-10401500D01*
X5033399Y-10401500D02*
X5042923Y-10391976D01*
X5042923Y-10391976D02*
X5042923Y-10411024D01*
X5042923Y-10287214D02*
X5052446Y-10296738D01*
X5052446Y-10296738D02*
X5042923Y-10306262D01*
X5042923Y-10306262D02*
X5033399Y-10296738D01*
X5033399Y-10296738D02*
X5042923Y-10287214D01*
X5042923Y-10287214D02*
X5042923Y-10306262D01*
D11*
X3253695Y-10653410D02*
X3423875Y-10823590D01*
X3423875Y-10653410D02*
X3253695Y-10823590D01*
D10*
X3776256Y-10831024D02*
X3661970Y-10831024D01*
X3719113Y-10831024D02*
X3719113Y-10631024D01*
X3719113Y-10631024D02*
X3700065Y-10659595D01*
X3700065Y-10659595D02*
X3681018Y-10678643D01*
X3681018Y-10678643D02*
X3661970Y-10688167D01*
X3861970Y-10811976D02*
X3871494Y-10821500D01*
X3871494Y-10821500D02*
X3861970Y-10831024D01*
X3861970Y-10831024D02*
X3852446Y-10821500D01*
X3852446Y-10821500D02*
X3861970Y-10811976D01*
X3861970Y-10811976D02*
X3861970Y-10831024D01*
X3938161Y-10631024D02*
X4071494Y-10631024D01*
X4071494Y-10631024D02*
X3985780Y-10831024D01*
X4185780Y-10631024D02*
X4204827Y-10631024D01*
X4204827Y-10631024D02*
X4223875Y-10640548D01*
X4223875Y-10640548D02*
X4233399Y-10650071D01*
X4233399Y-10650071D02*
X4242923Y-10669119D01*
X4242923Y-10669119D02*
X4252446Y-10707214D01*
X4252446Y-10707214D02*
X4252446Y-10754833D01*
X4252446Y-10754833D02*
X4242923Y-10792929D01*
X4242923Y-10792929D02*
X4233399Y-10811976D01*
X4233399Y-10811976D02*
X4223875Y-10821500D01*
X4223875Y-10821500D02*
X4204827Y-10831024D01*
X4204827Y-10831024D02*
X4185780Y-10831024D01*
X4185780Y-10831024D02*
X4166732Y-10821500D01*
X4166732Y-10821500D02*
X4157208Y-10811976D01*
X4157208Y-10811976D02*
X4147684Y-10792929D01*
X4147684Y-10792929D02*
X4138161Y-10754833D01*
X4138161Y-10754833D02*
X4138161Y-10707214D01*
X4138161Y-10707214D02*
X4147684Y-10669119D01*
X4147684Y-10669119D02*
X4157208Y-10650071D01*
X4157208Y-10650071D02*
X4166732Y-10640548D01*
X4166732Y-10640548D02*
X4185780Y-10631024D01*
X4328637Y-10650071D02*
X4338161Y-10640548D01*
X4338161Y-10640548D02*
X4357208Y-10631024D01*
X4357208Y-10631024D02*
X4404827Y-10631024D01*
X4404827Y-10631024D02*
X4423875Y-10640548D01*
X4423875Y-10640548D02*
X4433399Y-10650071D01*
X4433399Y-10650071D02*
X4442923Y-10669119D01*
X4442923Y-10669119D02*
X4442923Y-10688167D01*
X4442923Y-10688167D02*
X4433399Y-10716738D01*
X4433399Y-10716738D02*
X4319113Y-10831024D01*
X4319113Y-10831024D02*
X4442923Y-10831024D01*
X4528637Y-10831024D02*
X4528637Y-10697690D01*
X4528637Y-10716738D02*
X4538161Y-10707214D01*
X4538161Y-10707214D02*
X4557208Y-10697690D01*
X4557208Y-10697690D02*
X4585780Y-10697690D01*
X4585780Y-10697690D02*
X4604827Y-10707214D01*
X4604827Y-10707214D02*
X4614351Y-10726262D01*
X4614351Y-10726262D02*
X4614351Y-10831024D01*
X4614351Y-10726262D02*
X4623875Y-10707214D01*
X4623875Y-10707214D02*
X4642923Y-10697690D01*
X4642923Y-10697690D02*
X4671494Y-10697690D01*
X4671494Y-10697690D02*
X4690542Y-10707214D01*
X4690542Y-10707214D02*
X4700066Y-10726262D01*
X4700066Y-10726262D02*
X4700066Y-10831024D01*
X4795304Y-10831024D02*
X4795304Y-10697690D01*
X4795304Y-10716738D02*
X4804827Y-10707214D01*
X4804827Y-10707214D02*
X4823875Y-10697690D01*
X4823875Y-10697690D02*
X4852447Y-10697690D01*
X4852447Y-10697690D02*
X4871494Y-10707214D01*
X4871494Y-10707214D02*
X4881018Y-10726262D01*
X4881018Y-10726262D02*
X4881018Y-10831024D01*
X4881018Y-10726262D02*
X4890542Y-10707214D01*
X4890542Y-10707214D02*
X4909589Y-10697690D01*
X4909589Y-10697690D02*
X4938161Y-10697690D01*
X4938161Y-10697690D02*
X4957208Y-10707214D01*
X4957208Y-10707214D02*
X4966732Y-10726262D01*
X4966732Y-10726262D02*
X4966732Y-10831024D01*
X5357208Y-10621500D02*
X5185780Y-10878643D01*
X5614351Y-10631024D02*
X5633399Y-10631024D01*
X5633399Y-10631024D02*
X5652447Y-10640548D01*
X5652447Y-10640548D02*
X5661970Y-10650071D01*
X5661970Y-10650071D02*
X5671494Y-10669119D01*
X5671494Y-10669119D02*
X5681018Y-10707214D01*
X5681018Y-10707214D02*
X5681018Y-10754833D01*
X5681018Y-10754833D02*
X5671494Y-10792929D01*
X5671494Y-10792929D02*
X5661970Y-10811976D01*
X5661970Y-10811976D02*
X5652447Y-10821500D01*
X5652447Y-10821500D02*
X5633399Y-10831024D01*
X5633399Y-10831024D02*
X5614351Y-10831024D01*
X5614351Y-10831024D02*
X5595304Y-10821500D01*
X5595304Y-10821500D02*
X5585780Y-10811976D01*
X5585780Y-10811976D02*
X5576256Y-10792929D01*
X5576256Y-10792929D02*
X5566732Y-10754833D01*
X5566732Y-10754833D02*
X5566732Y-10707214D01*
X5566732Y-10707214D02*
X5576256Y-10669119D01*
X5576256Y-10669119D02*
X5585780Y-10650071D01*
X5585780Y-10650071D02*
X5595304Y-10640548D01*
X5595304Y-10640548D02*
X5614351Y-10631024D01*
X5766732Y-10811976D02*
X5776256Y-10821500D01*
X5776256Y-10821500D02*
X5766732Y-10831024D01*
X5766732Y-10831024D02*
X5757208Y-10821500D01*
X5757208Y-10821500D02*
X5766732Y-10811976D01*
X5766732Y-10811976D02*
X5766732Y-10831024D01*
X5900066Y-10631024D02*
X5919113Y-10631024D01*
X5919113Y-10631024D02*
X5938161Y-10640548D01*
X5938161Y-10640548D02*
X5947685Y-10650071D01*
X5947685Y-10650071D02*
X5957208Y-10669119D01*
X5957208Y-10669119D02*
X5966732Y-10707214D01*
X5966732Y-10707214D02*
X5966732Y-10754833D01*
X5966732Y-10754833D02*
X5957208Y-10792929D01*
X5957208Y-10792929D02*
X5947685Y-10811976D01*
X5947685Y-10811976D02*
X5938161Y-10821500D01*
X5938161Y-10821500D02*
X5919113Y-10831024D01*
X5919113Y-10831024D02*
X5900066Y-10831024D01*
X5900066Y-10831024D02*
X5881018Y-10821500D01*
X5881018Y-10821500D02*
X5871494Y-10811976D01*
X5871494Y-10811976D02*
X5861970Y-10792929D01*
X5861970Y-10792929D02*
X5852447Y-10754833D01*
X5852447Y-10754833D02*
X5852447Y-10707214D01*
X5852447Y-10707214D02*
X5861970Y-10669119D01*
X5861970Y-10669119D02*
X5871494Y-10650071D01*
X5871494Y-10650071D02*
X5881018Y-10640548D01*
X5881018Y-10640548D02*
X5900066Y-10631024D01*
X6138161Y-10631024D02*
X6100066Y-10631024D01*
X6100066Y-10631024D02*
X6081018Y-10640548D01*
X6081018Y-10640548D02*
X6071494Y-10650071D01*
X6071494Y-10650071D02*
X6052447Y-10678643D01*
X6052447Y-10678643D02*
X6042923Y-10716738D01*
X6042923Y-10716738D02*
X6042923Y-10792929D01*
X6042923Y-10792929D02*
X6052447Y-10811976D01*
X6052447Y-10811976D02*
X6061970Y-10821500D01*
X6061970Y-10821500D02*
X6081018Y-10831024D01*
X6081018Y-10831024D02*
X6119113Y-10831024D01*
X6119113Y-10831024D02*
X6138161Y-10821500D01*
X6138161Y-10821500D02*
X6147685Y-10811976D01*
X6147685Y-10811976D02*
X6157208Y-10792929D01*
X6157208Y-10792929D02*
X6157208Y-10745310D01*
X6157208Y-10745310D02*
X6147685Y-10726262D01*
X6147685Y-10726262D02*
X6138161Y-10716738D01*
X6138161Y-10716738D02*
X6119113Y-10707214D01*
X6119113Y-10707214D02*
X6081018Y-10707214D01*
X6081018Y-10707214D02*
X6061970Y-10716738D01*
X6061970Y-10716738D02*
X6052447Y-10726262D01*
X6052447Y-10726262D02*
X6042923Y-10745310D01*
X6223875Y-10631024D02*
X6357208Y-10631024D01*
X6357208Y-10631024D02*
X6271494Y-10831024D01*
X6471494Y-10631024D02*
X6490542Y-10631024D01*
X6490542Y-10631024D02*
X6509589Y-10640548D01*
X6509589Y-10640548D02*
X6519113Y-10650071D01*
X6519113Y-10650071D02*
X6528637Y-10669119D01*
X6528637Y-10669119D02*
X6538161Y-10707214D01*
X6538161Y-10707214D02*
X6538161Y-10754833D01*
X6538161Y-10754833D02*
X6528637Y-10792929D01*
X6528637Y-10792929D02*
X6519113Y-10811976D01*
X6519113Y-10811976D02*
X6509589Y-10821500D01*
X6509589Y-10821500D02*
X6490542Y-10831024D01*
X6490542Y-10831024D02*
X6471494Y-10831024D01*
X6471494Y-10831024D02*
X6452447Y-10821500D01*
X6452447Y-10821500D02*
X6442923Y-10811976D01*
X6442923Y-10811976D02*
X6433399Y-10792929D01*
X6433399Y-10792929D02*
X6423875Y-10754833D01*
X6423875Y-10754833D02*
X6423875Y-10707214D01*
X6423875Y-10707214D02*
X6433399Y-10669119D01*
X6433399Y-10669119D02*
X6442923Y-10650071D01*
X6442923Y-10650071D02*
X6452447Y-10640548D01*
X6452447Y-10640548D02*
X6471494Y-10631024D01*
X6614351Y-10631024D02*
X6614351Y-10669119D01*
X6690542Y-10631024D02*
X6690542Y-10669119D01*
X6985780Y-10907214D02*
X6976256Y-10897690D01*
X6976256Y-10897690D02*
X6957209Y-10869119D01*
X6957209Y-10869119D02*
X6947685Y-10850071D01*
X6947685Y-10850071D02*
X6938161Y-10821500D01*
X6938161Y-10821500D02*
X6928637Y-10773881D01*
X6928637Y-10773881D02*
X6928637Y-10735786D01*
X6928637Y-10735786D02*
X6938161Y-10688167D01*
X6938161Y-10688167D02*
X6947685Y-10659595D01*
X6947685Y-10659595D02*
X6957209Y-10640548D01*
X6957209Y-10640548D02*
X6976256Y-10611976D01*
X6976256Y-10611976D02*
X6985780Y-10602452D01*
X7052447Y-10650071D02*
X7061970Y-10640548D01*
X7061970Y-10640548D02*
X7081018Y-10631024D01*
X7081018Y-10631024D02*
X7128637Y-10631024D01*
X7128637Y-10631024D02*
X7147685Y-10640548D01*
X7147685Y-10640548D02*
X7157209Y-10650071D01*
X7157209Y-10650071D02*
X7166732Y-10669119D01*
X7166732Y-10669119D02*
X7166732Y-10688167D01*
X7166732Y-10688167D02*
X7157209Y-10716738D01*
X7157209Y-10716738D02*
X7042923Y-10831024D01*
X7042923Y-10831024D02*
X7166732Y-10831024D01*
X7404828Y-10831024D02*
X7404828Y-10631024D01*
X7490542Y-10831024D02*
X7490542Y-10726262D01*
X7490542Y-10726262D02*
X7481018Y-10707214D01*
X7481018Y-10707214D02*
X7461971Y-10697690D01*
X7461971Y-10697690D02*
X7433399Y-10697690D01*
X7433399Y-10697690D02*
X7414351Y-10707214D01*
X7414351Y-10707214D02*
X7404828Y-10716738D01*
X7614351Y-10831024D02*
X7595304Y-10821500D01*
X7595304Y-10821500D02*
X7585780Y-10811976D01*
X7585780Y-10811976D02*
X7576256Y-10792929D01*
X7576256Y-10792929D02*
X7576256Y-10735786D01*
X7576256Y-10735786D02*
X7585780Y-10716738D01*
X7585780Y-10716738D02*
X7595304Y-10707214D01*
X7595304Y-10707214D02*
X7614351Y-10697690D01*
X7614351Y-10697690D02*
X7642923Y-10697690D01*
X7642923Y-10697690D02*
X7661971Y-10707214D01*
X7661971Y-10707214D02*
X7671494Y-10716738D01*
X7671494Y-10716738D02*
X7681018Y-10735786D01*
X7681018Y-10735786D02*
X7681018Y-10792929D01*
X7681018Y-10792929D02*
X7671494Y-10811976D01*
X7671494Y-10811976D02*
X7661971Y-10821500D01*
X7661971Y-10821500D02*
X7642923Y-10831024D01*
X7642923Y-10831024D02*
X7614351Y-10831024D01*
X7795304Y-10831024D02*
X7776256Y-10821500D01*
X7776256Y-10821500D02*
X7766732Y-10802452D01*
X7766732Y-10802452D02*
X7766732Y-10631024D01*
X7947685Y-10821500D02*
X7928637Y-10831024D01*
X7928637Y-10831024D02*
X7890542Y-10831024D01*
X7890542Y-10831024D02*
X7871494Y-10821500D01*
X7871494Y-10821500D02*
X7861971Y-10802452D01*
X7861971Y-10802452D02*
X7861971Y-10726262D01*
X7861971Y-10726262D02*
X7871494Y-10707214D01*
X7871494Y-10707214D02*
X7890542Y-10697690D01*
X7890542Y-10697690D02*
X7928637Y-10697690D01*
X7928637Y-10697690D02*
X7947685Y-10707214D01*
X7947685Y-10707214D02*
X7957209Y-10726262D01*
X7957209Y-10726262D02*
X7957209Y-10745310D01*
X7957209Y-10745310D02*
X7861971Y-10764357D01*
X8033399Y-10821500D02*
X8052447Y-10831024D01*
X8052447Y-10831024D02*
X8090542Y-10831024D01*
X8090542Y-10831024D02*
X8109590Y-10821500D01*
X8109590Y-10821500D02*
X8119113Y-10802452D01*
X8119113Y-10802452D02*
X8119113Y-10792929D01*
X8119113Y-10792929D02*
X8109590Y-10773881D01*
X8109590Y-10773881D02*
X8090542Y-10764357D01*
X8090542Y-10764357D02*
X8061971Y-10764357D01*
X8061971Y-10764357D02*
X8042923Y-10754833D01*
X8042923Y-10754833D02*
X8033399Y-10735786D01*
X8033399Y-10735786D02*
X8033399Y-10726262D01*
X8033399Y-10726262D02*
X8042923Y-10707214D01*
X8042923Y-10707214D02*
X8061971Y-10697690D01*
X8061971Y-10697690D02*
X8090542Y-10697690D01*
X8090542Y-10697690D02*
X8109590Y-10707214D01*
X8185780Y-10907214D02*
X8195304Y-10897690D01*
X8195304Y-10897690D02*
X8214352Y-10869119D01*
X8214352Y-10869119D02*
X8223875Y-10850071D01*
X8223875Y-10850071D02*
X8233399Y-10821500D01*
X8233399Y-10821500D02*
X8242923Y-10773881D01*
X8242923Y-10773881D02*
X8242923Y-10735786D01*
X8242923Y-10735786D02*
X8233399Y-10688167D01*
X8233399Y-10688167D02*
X8223875Y-10659595D01*
X8223875Y-10659595D02*
X8214352Y-10640548D01*
X8214352Y-10640548D02*
X8195304Y-10611976D01*
X8195304Y-10611976D02*
X8185780Y-10602452D01*
X8547685Y-10907214D02*
X8538161Y-10897690D01*
X8538161Y-10897690D02*
X8519114Y-10869119D01*
X8519114Y-10869119D02*
X8509590Y-10850071D01*
X8509590Y-10850071D02*
X8500066Y-10821500D01*
X8500066Y-10821500D02*
X8490542Y-10773881D01*
X8490542Y-10773881D02*
X8490542Y-10735786D01*
X8490542Y-10735786D02*
X8500066Y-10688167D01*
X8500066Y-10688167D02*
X8509590Y-10659595D01*
X8509590Y-10659595D02*
X8519114Y-10640548D01*
X8519114Y-10640548D02*
X8538161Y-10611976D01*
X8538161Y-10611976D02*
X8547685Y-10602452D01*
X8623875Y-10697690D02*
X8623875Y-10831024D01*
X8623875Y-10716738D02*
X8633399Y-10707214D01*
X8633399Y-10707214D02*
X8652447Y-10697690D01*
X8652447Y-10697690D02*
X8681018Y-10697690D01*
X8681018Y-10697690D02*
X8700066Y-10707214D01*
X8700066Y-10707214D02*
X8709590Y-10726262D01*
X8709590Y-10726262D02*
X8709590Y-10831024D01*
X8833399Y-10831024D02*
X8814352Y-10821500D01*
X8814352Y-10821500D02*
X8804828Y-10811976D01*
X8804828Y-10811976D02*
X8795304Y-10792929D01*
X8795304Y-10792929D02*
X8795304Y-10735786D01*
X8795304Y-10735786D02*
X8804828Y-10716738D01*
X8804828Y-10716738D02*
X8814352Y-10707214D01*
X8814352Y-10707214D02*
X8833399Y-10697690D01*
X8833399Y-10697690D02*
X8861971Y-10697690D01*
X8861971Y-10697690D02*
X8881018Y-10707214D01*
X8881018Y-10707214D02*
X8890542Y-10716738D01*
X8890542Y-10716738D02*
X8900066Y-10735786D01*
X8900066Y-10735786D02*
X8900066Y-10792929D01*
X8900066Y-10792929D02*
X8890542Y-10811976D01*
X8890542Y-10811976D02*
X8881018Y-10821500D01*
X8881018Y-10821500D02*
X8861971Y-10831024D01*
X8861971Y-10831024D02*
X8833399Y-10831024D01*
X8957209Y-10697690D02*
X9033399Y-10697690D01*
X8985780Y-10631024D02*
X8985780Y-10802452D01*
X8985780Y-10802452D02*
X8995304Y-10821500D01*
X8995304Y-10821500D02*
X9014352Y-10831024D01*
X9014352Y-10831024D02*
X9033399Y-10831024D01*
X9252447Y-10697690D02*
X9252447Y-10897690D01*
X9252447Y-10707214D02*
X9271495Y-10697690D01*
X9271495Y-10697690D02*
X9309590Y-10697690D01*
X9309590Y-10697690D02*
X9328637Y-10707214D01*
X9328637Y-10707214D02*
X9338161Y-10716738D01*
X9338161Y-10716738D02*
X9347685Y-10735786D01*
X9347685Y-10735786D02*
X9347685Y-10792929D01*
X9347685Y-10792929D02*
X9338161Y-10811976D01*
X9338161Y-10811976D02*
X9328637Y-10821500D01*
X9328637Y-10821500D02*
X9309590Y-10831024D01*
X9309590Y-10831024D02*
X9271495Y-10831024D01*
X9271495Y-10831024D02*
X9252447Y-10821500D01*
X9461971Y-10831024D02*
X9442923Y-10821500D01*
X9442923Y-10821500D02*
X9433399Y-10802452D01*
X9433399Y-10802452D02*
X9433399Y-10631024D01*
X9623876Y-10831024D02*
X9623876Y-10726262D01*
X9623876Y-10726262D02*
X9614352Y-10707214D01*
X9614352Y-10707214D02*
X9595304Y-10697690D01*
X9595304Y-10697690D02*
X9557209Y-10697690D01*
X9557209Y-10697690D02*
X9538161Y-10707214D01*
X9623876Y-10821500D02*
X9604828Y-10831024D01*
X9604828Y-10831024D02*
X9557209Y-10831024D01*
X9557209Y-10831024D02*
X9538161Y-10821500D01*
X9538161Y-10821500D02*
X9528637Y-10802452D01*
X9528637Y-10802452D02*
X9528637Y-10783405D01*
X9528637Y-10783405D02*
X9538161Y-10764357D01*
X9538161Y-10764357D02*
X9557209Y-10754833D01*
X9557209Y-10754833D02*
X9604828Y-10754833D01*
X9604828Y-10754833D02*
X9623876Y-10745310D01*
X9690542Y-10697690D02*
X9766733Y-10697690D01*
X9719114Y-10631024D02*
X9719114Y-10802452D01*
X9719114Y-10802452D02*
X9728637Y-10821500D01*
X9728637Y-10821500D02*
X9747685Y-10831024D01*
X9747685Y-10831024D02*
X9766733Y-10831024D01*
X9909590Y-10821500D02*
X9890542Y-10831024D01*
X9890542Y-10831024D02*
X9852447Y-10831024D01*
X9852447Y-10831024D02*
X9833399Y-10821500D01*
X9833399Y-10821500D02*
X9823876Y-10802452D01*
X9823876Y-10802452D02*
X9823876Y-10726262D01*
X9823876Y-10726262D02*
X9833399Y-10707214D01*
X9833399Y-10707214D02*
X9852447Y-10697690D01*
X9852447Y-10697690D02*
X9890542Y-10697690D01*
X9890542Y-10697690D02*
X9909590Y-10707214D01*
X9909590Y-10707214D02*
X9919114Y-10726262D01*
X9919114Y-10726262D02*
X9919114Y-10745310D01*
X9919114Y-10745310D02*
X9823876Y-10764357D01*
X10090542Y-10831024D02*
X10090542Y-10631024D01*
X10090542Y-10821500D02*
X10071495Y-10831024D01*
X10071495Y-10831024D02*
X10033399Y-10831024D01*
X10033399Y-10831024D02*
X10014352Y-10821500D01*
X10014352Y-10821500D02*
X10004828Y-10811976D01*
X10004828Y-10811976D02*
X9995304Y-10792929D01*
X9995304Y-10792929D02*
X9995304Y-10735786D01*
X9995304Y-10735786D02*
X10004828Y-10716738D01*
X10004828Y-10716738D02*
X10014352Y-10707214D01*
X10014352Y-10707214D02*
X10033399Y-10697690D01*
X10033399Y-10697690D02*
X10071495Y-10697690D01*
X10071495Y-10697690D02*
X10090542Y-10707214D01*
X10166733Y-10907214D02*
X10176257Y-10897690D01*
X10176257Y-10897690D02*
X10195304Y-10869119D01*
X10195304Y-10869119D02*
X10204828Y-10850071D01*
X10204828Y-10850071D02*
X10214352Y-10821500D01*
X10214352Y-10821500D02*
X10223876Y-10773881D01*
X10223876Y-10773881D02*
X10223876Y-10735786D01*
X10223876Y-10735786D02*
X10214352Y-10688167D01*
X10214352Y-10688167D02*
X10204828Y-10659595D01*
X10204828Y-10659595D02*
X10195304Y-10640548D01*
X10195304Y-10640548D02*
X10176257Y-10611976D01*
X10176257Y-10611976D02*
X10166733Y-10602452D01*
X3423875Y-11028680D02*
G75*
G03*
X3423875Y-11028680I-100000J0D01*
G01*
X3652446Y-10921204D02*
X3776256Y-10921204D01*
X3776256Y-10921204D02*
X3709589Y-10997394D01*
X3709589Y-10997394D02*
X3738161Y-10997394D01*
X3738161Y-10997394D02*
X3757208Y-11006918D01*
X3757208Y-11006918D02*
X3766732Y-11016442D01*
X3766732Y-11016442D02*
X3776256Y-11035490D01*
X3776256Y-11035490D02*
X3776256Y-11083109D01*
X3776256Y-11083109D02*
X3766732Y-11102156D01*
X3766732Y-11102156D02*
X3757208Y-11111680D01*
X3757208Y-11111680D02*
X3738161Y-11121204D01*
X3738161Y-11121204D02*
X3681018Y-11121204D01*
X3681018Y-11121204D02*
X3661970Y-11111680D01*
X3661970Y-11111680D02*
X3652446Y-11102156D01*
X3861970Y-11102156D02*
X3871494Y-11111680D01*
X3871494Y-11111680D02*
X3861970Y-11121204D01*
X3861970Y-11121204D02*
X3852446Y-11111680D01*
X3852446Y-11111680D02*
X3861970Y-11102156D01*
X3861970Y-11102156D02*
X3861970Y-11121204D01*
X3938161Y-10921204D02*
X4061970Y-10921204D01*
X4061970Y-10921204D02*
X3995303Y-10997394D01*
X3995303Y-10997394D02*
X4023875Y-10997394D01*
X4023875Y-10997394D02*
X4042923Y-11006918D01*
X4042923Y-11006918D02*
X4052446Y-11016442D01*
X4052446Y-11016442D02*
X4061970Y-11035490D01*
X4061970Y-11035490D02*
X4061970Y-11083109D01*
X4061970Y-11083109D02*
X4052446Y-11102156D01*
X4052446Y-11102156D02*
X4042923Y-11111680D01*
X4042923Y-11111680D02*
X4023875Y-11121204D01*
X4023875Y-11121204D02*
X3966732Y-11121204D01*
X3966732Y-11121204D02*
X3947684Y-11111680D01*
X3947684Y-11111680D02*
X3938161Y-11102156D01*
X4185780Y-10921204D02*
X4204827Y-10921204D01*
X4204827Y-10921204D02*
X4223875Y-10930728D01*
X4223875Y-10930728D02*
X4233399Y-10940251D01*
X4233399Y-10940251D02*
X4242923Y-10959299D01*
X4242923Y-10959299D02*
X4252446Y-10997394D01*
X4252446Y-10997394D02*
X4252446Y-11045013D01*
X4252446Y-11045013D02*
X4242923Y-11083109D01*
X4242923Y-11083109D02*
X4233399Y-11102156D01*
X4233399Y-11102156D02*
X4223875Y-11111680D01*
X4223875Y-11111680D02*
X4204827Y-11121204D01*
X4204827Y-11121204D02*
X4185780Y-11121204D01*
X4185780Y-11121204D02*
X4166732Y-11111680D01*
X4166732Y-11111680D02*
X4157208Y-11102156D01*
X4157208Y-11102156D02*
X4147684Y-11083109D01*
X4147684Y-11083109D02*
X4138161Y-11045013D01*
X4138161Y-11045013D02*
X4138161Y-10997394D01*
X4138161Y-10997394D02*
X4147684Y-10959299D01*
X4147684Y-10959299D02*
X4157208Y-10940251D01*
X4157208Y-10940251D02*
X4166732Y-10930728D01*
X4166732Y-10930728D02*
X4185780Y-10921204D01*
X4376256Y-10921204D02*
X4395304Y-10921204D01*
X4395304Y-10921204D02*
X4414351Y-10930728D01*
X4414351Y-10930728D02*
X4423875Y-10940251D01*
X4423875Y-10940251D02*
X4433399Y-10959299D01*
X4433399Y-10959299D02*
X4442923Y-10997394D01*
X4442923Y-10997394D02*
X4442923Y-11045013D01*
X4442923Y-11045013D02*
X4433399Y-11083109D01*
X4433399Y-11083109D02*
X4423875Y-11102156D01*
X4423875Y-11102156D02*
X4414351Y-11111680D01*
X4414351Y-11111680D02*
X4395304Y-11121204D01*
X4395304Y-11121204D02*
X4376256Y-11121204D01*
X4376256Y-11121204D02*
X4357208Y-11111680D01*
X4357208Y-11111680D02*
X4347685Y-11102156D01*
X4347685Y-11102156D02*
X4338161Y-11083109D01*
X4338161Y-11083109D02*
X4328637Y-11045013D01*
X4328637Y-11045013D02*
X4328637Y-10997394D01*
X4328637Y-10997394D02*
X4338161Y-10959299D01*
X4338161Y-10959299D02*
X4347685Y-10940251D01*
X4347685Y-10940251D02*
X4357208Y-10930728D01*
X4357208Y-10930728D02*
X4376256Y-10921204D01*
X4528637Y-11121204D02*
X4528637Y-10987870D01*
X4528637Y-11006918D02*
X4538161Y-10997394D01*
X4538161Y-10997394D02*
X4557208Y-10987870D01*
X4557208Y-10987870D02*
X4585780Y-10987870D01*
X4585780Y-10987870D02*
X4604827Y-10997394D01*
X4604827Y-10997394D02*
X4614351Y-11016442D01*
X4614351Y-11016442D02*
X4614351Y-11121204D01*
X4614351Y-11016442D02*
X4623875Y-10997394D01*
X4623875Y-10997394D02*
X4642923Y-10987870D01*
X4642923Y-10987870D02*
X4671494Y-10987870D01*
X4671494Y-10987870D02*
X4690542Y-10997394D01*
X4690542Y-10997394D02*
X4700066Y-11016442D01*
X4700066Y-11016442D02*
X4700066Y-11121204D01*
X4795304Y-11121204D02*
X4795304Y-10987870D01*
X4795304Y-11006918D02*
X4804827Y-10997394D01*
X4804827Y-10997394D02*
X4823875Y-10987870D01*
X4823875Y-10987870D02*
X4852447Y-10987870D01*
X4852447Y-10987870D02*
X4871494Y-10997394D01*
X4871494Y-10997394D02*
X4881018Y-11016442D01*
X4881018Y-11016442D02*
X4881018Y-11121204D01*
X4881018Y-11016442D02*
X4890542Y-10997394D01*
X4890542Y-10997394D02*
X4909589Y-10987870D01*
X4909589Y-10987870D02*
X4938161Y-10987870D01*
X4938161Y-10987870D02*
X4957208Y-10997394D01*
X4957208Y-10997394D02*
X4966732Y-11016442D01*
X4966732Y-11016442D02*
X4966732Y-11121204D01*
X5357208Y-10911680D02*
X5185780Y-11168823D01*
X5614351Y-10921204D02*
X5633399Y-10921204D01*
X5633399Y-10921204D02*
X5652447Y-10930728D01*
X5652447Y-10930728D02*
X5661970Y-10940251D01*
X5661970Y-10940251D02*
X5671494Y-10959299D01*
X5671494Y-10959299D02*
X5681018Y-10997394D01*
X5681018Y-10997394D02*
X5681018Y-11045013D01*
X5681018Y-11045013D02*
X5671494Y-11083109D01*
X5671494Y-11083109D02*
X5661970Y-11102156D01*
X5661970Y-11102156D02*
X5652447Y-11111680D01*
X5652447Y-11111680D02*
X5633399Y-11121204D01*
X5633399Y-11121204D02*
X5614351Y-11121204D01*
X5614351Y-11121204D02*
X5595304Y-11111680D01*
X5595304Y-11111680D02*
X5585780Y-11102156D01*
X5585780Y-11102156D02*
X5576256Y-11083109D01*
X5576256Y-11083109D02*
X5566732Y-11045013D01*
X5566732Y-11045013D02*
X5566732Y-10997394D01*
X5566732Y-10997394D02*
X5576256Y-10959299D01*
X5576256Y-10959299D02*
X5585780Y-10940251D01*
X5585780Y-10940251D02*
X5595304Y-10930728D01*
X5595304Y-10930728D02*
X5614351Y-10921204D01*
X5766732Y-11102156D02*
X5776256Y-11111680D01*
X5776256Y-11111680D02*
X5766732Y-11121204D01*
X5766732Y-11121204D02*
X5757208Y-11111680D01*
X5757208Y-11111680D02*
X5766732Y-11102156D01*
X5766732Y-11102156D02*
X5766732Y-11121204D01*
X5966732Y-11121204D02*
X5852447Y-11121204D01*
X5909589Y-11121204D02*
X5909589Y-10921204D01*
X5909589Y-10921204D02*
X5890542Y-10949775D01*
X5890542Y-10949775D02*
X5871494Y-10968823D01*
X5871494Y-10968823D02*
X5852447Y-10978347D01*
X6042923Y-10940251D02*
X6052447Y-10930728D01*
X6052447Y-10930728D02*
X6071494Y-10921204D01*
X6071494Y-10921204D02*
X6119113Y-10921204D01*
X6119113Y-10921204D02*
X6138161Y-10930728D01*
X6138161Y-10930728D02*
X6147685Y-10940251D01*
X6147685Y-10940251D02*
X6157208Y-10959299D01*
X6157208Y-10959299D02*
X6157208Y-10978347D01*
X6157208Y-10978347D02*
X6147685Y-11006918D01*
X6147685Y-11006918D02*
X6033399Y-11121204D01*
X6033399Y-11121204D02*
X6157208Y-11121204D01*
X6252447Y-11121204D02*
X6290542Y-11121204D01*
X6290542Y-11121204D02*
X6309589Y-11111680D01*
X6309589Y-11111680D02*
X6319113Y-11102156D01*
X6319113Y-11102156D02*
X6338161Y-11073585D01*
X6338161Y-11073585D02*
X6347685Y-11035490D01*
X6347685Y-11035490D02*
X6347685Y-10959299D01*
X6347685Y-10959299D02*
X6338161Y-10940251D01*
X6338161Y-10940251D02*
X6328637Y-10930728D01*
X6328637Y-10930728D02*
X6309589Y-10921204D01*
X6309589Y-10921204D02*
X6271494Y-10921204D01*
X6271494Y-10921204D02*
X6252447Y-10930728D01*
X6252447Y-10930728D02*
X6242923Y-10940251D01*
X6242923Y-10940251D02*
X6233399Y-10959299D01*
X6233399Y-10959299D02*
X6233399Y-11006918D01*
X6233399Y-11006918D02*
X6242923Y-11025966D01*
X6242923Y-11025966D02*
X6252447Y-11035490D01*
X6252447Y-11035490D02*
X6271494Y-11045013D01*
X6271494Y-11045013D02*
X6309589Y-11045013D01*
X6309589Y-11045013D02*
X6328637Y-11035490D01*
X6328637Y-11035490D02*
X6338161Y-11025966D01*
X6338161Y-11025966D02*
X6347685Y-11006918D01*
X6442923Y-11121204D02*
X6481018Y-11121204D01*
X6481018Y-11121204D02*
X6500066Y-11111680D01*
X6500066Y-11111680D02*
X6509589Y-11102156D01*
X6509589Y-11102156D02*
X6528637Y-11073585D01*
X6528637Y-11073585D02*
X6538161Y-11035490D01*
X6538161Y-11035490D02*
X6538161Y-10959299D01*
X6538161Y-10959299D02*
X6528637Y-10940251D01*
X6528637Y-10940251D02*
X6519113Y-10930728D01*
X6519113Y-10930728D02*
X6500066Y-10921204D01*
X6500066Y-10921204D02*
X6461970Y-10921204D01*
X6461970Y-10921204D02*
X6442923Y-10930728D01*
X6442923Y-10930728D02*
X6433399Y-10940251D01*
X6433399Y-10940251D02*
X6423875Y-10959299D01*
X6423875Y-10959299D02*
X6423875Y-11006918D01*
X6423875Y-11006918D02*
X6433399Y-11025966D01*
X6433399Y-11025966D02*
X6442923Y-11035490D01*
X6442923Y-11035490D02*
X6461970Y-11045013D01*
X6461970Y-11045013D02*
X6500066Y-11045013D01*
X6500066Y-11045013D02*
X6519113Y-11035490D01*
X6519113Y-11035490D02*
X6528637Y-11025966D01*
X6528637Y-11025966D02*
X6538161Y-11006918D01*
X6614351Y-10921204D02*
X6614351Y-10959299D01*
X6690542Y-10921204D02*
X6690542Y-10959299D01*
X6985780Y-11197394D02*
X6976256Y-11187870D01*
X6976256Y-11187870D02*
X6957209Y-11159299D01*
X6957209Y-11159299D02*
X6947685Y-11140251D01*
X6947685Y-11140251D02*
X6938161Y-11111680D01*
X6938161Y-11111680D02*
X6928637Y-11064061D01*
X6928637Y-11064061D02*
X6928637Y-11025966D01*
X6928637Y-11025966D02*
X6938161Y-10978347D01*
X6938161Y-10978347D02*
X6947685Y-10949775D01*
X6947685Y-10949775D02*
X6957209Y-10930728D01*
X6957209Y-10930728D02*
X6976256Y-10902156D01*
X6976256Y-10902156D02*
X6985780Y-10892632D01*
X7166732Y-11121204D02*
X7052447Y-11121204D01*
X7109589Y-11121204D02*
X7109589Y-10921204D01*
X7109589Y-10921204D02*
X7090542Y-10949775D01*
X7090542Y-10949775D02*
X7071494Y-10968823D01*
X7071494Y-10968823D02*
X7052447Y-10978347D01*
X7404828Y-11121204D02*
X7404828Y-10921204D01*
X7490542Y-11121204D02*
X7490542Y-11016442D01*
X7490542Y-11016442D02*
X7481018Y-10997394D01*
X7481018Y-10997394D02*
X7461971Y-10987870D01*
X7461971Y-10987870D02*
X7433399Y-10987870D01*
X7433399Y-10987870D02*
X7414351Y-10997394D01*
X7414351Y-10997394D02*
X7404828Y-11006918D01*
X7614351Y-11121204D02*
X7595304Y-11111680D01*
X7595304Y-11111680D02*
X7585780Y-11102156D01*
X7585780Y-11102156D02*
X7576256Y-11083109D01*
X7576256Y-11083109D02*
X7576256Y-11025966D01*
X7576256Y-11025966D02*
X7585780Y-11006918D01*
X7585780Y-11006918D02*
X7595304Y-10997394D01*
X7595304Y-10997394D02*
X7614351Y-10987870D01*
X7614351Y-10987870D02*
X7642923Y-10987870D01*
X7642923Y-10987870D02*
X7661971Y-10997394D01*
X7661971Y-10997394D02*
X7671494Y-11006918D01*
X7671494Y-11006918D02*
X7681018Y-11025966D01*
X7681018Y-11025966D02*
X7681018Y-11083109D01*
X7681018Y-11083109D02*
X7671494Y-11102156D01*
X7671494Y-11102156D02*
X7661971Y-11111680D01*
X7661971Y-11111680D02*
X7642923Y-11121204D01*
X7642923Y-11121204D02*
X7614351Y-11121204D01*
X7795304Y-11121204D02*
X7776256Y-11111680D01*
X7776256Y-11111680D02*
X7766732Y-11092632D01*
X7766732Y-11092632D02*
X7766732Y-10921204D01*
X7947685Y-11111680D02*
X7928637Y-11121204D01*
X7928637Y-11121204D02*
X7890542Y-11121204D01*
X7890542Y-11121204D02*
X7871494Y-11111680D01*
X7871494Y-11111680D02*
X7861971Y-11092632D01*
X7861971Y-11092632D02*
X7861971Y-11016442D01*
X7861971Y-11016442D02*
X7871494Y-10997394D01*
X7871494Y-10997394D02*
X7890542Y-10987870D01*
X7890542Y-10987870D02*
X7928637Y-10987870D01*
X7928637Y-10987870D02*
X7947685Y-10997394D01*
X7947685Y-10997394D02*
X7957209Y-11016442D01*
X7957209Y-11016442D02*
X7957209Y-11035490D01*
X7957209Y-11035490D02*
X7861971Y-11054537D01*
X8023875Y-11197394D02*
X8033399Y-11187870D01*
X8033399Y-11187870D02*
X8052447Y-11159299D01*
X8052447Y-11159299D02*
X8061971Y-11140251D01*
X8061971Y-11140251D02*
X8071494Y-11111680D01*
X8071494Y-11111680D02*
X8081018Y-11064061D01*
X8081018Y-11064061D02*
X8081018Y-11025966D01*
X8081018Y-11025966D02*
X8071494Y-10978347D01*
X8071494Y-10978347D02*
X8061971Y-10949775D01*
X8061971Y-10949775D02*
X8052447Y-10930728D01*
X8052447Y-10930728D02*
X8033399Y-10902156D01*
X8033399Y-10902156D02*
X8023875Y-10892632D01*
X8385780Y-11197394D02*
X8376256Y-11187870D01*
X8376256Y-11187870D02*
X8357209Y-11159299D01*
X8357209Y-11159299D02*
X8347685Y-11140251D01*
X8347685Y-11140251D02*
X8338161Y-11111680D01*
X8338161Y-11111680D02*
X8328637Y-11064061D01*
X8328637Y-11064061D02*
X8328637Y-11025966D01*
X8328637Y-11025966D02*
X8338161Y-10978347D01*
X8338161Y-10978347D02*
X8347685Y-10949775D01*
X8347685Y-10949775D02*
X8357209Y-10930728D01*
X8357209Y-10930728D02*
X8376256Y-10902156D01*
X8376256Y-10902156D02*
X8385780Y-10892632D01*
X8461971Y-10987870D02*
X8461971Y-11121204D01*
X8461971Y-11006918D02*
X8471494Y-10997394D01*
X8471494Y-10997394D02*
X8490542Y-10987870D01*
X8490542Y-10987870D02*
X8519114Y-10987870D01*
X8519114Y-10987870D02*
X8538161Y-10997394D01*
X8538161Y-10997394D02*
X8547685Y-11016442D01*
X8547685Y-11016442D02*
X8547685Y-11121204D01*
X8671494Y-11121204D02*
X8652447Y-11111680D01*
X8652447Y-11111680D02*
X8642923Y-11102156D01*
X8642923Y-11102156D02*
X8633399Y-11083109D01*
X8633399Y-11083109D02*
X8633399Y-11025966D01*
X8633399Y-11025966D02*
X8642923Y-11006918D01*
X8642923Y-11006918D02*
X8652447Y-10997394D01*
X8652447Y-10997394D02*
X8671494Y-10987870D01*
X8671494Y-10987870D02*
X8700066Y-10987870D01*
X8700066Y-10987870D02*
X8719114Y-10997394D01*
X8719114Y-10997394D02*
X8728637Y-11006918D01*
X8728637Y-11006918D02*
X8738161Y-11025966D01*
X8738161Y-11025966D02*
X8738161Y-11083109D01*
X8738161Y-11083109D02*
X8728637Y-11102156D01*
X8728637Y-11102156D02*
X8719114Y-11111680D01*
X8719114Y-11111680D02*
X8700066Y-11121204D01*
X8700066Y-11121204D02*
X8671494Y-11121204D01*
X8795304Y-10987870D02*
X8871494Y-10987870D01*
X8823875Y-10921204D02*
X8823875Y-11092632D01*
X8823875Y-11092632D02*
X8833399Y-11111680D01*
X8833399Y-11111680D02*
X8852447Y-11121204D01*
X8852447Y-11121204D02*
X8871494Y-11121204D01*
X9090542Y-10987870D02*
X9090542Y-11187870D01*
X9090542Y-10997394D02*
X9109590Y-10987870D01*
X9109590Y-10987870D02*
X9147685Y-10987870D01*
X9147685Y-10987870D02*
X9166733Y-10997394D01*
X9166733Y-10997394D02*
X9176256Y-11006918D01*
X9176256Y-11006918D02*
X9185780Y-11025966D01*
X9185780Y-11025966D02*
X9185780Y-11083109D01*
X9185780Y-11083109D02*
X9176256Y-11102156D01*
X9176256Y-11102156D02*
X9166733Y-11111680D01*
X9166733Y-11111680D02*
X9147685Y-11121204D01*
X9147685Y-11121204D02*
X9109590Y-11121204D01*
X9109590Y-11121204D02*
X9090542Y-11111680D01*
X9300066Y-11121204D02*
X9281018Y-11111680D01*
X9281018Y-11111680D02*
X9271495Y-11092632D01*
X9271495Y-11092632D02*
X9271495Y-10921204D01*
X9461971Y-11121204D02*
X9461971Y-11016442D01*
X9461971Y-11016442D02*
X9452447Y-10997394D01*
X9452447Y-10997394D02*
X9433399Y-10987870D01*
X9433399Y-10987870D02*
X9395304Y-10987870D01*
X9395304Y-10987870D02*
X9376256Y-10997394D01*
X9461971Y-11111680D02*
X9442923Y-11121204D01*
X9442923Y-11121204D02*
X9395304Y-11121204D01*
X9395304Y-11121204D02*
X9376256Y-11111680D01*
X9376256Y-11111680D02*
X9366733Y-11092632D01*
X9366733Y-11092632D02*
X9366733Y-11073585D01*
X9366733Y-11073585D02*
X9376256Y-11054537D01*
X9376256Y-11054537D02*
X9395304Y-11045013D01*
X9395304Y-11045013D02*
X9442923Y-11045013D01*
X9442923Y-11045013D02*
X9461971Y-11035490D01*
X9528637Y-10987870D02*
X9604828Y-10987870D01*
X9557209Y-10921204D02*
X9557209Y-11092632D01*
X9557209Y-11092632D02*
X9566733Y-11111680D01*
X9566733Y-11111680D02*
X9585780Y-11121204D01*
X9585780Y-11121204D02*
X9604828Y-11121204D01*
X9747685Y-11111680D02*
X9728637Y-11121204D01*
X9728637Y-11121204D02*
X9690542Y-11121204D01*
X9690542Y-11121204D02*
X9671495Y-11111680D01*
X9671495Y-11111680D02*
X9661971Y-11092632D01*
X9661971Y-11092632D02*
X9661971Y-11016442D01*
X9661971Y-11016442D02*
X9671495Y-10997394D01*
X9671495Y-10997394D02*
X9690542Y-10987870D01*
X9690542Y-10987870D02*
X9728637Y-10987870D01*
X9728637Y-10987870D02*
X9747685Y-10997394D01*
X9747685Y-10997394D02*
X9757209Y-11016442D01*
X9757209Y-11016442D02*
X9757209Y-11035490D01*
X9757209Y-11035490D02*
X9661971Y-11054537D01*
X9928637Y-11121204D02*
X9928637Y-10921204D01*
X9928637Y-11111680D02*
X9909590Y-11121204D01*
X9909590Y-11121204D02*
X9871495Y-11121204D01*
X9871495Y-11121204D02*
X9852447Y-11111680D01*
X9852447Y-11111680D02*
X9842923Y-11102156D01*
X9842923Y-11102156D02*
X9833399Y-11083109D01*
X9833399Y-11083109D02*
X9833399Y-11025966D01*
X9833399Y-11025966D02*
X9842923Y-11006918D01*
X9842923Y-11006918D02*
X9852447Y-10997394D01*
X9852447Y-10997394D02*
X9871495Y-10987870D01*
X9871495Y-10987870D02*
X9909590Y-10987870D01*
X9909590Y-10987870D02*
X9928637Y-10997394D01*
X10004828Y-11197394D02*
X10014352Y-11187870D01*
X10014352Y-11187870D02*
X10033399Y-11159299D01*
X10033399Y-11159299D02*
X10042923Y-11140251D01*
X10042923Y-11140251D02*
X10052447Y-11111680D01*
X10052447Y-11111680D02*
X10061971Y-11064061D01*
X10061971Y-11064061D02*
X10061971Y-11025966D01*
X10061971Y-11025966D02*
X10052447Y-10978347D01*
X10052447Y-10978347D02*
X10042923Y-10949775D01*
X10042923Y-10949775D02*
X10033399Y-10930728D01*
X10033399Y-10930728D02*
X10014352Y-10902156D01*
X10014352Y-10902156D02*
X10004828Y-10892632D01*
X3323875Y-11248680D02*
X3323875Y-11448680D01*
X3223875Y-11348680D02*
X3423875Y-11348680D01*
X3652446Y-11241204D02*
X3776256Y-11241204D01*
X3776256Y-11241204D02*
X3709589Y-11317394D01*
X3709589Y-11317394D02*
X3738161Y-11317394D01*
X3738161Y-11317394D02*
X3757208Y-11326918D01*
X3757208Y-11326918D02*
X3766732Y-11336442D01*
X3766732Y-11336442D02*
X3776256Y-11355489D01*
X3776256Y-11355489D02*
X3776256Y-11403108D01*
X3776256Y-11403108D02*
X3766732Y-11422156D01*
X3766732Y-11422156D02*
X3757208Y-11431680D01*
X3757208Y-11431680D02*
X3738161Y-11441204D01*
X3738161Y-11441204D02*
X3681018Y-11441204D01*
X3681018Y-11441204D02*
X3661970Y-11431680D01*
X3661970Y-11431680D02*
X3652446Y-11422156D01*
X3861970Y-11422156D02*
X3871494Y-11431680D01*
X3871494Y-11431680D02*
X3861970Y-11441204D01*
X3861970Y-11441204D02*
X3852446Y-11431680D01*
X3852446Y-11431680D02*
X3861970Y-11422156D01*
X3861970Y-11422156D02*
X3861970Y-11441204D01*
X3938161Y-11241204D02*
X4061970Y-11241204D01*
X4061970Y-11241204D02*
X3995303Y-11317394D01*
X3995303Y-11317394D02*
X4023875Y-11317394D01*
X4023875Y-11317394D02*
X4042923Y-11326918D01*
X4042923Y-11326918D02*
X4052446Y-11336442D01*
X4052446Y-11336442D02*
X4061970Y-11355489D01*
X4061970Y-11355489D02*
X4061970Y-11403108D01*
X4061970Y-11403108D02*
X4052446Y-11422156D01*
X4052446Y-11422156D02*
X4042923Y-11431680D01*
X4042923Y-11431680D02*
X4023875Y-11441204D01*
X4023875Y-11441204D02*
X3966732Y-11441204D01*
X3966732Y-11441204D02*
X3947684Y-11431680D01*
X3947684Y-11431680D02*
X3938161Y-11422156D01*
X4242923Y-11241204D02*
X4147684Y-11241204D01*
X4147684Y-11241204D02*
X4138161Y-11336442D01*
X4138161Y-11336442D02*
X4147684Y-11326918D01*
X4147684Y-11326918D02*
X4166732Y-11317394D01*
X4166732Y-11317394D02*
X4214351Y-11317394D01*
X4214351Y-11317394D02*
X4233399Y-11326918D01*
X4233399Y-11326918D02*
X4242923Y-11336442D01*
X4242923Y-11336442D02*
X4252446Y-11355489D01*
X4252446Y-11355489D02*
X4252446Y-11403108D01*
X4252446Y-11403108D02*
X4242923Y-11422156D01*
X4242923Y-11422156D02*
X4233399Y-11431680D01*
X4233399Y-11431680D02*
X4214351Y-11441204D01*
X4214351Y-11441204D02*
X4166732Y-11441204D01*
X4166732Y-11441204D02*
X4147684Y-11431680D01*
X4147684Y-11431680D02*
X4138161Y-11422156D01*
X4376256Y-11241204D02*
X4395304Y-11241204D01*
X4395304Y-11241204D02*
X4414351Y-11250728D01*
X4414351Y-11250728D02*
X4423875Y-11260251D01*
X4423875Y-11260251D02*
X4433399Y-11279299D01*
X4433399Y-11279299D02*
X4442923Y-11317394D01*
X4442923Y-11317394D02*
X4442923Y-11365013D01*
X4442923Y-11365013D02*
X4433399Y-11403108D01*
X4433399Y-11403108D02*
X4423875Y-11422156D01*
X4423875Y-11422156D02*
X4414351Y-11431680D01*
X4414351Y-11431680D02*
X4395304Y-11441204D01*
X4395304Y-11441204D02*
X4376256Y-11441204D01*
X4376256Y-11441204D02*
X4357208Y-11431680D01*
X4357208Y-11431680D02*
X4347685Y-11422156D01*
X4347685Y-11422156D02*
X4338161Y-11403108D01*
X4338161Y-11403108D02*
X4328637Y-11365013D01*
X4328637Y-11365013D02*
X4328637Y-11317394D01*
X4328637Y-11317394D02*
X4338161Y-11279299D01*
X4338161Y-11279299D02*
X4347685Y-11260251D01*
X4347685Y-11260251D02*
X4357208Y-11250728D01*
X4357208Y-11250728D02*
X4376256Y-11241204D01*
X4528637Y-11441204D02*
X4528637Y-11307870D01*
X4528637Y-11326918D02*
X4538161Y-11317394D01*
X4538161Y-11317394D02*
X4557208Y-11307870D01*
X4557208Y-11307870D02*
X4585780Y-11307870D01*
X4585780Y-11307870D02*
X4604827Y-11317394D01*
X4604827Y-11317394D02*
X4614351Y-11336442D01*
X4614351Y-11336442D02*
X4614351Y-11441204D01*
X4614351Y-11336442D02*
X4623875Y-11317394D01*
X4623875Y-11317394D02*
X4642923Y-11307870D01*
X4642923Y-11307870D02*
X4671494Y-11307870D01*
X4671494Y-11307870D02*
X4690542Y-11317394D01*
X4690542Y-11317394D02*
X4700066Y-11336442D01*
X4700066Y-11336442D02*
X4700066Y-11441204D01*
X4795304Y-11441204D02*
X4795304Y-11307870D01*
X4795304Y-11326918D02*
X4804827Y-11317394D01*
X4804827Y-11317394D02*
X4823875Y-11307870D01*
X4823875Y-11307870D02*
X4852447Y-11307870D01*
X4852447Y-11307870D02*
X4871494Y-11317394D01*
X4871494Y-11317394D02*
X4881018Y-11336442D01*
X4881018Y-11336442D02*
X4881018Y-11441204D01*
X4881018Y-11336442D02*
X4890542Y-11317394D01*
X4890542Y-11317394D02*
X4909589Y-11307870D01*
X4909589Y-11307870D02*
X4938161Y-11307870D01*
X4938161Y-11307870D02*
X4957208Y-11317394D01*
X4957208Y-11317394D02*
X4966732Y-11336442D01*
X4966732Y-11336442D02*
X4966732Y-11441204D01*
X5357208Y-11231680D02*
X5185780Y-11488823D01*
X5614351Y-11241204D02*
X5633399Y-11241204D01*
X5633399Y-11241204D02*
X5652447Y-11250728D01*
X5652447Y-11250728D02*
X5661970Y-11260251D01*
X5661970Y-11260251D02*
X5671494Y-11279299D01*
X5671494Y-11279299D02*
X5681018Y-11317394D01*
X5681018Y-11317394D02*
X5681018Y-11365013D01*
X5681018Y-11365013D02*
X5671494Y-11403108D01*
X5671494Y-11403108D02*
X5661970Y-11422156D01*
X5661970Y-11422156D02*
X5652447Y-11431680D01*
X5652447Y-11431680D02*
X5633399Y-11441204D01*
X5633399Y-11441204D02*
X5614351Y-11441204D01*
X5614351Y-11441204D02*
X5595304Y-11431680D01*
X5595304Y-11431680D02*
X5585780Y-11422156D01*
X5585780Y-11422156D02*
X5576256Y-11403108D01*
X5576256Y-11403108D02*
X5566732Y-11365013D01*
X5566732Y-11365013D02*
X5566732Y-11317394D01*
X5566732Y-11317394D02*
X5576256Y-11279299D01*
X5576256Y-11279299D02*
X5585780Y-11260251D01*
X5585780Y-11260251D02*
X5595304Y-11250728D01*
X5595304Y-11250728D02*
X5614351Y-11241204D01*
X5766732Y-11422156D02*
X5776256Y-11431680D01*
X5776256Y-11431680D02*
X5766732Y-11441204D01*
X5766732Y-11441204D02*
X5757208Y-11431680D01*
X5757208Y-11431680D02*
X5766732Y-11422156D01*
X5766732Y-11422156D02*
X5766732Y-11441204D01*
X5966732Y-11441204D02*
X5852447Y-11441204D01*
X5909589Y-11441204D02*
X5909589Y-11241204D01*
X5909589Y-11241204D02*
X5890542Y-11269775D01*
X5890542Y-11269775D02*
X5871494Y-11288823D01*
X5871494Y-11288823D02*
X5852447Y-11298347D01*
X6033399Y-11241204D02*
X6157208Y-11241204D01*
X6157208Y-11241204D02*
X6090542Y-11317394D01*
X6090542Y-11317394D02*
X6119113Y-11317394D01*
X6119113Y-11317394D02*
X6138161Y-11326918D01*
X6138161Y-11326918D02*
X6147685Y-11336442D01*
X6147685Y-11336442D02*
X6157208Y-11355489D01*
X6157208Y-11355489D02*
X6157208Y-11403108D01*
X6157208Y-11403108D02*
X6147685Y-11422156D01*
X6147685Y-11422156D02*
X6138161Y-11431680D01*
X6138161Y-11431680D02*
X6119113Y-11441204D01*
X6119113Y-11441204D02*
X6061970Y-11441204D01*
X6061970Y-11441204D02*
X6042923Y-11431680D01*
X6042923Y-11431680D02*
X6033399Y-11422156D01*
X6347685Y-11441204D02*
X6233399Y-11441204D01*
X6290542Y-11441204D02*
X6290542Y-11241204D01*
X6290542Y-11241204D02*
X6271494Y-11269775D01*
X6271494Y-11269775D02*
X6252447Y-11288823D01*
X6252447Y-11288823D02*
X6233399Y-11298347D01*
X6442923Y-11441204D02*
X6481018Y-11441204D01*
X6481018Y-11441204D02*
X6500066Y-11431680D01*
X6500066Y-11431680D02*
X6509589Y-11422156D01*
X6509589Y-11422156D02*
X6528637Y-11393585D01*
X6528637Y-11393585D02*
X6538161Y-11355489D01*
X6538161Y-11355489D02*
X6538161Y-11279299D01*
X6538161Y-11279299D02*
X6528637Y-11260251D01*
X6528637Y-11260251D02*
X6519113Y-11250728D01*
X6519113Y-11250728D02*
X6500066Y-11241204D01*
X6500066Y-11241204D02*
X6461970Y-11241204D01*
X6461970Y-11241204D02*
X6442923Y-11250728D01*
X6442923Y-11250728D02*
X6433399Y-11260251D01*
X6433399Y-11260251D02*
X6423875Y-11279299D01*
X6423875Y-11279299D02*
X6423875Y-11326918D01*
X6423875Y-11326918D02*
X6433399Y-11345966D01*
X6433399Y-11345966D02*
X6442923Y-11355489D01*
X6442923Y-11355489D02*
X6461970Y-11365013D01*
X6461970Y-11365013D02*
X6500066Y-11365013D01*
X6500066Y-11365013D02*
X6519113Y-11355489D01*
X6519113Y-11355489D02*
X6528637Y-11345966D01*
X6528637Y-11345966D02*
X6538161Y-11326918D01*
X6614351Y-11241204D02*
X6614351Y-11279299D01*
X6690542Y-11241204D02*
X6690542Y-11279299D01*
X6985780Y-11517394D02*
X6976256Y-11507870D01*
X6976256Y-11507870D02*
X6957209Y-11479299D01*
X6957209Y-11479299D02*
X6947685Y-11460251D01*
X6947685Y-11460251D02*
X6938161Y-11431680D01*
X6938161Y-11431680D02*
X6928637Y-11384061D01*
X6928637Y-11384061D02*
X6928637Y-11345966D01*
X6928637Y-11345966D02*
X6938161Y-11298347D01*
X6938161Y-11298347D02*
X6947685Y-11269775D01*
X6947685Y-11269775D02*
X6957209Y-11250728D01*
X6957209Y-11250728D02*
X6976256Y-11222156D01*
X6976256Y-11222156D02*
X6985780Y-11212632D01*
X7166732Y-11441204D02*
X7052447Y-11441204D01*
X7109589Y-11441204D02*
X7109589Y-11241204D01*
X7109589Y-11241204D02*
X7090542Y-11269775D01*
X7090542Y-11269775D02*
X7071494Y-11288823D01*
X7071494Y-11288823D02*
X7052447Y-11298347D01*
X7395304Y-11431680D02*
X7414351Y-11441204D01*
X7414351Y-11441204D02*
X7452447Y-11441204D01*
X7452447Y-11441204D02*
X7471494Y-11431680D01*
X7471494Y-11431680D02*
X7481018Y-11412632D01*
X7481018Y-11412632D02*
X7481018Y-11403108D01*
X7481018Y-11403108D02*
X7471494Y-11384061D01*
X7471494Y-11384061D02*
X7452447Y-11374537D01*
X7452447Y-11374537D02*
X7423875Y-11374537D01*
X7423875Y-11374537D02*
X7404828Y-11365013D01*
X7404828Y-11365013D02*
X7395304Y-11345966D01*
X7395304Y-11345966D02*
X7395304Y-11336442D01*
X7395304Y-11336442D02*
X7404828Y-11317394D01*
X7404828Y-11317394D02*
X7423875Y-11307870D01*
X7423875Y-11307870D02*
X7452447Y-11307870D01*
X7452447Y-11307870D02*
X7471494Y-11317394D01*
X7595304Y-11441204D02*
X7576256Y-11431680D01*
X7576256Y-11431680D02*
X7566732Y-11412632D01*
X7566732Y-11412632D02*
X7566732Y-11241204D01*
X7700066Y-11441204D02*
X7681018Y-11431680D01*
X7681018Y-11431680D02*
X7671494Y-11422156D01*
X7671494Y-11422156D02*
X7661971Y-11403108D01*
X7661971Y-11403108D02*
X7661971Y-11345966D01*
X7661971Y-11345966D02*
X7671494Y-11326918D01*
X7671494Y-11326918D02*
X7681018Y-11317394D01*
X7681018Y-11317394D02*
X7700066Y-11307870D01*
X7700066Y-11307870D02*
X7728637Y-11307870D01*
X7728637Y-11307870D02*
X7747685Y-11317394D01*
X7747685Y-11317394D02*
X7757209Y-11326918D01*
X7757209Y-11326918D02*
X7766732Y-11345966D01*
X7766732Y-11345966D02*
X7766732Y-11403108D01*
X7766732Y-11403108D02*
X7757209Y-11422156D01*
X7757209Y-11422156D02*
X7747685Y-11431680D01*
X7747685Y-11431680D02*
X7728637Y-11441204D01*
X7728637Y-11441204D02*
X7700066Y-11441204D01*
X7823875Y-11307870D02*
X7900066Y-11307870D01*
X7852447Y-11241204D02*
X7852447Y-11412632D01*
X7852447Y-11412632D02*
X7861971Y-11431680D01*
X7861971Y-11431680D02*
X7881018Y-11441204D01*
X7881018Y-11441204D02*
X7900066Y-11441204D01*
X7947685Y-11517394D02*
X7957209Y-11507870D01*
X7957209Y-11507870D02*
X7976256Y-11479299D01*
X7976256Y-11479299D02*
X7985780Y-11460251D01*
X7985780Y-11460251D02*
X7995304Y-11431680D01*
X7995304Y-11431680D02*
X8004828Y-11384061D01*
X8004828Y-11384061D02*
X8004828Y-11345966D01*
X8004828Y-11345966D02*
X7995304Y-11298347D01*
X7995304Y-11298347D02*
X7985780Y-11269775D01*
X7985780Y-11269775D02*
X7976256Y-11250728D01*
X7976256Y-11250728D02*
X7957209Y-11222156D01*
X7957209Y-11222156D02*
X7947685Y-11212632D01*
X8309590Y-11517394D02*
X8300066Y-11507870D01*
X8300066Y-11507870D02*
X8281018Y-11479299D01*
X8281018Y-11479299D02*
X8271494Y-11460251D01*
X8271494Y-11460251D02*
X8261971Y-11431680D01*
X8261971Y-11431680D02*
X8252447Y-11384061D01*
X8252447Y-11384061D02*
X8252447Y-11345966D01*
X8252447Y-11345966D02*
X8261971Y-11298347D01*
X8261971Y-11298347D02*
X8271494Y-11269775D01*
X8271494Y-11269775D02*
X8281018Y-11250728D01*
X8281018Y-11250728D02*
X8300066Y-11222156D01*
X8300066Y-11222156D02*
X8309590Y-11212632D01*
X8385780Y-11307870D02*
X8385780Y-11441204D01*
X8385780Y-11326918D02*
X8395304Y-11317394D01*
X8395304Y-11317394D02*
X8414352Y-11307870D01*
X8414352Y-11307870D02*
X8442923Y-11307870D01*
X8442923Y-11307870D02*
X8461971Y-11317394D01*
X8461971Y-11317394D02*
X8471494Y-11336442D01*
X8471494Y-11336442D02*
X8471494Y-11441204D01*
X8595304Y-11441204D02*
X8576256Y-11431680D01*
X8576256Y-11431680D02*
X8566733Y-11422156D01*
X8566733Y-11422156D02*
X8557209Y-11403108D01*
X8557209Y-11403108D02*
X8557209Y-11345966D01*
X8557209Y-11345966D02*
X8566733Y-11326918D01*
X8566733Y-11326918D02*
X8576256Y-11317394D01*
X8576256Y-11317394D02*
X8595304Y-11307870D01*
X8595304Y-11307870D02*
X8623875Y-11307870D01*
X8623875Y-11307870D02*
X8642923Y-11317394D01*
X8642923Y-11317394D02*
X8652447Y-11326918D01*
X8652447Y-11326918D02*
X8661971Y-11345966D01*
X8661971Y-11345966D02*
X8661971Y-11403108D01*
X8661971Y-11403108D02*
X8652447Y-11422156D01*
X8652447Y-11422156D02*
X8642923Y-11431680D01*
X8642923Y-11431680D02*
X8623875Y-11441204D01*
X8623875Y-11441204D02*
X8595304Y-11441204D01*
X8719114Y-11307870D02*
X8795304Y-11307870D01*
X8747685Y-11241204D02*
X8747685Y-11412632D01*
X8747685Y-11412632D02*
X8757209Y-11431680D01*
X8757209Y-11431680D02*
X8776256Y-11441204D01*
X8776256Y-11441204D02*
X8795304Y-11441204D01*
X9014352Y-11307870D02*
X9014352Y-11507870D01*
X9014352Y-11317394D02*
X9033399Y-11307870D01*
X9033399Y-11307870D02*
X9071495Y-11307870D01*
X9071495Y-11307870D02*
X9090542Y-11317394D01*
X9090542Y-11317394D02*
X9100066Y-11326918D01*
X9100066Y-11326918D02*
X9109590Y-11345966D01*
X9109590Y-11345966D02*
X9109590Y-11403108D01*
X9109590Y-11403108D02*
X9100066Y-11422156D01*
X9100066Y-11422156D02*
X9090542Y-11431680D01*
X9090542Y-11431680D02*
X9071495Y-11441204D01*
X9071495Y-11441204D02*
X9033399Y-11441204D01*
X9033399Y-11441204D02*
X9014352Y-11431680D01*
X9223875Y-11441204D02*
X9204828Y-11431680D01*
X9204828Y-11431680D02*
X9195304Y-11412632D01*
X9195304Y-11412632D02*
X9195304Y-11241204D01*
X9385780Y-11441204D02*
X9385780Y-11336442D01*
X9385780Y-11336442D02*
X9376256Y-11317394D01*
X9376256Y-11317394D02*
X9357209Y-11307870D01*
X9357209Y-11307870D02*
X9319114Y-11307870D01*
X9319114Y-11307870D02*
X9300066Y-11317394D01*
X9385780Y-11431680D02*
X9366733Y-11441204D01*
X9366733Y-11441204D02*
X9319114Y-11441204D01*
X9319114Y-11441204D02*
X9300066Y-11431680D01*
X9300066Y-11431680D02*
X9290542Y-11412632D01*
X9290542Y-11412632D02*
X9290542Y-11393585D01*
X9290542Y-11393585D02*
X9300066Y-11374537D01*
X9300066Y-11374537D02*
X9319114Y-11365013D01*
X9319114Y-11365013D02*
X9366733Y-11365013D01*
X9366733Y-11365013D02*
X9385780Y-11355489D01*
X9452447Y-11307870D02*
X9528637Y-11307870D01*
X9481018Y-11241204D02*
X9481018Y-11412632D01*
X9481018Y-11412632D02*
X9490542Y-11431680D01*
X9490542Y-11431680D02*
X9509590Y-11441204D01*
X9509590Y-11441204D02*
X9528637Y-11441204D01*
X9671495Y-11431680D02*
X9652447Y-11441204D01*
X9652447Y-11441204D02*
X9614352Y-11441204D01*
X9614352Y-11441204D02*
X9595304Y-11431680D01*
X9595304Y-11431680D02*
X9585780Y-11412632D01*
X9585780Y-11412632D02*
X9585780Y-11336442D01*
X9585780Y-11336442D02*
X9595304Y-11317394D01*
X9595304Y-11317394D02*
X9614352Y-11307870D01*
X9614352Y-11307870D02*
X9652447Y-11307870D01*
X9652447Y-11307870D02*
X9671495Y-11317394D01*
X9671495Y-11317394D02*
X9681018Y-11336442D01*
X9681018Y-11336442D02*
X9681018Y-11355489D01*
X9681018Y-11355489D02*
X9585780Y-11374537D01*
X9852447Y-11441204D02*
X9852447Y-11241204D01*
X9852447Y-11431680D02*
X9833399Y-11441204D01*
X9833399Y-11441204D02*
X9795304Y-11441204D01*
X9795304Y-11441204D02*
X9776256Y-11431680D01*
X9776256Y-11431680D02*
X9766733Y-11422156D01*
X9766733Y-11422156D02*
X9757209Y-11403108D01*
X9757209Y-11403108D02*
X9757209Y-11345966D01*
X9757209Y-11345966D02*
X9766733Y-11326918D01*
X9766733Y-11326918D02*
X9776256Y-11317394D01*
X9776256Y-11317394D02*
X9795304Y-11307870D01*
X9795304Y-11307870D02*
X9833399Y-11307870D01*
X9833399Y-11307870D02*
X9852447Y-11317394D01*
X9928637Y-11517394D02*
X9938161Y-11507870D01*
X9938161Y-11507870D02*
X9957209Y-11479299D01*
X9957209Y-11479299D02*
X9966733Y-11460251D01*
X9966733Y-11460251D02*
X9976256Y-11431680D01*
X9976256Y-11431680D02*
X9985780Y-11384061D01*
X9985780Y-11384061D02*
X9985780Y-11345966D01*
X9985780Y-11345966D02*
X9976256Y-11298347D01*
X9976256Y-11298347D02*
X9966733Y-11269775D01*
X9966733Y-11269775D02*
X9957209Y-11250728D01*
X9957209Y-11250728D02*
X9938161Y-11222156D01*
X9938161Y-11222156D02*
X9928637Y-11212632D01*
X3394586Y-11739391D02*
X3394586Y-11597969D01*
X3253164Y-11597969D01*
X3253164Y-11739391D01*
X3394586Y-11739391D01*
X3652446Y-11561204D02*
X3776256Y-11561204D01*
X3776256Y-11561204D02*
X3709589Y-11637394D01*
X3709589Y-11637394D02*
X3738161Y-11637394D01*
X3738161Y-11637394D02*
X3757208Y-11646918D01*
X3757208Y-11646918D02*
X3766732Y-11656442D01*
X3766732Y-11656442D02*
X3776256Y-11675489D01*
X3776256Y-11675489D02*
X3776256Y-11723108D01*
X3776256Y-11723108D02*
X3766732Y-11742156D01*
X3766732Y-11742156D02*
X3757208Y-11751680D01*
X3757208Y-11751680D02*
X3738161Y-11761204D01*
X3738161Y-11761204D02*
X3681018Y-11761204D01*
X3681018Y-11761204D02*
X3661970Y-11751680D01*
X3661970Y-11751680D02*
X3652446Y-11742156D01*
X3861970Y-11742156D02*
X3871494Y-11751680D01*
X3871494Y-11751680D02*
X3861970Y-11761204D01*
X3861970Y-11761204D02*
X3852446Y-11751680D01*
X3852446Y-11751680D02*
X3861970Y-11742156D01*
X3861970Y-11742156D02*
X3861970Y-11761204D01*
X3985780Y-11646918D02*
X3966732Y-11637394D01*
X3966732Y-11637394D02*
X3957208Y-11627870D01*
X3957208Y-11627870D02*
X3947684Y-11608823D01*
X3947684Y-11608823D02*
X3947684Y-11599299D01*
X3947684Y-11599299D02*
X3957208Y-11580251D01*
X3957208Y-11580251D02*
X3966732Y-11570728D01*
X3966732Y-11570728D02*
X3985780Y-11561204D01*
X3985780Y-11561204D02*
X4023875Y-11561204D01*
X4023875Y-11561204D02*
X4042923Y-11570728D01*
X4042923Y-11570728D02*
X4052446Y-11580251D01*
X4052446Y-11580251D02*
X4061970Y-11599299D01*
X4061970Y-11599299D02*
X4061970Y-11608823D01*
X4061970Y-11608823D02*
X4052446Y-11627870D01*
X4052446Y-11627870D02*
X4042923Y-11637394D01*
X4042923Y-11637394D02*
X4023875Y-11646918D01*
X4023875Y-11646918D02*
X3985780Y-11646918D01*
X3985780Y-11646918D02*
X3966732Y-11656442D01*
X3966732Y-11656442D02*
X3957208Y-11665966D01*
X3957208Y-11665966D02*
X3947684Y-11685013D01*
X3947684Y-11685013D02*
X3947684Y-11723108D01*
X3947684Y-11723108D02*
X3957208Y-11742156D01*
X3957208Y-11742156D02*
X3966732Y-11751680D01*
X3966732Y-11751680D02*
X3985780Y-11761204D01*
X3985780Y-11761204D02*
X4023875Y-11761204D01*
X4023875Y-11761204D02*
X4042923Y-11751680D01*
X4042923Y-11751680D02*
X4052446Y-11742156D01*
X4052446Y-11742156D02*
X4061970Y-11723108D01*
X4061970Y-11723108D02*
X4061970Y-11685013D01*
X4061970Y-11685013D02*
X4052446Y-11665966D01*
X4052446Y-11665966D02*
X4042923Y-11656442D01*
X4042923Y-11656442D02*
X4023875Y-11646918D01*
X4185780Y-11561204D02*
X4204827Y-11561204D01*
X4204827Y-11561204D02*
X4223875Y-11570728D01*
X4223875Y-11570728D02*
X4233399Y-11580251D01*
X4233399Y-11580251D02*
X4242923Y-11599299D01*
X4242923Y-11599299D02*
X4252446Y-11637394D01*
X4252446Y-11637394D02*
X4252446Y-11685013D01*
X4252446Y-11685013D02*
X4242923Y-11723108D01*
X4242923Y-11723108D02*
X4233399Y-11742156D01*
X4233399Y-11742156D02*
X4223875Y-11751680D01*
X4223875Y-11751680D02*
X4204827Y-11761204D01*
X4204827Y-11761204D02*
X4185780Y-11761204D01*
X4185780Y-11761204D02*
X4166732Y-11751680D01*
X4166732Y-11751680D02*
X4157208Y-11742156D01*
X4157208Y-11742156D02*
X4147684Y-11723108D01*
X4147684Y-11723108D02*
X4138161Y-11685013D01*
X4138161Y-11685013D02*
X4138161Y-11637394D01*
X4138161Y-11637394D02*
X4147684Y-11599299D01*
X4147684Y-11599299D02*
X4157208Y-11580251D01*
X4157208Y-11580251D02*
X4166732Y-11570728D01*
X4166732Y-11570728D02*
X4185780Y-11561204D01*
X4376256Y-11561204D02*
X4395304Y-11561204D01*
X4395304Y-11561204D02*
X4414351Y-11570728D01*
X4414351Y-11570728D02*
X4423875Y-11580251D01*
X4423875Y-11580251D02*
X4433399Y-11599299D01*
X4433399Y-11599299D02*
X4442923Y-11637394D01*
X4442923Y-11637394D02*
X4442923Y-11685013D01*
X4442923Y-11685013D02*
X4433399Y-11723108D01*
X4433399Y-11723108D02*
X4423875Y-11742156D01*
X4423875Y-11742156D02*
X4414351Y-11751680D01*
X4414351Y-11751680D02*
X4395304Y-11761204D01*
X4395304Y-11761204D02*
X4376256Y-11761204D01*
X4376256Y-11761204D02*
X4357208Y-11751680D01*
X4357208Y-11751680D02*
X4347685Y-11742156D01*
X4347685Y-11742156D02*
X4338161Y-11723108D01*
X4338161Y-11723108D02*
X4328637Y-11685013D01*
X4328637Y-11685013D02*
X4328637Y-11637394D01*
X4328637Y-11637394D02*
X4338161Y-11599299D01*
X4338161Y-11599299D02*
X4347685Y-11580251D01*
X4347685Y-11580251D02*
X4357208Y-11570728D01*
X4357208Y-11570728D02*
X4376256Y-11561204D01*
X4528637Y-11761204D02*
X4528637Y-11627870D01*
X4528637Y-11646918D02*
X4538161Y-11637394D01*
X4538161Y-11637394D02*
X4557208Y-11627870D01*
X4557208Y-11627870D02*
X4585780Y-11627870D01*
X4585780Y-11627870D02*
X4604827Y-11637394D01*
X4604827Y-11637394D02*
X4614351Y-11656442D01*
X4614351Y-11656442D02*
X4614351Y-11761204D01*
X4614351Y-11656442D02*
X4623875Y-11637394D01*
X4623875Y-11637394D02*
X4642923Y-11627870D01*
X4642923Y-11627870D02*
X4671494Y-11627870D01*
X4671494Y-11627870D02*
X4690542Y-11637394D01*
X4690542Y-11637394D02*
X4700066Y-11656442D01*
X4700066Y-11656442D02*
X4700066Y-11761204D01*
X4795304Y-11761204D02*
X4795304Y-11627870D01*
X4795304Y-11646918D02*
X4804827Y-11637394D01*
X4804827Y-11637394D02*
X4823875Y-11627870D01*
X4823875Y-11627870D02*
X4852447Y-11627870D01*
X4852447Y-11627870D02*
X4871494Y-11637394D01*
X4871494Y-11637394D02*
X4881018Y-11656442D01*
X4881018Y-11656442D02*
X4881018Y-11761204D01*
X4881018Y-11656442D02*
X4890542Y-11637394D01*
X4890542Y-11637394D02*
X4909589Y-11627870D01*
X4909589Y-11627870D02*
X4938161Y-11627870D01*
X4938161Y-11627870D02*
X4957208Y-11637394D01*
X4957208Y-11637394D02*
X4966732Y-11656442D01*
X4966732Y-11656442D02*
X4966732Y-11761204D01*
X5357208Y-11551680D02*
X5185780Y-11808823D01*
X5614351Y-11561204D02*
X5633399Y-11561204D01*
X5633399Y-11561204D02*
X5652447Y-11570728D01*
X5652447Y-11570728D02*
X5661970Y-11580251D01*
X5661970Y-11580251D02*
X5671494Y-11599299D01*
X5671494Y-11599299D02*
X5681018Y-11637394D01*
X5681018Y-11637394D02*
X5681018Y-11685013D01*
X5681018Y-11685013D02*
X5671494Y-11723108D01*
X5671494Y-11723108D02*
X5661970Y-11742156D01*
X5661970Y-11742156D02*
X5652447Y-11751680D01*
X5652447Y-11751680D02*
X5633399Y-11761204D01*
X5633399Y-11761204D02*
X5614351Y-11761204D01*
X5614351Y-11761204D02*
X5595304Y-11751680D01*
X5595304Y-11751680D02*
X5585780Y-11742156D01*
X5585780Y-11742156D02*
X5576256Y-11723108D01*
X5576256Y-11723108D02*
X5566732Y-11685013D01*
X5566732Y-11685013D02*
X5566732Y-11637394D01*
X5566732Y-11637394D02*
X5576256Y-11599299D01*
X5576256Y-11599299D02*
X5585780Y-11580251D01*
X5585780Y-11580251D02*
X5595304Y-11570728D01*
X5595304Y-11570728D02*
X5614351Y-11561204D01*
X5766732Y-11742156D02*
X5776256Y-11751680D01*
X5776256Y-11751680D02*
X5766732Y-11761204D01*
X5766732Y-11761204D02*
X5757208Y-11751680D01*
X5757208Y-11751680D02*
X5766732Y-11742156D01*
X5766732Y-11742156D02*
X5766732Y-11761204D01*
X5966732Y-11761204D02*
X5852447Y-11761204D01*
X5909589Y-11761204D02*
X5909589Y-11561204D01*
X5909589Y-11561204D02*
X5890542Y-11589775D01*
X5890542Y-11589775D02*
X5871494Y-11608823D01*
X5871494Y-11608823D02*
X5852447Y-11618347D01*
X6138161Y-11627870D02*
X6138161Y-11761204D01*
X6090542Y-11551680D02*
X6042923Y-11694537D01*
X6042923Y-11694537D02*
X6166732Y-11694537D01*
X6252447Y-11761204D02*
X6290542Y-11761204D01*
X6290542Y-11761204D02*
X6309589Y-11751680D01*
X6309589Y-11751680D02*
X6319113Y-11742156D01*
X6319113Y-11742156D02*
X6338161Y-11713585D01*
X6338161Y-11713585D02*
X6347685Y-11675489D01*
X6347685Y-11675489D02*
X6347685Y-11599299D01*
X6347685Y-11599299D02*
X6338161Y-11580251D01*
X6338161Y-11580251D02*
X6328637Y-11570728D01*
X6328637Y-11570728D02*
X6309589Y-11561204D01*
X6309589Y-11561204D02*
X6271494Y-11561204D01*
X6271494Y-11561204D02*
X6252447Y-11570728D01*
X6252447Y-11570728D02*
X6242923Y-11580251D01*
X6242923Y-11580251D02*
X6233399Y-11599299D01*
X6233399Y-11599299D02*
X6233399Y-11646918D01*
X6233399Y-11646918D02*
X6242923Y-11665966D01*
X6242923Y-11665966D02*
X6252447Y-11675489D01*
X6252447Y-11675489D02*
X6271494Y-11685013D01*
X6271494Y-11685013D02*
X6309589Y-11685013D01*
X6309589Y-11685013D02*
X6328637Y-11675489D01*
X6328637Y-11675489D02*
X6338161Y-11665966D01*
X6338161Y-11665966D02*
X6347685Y-11646918D01*
X6519113Y-11561204D02*
X6481018Y-11561204D01*
X6481018Y-11561204D02*
X6461970Y-11570728D01*
X6461970Y-11570728D02*
X6452447Y-11580251D01*
X6452447Y-11580251D02*
X6433399Y-11608823D01*
X6433399Y-11608823D02*
X6423875Y-11646918D01*
X6423875Y-11646918D02*
X6423875Y-11723108D01*
X6423875Y-11723108D02*
X6433399Y-11742156D01*
X6433399Y-11742156D02*
X6442923Y-11751680D01*
X6442923Y-11751680D02*
X6461970Y-11761204D01*
X6461970Y-11761204D02*
X6500066Y-11761204D01*
X6500066Y-11761204D02*
X6519113Y-11751680D01*
X6519113Y-11751680D02*
X6528637Y-11742156D01*
X6528637Y-11742156D02*
X6538161Y-11723108D01*
X6538161Y-11723108D02*
X6538161Y-11675489D01*
X6538161Y-11675489D02*
X6528637Y-11656442D01*
X6528637Y-11656442D02*
X6519113Y-11646918D01*
X6519113Y-11646918D02*
X6500066Y-11637394D01*
X6500066Y-11637394D02*
X6461970Y-11637394D01*
X6461970Y-11637394D02*
X6442923Y-11646918D01*
X6442923Y-11646918D02*
X6433399Y-11656442D01*
X6433399Y-11656442D02*
X6423875Y-11675489D01*
X6614351Y-11561204D02*
X6614351Y-11599299D01*
X6690542Y-11561204D02*
X6690542Y-11599299D01*
X6985780Y-11837394D02*
X6976256Y-11827870D01*
X6976256Y-11827870D02*
X6957209Y-11799299D01*
X6957209Y-11799299D02*
X6947685Y-11780251D01*
X6947685Y-11780251D02*
X6938161Y-11751680D01*
X6938161Y-11751680D02*
X6928637Y-11704061D01*
X6928637Y-11704061D02*
X6928637Y-11665966D01*
X6928637Y-11665966D02*
X6938161Y-11618347D01*
X6938161Y-11618347D02*
X6947685Y-11589775D01*
X6947685Y-11589775D02*
X6957209Y-11570728D01*
X6957209Y-11570728D02*
X6976256Y-11542156D01*
X6976256Y-11542156D02*
X6985780Y-11532632D01*
X7166732Y-11761204D02*
X7052447Y-11761204D01*
X7109589Y-11761204D02*
X7109589Y-11561204D01*
X7109589Y-11561204D02*
X7090542Y-11589775D01*
X7090542Y-11589775D02*
X7071494Y-11608823D01*
X7071494Y-11608823D02*
X7052447Y-11618347D01*
X7404828Y-11761204D02*
X7404828Y-11561204D01*
X7490542Y-11761204D02*
X7490542Y-11656442D01*
X7490542Y-11656442D02*
X7481018Y-11637394D01*
X7481018Y-11637394D02*
X7461971Y-11627870D01*
X7461971Y-11627870D02*
X7433399Y-11627870D01*
X7433399Y-11627870D02*
X7414351Y-11637394D01*
X7414351Y-11637394D02*
X7404828Y-11646918D01*
X7614351Y-11761204D02*
X7595304Y-11751680D01*
X7595304Y-11751680D02*
X7585780Y-11742156D01*
X7585780Y-11742156D02*
X7576256Y-11723108D01*
X7576256Y-11723108D02*
X7576256Y-11665966D01*
X7576256Y-11665966D02*
X7585780Y-11646918D01*
X7585780Y-11646918D02*
X7595304Y-11637394D01*
X7595304Y-11637394D02*
X7614351Y-11627870D01*
X7614351Y-11627870D02*
X7642923Y-11627870D01*
X7642923Y-11627870D02*
X7661971Y-11637394D01*
X7661971Y-11637394D02*
X7671494Y-11646918D01*
X7671494Y-11646918D02*
X7681018Y-11665966D01*
X7681018Y-11665966D02*
X7681018Y-11723108D01*
X7681018Y-11723108D02*
X7671494Y-11742156D01*
X7671494Y-11742156D02*
X7661971Y-11751680D01*
X7661971Y-11751680D02*
X7642923Y-11761204D01*
X7642923Y-11761204D02*
X7614351Y-11761204D01*
X7795304Y-11761204D02*
X7776256Y-11751680D01*
X7776256Y-11751680D02*
X7766732Y-11732632D01*
X7766732Y-11732632D02*
X7766732Y-11561204D01*
X7947685Y-11751680D02*
X7928637Y-11761204D01*
X7928637Y-11761204D02*
X7890542Y-11761204D01*
X7890542Y-11761204D02*
X7871494Y-11751680D01*
X7871494Y-11751680D02*
X7861971Y-11732632D01*
X7861971Y-11732632D02*
X7861971Y-11656442D01*
X7861971Y-11656442D02*
X7871494Y-11637394D01*
X7871494Y-11637394D02*
X7890542Y-11627870D01*
X7890542Y-11627870D02*
X7928637Y-11627870D01*
X7928637Y-11627870D02*
X7947685Y-11637394D01*
X7947685Y-11637394D02*
X7957209Y-11656442D01*
X7957209Y-11656442D02*
X7957209Y-11675489D01*
X7957209Y-11675489D02*
X7861971Y-11694537D01*
X8023875Y-11837394D02*
X8033399Y-11827870D01*
X8033399Y-11827870D02*
X8052447Y-11799299D01*
X8052447Y-11799299D02*
X8061971Y-11780251D01*
X8061971Y-11780251D02*
X8071494Y-11751680D01*
X8071494Y-11751680D02*
X8081018Y-11704061D01*
X8081018Y-11704061D02*
X8081018Y-11665966D01*
X8081018Y-11665966D02*
X8071494Y-11618347D01*
X8071494Y-11618347D02*
X8061971Y-11589775D01*
X8061971Y-11589775D02*
X8052447Y-11570728D01*
X8052447Y-11570728D02*
X8033399Y-11542156D01*
X8033399Y-11542156D02*
X8023875Y-11532632D01*
X8385780Y-11837394D02*
X8376256Y-11827870D01*
X8376256Y-11827870D02*
X8357209Y-11799299D01*
X8357209Y-11799299D02*
X8347685Y-11780251D01*
X8347685Y-11780251D02*
X8338161Y-11751680D01*
X8338161Y-11751680D02*
X8328637Y-11704061D01*
X8328637Y-11704061D02*
X8328637Y-11665966D01*
X8328637Y-11665966D02*
X8338161Y-11618347D01*
X8338161Y-11618347D02*
X8347685Y-11589775D01*
X8347685Y-11589775D02*
X8357209Y-11570728D01*
X8357209Y-11570728D02*
X8376256Y-11542156D01*
X8376256Y-11542156D02*
X8385780Y-11532632D01*
X8461971Y-11627870D02*
X8461971Y-11761204D01*
X8461971Y-11646918D02*
X8471494Y-11637394D01*
X8471494Y-11637394D02*
X8490542Y-11627870D01*
X8490542Y-11627870D02*
X8519114Y-11627870D01*
X8519114Y-11627870D02*
X8538161Y-11637394D01*
X8538161Y-11637394D02*
X8547685Y-11656442D01*
X8547685Y-11656442D02*
X8547685Y-11761204D01*
X8671494Y-11761204D02*
X8652447Y-11751680D01*
X8652447Y-11751680D02*
X8642923Y-11742156D01*
X8642923Y-11742156D02*
X8633399Y-11723108D01*
X8633399Y-11723108D02*
X8633399Y-11665966D01*
X8633399Y-11665966D02*
X8642923Y-11646918D01*
X8642923Y-11646918D02*
X8652447Y-11637394D01*
X8652447Y-11637394D02*
X8671494Y-11627870D01*
X8671494Y-11627870D02*
X8700066Y-11627870D01*
X8700066Y-11627870D02*
X8719114Y-11637394D01*
X8719114Y-11637394D02*
X8728637Y-11646918D01*
X8728637Y-11646918D02*
X8738161Y-11665966D01*
X8738161Y-11665966D02*
X8738161Y-11723108D01*
X8738161Y-11723108D02*
X8728637Y-11742156D01*
X8728637Y-11742156D02*
X8719114Y-11751680D01*
X8719114Y-11751680D02*
X8700066Y-11761204D01*
X8700066Y-11761204D02*
X8671494Y-11761204D01*
X8795304Y-11627870D02*
X8871494Y-11627870D01*
X8823875Y-11561204D02*
X8823875Y-11732632D01*
X8823875Y-11732632D02*
X8833399Y-11751680D01*
X8833399Y-11751680D02*
X8852447Y-11761204D01*
X8852447Y-11761204D02*
X8871494Y-11761204D01*
X9090542Y-11627870D02*
X9090542Y-11827870D01*
X9090542Y-11637394D02*
X9109590Y-11627870D01*
X9109590Y-11627870D02*
X9147685Y-11627870D01*
X9147685Y-11627870D02*
X9166733Y-11637394D01*
X9166733Y-11637394D02*
X9176256Y-11646918D01*
X9176256Y-11646918D02*
X9185780Y-11665966D01*
X9185780Y-11665966D02*
X9185780Y-11723108D01*
X9185780Y-11723108D02*
X9176256Y-11742156D01*
X9176256Y-11742156D02*
X9166733Y-11751680D01*
X9166733Y-11751680D02*
X9147685Y-11761204D01*
X9147685Y-11761204D02*
X9109590Y-11761204D01*
X9109590Y-11761204D02*
X9090542Y-11751680D01*
X9300066Y-11761204D02*
X9281018Y-11751680D01*
X9281018Y-11751680D02*
X9271495Y-11732632D01*
X9271495Y-11732632D02*
X9271495Y-11561204D01*
X9461971Y-11761204D02*
X9461971Y-11656442D01*
X9461971Y-11656442D02*
X9452447Y-11637394D01*
X9452447Y-11637394D02*
X9433399Y-11627870D01*
X9433399Y-11627870D02*
X9395304Y-11627870D01*
X9395304Y-11627870D02*
X9376256Y-11637394D01*
X9461971Y-11751680D02*
X9442923Y-11761204D01*
X9442923Y-11761204D02*
X9395304Y-11761204D01*
X9395304Y-11761204D02*
X9376256Y-11751680D01*
X9376256Y-11751680D02*
X9366733Y-11732632D01*
X9366733Y-11732632D02*
X9366733Y-11713585D01*
X9366733Y-11713585D02*
X9376256Y-11694537D01*
X9376256Y-11694537D02*
X9395304Y-11685013D01*
X9395304Y-11685013D02*
X9442923Y-11685013D01*
X9442923Y-11685013D02*
X9461971Y-11675489D01*
X9528637Y-11627870D02*
X9604828Y-11627870D01*
X9557209Y-11561204D02*
X9557209Y-11732632D01*
X9557209Y-11732632D02*
X9566733Y-11751680D01*
X9566733Y-11751680D02*
X9585780Y-11761204D01*
X9585780Y-11761204D02*
X9604828Y-11761204D01*
X9747685Y-11751680D02*
X9728637Y-11761204D01*
X9728637Y-11761204D02*
X9690542Y-11761204D01*
X9690542Y-11761204D02*
X9671495Y-11751680D01*
X9671495Y-11751680D02*
X9661971Y-11732632D01*
X9661971Y-11732632D02*
X9661971Y-11656442D01*
X9661971Y-11656442D02*
X9671495Y-11637394D01*
X9671495Y-11637394D02*
X9690542Y-11627870D01*
X9690542Y-11627870D02*
X9728637Y-11627870D01*
X9728637Y-11627870D02*
X9747685Y-11637394D01*
X9747685Y-11637394D02*
X9757209Y-11656442D01*
X9757209Y-11656442D02*
X9757209Y-11675489D01*
X9757209Y-11675489D02*
X9661971Y-11694537D01*
X9928637Y-11761204D02*
X9928637Y-11561204D01*
X9928637Y-11751680D02*
X9909590Y-11761204D01*
X9909590Y-11761204D02*
X9871495Y-11761204D01*
X9871495Y-11761204D02*
X9852447Y-11751680D01*
X9852447Y-11751680D02*
X9842923Y-11742156D01*
X9842923Y-11742156D02*
X9833399Y-11723108D01*
X9833399Y-11723108D02*
X9833399Y-11665966D01*
X9833399Y-11665966D02*
X9842923Y-11646918D01*
X9842923Y-11646918D02*
X9852447Y-11637394D01*
X9852447Y-11637394D02*
X9871495Y-11627870D01*
X9871495Y-11627870D02*
X9909590Y-11627870D01*
X9909590Y-11627870D02*
X9928637Y-11637394D01*
X10004828Y-11837394D02*
X10014352Y-11827870D01*
X10014352Y-11827870D02*
X10033399Y-11799299D01*
X10033399Y-11799299D02*
X10042923Y-11780251D01*
X10042923Y-11780251D02*
X10052447Y-11751680D01*
X10052447Y-11751680D02*
X10061971Y-11704061D01*
X10061971Y-11704061D02*
X10061971Y-11665966D01*
X10061971Y-11665966D02*
X10052447Y-11618347D01*
X10052447Y-11618347D02*
X10042923Y-11589775D01*
X10042923Y-11589775D02*
X10033399Y-11570728D01*
X10033399Y-11570728D02*
X10014352Y-11542156D01*
X10014352Y-11542156D02*
X10004828Y-11532632D01*
M02*
