%TF.GenerationSoftware,KiCad,Pcbnew,7.0.2*%
%TF.CreationDate,2023-05-08T22:38:25+02:00*%
%TF.ProjectId,verasity_PCB,76657261-7369-4747-995f-5043422e6b69,rev?*%
%TF.SameCoordinates,Original*%
%TF.FileFunction,Legend,Top*%
%TF.FilePolarity,Positive*%
%FSLAX46Y46*%
G04 Gerber Fmt 4.6, Leading zero omitted, Abs format (unit mm)*
G04 Created by KiCad (PCBNEW 7.0.2) date 2023-05-08 22:38:25*
%MOMM*%
%LPD*%
G01*
G04 APERTURE LIST*
%ADD10C,0.100000*%
%ADD11C,0.150000*%
G04 APERTURE END LIST*
D10*
%TO.C,REF\u002A\u002A*%
X40160416Y-85692619D02*
X39827083Y-85216428D01*
X39588988Y-85692619D02*
X39588988Y-84692619D01*
X39588988Y-84692619D02*
X39969940Y-84692619D01*
X39969940Y-84692619D02*
X40065178Y-84740238D01*
X40065178Y-84740238D02*
X40112797Y-84787857D01*
X40112797Y-84787857D02*
X40160416Y-84883095D01*
X40160416Y-84883095D02*
X40160416Y-85025952D01*
X40160416Y-85025952D02*
X40112797Y-85121190D01*
X40112797Y-85121190D02*
X40065178Y-85168809D01*
X40065178Y-85168809D02*
X39969940Y-85216428D01*
X39969940Y-85216428D02*
X39588988Y-85216428D01*
X40588988Y-85168809D02*
X40922321Y-85168809D01*
X41065178Y-85692619D02*
X40588988Y-85692619D01*
X40588988Y-85692619D02*
X40588988Y-84692619D01*
X40588988Y-84692619D02*
X41065178Y-84692619D01*
X41827083Y-85168809D02*
X41493750Y-85168809D01*
X41493750Y-85692619D02*
X41493750Y-84692619D01*
X41493750Y-84692619D02*
X41969940Y-84692619D01*
X42493750Y-84692619D02*
X42493750Y-84930714D01*
X42255655Y-84835476D02*
X42493750Y-84930714D01*
X42493750Y-84930714D02*
X42731845Y-84835476D01*
X42350893Y-85121190D02*
X42493750Y-84930714D01*
X42493750Y-84930714D02*
X42636607Y-85121190D01*
X43255655Y-84692619D02*
X43255655Y-84930714D01*
X43017560Y-84835476D02*
X43255655Y-84930714D01*
X43255655Y-84930714D02*
X43493750Y-84835476D01*
X43112798Y-85121190D02*
X43255655Y-84930714D01*
X43255655Y-84930714D02*
X43398512Y-85121190D01*
D11*
X34446130Y-102895000D02*
X34541368Y-102942619D01*
X34541368Y-102942619D02*
X34731844Y-102942619D01*
X34731844Y-102942619D02*
X34827082Y-102895000D01*
X34827082Y-102895000D02*
X34874701Y-102799761D01*
X34874701Y-102799761D02*
X34874701Y-102752142D01*
X34874701Y-102752142D02*
X34827082Y-102656904D01*
X34827082Y-102656904D02*
X34731844Y-102609285D01*
X34731844Y-102609285D02*
X34588987Y-102609285D01*
X34588987Y-102609285D02*
X34493749Y-102561666D01*
X34493749Y-102561666D02*
X34446130Y-102466428D01*
X34446130Y-102466428D02*
X34446130Y-102418809D01*
X34446130Y-102418809D02*
X34493749Y-102323571D01*
X34493749Y-102323571D02*
X34588987Y-102275952D01*
X34588987Y-102275952D02*
X34731844Y-102275952D01*
X34731844Y-102275952D02*
X34827082Y-102323571D01*
X35446130Y-102942619D02*
X35350892Y-102895000D01*
X35350892Y-102895000D02*
X35303273Y-102847380D01*
X35303273Y-102847380D02*
X35255654Y-102752142D01*
X35255654Y-102752142D02*
X35255654Y-102466428D01*
X35255654Y-102466428D02*
X35303273Y-102371190D01*
X35303273Y-102371190D02*
X35350892Y-102323571D01*
X35350892Y-102323571D02*
X35446130Y-102275952D01*
X35446130Y-102275952D02*
X35588987Y-102275952D01*
X35588987Y-102275952D02*
X35684225Y-102323571D01*
X35684225Y-102323571D02*
X35731844Y-102371190D01*
X35731844Y-102371190D02*
X35779463Y-102466428D01*
X35779463Y-102466428D02*
X35779463Y-102752142D01*
X35779463Y-102752142D02*
X35731844Y-102847380D01*
X35731844Y-102847380D02*
X35684225Y-102895000D01*
X35684225Y-102895000D02*
X35588987Y-102942619D01*
X35588987Y-102942619D02*
X35446130Y-102942619D01*
X36636606Y-102895000D02*
X36541368Y-102942619D01*
X36541368Y-102942619D02*
X36350892Y-102942619D01*
X36350892Y-102942619D02*
X36255654Y-102895000D01*
X36255654Y-102895000D02*
X36208035Y-102847380D01*
X36208035Y-102847380D02*
X36160416Y-102752142D01*
X36160416Y-102752142D02*
X36160416Y-102466428D01*
X36160416Y-102466428D02*
X36208035Y-102371190D01*
X36208035Y-102371190D02*
X36255654Y-102323571D01*
X36255654Y-102323571D02*
X36350892Y-102275952D01*
X36350892Y-102275952D02*
X36541368Y-102275952D01*
X36541368Y-102275952D02*
X36636606Y-102323571D01*
X37065178Y-102942619D02*
X37065178Y-101942619D01*
X37160416Y-102561666D02*
X37446130Y-102942619D01*
X37446130Y-102275952D02*
X37065178Y-102656904D01*
X38255654Y-102895000D02*
X38160416Y-102942619D01*
X38160416Y-102942619D02*
X37969940Y-102942619D01*
X37969940Y-102942619D02*
X37874702Y-102895000D01*
X37874702Y-102895000D02*
X37827083Y-102799761D01*
X37827083Y-102799761D02*
X37827083Y-102418809D01*
X37827083Y-102418809D02*
X37874702Y-102323571D01*
X37874702Y-102323571D02*
X37969940Y-102275952D01*
X37969940Y-102275952D02*
X38160416Y-102275952D01*
X38160416Y-102275952D02*
X38255654Y-102323571D01*
X38255654Y-102323571D02*
X38303273Y-102418809D01*
X38303273Y-102418809D02*
X38303273Y-102514047D01*
X38303273Y-102514047D02*
X37827083Y-102609285D01*
X38588988Y-102275952D02*
X38969940Y-102275952D01*
X38731845Y-101942619D02*
X38731845Y-102799761D01*
X38731845Y-102799761D02*
X38779464Y-102895000D01*
X38779464Y-102895000D02*
X38874702Y-102942619D01*
X38874702Y-102942619D02*
X38969940Y-102942619D01*
X39065179Y-103037857D02*
X39827083Y-103037857D01*
X40065179Y-102942619D02*
X40065179Y-101942619D01*
X40065179Y-101942619D02*
X40398512Y-102656904D01*
X40398512Y-102656904D02*
X40731845Y-101942619D01*
X40731845Y-101942619D02*
X40731845Y-102942619D01*
X41112798Y-101942619D02*
X41779464Y-102942619D01*
X41779464Y-101942619D02*
X41112798Y-102942619D01*
X41922322Y-103037857D02*
X42684226Y-103037857D01*
X42922322Y-102942619D02*
X42922322Y-101942619D01*
X43350893Y-102942619D02*
X43350893Y-102418809D01*
X43350893Y-102418809D02*
X43303274Y-102323571D01*
X43303274Y-102323571D02*
X43208036Y-102275952D01*
X43208036Y-102275952D02*
X43065179Y-102275952D01*
X43065179Y-102275952D02*
X42969941Y-102323571D01*
X42969941Y-102323571D02*
X42922322Y-102371190D01*
X43969941Y-102942619D02*
X43874703Y-102895000D01*
X43874703Y-102895000D02*
X43827084Y-102847380D01*
X43827084Y-102847380D02*
X43779465Y-102752142D01*
X43779465Y-102752142D02*
X43779465Y-102466428D01*
X43779465Y-102466428D02*
X43827084Y-102371190D01*
X43827084Y-102371190D02*
X43874703Y-102323571D01*
X43874703Y-102323571D02*
X43969941Y-102275952D01*
X43969941Y-102275952D02*
X44112798Y-102275952D01*
X44112798Y-102275952D02*
X44208036Y-102323571D01*
X44208036Y-102323571D02*
X44255655Y-102371190D01*
X44255655Y-102371190D02*
X44303274Y-102466428D01*
X44303274Y-102466428D02*
X44303274Y-102752142D01*
X44303274Y-102752142D02*
X44255655Y-102847380D01*
X44255655Y-102847380D02*
X44208036Y-102895000D01*
X44208036Y-102895000D02*
X44112798Y-102942619D01*
X44112798Y-102942619D02*
X43969941Y-102942619D01*
X44588989Y-102275952D02*
X44969941Y-102275952D01*
X44731846Y-101942619D02*
X44731846Y-102799761D01*
X44731846Y-102799761D02*
X44779465Y-102895000D01*
X44779465Y-102895000D02*
X44874703Y-102942619D01*
X44874703Y-102942619D02*
X44969941Y-102942619D01*
X45255656Y-102895000D02*
X45350894Y-102942619D01*
X45350894Y-102942619D02*
X45541370Y-102942619D01*
X45541370Y-102942619D02*
X45636608Y-102895000D01*
X45636608Y-102895000D02*
X45684227Y-102799761D01*
X45684227Y-102799761D02*
X45684227Y-102752142D01*
X45684227Y-102752142D02*
X45636608Y-102656904D01*
X45636608Y-102656904D02*
X45541370Y-102609285D01*
X45541370Y-102609285D02*
X45398513Y-102609285D01*
X45398513Y-102609285D02*
X45303275Y-102561666D01*
X45303275Y-102561666D02*
X45255656Y-102466428D01*
X45255656Y-102466428D02*
X45255656Y-102418809D01*
X45255656Y-102418809D02*
X45303275Y-102323571D01*
X45303275Y-102323571D02*
X45398513Y-102275952D01*
X45398513Y-102275952D02*
X45541370Y-102275952D01*
X45541370Y-102275952D02*
X45636608Y-102323571D01*
X46017561Y-102275952D02*
X46208037Y-102942619D01*
X46208037Y-102942619D02*
X46398513Y-102466428D01*
X46398513Y-102466428D02*
X46588989Y-102942619D01*
X46588989Y-102942619D02*
X46779465Y-102275952D01*
X47588989Y-102942619D02*
X47588989Y-102418809D01*
X47588989Y-102418809D02*
X47541370Y-102323571D01*
X47541370Y-102323571D02*
X47446132Y-102275952D01*
X47446132Y-102275952D02*
X47255656Y-102275952D01*
X47255656Y-102275952D02*
X47160418Y-102323571D01*
X47588989Y-102895000D02*
X47493751Y-102942619D01*
X47493751Y-102942619D02*
X47255656Y-102942619D01*
X47255656Y-102942619D02*
X47160418Y-102895000D01*
X47160418Y-102895000D02*
X47112799Y-102799761D01*
X47112799Y-102799761D02*
X47112799Y-102704523D01*
X47112799Y-102704523D02*
X47160418Y-102609285D01*
X47160418Y-102609285D02*
X47255656Y-102561666D01*
X47255656Y-102561666D02*
X47493751Y-102561666D01*
X47493751Y-102561666D02*
X47588989Y-102514047D01*
X48065180Y-102275952D02*
X48065180Y-103275952D01*
X48065180Y-102323571D02*
X48160418Y-102275952D01*
X48160418Y-102275952D02*
X48350894Y-102275952D01*
X48350894Y-102275952D02*
X48446132Y-102323571D01*
X48446132Y-102323571D02*
X48493751Y-102371190D01*
X48493751Y-102371190D02*
X48541370Y-102466428D01*
X48541370Y-102466428D02*
X48541370Y-102752142D01*
X48541370Y-102752142D02*
X48493751Y-102847380D01*
X48493751Y-102847380D02*
X48446132Y-102895000D01*
X48446132Y-102895000D02*
X48350894Y-102942619D01*
X48350894Y-102942619D02*
X48160418Y-102942619D01*
X48160418Y-102942619D02*
X48065180Y-102895000D01*
%TD*%
M02*
